<svg width="64" height="64" viewBox="0 0 64 64" fill="none" xmlns="http://www.w3.org/2000/svg">
<path d="M20 45C21.1046 45 22 44.1046 22 43C22 41.8954 21.1046 41 20 41C18.8954 41 18 41.8954 18 43C18 44.1046 18.8954 45 20 45Z" fill="#808285"/>
<path d="M29 30V34C29 35.6562 24.97 37 20 37C15.03 37 11 35.6562 11 34V30C11 31.6562 15.03 33 20 33C24.97 33 29 31.6562 29 30Z" fill="#FFBA0D"/>
<path d="M20 33C24.9706 33 29 31.6569 29 30C29 28.3431 24.9706 27 20 27C15.0294 27 11 28.3431 11 30C11 31.6569 15.0294 33 20 33Z" fill="#FFBA0D"/>
<path d="M29 34V43L24 48V53C24 54.0609 23.5786 55.0783 22.8284 55.8284C22.0783 56.5786 21.0609 57 20 57C18.9391 57 17.9217 56.5786 17.1716 55.8284C16.4214 55.0783 16 54.0609 16 53V48L11 43V34C11 35.6562 15.03 37 20 37C24.97 37 29 35.6562 29 34ZM22 43C22 42.6044 21.8827 42.2178 21.6629 41.8889C21.4432 41.56 21.1308 41.3036 20.7654 41.1522C20.3999 41.0009 19.9978 40.9613 19.6098 41.0384C19.2219 41.1156 18.8655 41.3061 18.5858 41.5858C18.3061 41.8655 18.1156 42.2219 18.0384 42.6098C17.9613 42.9978 18.0009 43.3999 18.1522 43.7654C18.3036 44.1308 18.56 44.4432 18.8889 44.6629C19.2178 44.8827 19.6044 45 20 45C20.5304 45 21.0391 44.7893 21.4142 44.4142C21.7893 44.0391 22 43.5304 22 43ZM21 53C21 52.8022 20.9414 52.6089 20.8315 52.4444C20.7216 52.28 20.5654 52.1518 20.3827 52.0761C20.2 52.0004 19.9989 51.9806 19.8049 52.0192C19.6109 52.0578 19.4327 52.153 19.2929 52.2929C19.153 52.4327 19.0578 52.6109 19.0192 52.8049C18.9806 52.9989 19.0004 53.2 19.0761 53.3827C19.1518 53.5654 19.28 53.7216 19.4444 53.8315C19.6089 53.9414 19.8022 54 20 54C20.2652 54 20.5196 53.8946 20.7071 53.7071C20.8946 53.5196 21 53.2652 21 53Z" fill="#FFD44C"/>
<path d="M29 30V34C29 35.6562 24.97 37 20 37C15.03 37 11 35.6562 11 34V30C11 31.6562 15.03 33 20 33C24.97 33 29 31.6562 29 30Z" fill="#FFBA0D"/>
<path d="M20 33C24.9706 33 29 31.6569 29 30C29 28.3431 24.9706 27 20 27C15.0294 27 11 28.3431 11 30C11 31.6569 15.0294 33 20 33Z" fill="#FFBA0D"/>
<path d="M21 53C21 53.1978 20.9414 53.3911 20.8315 53.5556C20.7216 53.72 20.5654 53.8482 20.3827 53.9239C20.2 53.9996 19.9989 54.0194 19.8049 53.9808C19.6109 53.9422 19.4327 53.847 19.2929 53.7071C19.153 53.5673 19.0578 53.3891 19.0192 53.1951C18.9806 53.0011 19.0004 52.8 19.0761 52.6173C19.1518 52.4346 19.28 52.2784 19.4444 52.1685C19.6089 52.0586 19.8022 52 20 52C20.2652 52 20.5196 52.1054 20.7071 52.2929C20.8946 52.4804 21 52.7348 21 53V48L16 43V36.6875C13.0363 36.1975 11 35.1775 11 34V43L16 48V53C16 53.7536 16.2129 54.4919 16.6141 55.1298C17.0154 55.7677 17.5887 56.2792 18.2679 56.6056C18.9472 56.9319 19.7049 57.0597 20.4536 56.9742C21.2024 56.8887 21.9117 56.5935 22.5 56.1225C22.0315 55.7481 21.6534 55.273 21.3937 54.7324C21.134 54.1918 20.9995 53.5997 21 53V53Z" fill="#FFBA0D"/>
<path d="M35 21.4225V57C35 58.0609 34.5786 59.0783 33.8284 59.8284C33.0783 60.5786 32.0609 61 31 61H9C7.93913 61 6.92172 60.5786 6.17157 59.8284C5.42143 59.0783 5 58.0609 5 57V30.3137C4.99999 29.263 5.20697 28.2226 5.60912 27.2519C6.01126 26.2811 6.6007 25.3991 7.34375 24.6562L18.9525 13.0487L19 13H31L33.6562 16.985C34.5326 18.299 35.0002 19.8431 35 21.4225V21.4225ZM29 43V30C29 28.3438 24.97 27 20 27C15.03 27 11 28.3438 11 30V43L16 48V53C16 54.0609 16.4214 55.0783 17.1716 55.8284C17.9217 56.5786 18.9391 57 20 57C21.0609 57 22.0783 56.5786 22.8284 55.8284C23.5786 55.0783 24 54.0609 24 53V48L29 43Z" fill="#3896D2"/>
<path d="M13 58C11.9391 58 10.9217 57.5786 10.1716 56.8284C9.42143 56.0783 9 55.0609 9 54V27.3137C8.99999 26.263 9.20697 25.2226 9.60912 24.2519C10.0113 23.2811 10.6007 22.3991 11.3438 21.6562L20.0012 13H19L18.9525 13.0487L7.34375 24.6562C6.6007 25.3991 6.01126 26.2811 5.60912 27.2519C5.20697 28.2226 4.99999 29.263 5 30.3137V57C5 58.0609 5.42143 59.0783 6.17157 59.8284C6.92172 60.5786 7.93913 61 9 61H31C31.8868 60.9999 32.7485 60.7052 33.4497 60.1622C34.1509 59.6192 34.6518 58.8586 34.8737 58H13Z" fill="#0E7DDE"/>
<path d="M31 9V13H19.0955L19.0484 13.0487L19 13V9H19.0955H31Z" fill="#808285"/>
<path d="M27 9H19V5C19 4.46957 19.2107 3.96086 19.5858 3.58579C19.9609 3.21071 20.4696 3 21 3H29C29.5304 3 30.0391 3.21071 30.4142 3.58579C30.7893 3.96086 31 4.46957 31 5V9H27Z" fill="#808285"/>
<path d="M22 9V13H19.095L19.0487 13.0487L19 13V9H22Z" fill="#414042"/>
<path d="M24 3C23.4696 3 22.9609 3.21071 22.5858 3.58579C22.2107 3.96086 22 4.46957 22 5V9H19V5C19 4.46957 19.2107 3.96086 19.5858 3.58579C19.9609 3.21071 20.4696 3 21 3H24Z" fill="#414042"/>
<path d="M22.095 13L22.0487 13.0487L22 13H22.095Z" fill="#414042"/>
<path d="M20 54C20.5523 54 21 53.5523 21 53C21 52.4477 20.5523 52 20 52C19.4477 52 19 52.4477 19 53C19 53.5523 19.4477 54 20 54Z" fill="#062D42"/>
<path d="M34.4883 16.4304L32 12.6974V5C31.9991 4.20462 31.6828 3.44208 31.1203 2.87967C30.5579 2.31725 29.7954 2.00089 29 2H21C20.2046 2.00089 19.4421 2.31725 18.8797 2.87967C18.3173 3.44208 18.0009 4.20462 18 5L17.9993 12.5931L6.63678 23.9491C5.79828 24.783 5.13349 25.7748 4.68089 26.8673C4.22829 27.9598 3.99687 29.1312 4.00003 30.3137V57C4.00152 58.3256 4.52878 59.5965 5.46614 60.5339C6.4035 61.4712 7.6744 61.9985 9.00003 62H31C32.3256 61.9985 33.5965 61.4712 34.5339 60.5339C35.4713 59.5965 35.9985 58.3256 36 57V21.4225C36.0018 19.6454 35.4756 17.9079 34.4883 16.4304ZM20 10H30V12H20V10ZM20 5C20.0003 4.73487 20.1058 4.48069 20.2932 4.29322C20.4807 4.10575 20.7349 4.0003 21 4H29C29.2651 4.0003 29.5193 4.10575 29.7068 4.29322C29.8943 4.48069 29.9997 4.73487 30 5V8H28V6H26V8H24V6H22V8H20V5ZM34 57C33.9991 57.7954 33.6828 58.5579 33.1203 59.1203C32.5579 59.6828 31.7954 59.9991 31 60H9.00003C8.20465 59.9991 7.44211 59.6828 6.8797 59.1203C6.31728 58.5579 6.00092 57.7954 6.00003 57V30.3137C5.99764 29.3941 6.17765 28.483 6.52966 27.6334C6.88167 26.7837 7.39868 26.0123 8.05078 25.3638L19.4155 14H30.4648L32.825 17.5399C33.5927 18.6891 34.0016 20.0405 34 21.4225V57Z" fill="#062D42"/>
<path d="M26.68 26.9303C24.88 26.3303 22.5081 26 20 26C17.4919 26 15.1195 26.3304 13.32 26.9303C10.576 27.845 10 29.1045 10 30V43C10 43.1313 10.0259 43.2614 10.0761 43.3827C10.1264 43.504 10.2 43.6143 10.2929 43.7071L15 48.4142V53C15 54.3261 15.5268 55.5979 16.4645 56.5355C17.4021 57.4732 18.6739 58 20 58C21.3261 58 22.5979 57.4732 23.5355 56.5355C24.4732 55.5979 25 54.3261 25 53V48.4142L29.7071 43.7071C29.8 43.6143 29.8736 43.504 29.9239 43.3827C29.9741 43.2614 30 43.1313 30 43V30C30 29.1045 29.424 27.845 26.68 26.9303V26.9303ZM23.2925 47.2928C23.1051 47.4804 22.9999 47.7348 23 48V53C23 53.7956 22.6839 54.5587 22.1213 55.1213C21.5587 55.6839 20.7956 56 20 56C19.2044 56 18.4413 55.6839 17.8787 55.1213C17.3161 54.5587 17 53.7956 17 53V48C17 47.8687 16.9741 47.7386 16.9239 47.6173C16.8736 47.496 16.8 47.3857 16.7071 47.2929L12 42.5858V36.5261C12.4257 36.7403 12.867 36.922 13.32 37.0698C15.12 37.6698 17.4919 38 20 38C22.5081 38 24.8805 37.6696 26.68 37.0698C27.133 36.922 27.5743 36.7403 28 36.5261V42.5858L23.2925 47.2928ZM26.0471 35.1722C24.4466 35.7061 22.299 36 20 36C17.701 36 15.5534 35.7061 13.9525 35.1724C12.3395 34.6346 12 34.0859 12 34V32.5261C12.4257 32.7403 12.867 32.922 13.32 33.0698C15.12 33.6698 17.4919 34 20 34C22.5081 34 24.8805 33.6696 26.68 33.0698C27.133 32.922 27.5743 32.7403 28 32.5261V34C28 34.0859 27.6605 34.6346 26.0475 35.1724L26.0471 35.1722ZM26.0471 31.1723C24.4466 31.7061 22.299 32 20 32C17.701 32 15.5534 31.7061 13.9525 31.1724C12.3395 30.6346 12 30.0859 12 30C12 29.9141 12.3395 29.3654 13.9525 28.8276C15.5534 28.2939 17.701 28 20 28C22.299 28 24.4466 28.2939 26.0475 28.8276C27.66 29.3651 28 29.9141 28 30C28 30.0859 27.6605 30.6346 26.0475 31.1724L26.0471 31.1723Z" fill="#062D42"/>
<path d="M20 40C19.4067 40 18.8266 40.1759 18.3333 40.5056C17.8399 40.8352 17.4554 41.3038 17.2284 41.852C17.0013 42.4001 16.9419 43.0033 17.0576 43.5853C17.1734 44.1672 17.4591 44.7018 17.8787 45.1213C18.2982 45.5409 18.8328 45.8266 19.4147 45.9424C19.9967 46.0581 20.5999 45.9987 21.148 45.7717C21.6962 45.5446 22.1648 45.1601 22.4944 44.6667C22.824 44.1734 23 43.5934 23 43C22.9991 42.2046 22.6827 41.4421 22.1203 40.8797C21.5579 40.3173 20.7954 40.0009 20 40V40ZM20 44C19.8022 44 19.6089 43.9414 19.4444 43.8315C19.28 43.7216 19.1518 43.5654 19.0761 43.3827C19.0004 43.2 18.9806 42.9989 19.0192 42.8049C19.0578 42.6109 19.153 42.4328 19.2929 42.2929C19.4327 42.153 19.6109 42.0578 19.8049 42.0192C19.9989 41.9806 20.2 42.0004 20.3827 42.0761C20.5654 42.1518 20.7216 42.28 20.8315 42.4444C20.9413 42.6089 21 42.8022 21 43C20.9997 43.2651 20.8942 43.5193 20.7068 43.7068C20.5193 43.8943 20.2651 43.9997 20 44V44Z" fill="#062D42"/>
<path d="M18.293 18.2929L15.293 21.2929L16.7072 22.7071L19.4142 20H30.0001V18H19.0001C18.8688 18 18.7387 18.0259 18.6174 18.0761C18.4961 18.1264 18.3858 18.2 18.293 18.2929Z" fill="#062D42"/>
<path d="M53 50C53 50.7956 52.6839 51.5587 52.1213 52.1213C51.5587 52.6839 50.7956 53 50 53C49.2044 53 48.4413 52.6839 47.8787 52.1213C47.3161 51.5587 47 50.7956 47 50C47 48.3438 50 43 50 43C50 43 53 48.3438 53 50Z" fill="#FFD44C"/>
<path d="M55 31V35H45V31H47H53H55Z" fill="#808285"/>
<path d="M51 17L53 31H47L49 17H51Z" fill="#808285"/>
<path d="M45 31H48V35H45V31Z" fill="#414042"/>
<path d="M51 17L49 31H47L49 17H51Z" fill="#414042"/>
<path d="M59 39V59C59 59.5304 58.7893 60.0391 58.4142 60.4142C58.0391 60.7893 57.5304 61 57 61H43C42.4696 61 41.9609 60.7893 41.5858 60.4142C41.2107 60.0391 41 59.5304 41 59V39C41 37.9391 41.4214 36.9217 42.1716 36.1716C42.9217 35.4214 43.9391 35 45 35H55C56.0609 35 57.0783 35.4214 57.8284 36.1716C58.5786 36.9217 59 37.9391 59 39ZM50 53C50.7956 52.9998 51.5585 52.6837 52.1211 52.1211C52.6837 51.5585 52.9998 50.7956 53 50C53 48.3438 50 43 50 43C50 43 47 48.3438 47 50C47.0002 50.7956 47.3163 51.5585 47.8789 52.1211C48.4415 52.6837 49.2044 52.9998 50 53V53Z" fill="#3896D2"/>
<path d="M46 58C45.4696 58 44.9609 57.7893 44.5858 57.4142C44.2107 57.0391 44 56.5304 44 56V36C43.9998 35.6976 44.0338 35.3961 44.1012 35.1013C43.2197 35.3048 42.4332 35.8011 41.8699 36.5092C41.3067 37.2172 41.0001 38.0953 41 39V59C41 59.5304 41.2107 60.0391 41.5858 60.4142C41.9609 60.7893 42.4696 61 43 61H57C57.5304 61 58.0391 60.7893 58.4142 60.4142C58.7893 60.0391 59 59.5304 59 59V58H46Z" fill="#0E7DDE"/>
<path d="M56 34.1006V31C56 30.7348 55.8946 30.4804 55.7071 30.2929C55.5196 30.1054 55.2652 30 55 30H53.8674L51.99 16.8586C51.956 16.6203 51.8371 16.4023 51.6552 16.2445C51.4734 16.0868 51.2407 16 51 16H49C48.7593 16 48.5266 16.0868 48.3448 16.2445C48.1629 16.4023 48.044 16.6203 48.01 16.8586L46.1326 30H45C44.7348 30 44.4804 30.1054 44.2929 30.2929C44.1054 30.4804 44 30.7348 44 31V34.1006C42.8715 34.3326 41.8574 34.9466 41.1288 35.839C40.4002 36.7315 40.0015 37.8479 40 39V59C40.0009 59.7954 40.3173 60.5579 40.8797 61.1203C41.4421 61.6827 42.2046 61.9991 43 62H57C57.7954 61.9991 58.5579 61.6827 59.1203 61.1203C59.6827 60.5579 59.9991 59.7954 60 59V39C59.9985 37.8479 59.5998 36.7315 58.8712 35.839C58.1426 34.9466 57.1285 34.3326 56 34.1006V34.1006ZM49.8672 18H50.1328L51.847 30H48.153L49.8672 18ZM47 32H54V34H46V32H47ZM58 59C57.9997 59.2651 57.8943 59.5193 57.7068 59.7068C57.5193 59.8943 57.2651 59.9997 57 60H43C42.7349 59.9997 42.4807 59.8943 42.2932 59.7068C42.1057 59.5193 42.0003 59.2651 42 59V39C42.0009 38.2046 42.3173 37.4421 42.8797 36.8797C43.4421 36.3173 44.2046 36.0009 45 36H55C55.7954 36.0009 56.5579 36.3173 57.1203 36.8797C57.6827 37.4421 57.9991 38.2046 58 39V59Z" fill="#062D42"/>
<path d="M50 42C49.8224 42 49.6481 42.0473 49.4948 42.137C49.3415 42.2267 49.2149 42.3555 49.128 42.5104C48.6057 43.4409 46 48.175 46 50C46 51.0609 46.4214 52.0783 47.1716 52.8284C47.9217 53.5786 48.9391 54 50 54C51.0609 54 52.0783 53.5786 52.8284 52.8284C53.5786 52.0783 54 51.0609 54 50C54 48.175 51.3943 43.4409 50.872 42.5104C50.7851 42.3555 50.6585 42.2267 50.5052 42.137C50.3519 42.0473 50.1776 42 50 42V42ZM50 52C49.4698 51.9994 48.9614 51.7885 48.5865 51.4135C48.2115 51.0386 48.0006 50.5302 48 50C48 49.3205 48.9293 47.1899 50 45.1125C51.0707 47.1899 52 49.3204 52 50C51.9994 50.5302 51.7885 51.0386 51.4135 51.4135C51.0386 51.7885 50.5302 51.9994 50 52Z" fill="#062D42"/>
</svg>
