<svg width="80" height="80" viewBox="0 0 80 80" fill="none" xmlns="http://www.w3.org/2000/svg">
<path fill-rule="evenodd" clip-rule="evenodd" d="M75.7348 30.7501C75.7376 41.4207 69.5683 51.1297 59.9078 55.6582C50.2473 60.1866 38.8396 58.7169 30.6418 51.8877C29.365 50.8106 28.1818 49.6272 27.1049 48.3502C19.3434 39.0226 18.6124 25.7093 25.306 15.5878C31.9996 5.4662 44.5353 0.929312 56.1549 4.42297C67.7746 7.91664 75.731 18.6149 75.7348 30.7501Z" fill="#9E9E9E"/>
<path fill-rule="evenodd" clip-rule="evenodd" d="M48.2391 3.25C47.6142 3.25 46.9893 3.275 46.3644 3.325C60.7255 4.36133 71.8551 16.303 71.8813 30.7036C71.9076 45.1043 60.8216 57.0864 46.4644 58.1751C47.0518 58.1751 47.6392 58.2501 48.2391 58.2501C63.4245 58.2501 75.7348 45.9379 75.7348 30.7501C75.7348 15.5622 63.4245 3.25 48.2391 3.25Z" fill="#707070"/>
<path d="M48.239 53.2502C60.6635 53.2502 70.7355 43.1766 70.7355 30.7501C70.7355 18.3237 60.6635 8.25006 48.239 8.25006C35.8146 8.25006 25.7426 18.3237 25.7426 30.7501C25.7426 43.1766 35.8146 53.2502 48.239 53.2502Z" fill="#02A9F4"/>
<path fill-rule="evenodd" clip-rule="evenodd" d="M48.2391 8.25006C47.6129 8.25187 46.9872 8.28525 46.3644 8.35006C57.9165 9.44303 66.7422 19.1446 66.7422 30.7501C66.7422 42.3557 57.9165 52.0572 46.3644 53.1502C46.9872 53.215 47.6129 53.2484 48.2391 53.2502C60.6636 53.2502 70.7356 43.1766 70.7356 30.7501C70.7356 18.3237 60.6636 8.25006 48.2391 8.25006Z" fill="#0377BC"/>
<path fill-rule="evenodd" clip-rule="evenodd" d="M26.88 59.2627L24.3804 62.0877L16.9565 54.6626L19.7811 52.1626C20.2655 51.6943 21.0339 51.6943 21.5183 52.1626L26.8925 57.5377C27.3493 58.0239 27.3438 58.7831 26.88 59.2627Z" fill="#9E9E9E"/>
<path fill-rule="evenodd" clip-rule="evenodd" d="M24.3304 62.0877L13.3946 74.1377C12.4725 75.1393 11.1819 75.7215 9.82086 75.7498C8.45985 75.7781 7.14615 75.2501 6.18321 74.2877L4.70844 72.8127C3.7462 71.8496 3.21826 70.5357 3.24657 69.1745C3.27487 67.8133 3.85697 66.5224 4.85842 65.6002L16.9065 54.6627L24.3304 62.0877Z" fill="#A0522D"/>
<path fill-rule="evenodd" clip-rule="evenodd" d="M16.9065 54.6627L14.9443 56.4502L20.5809 62.0877L9.64515 74.1377C9.13785 74.6854 8.51435 75.1125 7.82043 75.3877C9.75697 76.1784 11.9809 75.6796 13.3946 74.1377L24.3304 62.0877L16.9065 54.6627Z" fill="#783E22"/>
<path fill-rule="evenodd" clip-rule="evenodd" d="M30.6419 51.8877L25.9177 56.6127L22.3807 53.0752L27.105 48.3502C28.1819 49.6272 29.3651 50.8106 30.6419 51.8877Z" fill="#7F8E94"/>
<path fill-rule="evenodd" clip-rule="evenodd" d="M33.0914 23.25C32.6418 23.2563 32.2235 23.0206 31.9959 22.6327C31.7684 22.2448 31.7667 21.7645 31.9916 21.375C34.1479 17.651 37.5193 14.7822 41.5401 13.25C41.9634 13.0488 42.4637 13.1014 42.8359 13.3863C43.2082 13.6711 43.3898 14.1403 43.3063 14.6016C43.2229 15.0629 42.8884 15.4387 42.44 15.575C38.9593 16.9078 36.0425 19.3969 34.1788 22.625C33.9546 23.0133 33.5397 23.2518 33.0914 23.25Z" fill="#F5F5F5"/>
<path d="M48.2391 2C37.2965 2.00395 27.3051 8.22142 22.4667 18.0378C17.6282 27.8542 18.782 39.5668 25.4427 48.2501L22.3807 51.3127C21.4337 50.3628 19.906 50.3297 18.9187 51.2376C-3.35278 71.3627 8.2454 60.8252 4.02106 64.6877C2.76856 65.8387 2.03928 67.4506 2.00154 69.1514C1.9638 70.8521 2.62087 72.4948 3.82109 73.7002L5.29586 75.1752C6.50154 76.3796 8.1467 77.0393 9.85034 77.0016C11.554 76.9638 13.1683 76.2319 14.3194 74.9752L27.7923 60.1002C28.7035 59.1161 28.676 57.5882 27.7298 56.6377L30.7419 53.5502C40.694 61.196 54.455 61.501 64.7361 54.3038C75.0171 47.1066 79.4418 34.0707 75.6664 22.1008C71.8911 10.131 60.7884 1.99411 48.2391 2ZM12.4697 73.2502C11.7781 74.0024 10.8094 74.4397 9.7879 74.4609C8.76636 74.4822 7.7804 74.0855 7.05809 73.3627L5.59581 72.0002C4.85765 71.2706 4.45484 70.2677 4.48326 69.2302C4.51169 68.1926 4.9688 67.2132 5.74579 66.5252L16.919 56.4002L22.6431 62.1252L12.4697 73.2502ZM24.2804 60.2252L18.7313 54.6752L20.581 53.0002L25.9551 58.3752L24.2804 60.2252ZM25.9176 54.8002L24.1554 53.0377L27.055 50.1251C27.6174 50.7376 28.2173 51.3751 28.8297 51.9002L25.9176 54.8002ZM48.2391 57.0002C33.7439 57.0002 21.9932 45.2476 21.9932 30.7501C21.9932 16.2526 33.7439 4.50001 48.2391 4.50001C62.7343 4.50001 74.485 16.2526 74.485 30.7501C74.485 37.712 71.7198 44.3889 66.7978 49.3117C61.8757 54.2345 55.2 57.0002 48.2391 57.0002Z" fill="black"/>
<path d="M48.2391 6.99994C35.1244 6.99994 24.4928 17.6332 24.4928 30.75C24.4928 43.8668 35.1244 54.5001 48.2391 54.5001C61.3538 54.5001 71.9853 43.8668 71.9853 30.75C71.9853 24.4511 69.4835 18.4102 65.0302 13.9562C60.5769 9.50217 54.537 6.99994 48.2391 6.99994ZM48.2391 52.0001C36.5049 52.0001 26.9924 42.4861 26.9924 30.75C26.9924 19.0139 36.5049 9.49995 48.2391 9.49995C59.9733 9.49995 69.4857 19.0139 69.4857 30.75C69.4857 36.3859 67.2472 41.7909 63.2627 45.7761C59.2782 49.7612 53.874 52.0001 48.2391 52.0001Z" fill="black"/>
</svg>
