<svg width="64" height="64" viewBox="0 0 64 64" fill="none" xmlns="http://www.w3.org/2000/svg">
<g clip-path="url(#clip0_737_13106)">
<path d="M47.1894 20.5228L37.0774 10.4108C35.8761 9.20687 34.2447 8.53126 32.544 8.53342H28.8V6.40009C28.8 4.04367 26.8898 2.13342 24.5333 2.13342H7.46668C5.11026 2.13342 3.20001 4.04367 3.20001 6.40009V57.6001C3.20001 60.5456 5.58783 62.9334 8.53335 62.9334H43.7334C46.6789 62.9334 49.0667 60.5456 49.0667 57.6001V25.0561C49.0688 23.3554 48.3932 21.724 47.1894 20.5228ZM24.5333 12.8001C24.5333 13.3892 24.0558 13.8668 23.4667 13.8668H8.53335C7.94424 13.8668 7.46668 13.3892 7.46668 12.8001V7.46676C7.46668 6.87765 7.94424 6.40009 8.53335 6.40009H23.4667C24.0558 6.40009 24.5333 6.87765 24.5333 7.46676V12.8001Z" fill="#F44335"/>
<path d="M47.1894 20.5227L37.0774 10.4107C35.8762 9.20678 34.2447 8.53117 32.5441 8.53334L29.3441 8.53333C31.0447 8.53117 32.6762 9.20678 33.8774 10.4107L43.9894 20.5227C45.1933 21.7239 45.8689 23.3553 45.8667 25.056V57.6C45.8667 60.5455 43.4789 62.9334 40.5334 62.9334H43.7334C46.6789 62.9334 49.0667 60.5455 49.0667 57.6V25.056C49.0689 23.3553 48.3933 21.7239 47.1894 20.5227Z" fill="#C81E1E"/>
<path d="M37.0774 10.4107L38.8161 8.66136C40.0696 7.4135 42.0959 7.4135 43.3494 8.66136L47.8721 13.184C49.1199 14.4375 49.1199 16.4639 47.8721 17.7174L46.1227 19.456L37.0774 10.4107Z" fill="#02A9F4"/>
<path d="M47.8721 13.184L43.3494 8.66136C42.3196 7.64153 40.734 7.43868 39.4806 8.16643C39.724 8.30178 39.9488 8.46815 40.1494 8.66136L44.6721 13.184C45.9199 14.4375 45.9199 16.4639 44.6721 17.7174L44.5281 17.8614L46.1281 19.456L47.8774 17.7174C49.1238 16.4624 49.1214 14.4361 47.8721 13.184Z" fill="#0377BC"/>
<path d="M43.3494 8.66137L46.2294 5.7707C49.241 2.74963 53.3343 1.05624 57.6 1.0667C59.3673 1.0667 60.8 2.49939 60.8 4.2667C60.8 6.03401 59.3673 7.4667 57.6 7.4667C55.0327 7.45763 52.5693 8.4799 50.7627 10.304L47.872 13.184L43.3494 8.66137Z" fill="#3F51B5"/>
<path d="M57.6 1.06677C56.8581 1.07263 56.1176 1.12929 55.3835 1.23637C56.882 1.71707 57.8065 3.21841 57.5611 4.77293C57.3157 6.32745 55.9738 7.47104 54.4 7.46677C51.8327 7.45771 49.3693 8.47997 47.5627 10.3041L46.2752 11.5841L47.8752 13.1841L50.7659 10.3041C52.5717 8.48077 55.0338 7.45857 57.6 7.46677C59.3673 7.46677 60.8 6.03408 60.8 4.26677C60.8 2.49946 59.3673 1.06677 57.6 1.06677Z" fill="#283593"/>
<path d="M38.4 24.5333H13.8667C12.0994 24.5333 10.6667 25.966 10.6667 27.7333V52.2667C10.6667 54.034 12.0994 55.4667 13.8667 55.4667H38.4C40.1673 55.4667 41.6 54.034 41.6 52.2667V27.7333C41.6 25.966 40.1673 24.5333 38.4 24.5333Z" fill="#FFDC00"/>
<path d="M38.4 24.5333H35.2C36.9673 24.5333 38.4 25.966 38.4 27.7333V52.2667C38.4 54.034 36.9673 55.4667 35.2 55.4667H38.4C40.1673 55.4667 41.6 54.034 41.6 52.2667V27.7333C41.6 25.966 40.1673 24.5333 38.4 24.5333Z" fill="#FEC108"/>
<path d="M34.1334 43.7334C33.9811 48.0021 30.4024 51.3421 26.1334 51.2C21.8643 51.3421 18.2857 48.0021 18.1334 43.7334C18.1334 40.6816 22.5142 32.768 24.7926 29.4838C25.1042 29.0543 25.6027 28.8 26.1334 28.8C26.664 28.8 27.1625 29.0543 27.4742 29.4838C29.7526 32.768 34.1334 40.6816 34.1334 43.7334Z" fill="#607D8B"/>
<path d="M27.4742 29.4838C27.1626 29.0543 26.664 28.8 26.1334 28.8C25.6027 28.8 25.1042 29.0543 24.7926 29.4838C24.7105 29.6022 24.6209 29.7387 24.5334 29.8678C26.8673 33.344 30.9334 40.7915 30.9334 43.7344C30.8356 47.3944 28.1478 50.467 24.5334 51.0507C25.0609 51.1505 25.5966 51.2004 26.1334 51.2C30.4024 51.3421 33.9811 48.0021 34.1334 43.7334C34.1334 40.6816 29.7526 32.768 27.4742 29.4838Z" fill="#37474F"/>
<path d="M26.1334 48.0001C23.6338 48.1356 21.4918 46.2317 21.3334 43.7334C21.3334 43.1443 21.8109 42.6667 22.4 42.6667C22.9891 42.6667 23.4667 43.1443 23.4667 43.7334C23.6336 45.048 24.8142 45.9925 26.1334 45.8668C26.7225 45.8668 27.2 46.3443 27.2 46.9334C27.2 47.5225 26.7225 48.0001 26.1334 48.0001Z" fill="#F5F5F5"/>
<path d="M10.6667 20.2668H8.53334C7.94424 20.2668 7.46667 19.7892 7.46667 19.2001C7.46667 18.611 7.94424 18.1334 8.53334 18.1334H10.6667C11.2558 18.1334 11.7333 18.611 11.7333 19.2001C11.7333 19.7892 11.2558 20.2668 10.6667 20.2668Z" fill="#F5F5F5"/>
<path d="M33.0667 20.2668H14.9334C14.3443 20.2668 13.8667 19.7892 13.8667 19.2001C13.8667 18.611 14.3443 18.1334 14.9334 18.1334H33.0667C33.6558 18.1334 34.1334 18.611 34.1334 19.2001C34.1334 19.7892 33.6558 20.2668 33.0667 20.2668Z" fill="#F5F5F5"/>
<path d="M24.5334 1.06672H7.4667C4.52264 1.07024 2.13689 3.45599 2.13336 6.40005V57.6001C2.13689 61.1332 5.0002 63.9965 8.53336 64.0001H43.7334C47.2665 63.9965 50.1298 61.1332 50.1334 57.6001V25.0507C50.1387 23.0695 49.3509 21.1685 47.9456 19.7718L47.6331 19.4582L48.6262 18.4715C49.9893 17.0911 50.2521 14.9658 49.2662 13.295L51.5136 11.055C53.1218 9.43168 55.315 8.52302 57.6 8.53339C59.9565 8.53339 61.8667 6.62313 61.8667 4.26672C61.8667 1.9103 59.9565 4.83506e-05 57.6 4.83506e-05C53.0517 -0.0107686 48.687 1.79377 45.4742 5.01338L43.2342 7.25338C41.5608 6.26934 39.4345 6.53561 38.0555 7.90192L37.0134 8.96005C35.7273 7.99026 34.1601 7.46601 32.5494 7.46672H29.8667V6.40005C29.8632 3.45599 27.4774 1.07024 24.5334 1.06672ZM46.9824 6.52698C49.7949 3.70632 53.6168 2.1248 57.6 2.13338C58.7782 2.13338 59.7334 3.08851 59.7334 4.26672C59.7334 5.44492 58.7782 6.40005 57.6 6.40005C54.75 6.38927 52.0151 7.52381 50.0096 9.54885L47.8763 11.6769L44.8555 8.66032L46.9824 6.52698ZM42.5952 9.41552L47.1126 13.9318C47.9424 14.7698 47.9424 16.1199 47.1126 16.9579L46.1174 17.9467L38.576 10.4043L39.5627 9.41232C40.4021 8.57855 41.7576 8.57998 42.5952 9.41552ZM36.3211 11.1617L46.432 21.2737C47.4391 22.2721 48.0039 23.6326 48 25.0507V57.6001C48 59.9565 46.0898 61.8667 43.7334 61.8667H8.53336C6.17695 61.8667 4.2667 59.9565 4.2667 57.6001V6.40005C4.2667 4.63274 5.69938 3.20005 7.4667 3.20005H24.5334C26.3007 3.20005 27.7334 4.63274 27.7334 6.40005V8.53339C27.7334 9.12249 28.2109 9.60005 28.8 9.60005H32.5494C33.9646 9.5966 35.3225 10.1588 36.3211 11.1617Z" fill="black"/>
<path d="M25.6 12.8V7.46671C25.6 6.2885 24.6449 5.33337 23.4667 5.33337H8.53336C7.35515 5.33337 6.40002 6.2885 6.40002 7.46671V12.8C6.40002 13.9782 7.35515 14.9334 8.53336 14.9334H23.4667C24.6449 14.9334 25.6 13.9782 25.6 12.8ZM8.53336 7.46671H23.4667V12.8H8.53336V7.46671Z" fill="black"/>
<path d="M9.60004 27.7333V52.2667C9.60004 54.6231 11.5103 56.5334 13.8667 56.5334H38.4C40.7565 56.5334 42.6667 54.6231 42.6667 52.2667V27.7333C42.6667 25.3769 40.7565 23.4667 38.4 23.4667H13.8667C11.5103 23.4667 9.60004 25.3769 9.60004 27.7333ZM40.5334 27.7333V52.2667C40.5334 53.4449 39.5782 54.4 38.4 54.4H13.8667C12.6885 54.4 11.7334 53.4449 11.7334 52.2667V27.7333C11.7334 26.5551 12.6885 25.6 13.8667 25.6H38.4C39.5782 25.6 40.5334 26.5551 40.5334 27.7333Z" fill="black"/>
<path d="M26.1334 52.2667C30.9896 52.4037 35.0428 48.5889 35.2 43.7333C35.2 40.1835 30.3659 31.7867 28.351 28.8757C27.8402 28.1587 27.0142 27.733 26.1339 27.733C25.2536 27.733 24.4276 28.1587 23.9168 28.8757C21.9008 31.7867 17.0667 40.1835 17.0667 43.7333C17.224 48.5889 21.2772 52.4037 26.1334 52.2667ZM25.6694 30.0917C25.7816 29.9496 25.9528 29.8667 26.1339 29.8667C26.315 29.8667 26.4862 29.9496 26.5984 30.0917C29.2022 33.8464 33.0667 41.2288 33.0667 43.7333C32.9096 47.4107 29.8115 50.2705 26.1334 50.1333C22.4552 50.2705 19.3571 47.4107 19.2 43.7333C19.2 41.2288 23.0646 33.8464 25.6694 30.0917Z" fill="black"/>
</g>
<defs>
<clipPath id="clip0_737_13106">
<rect width="64" height="64" fill="white"/>
</clipPath>
</defs>
</svg>
