<svg width="64" height="64" viewBox="0 0 64 64" fill="none" xmlns="http://www.w3.org/2000/svg">
<path d="M40 39C40 40.8565 39.2625 42.637 37.9497 43.9497C36.637 45.2625 34.8565 46 33 46C31.1435 46 29.363 45.2625 28.0503 43.9497C26.7375 42.637 26 40.8565 26 39C26 35.1337 33 25 33 25C33 25 40 35.1337 40 39Z" fill="#19A4F2"/>
<path d="M39.2175 42.2175C38.4967 43.6109 37.3288 44.7218 35.9011 45.372C34.4734 46.0222 32.8686 46.1739 31.3444 45.8029C29.8201 45.4318 28.4646 44.5595 27.4955 43.3259C26.5263 42.0922 25.9997 40.5688 26 39C26 35.1337 33 25 33 25C33 25 33.2037 25.295 33.5412 25.8037C31.525 29.0937 29 33.6775 29 36C29.0002 37.2014 29.3096 38.3825 29.8983 39.4298C30.4871 40.477 31.3354 41.3551 32.3618 41.9797C33.3881 42.6042 34.5578 42.9541 35.7585 42.9958C36.9592 43.0374 38.1504 42.7694 39.2175 42.2175Z" fill="#0E7DDE"/>
<path d="M21 11L18 14L16 16L13 13L18 8L21 11Z" fill="#A5E985"/>
<path d="M19 7L18 8L13 13L12 14L8 10L15 3L19 7Z" fill="#414042"/>
<path d="M11 10L13.5 12.5L12 14L8 10L15 3L16.5 4.5L11 10Z" fill="#231F20"/>
<path d="M57 11V53L49 61H15L7 53V25L12 20L17 25V45L11 51L17 57L23 51H41L47 57L53 51L47 45V25L53 19L47 13L41 19H23L18 14L21 11L29 3H49L57 11ZM47 9C47 8.46957 46.7893 7.96086 46.4142 7.58579C46.0391 7.21071 45.5304 7 45 7H31C30.4696 7 29.9609 7.21071 29.5858 7.58579C29.2107 7.96086 29 8.46957 29 9C29 9.53043 29.2107 10.0391 29.5858 10.4142C29.9609 10.7893 30.4696 11 31 11H45C45.5304 11 46.0391 10.7893 46.4142 10.4142C46.7893 10.0391 47 9.53043 47 9Z" fill="#277A00"/>
<path d="M53 19L47 25V45L53 51L47 57L41 51H23L17 57L11 51L17 45V25L12 20L16 16L18 14L23 19H41L47 13L53 19ZM33 46C34.8565 46 36.637 45.2625 37.9497 43.9497C39.2625 42.637 40 40.8565 40 39C40 35.1338 33 25 33 25C33 25 26 35.1338 26 39C26 40.8565 26.7375 42.637 28.0503 43.9497C29.363 45.2625 31.1435 46 33 46Z" fill="#A5E985"/>
<path d="M21 25L16 20L20 16L18 14L12 20L17 25V45L11 51L17 57L19 55L15 51L21 45V25ZM45 51H41L47 57L49 55L45 51ZM47 13L41 19H45L49 15L47 13Z" fill="#369E05"/>
<path d="M57.7071 10.2929L49.7071 2.29288C49.6143 2.20002 49.504 2.12637 49.3827 2.07611C49.2614 2.02586 49.1313 2 49 2.00001H29C28.8687 2 28.7386 2.02586 28.6173 2.07611C28.496 2.12637 28.3857 2.20002 28.2929 2.29288L21 9.58588L19.4141 8.00001L19.7071 7.70713C19.8 7.61428 19.8737 7.50403 19.9239 7.3827C19.9742 7.26137 20 7.13133 20 7.00001C20 6.86868 19.9742 6.73864 19.9239 6.61731C19.8737 6.49598 19.8 6.38574 19.7071 6.29288L15.7071 2.29288C15.6143 2.20002 15.504 2.12635 15.3827 2.07609C15.2614 2.02584 15.1313 1.99997 15 1.99997C14.8687 1.99997 14.7386 2.02584 14.6173 2.07609C14.496 2.12635 14.3857 2.20002 14.2929 2.29288L7.29287 9.29289C7.20001 9.38574 7.12635 9.49599 7.07609 9.61732C7.02583 9.73864 6.99996 9.86868 6.99996 10C6.99996 10.1313 7.02583 10.2614 7.07609 10.3827C7.12635 10.504 7.20001 10.6143 7.29287 10.7071L11.2929 14.7071C11.3857 14.8 11.496 14.8737 11.6173 14.9239C11.7386 14.9742 11.8687 15 12 15C12.1313 15 12.2614 14.9742 12.3827 14.9239C12.504 14.8737 12.6143 14.8 12.7071 14.7071L13 14.4141L14.5859 16L11.2929 19.2929L6.29287 24.2929C6.20002 24.3858 6.12636 24.496 6.07611 24.6173C6.02586 24.7387 6 24.8687 6 25V53C6 53.1314 6.02586 53.2614 6.07611 53.3827C6.12636 53.5041 6.20002 53.6143 6.29287 53.7072L14.2929 61.7072C14.3857 61.8 14.496 61.8737 14.6173 61.9239C14.7386 61.9742 14.8687 62 15 62H49C49.1313 62 49.2614 61.9742 49.3827 61.9239C49.504 61.8737 49.6143 61.8 49.7071 61.7072L57.7071 53.7072C57.8 53.6143 57.8736 53.5041 57.9239 53.3827C57.9741 53.2614 58 53.1314 58 53V11C58 10.8687 57.9741 10.7386 57.9239 10.6173C57.8736 10.496 57.8 10.3857 57.7071 10.2929ZM9.41413 10L15 4.41413L17.5859 7.00001L12 12.5859L9.41413 10ZM14.4141 13L18 9.41414L19.5859 11L17.2929 13.2929L16 14.5859L14.4141 13ZM18 15.4143L22.2929 19.7071C22.3857 19.8 22.496 19.8737 22.6173 19.9239C22.7386 19.9742 22.8687 20 23 20H41C41.1313 20 41.2614 19.9742 41.3827 19.9239C41.504 19.8737 41.6143 19.8 41.7071 19.7071L47 14.4143L51.5858 19L46.2929 24.2929C46.2 24.3858 46.1264 24.496 46.0761 24.6173C46.0259 24.7387 46 24.8687 46 25V45C46 45.1314 46.0259 45.2614 46.0761 45.3827C46.1264 45.5041 46.2 45.6143 46.2929 45.7072L51.5858 51L47 55.5858L41.7071 50.2929C41.6143 50.2001 41.504 50.1264 41.3827 50.0761C41.2614 50.0259 41.1313 50 41 50H23C22.8687 50 22.7386 50.0259 22.6173 50.0761C22.496 50.1264 22.3857 50.2001 22.2929 50.2929L17 55.5858L12.4143 51L17.7071 45.7072C17.8 45.6143 17.8736 45.5041 17.9239 45.3827C17.9741 45.2614 18 45.1314 18 45V25C18 24.8687 17.9741 24.7387 17.9239 24.6173C17.8736 24.496 17.8 24.3858 17.7071 24.2929L13.4143 20L18 15.4143ZM56 52.5859L48.5859 60H15.4141L8 52.5859V25.4141L12 21.4141L16 25.4141V44.5858L10.2929 50.2929C10.2 50.3858 10.1263 50.496 10.0761 50.6173C10.0258 50.7387 9.99996 50.8687 9.99996 51C9.99996 51.1314 10.0258 51.2614 10.0761 51.3827C10.1263 51.5041 10.2 51.6143 10.2929 51.7072L16.2929 57.7072C16.3857 57.8 16.496 57.8737 16.6173 57.924C16.7386 57.9742 16.8687 58.0001 17 58.0001C17.1313 58.0001 17.2614 57.9742 17.3827 57.924C17.504 57.8737 17.6143 57.8 17.7071 57.7072L23.4142 52H40.5858L46.2929 57.7072C46.3857 57.8 46.496 57.8737 46.6173 57.924C46.7386 57.9742 46.8687 58.0001 47 58.0001C47.1313 58.0001 47.2614 57.9742 47.3827 57.924C47.504 57.8737 47.6143 57.8 47.7071 57.7072L53.7071 51.7072C53.8 51.6143 53.8737 51.5041 53.9239 51.3827C53.9742 51.2614 54 51.1314 54 51C54 50.8687 53.9742 50.7387 53.9239 50.6173C53.8737 50.496 53.8 50.3858 53.7071 50.2929L48 44.5858V25.4143L53.7071 19.7071C53.8 19.6143 53.8737 19.504 53.9239 19.3827C53.9742 19.2614 54 19.1313 54 19C54 18.8687 53.9742 18.7386 53.9239 18.6173C53.8737 18.496 53.8 18.3857 53.7071 18.2929L47.7071 12.2929C47.6143 12.2 47.504 12.1264 47.3827 12.0761C47.2614 12.0258 47.1313 12 47 12C46.8687 12 46.7386 12.0258 46.6173 12.0761C46.496 12.1264 46.3857 12.2 46.2929 12.2929L40.5858 18H23.4142L19.4142 14L29.4142 4.00001H48.5859L56 11.4141V52.5859Z" fill="#062D42"/>
<path d="M45 6H31C30.2044 6 29.4413 6.31607 28.8787 6.87868C28.3161 7.44129 28 8.20435 28 9C28 9.79565 28.3161 10.5587 28.8787 11.1213C29.4413 11.6839 30.2044 12 31 12H45C45.7956 12 46.5587 11.6839 47.1213 11.1213C47.6839 10.5587 48 9.79565 48 9C48 8.20435 47.6839 7.44129 47.1213 6.87868C46.5587 6.31607 45.7956 6 45 6ZM45 10H31C30.7348 10 30.4804 9.89464 30.2929 9.70711C30.1054 9.51957 30 9.26522 30 9C30 8.73478 30.1054 8.48043 30.2929 8.29289C30.4804 8.10536 30.7348 8 31 8H45C45.2652 8 45.5196 8.10536 45.7071 8.29289C45.8946 8.48043 46 8.73478 46 9C46 9.26522 45.8946 9.51957 45.7071 9.70711C45.5196 9.89464 45.2652 10 45 10Z" fill="#062D42"/>
<path d="M33 47C35.121 46.9976 37.1544 46.154 38.6542 44.6542C40.154 43.1544 40.9976 41.121 41 39C41 34.9391 34.5574 25.4951 33.8229 24.4316C33.7309 24.2984 33.608 24.1896 33.4646 24.1143C33.3213 24.0391 33.1619 23.9998 33 23.9998C32.8381 23.9998 32.6787 24.0391 32.5354 24.1143C32.392 24.1896 32.2691 24.2984 32.1771 24.4316C31.4426 25.4951 25 34.9391 25 39C25.0024 41.121 25.846 43.1544 27.3458 44.6542C28.8456 46.154 30.879 46.9976 33 47ZM33 26.7917C35.2119 30.1542 39 36.4444 39 39C39 40.5913 38.3679 42.1174 37.2426 43.2426C36.1174 44.3679 34.5913 45 33 45C31.4087 45 29.8826 44.3679 28.7574 43.2426C27.6321 42.1174 27 40.5913 27 39C27 36.4444 30.7881 30.154 33 26.7917Z" fill="#062D42"/>
<path d="M24 14H40V16H24V14Z" fill="#062D42"/>
<path d="M24 54H40V56H24V54Z" fill="#062D42"/>
<path d="M50 26H52V44H50V26Z" fill="#062D42"/>
<path d="M12 26H14V44H12V26Z" fill="#062D42"/>
</svg>
