<svg width="24" height="24" viewBox="0 0 24 24" fill="none" xmlns="http://www.w3.org/2000/svg">
<path d="M20.1021 11.5562C20.025 11.0426 19.5846 10.6724 19.0663 10.6724H10.6707L9.14594 8.86767C8.8228 8.48823 8.34849 8.24915 7.8495 8.24915H2.39457C2.00587 8.24915 1.63645 8.43116 1.38503 8.72885C1.13438 9.02732 1.02718 9.43607 1.09273 9.81938L1.23772 10.6724H1.14209C0.836681 10.6724 0.547468 10.7965 0.350033 11.0279C0.149512 11.26 0.0623628 11.5624 0.109408 11.8639L1.80304 22.8524C1.90561 23.5134 2.47478 24 3.14344 24H20.7252C21.0306 24 21.3199 23.8658 21.5173 23.6368C21.7155 23.4054 21.805 23.1054 21.7595 22.8039L20.1021 11.5562Z" fill="white"/>
<path d="M15.922 3.35559H9.35498C8.90226 3.35559 8.53516 3.76434 8.53516 4.21783C8.53516 4.67131 8.90303 5.08007 9.35498 5.08007H15.922C16.3763 5.08007 16.7426 4.67131 16.7426 4.21783C16.7426 3.76434 16.3747 3.35559 15.922 3.35559Z" fill="white"/>
<path d="M23.6589 9.39826C23.47 9.17846 23.1931 9.04041 22.9024 9.04041H21.0391L21.4632 12.9698L22.4759 19.8346L23.8934 10.2003C23.9327 9.91344 23.8494 9.61883 23.6589 9.39826Z" fill="white"/>
<path d="M6.95955 1.58488H18.4232V9.3674H20.0088V1.008C20.008 0.455799 19.5468 0 18.9946 0H6.31711C5.71092 0 5.23584 0.498988 5.23584 1.10518V7.13005H6.95955V1.58488Z" fill="white"/>
<path d="M15.9221 6.52466H9.35506C8.96096 6.52466 8.63242 6.83624 8.55298 7.218C9.11521 7.36145 9.62653 7.66763 10.0114 8.1188L10.1309 8.24836H15.9221C16.3764 8.24836 16.7427 7.83961 16.7427 7.38613C16.7427 6.93264 16.3748 6.52466 15.9221 6.52466Z" fill="white"/>
</svg>
