<svg width="24" height="24" viewBox="0 0 24 24" fill="none" xmlns="http://www.w3.org/2000/svg">
<g clip-path="url(#clip0_555_8428)">
<path d="M8.31549 6.43176L3.14111 16.3101L7.68908 20.8577L8.48962 20.4382C8.55151 20.5084 8.61487 20.5772 8.68097 20.6433C9.55218 21.5145 10.6962 21.9501 11.8408 21.9501C12.9849 21.95 14.1296 21.5143 15.0007 20.6433C16.1213 19.5227 16.5534 17.9167 16.1797 16.4103L17.5671 15.6835L8.31549 6.43176ZM14.0064 19.6489C13.4093 20.246 12.6251 20.5444 11.8408 20.5444C11.1056 20.5443 10.3703 20.282 9.78949 19.7573L14.8793 17.0913C14.9997 18.0189 14.6898 18.9655 14.0064 19.6489Z" fill="white"/>
<path d="M11.8056 3.67273C11.3883 3.25543 10.8335 3.02563 10.2434 3.02563C9.6532 3.02563 9.09839 3.25543 8.68109 3.67273C8.48077 3.87305 8.32733 4.10266 8.22021 4.34766L19.6519 15.7793C19.9002 15.6704 20.1287 15.5154 20.3263 15.3179C21.1878 14.4565 21.1878 13.0549 20.3263 12.1934L11.8056 3.67273Z" fill="white"/>
<path d="M0.692848 16.9863C-0.16848 17.8477 -0.16848 19.2493 0.693032 20.1108L3.88841 23.306C4.30552 23.7233 4.86033 23.9531 5.45048 23.9531C6.04063 23.9531 6.59544 23.7233 7.01274 23.306C7.21305 23.1057 7.36668 22.8761 7.4738 22.6311L1.36723 16.5249C1.11894 16.6339 0.890419 16.7888 0.692848 16.9863Z" fill="white"/>
<path d="M19.5626 5.13923C19.7426 5.13923 19.9226 5.07056 20.0599 4.93341L23.8398 1.15338C24.1144 0.878907 24.1144 0.433594 23.8398 0.159119C23.5653 -0.11554 23.1202 -0.11554 22.8455 0.159119L19.0655 3.93897C18.791 4.21344 18.791 4.65876 19.0655 4.93341C19.2028 5.07074 19.3828 5.13923 19.5626 5.13923Z" fill="white"/>
<path d="M15.1834 3.69328C15.302 3.7711 15.4359 3.80827 15.5679 3.80827C15.7972 3.80827 16.0218 3.69621 16.1568 3.4904L17.7608 1.04173C17.9737 0.716897 17.8829 0.280922 17.5581 0.0681537C17.2331 -0.144615 16.7973 -0.0537946 16.5845 0.271035L14.9805 2.7197C14.7677 3.04453 14.8586 3.48032 15.1834 3.69328Z" fill="white"/>
<path d="M23.9308 6.44078C23.718 6.11614 23.2822 6.02532 22.9574 6.23808L20.5087 7.84227C20.1839 8.05522 20.0932 8.49101 20.306 8.81584C20.441 9.02184 20.6656 9.13372 20.8947 9.13372C21.0269 9.13372 21.1606 9.09654 21.2794 9.01854L23.7279 7.41435C24.0529 7.20159 24.1437 6.76579 23.9308 6.44078Z" fill="white"/>
</g>
<defs>
<clipPath id="clip0_555_8428">
<rect width="24" height="24" fill="white"/>
</clipPath>
</defs>
</svg>
