<svg width="24" height="24" viewBox="0 0 24 24" fill="none" xmlns="http://www.w3.org/2000/svg">
<path d="M14.483 5.36794C15.5927 6.06371 16.3708 7.24109 16.5125 8.60777C16.965 8.81923 17.4673 8.94083 17.9999 8.94083C19.944 8.94083 21.5197 7.36509 21.5197 5.42125C21.5197 3.47711 19.944 1.90137 17.9999 1.90137C16.0743 1.90197 14.5123 3.44955 14.483 5.36794ZM12.177 12.5748C14.1212 12.5748 15.6969 10.9988 15.6969 9.05495C15.6969 7.11111 14.1209 5.53536 12.177 5.53536C10.2332 5.53536 8.65653 7.1114 8.65653 9.05525C8.65653 10.9991 10.2332 12.5748 12.177 12.5748ZM13.6701 12.8147H10.6833C8.19828 12.8147 6.17656 14.8368 6.17656 17.3218V20.9744L6.18585 21.0316L6.43744 21.1104C8.80899 21.8514 10.8693 22.0985 12.5652 22.0985C15.8775 22.0985 17.7974 21.1541 17.9157 21.0939L18.1508 20.975H18.176V17.3218C18.1769 14.8368 16.1551 12.8147 13.6701 12.8147ZM19.4935 9.18104H16.5298C16.4978 10.3668 15.9916 11.4346 15.191 12.2025C17.3999 12.8594 19.0161 14.9077 19.0161 17.3272V18.4528C21.9423 18.3456 23.6286 17.5162 23.7397 17.4605L23.9748 17.3413H24V13.6875C24 11.2028 21.9783 9.18104 19.4935 9.18104ZM6.00075 8.94143C6.68933 8.94143 7.32999 8.74046 7.87271 8.39811C8.04523 7.27284 8.64845 6.28954 9.51015 5.61983C9.51374 5.55393 9.52003 5.48864 9.52003 5.42215C9.52003 3.47801 7.94399 1.90227 6.00075 1.90227C4.05631 1.90227 2.48087 3.47801 2.48087 5.42215C2.48087 7.36539 4.05631 8.94143 6.00075 8.94143ZM9.16181 12.2025C8.36511 11.4385 7.86073 10.3764 7.82389 9.19782C7.71397 9.18973 7.60524 9.18104 7.49322 9.18104H4.50678C2.02171 9.18104 0 11.2028 0 13.6875V17.3407L0.00928491 17.397L0.260876 17.4764C2.16338 18.0703 3.86133 18.3441 5.33613 18.4303V17.3272C5.33673 14.9077 6.9523 12.86 9.16181 12.2025Z" fill="white"/>
</svg>
