<svg width="24" height="24" viewBox="0 0 24 24" fill="none" xmlns="http://www.w3.org/2000/svg">
<g clip-path="url(#clip0_555_8699)">
<path d="M11.9999 0C5.40886 0 0 5.40886 0 11.9999C0 14.1443 0.580218 16.2433 1.68089 18.0938L0.036375 23.0742C-0.0480937 23.3269 0.0178125 23.6057 0.205969 23.7938C0.395484 23.9834 0.676171 24.0481 0.925593 23.9634L5.90597 22.3189C7.7565 23.4196 9.85551 23.9998 11.9999 23.9998C18.5909 23.9998 23.9998 18.591 23.9998 11.9999C23.9998 5.40886 18.5909 0 11.9999 0ZM11.9999 21.1404C10.8367 21.1404 9.89053 20.1942 9.89053 19.0311C9.89053 17.8679 10.8367 16.9217 11.9999 16.9217C13.1631 16.9217 14.1093 17.8679 14.1093 19.0311C14.1093 20.1943 13.1631 21.1404 11.9999 21.1404ZM14.9641 11.0242L13.4061 12.5822V14.1093C13.4061 14.8845 12.7751 15.5155 11.9999 15.5155C11.2247 15.5155 10.5937 14.8845 10.5937 14.1093V12.5822C10.5937 11.831 10.8862 11.1251 11.4176 10.5937L12.9756 9.03567C13.3357 8.67553 13.4061 8.31084 13.4061 7.8457C13.4061 7.03477 12.7463 6.37491 11.9354 6.37491C11.1959 6.37491 10.5937 6.97711 10.5937 7.71661C10.5937 8.49183 9.96262 9.12286 9.1874 9.12286C8.41218 9.12286 7.78115 8.49183 7.78115 7.71661C7.78115 5.42597 9.64471 3.56245 11.9353 3.56245C14.2974 3.56245 16.2186 5.48367 16.2186 7.8457C16.2186 9.17461 15.7838 10.2045 14.9641 11.0242Z" fill="white"/>
</g>
<defs>
<clipPath id="clip0_555_8699">
<rect width="24" height="24" fill="white"/>
</clipPath>
</defs>
</svg>
