<svg width="88" height="88" viewBox="0 0 88 88" fill="none" xmlns="http://www.w3.org/2000/svg">
<path d="M44 86.1094C67.2564 86.1094 86.1094 67.2564 86.1094 44C86.1094 20.7436 67.2564 1.89062 44 1.89062C20.7436 1.89062 1.89062 20.7436 1.89062 44C1.89062 67.2564 20.7436 86.1094 44 86.1094Z" fill="#69CDFF"/>
<path d="M25.4048 22.2968H6.19434C5.48243 22.2968 4.90527 21.7199 4.90527 21.0078C4.90527 20.2959 5.48243 19.7187 6.19434 19.7187H25.4048C26.1167 19.7187 26.6939 20.2959 26.6939 21.0078C26.6939 21.7197 26.1167 22.2968 25.4048 22.2968Z" fill="#445EA0"/>
<path d="M25.4041 14.4956H11.916C11.2041 14.4956 10.627 13.9184 10.627 13.2065C10.627 12.4946 11.2041 11.9175 11.916 11.9175H25.4041C26.116 11.9175 26.6931 12.4946 26.6931 13.2065C26.6931 13.9184 26.116 14.4956 25.4041 14.4956Z" fill="#445EA0"/>
<path d="M25.4043 30.0981H1.28906C0.577156 30.0981 0 29.5209 0 28.809C0 28.0971 0.577156 27.52 1.28906 27.52H25.4043C26.1162 27.52 26.6934 28.0971 26.6934 28.809C26.6934 29.5209 26.1162 30.0981 25.4043 30.0981Z" fill="#445EA0"/>
<path d="M25.4038 37.8995H10.6895C9.97755 37.8995 9.40039 37.3223 9.40039 36.6104C9.40039 35.8985 9.97755 35.3214 10.6895 35.3214H25.4038C26.1158 35.3214 26.6929 35.8985 26.6929 36.6104C26.6929 37.3223 26.1158 37.8995 25.4038 37.8995Z" fill="#445EA0"/>
<path d="M76.0839 76.0826H62.5957C61.8836 76.0826 61.3066 75.5054 61.3066 74.7935C61.3066 74.0816 61.8836 73.5044 62.5957 73.5044H76.0839C76.796 73.5044 77.373 74.0816 77.373 74.7935C77.373 75.5054 76.796 76.0826 76.0839 76.0826Z" fill="#445EA0"/>
<path d="M81.8063 68.2813H62.5957C61.8836 68.2813 61.3066 67.7042 61.3066 66.9922C61.3066 66.2803 61.8836 65.7032 62.5957 65.7032H81.8063C82.5184 65.7032 83.0954 66.2803 83.0954 66.9922C83.0954 67.7042 82.5182 68.2813 81.8063 68.2813Z" fill="#445EA0"/>
<path d="M86.7108 60.4801H62.5957C61.8836 60.4801 61.3066 59.9029 61.3066 59.191C61.3066 58.4791 61.8836 57.9019 62.5957 57.9019H86.7108C87.4229 57.9019 87.9999 58.4791 87.9999 59.191C87.9999 59.9029 87.4229 60.4801 86.7108 60.4801Z" fill="#445EA0"/>
<path d="M77.3099 52.6786H62.5957C61.8836 52.6786 61.3066 52.1015 61.3066 51.3896C61.3066 50.6777 61.8836 50.1005 62.5957 50.1005H77.3099C78.022 50.1005 78.599 50.6777 78.599 51.3896C78.599 52.1015 78.0218 52.6786 77.3099 52.6786Z" fill="#445EA0"/>
<path d="M79.6632 9.12967H33.681C33.1189 9.12967 32.6592 9.59167 32.6592 10.1563V39.6605C32.6592 40.2251 33.1191 40.6871 33.681 40.6871H79.6632C80.2254 40.6871 80.685 40.2251 80.685 39.6605V10.1563C80.685 9.59167 80.2254 9.12967 79.6632 9.12967Z" fill="#FF9518"/>
<path d="M32.9434 9.52515C32.931 9.54113 32.9179 9.55643 32.9062 9.5731L48.8935 24.5114L50.4719 23.0725L32.9434 9.52515Z" fill="#DB722C"/>
<path d="M62.874 23.0727L64.4523 24.5118L80.4396 9.5731C80.428 9.55626 80.4151 9.54113 80.4025 9.52515L62.874 23.0727Z" fill="#DB722C"/>
<path d="M62.6151 22.8376L57.2722 26.9672C57.1187 27.0856 56.9003 27.1537 56.6725 27.1537C56.4448 27.1537 56.2262 27.0858 56.0729 26.9672L50.7293 22.8372L32.6592 39.3125V39.6605C32.6592 40.2251 33.1191 40.6871 33.681 40.6871H79.6632C80.2254 40.6871 80.685 40.2251 80.685 39.6605V39.3123L62.6151 22.8376Z" fill="#FFAF10"/>
<path d="M36.7842 39.6605V39.3125L52.9617 24.5627L50.7293 22.8372L32.6592 39.3125V39.6605C32.6592 40.2251 33.1191 40.6871 33.681 40.6871H37.806C37.2439 40.6871 36.7842 40.2251 36.7842 39.6605Z" fill="#DB722C"/>
<path d="M79.6638 9.12967H33.6816C33.3705 9.12967 33.0941 9.27422 32.9062 9.49645L55.8631 27.2391C56.3086 27.5834 57.0373 27.5834 57.4828 27.2391L80.439 9.49645C80.2515 9.27422 79.9751 9.12967 79.6638 9.12967Z" fill="#FFD00D"/>
<path d="M56.06 47.3127H10.0775C9.51543 47.3127 9.05566 47.7747 9.05566 48.3393V67.5039C12.071 71.9782 15.9231 75.8414 20.3874 78.8702H56.06C56.6221 78.8702 57.0818 78.4082 57.0818 77.8436V48.3393C57.0818 47.7747 56.6221 47.3127 56.06 47.3127Z" fill="#FF9518"/>
<path d="M56.8057 47.7025L33.8795 65.4225C33.434 65.7668 32.7051 65.7668 32.2597 65.4225L9.33247 47.7025C9.32267 47.7151 9.31202 47.7267 9.30273 47.7396L32.2597 68.388C32.7052 68.7887 33.434 68.7887 33.8795 68.388L56.8354 47.7396C56.826 47.7267 56.8155 47.7151 56.8057 47.7025Z" fill="#DB722C"/>
<path d="M39.0123 61.0208L33.6694 65.1504C33.516 65.269 33.2974 65.3369 33.0697 65.3369C32.8419 65.3369 32.6233 65.269 32.47 65.1504L27.1264 61.0204L13.7119 73.2509C15.7344 75.3447 17.9708 77.2303 20.3881 78.8702H56.0607C56.6227 78.8702 57.0825 78.4082 57.0825 77.8436V77.4953L39.0123 61.0208Z" fill="#FFAF10"/>
<path d="M27.1264 61.0204L13.7119 73.2509C14.3743 73.9367 15.0618 74.5975 15.7691 75.2374L29.4191 62.7923L27.1264 61.0204Z" fill="#DB722C"/>
<path d="M57.0823 77.6608V77.4955L56.9883 77.4099L57.0823 77.6608Z" fill="#EBAA48"/>
<path d="M56.0606 47.3127H10.0781C9.76697 47.3127 9.49077 47.4574 9.30273 47.6795L32.2597 65.4225C32.7052 65.7668 33.434 65.7668 33.8795 65.4225L56.8355 47.6797C56.6481 47.4574 56.3714 47.3127 56.0606 47.3127Z" fill="#FFD00D"/>
</svg>
