<svg width="88" height="88" viewBox="0 0 88 88" fill="none" xmlns="http://www.w3.org/2000/svg">
<path d="M45.8906 86.1094C69.147 86.1094 88 67.2564 88 44C88 20.7436 69.147 1.89062 45.8906 1.89062C22.6343 1.89062 3.78125 20.7436 3.78125 44C3.78125 67.2564 22.6343 86.1094 45.8906 86.1094Z" fill="#69CDFF"/>
<path d="M45.4492 61.6223H31.9209V68.7087H45.4492V61.6223Z" fill="#445EA0"/>
<path d="M35.3312 61.6223H31.9209V68.7087H35.3312V61.6223Z" fill="#2E4C89"/>
<path d="M54.4598 68.5374H21.9246C21.4423 68.5374 21.0479 68.932 21.0479 69.4143V73.8093C21.0479 74.2916 21.4425 74.6862 21.9246 74.6862H54.4598V68.5374Z" fill="#293D7C"/>
<path d="M24.4582 73.8092V69.4141C24.4582 68.9319 24.8528 68.5372 25.3351 68.5372H21.9246C21.4423 68.5372 21.0479 68.9319 21.0479 69.4141V73.8092C21.0479 74.2914 21.4425 74.6861 21.9246 74.6861H25.3349C24.8528 74.6861 24.4582 74.2914 24.4582 73.8092Z" fill="#1A2B63"/>
<path d="M76.4936 10.1345H0.876906C0.394625 10.1345 0 10.5291 0 11.0114V60.9177C0 61.4001 0.394625 61.7946 0.876906 61.7946H54.4596V35.5383C54.4596 34.875 54.9993 34.3351 55.6627 34.3351H77.3706V11.0114C77.3706 10.5291 76.9759 10.1345 76.4936 10.1345Z" fill="#293D7C"/>
<path d="M3.84961 53.0258C3.84961 53.3153 4.08628 53.5518 4.37572 53.5518H54.4599V35.5382C54.4599 34.875 54.9996 34.3351 55.663 34.3351H73.5215V18.734H3.84961V53.0258Z" fill="white"/>
<path d="M7.26012 53.0258V18.734H3.84961V53.0258C3.84961 53.3153 4.08628 53.5518 4.37572 53.5518H7.78623C7.4968 53.5518 7.26012 53.3151 7.26012 53.0258Z" fill="#D9EAFC"/>
<path d="M38.6858 60.0246C39.9932 60.0246 41.0532 58.9647 41.0532 57.6572C41.0532 56.3497 39.9932 55.2898 38.6858 55.2898C37.3783 55.2898 36.3184 56.3497 36.3184 57.6572C36.3184 58.9647 37.3783 60.0246 38.6858 60.0246Z" fill="#445EA0"/>
<path d="M54.4596 38.3532H45.2773C44.9938 38.3532 44.7617 38.5852 44.7617 38.8688V49.1193C44.7617 49.4029 44.9938 49.6349 45.2773 49.6349H54.4596V38.3532Z" fill="#C3DDF4"/>
<path d="M48.1721 49.1193V38.8688C48.1721 38.5852 48.4041 38.3532 48.6877 38.3532H45.2773C44.9938 38.3532 44.7617 38.5852 44.7617 38.8688V49.1193C44.7617 49.4029 44.9938 49.6349 45.2773 49.6349H48.6877C48.4041 49.6349 48.1721 49.4029 48.1721 49.1193Z" fill="#AEC1ED"/>
<path d="M55.6627 34.3351H63.6752V23.0976C63.6752 22.6249 63.2885 22.2382 62.8158 22.2382H14.5547C14.082 22.2382 13.6953 22.6249 13.6953 23.0976V34.5316C13.6953 35.0042 14.082 35.391 14.5547 35.391H54.4697C54.5426 34.797 55.0495 34.3351 55.6627 34.3351Z" fill="#C3DDF4"/>
<path d="M17.1057 34.5314V23.0974C17.1057 22.6248 17.4924 22.238 17.965 22.238H14.5547C14.082 22.238 13.6953 22.6248 13.6953 23.0974V34.5314C13.6953 35.0041 14.082 35.3908 14.5547 35.3908H17.965C17.4924 35.3908 17.1057 35.0041 17.1057 34.5314Z" fill="#AEC1ED"/>
<path d="M72.9954 14.6064H4.37572C4.08628 14.6064 3.84961 14.8431 3.84961 15.1327V18.9059H73.5215V15.1327C73.5215 14.8431 73.2847 14.6064 72.9954 14.6064Z" fill="#EC9006"/>
<path d="M7.78623 14.6064H4.37572C4.08628 14.6064 3.84961 14.8431 3.84961 15.1327V18.9059H7.25995V15.1327C7.26012 14.8431 7.4968 14.6064 7.78623 14.6064Z" fill="#E88007"/>
<path d="M29.4775 41.0745H15.0107C14.2988 41.0745 13.7217 40.4975 13.7217 39.7855C13.7217 39.0734 14.2988 38.4964 15.0107 38.4964H29.4775C30.1894 38.4964 30.7665 39.0734 30.7665 39.7855C30.7665 40.4975 30.1894 41.0745 29.4775 41.0745Z" fill="#5DC1D8"/>
<path d="M29.4775 45.2832H15.0107C14.2988 45.2832 13.7217 44.7062 13.7217 43.9941C13.7217 43.2821 14.2988 42.7051 15.0107 42.7051H29.4775C30.1894 42.7051 30.7665 43.2821 30.7665 43.9941C30.7665 44.706 30.1894 45.2832 29.4775 45.2832Z" fill="#5DC1D8"/>
<path d="M29.4775 49.4919H15.0107C14.2988 49.4919 13.7217 48.915 13.7217 48.2029C13.7217 47.4908 14.2988 46.9138 15.0107 46.9138H29.4775C30.1894 46.9138 30.7665 47.4908 30.7665 48.2029C30.7665 48.915 30.1894 49.4919 29.4775 49.4919Z" fill="#5DC1D8"/>
<path d="M40.8304 41.0745H33.3838C32.6719 41.0745 32.0947 40.4975 32.0947 39.7855C32.0947 39.0734 32.6719 38.4964 33.3838 38.4964H40.8304C41.5424 38.4964 42.1195 39.0734 42.1195 39.7855C42.1195 40.4975 41.5424 41.0745 40.8304 41.0745Z" fill="#5DC1D8"/>
<path d="M40.8304 45.2832H33.3838C32.6719 45.2832 32.0947 44.7062 32.0947 43.9941C32.0947 43.2821 32.6719 42.7051 33.3838 42.7051H40.8304C41.5424 42.7051 42.1195 43.2821 42.1195 43.9941C42.1195 44.706 41.5424 45.2832 40.8304 45.2832Z" fill="#5DC1D8"/>
<path d="M40.8304 49.4919H33.3838C32.6719 49.4919 32.0947 48.915 32.0947 48.2029C32.0947 47.4908 32.6719 46.9138 33.3838 46.9138H40.8304C41.5424 46.9138 42.1195 47.4908 42.1195 48.2029C42.1195 48.915 41.5424 49.4919 40.8304 49.4919Z" fill="#5DC1D8"/>
<path d="M86.6253 34.1633C87.3816 34.1633 88.0003 34.782 88.0003 35.5383V77.0925C88.0003 77.8487 87.3816 78.4675 86.6253 78.4675H55.6631C54.9068 78.4675 54.2881 77.8487 54.2881 77.0925V35.5383C54.2881 34.782 54.9068 34.1633 55.6631 34.1633H86.6253Z" fill="#445EA0"/>
<path d="M58.0195 73.0684C57.5469 73.0684 57.1602 72.6816 57.1602 72.209V37.6716C57.1602 37.1989 57.5469 36.8122 58.0195 36.8122H84.2688C84.7415 36.8122 85.1282 37.1989 85.1282 37.6716V72.209C85.1282 72.6816 84.7415 73.0684 84.2688 73.0684H58.0195Z" fill="white"/>
<path d="M60.5705 72.209V37.6716C60.5705 37.1989 60.9572 36.8122 61.4299 36.8122H58.0195C57.5469 36.8122 57.1602 37.1989 57.1602 37.6716V72.209C57.1602 72.6816 57.5469 73.0684 58.0195 73.0684H61.4299C60.9572 73.0684 60.5705 72.6816 60.5705 72.209Z" fill="#D9EAFC"/>
<path d="M69.5352 76.5059C69.0625 76.5059 68.6758 76.1191 68.6758 75.6465V75.3122C68.6758 74.8395 69.0625 74.4528 69.5352 74.4528H72.7532C73.2258 74.4528 73.6126 74.8395 73.6126 75.3122V75.6465C73.6126 76.1191 73.2258 76.5059 72.7532 76.5059H69.5352Z" fill="#445EA0"/>
<path d="M85.1282 40.1282V37.6716C85.1282 37.1989 84.7415 36.8122 84.2688 36.8122H58.0195C57.5469 36.8122 57.1602 37.1989 57.1602 37.6716V40.1282H85.1282Z" fill="#EC9006"/>
<path d="M61.4299 36.8122H58.0195C57.5469 36.8122 57.1602 37.1989 57.1602 37.6716V40.1282H60.5705V37.6716C60.5705 37.1989 60.9572 36.8122 61.4299 36.8122Z" fill="#E88007"/>
<path d="M77.0027 55.8478H65.2861C64.5742 55.8478 63.9971 55.2709 63.9971 54.5588C63.9971 53.8467 64.5742 53.2697 65.2861 53.2697H77.0027C77.7146 53.2697 78.2917 53.8467 78.2917 54.5588C78.2917 55.2707 77.7146 55.8478 77.0027 55.8478Z" fill="#5DC1D8"/>
<path d="M77.0027 59.8228H65.2861C64.5742 59.8228 63.9971 59.2458 63.9971 58.5338C63.9971 57.8218 64.5742 57.2447 65.2861 57.2447H77.0027C77.7146 57.2447 78.2917 57.8218 78.2917 58.5338C78.2917 59.2458 77.7146 59.8228 77.0027 59.8228Z" fill="#5DC1D8"/>
<path d="M77.0027 63.7974H65.2861C64.5742 63.7974 63.9971 63.2204 63.9971 62.5084C63.9971 61.7965 64.5742 61.2193 65.2861 61.2193H77.0027C77.7146 61.2193 78.2917 61.7965 78.2917 62.5084C78.2917 63.2204 77.7146 63.7974 77.0027 63.7974Z" fill="#5DC1D8"/>
<path d="M82.4583 50.2317C82.4583 50.7043 82.0716 51.0911 81.5989 51.0911H60.6895C60.2168 51.0911 59.8301 50.7043 59.8301 50.2317V43.1429C59.8301 42.6702 60.2168 42.2835 60.6895 42.2835H81.5989C82.0716 42.2835 82.4583 42.6702 82.4583 43.1429V50.2317Z" fill="#C3DDF4"/>
<path d="M63.2404 50.2317V43.1429C63.2404 42.6702 63.6271 42.2835 64.0998 42.2835H60.6895C60.2168 42.2835 59.8301 42.6702 59.8301 43.1429V50.2317C59.8301 50.7043 60.2168 51.0911 60.6895 51.0911H64.0998C63.6271 51.0911 63.2404 50.7043 63.2404 50.2317Z" fill="#AEC1ED"/>
<path d="M79.3649 70.3684C79.3649 70.841 78.9782 71.2278 78.5055 71.2278H63.7832C63.3105 71.2278 62.9238 70.841 62.9238 70.3684V67.462C62.9238 66.9893 63.3105 66.6026 63.7832 66.6026H78.5055C78.9782 66.6026 79.3649 66.9893 79.3649 67.462V70.3684Z" fill="#C3DDF4"/>
<path d="M66.3342 70.3684V67.462C66.3342 66.9893 66.7209 66.6026 67.1935 66.6026H63.7832C63.3105 66.6026 62.9238 66.9893 62.9238 67.462V70.3684C62.9238 70.841 63.3105 71.2278 63.7832 71.2278H67.1935C66.7209 71.2278 66.3342 70.841 66.3342 70.3684Z" fill="#AEC1ED"/>
</svg>
