<svg width="88" height="88" viewBox="0 0 88 88" fill="none" xmlns="http://www.w3.org/2000/svg">
<path d="M44 86.1094C67.2564 86.1094 86.1094 67.2564 86.1094 44C86.1094 20.7436 67.2564 1.89062 44 1.89062C20.7436 1.89062 1.89062 20.7436 1.89062 44C1.89062 67.2564 20.7436 86.1094 44 86.1094Z" fill="#EC9006"/>
<path d="M60.9481 58.7391C60.9481 58.36 61.2565 58.0516 61.6356 58.0516H81.4086V21.1771H25.7029V22.9005C25.7029 23.1454 25.5037 23.3446 25.2588 23.3446H6.5918V63.3487C9.67592 69.2997 14.1375 74.4214 19.5556 78.2908H60.9483V58.7391H60.9481Z" fill="#EEF6FF"/>
<path d="M6.5918 23.3446V63.3487C7.58884 65.2723 8.73164 67.1078 10.0023 68.8439V23.3446H6.5918Z" fill="#D9EAFC"/>
<path d="M79.6018 11.8613H25.7031V21.3489H81.4088V13.6684C81.4088 12.6744 80.5957 11.8613 79.6018 11.8613Z" fill="#293D7C"/>
<path d="M77.0716 17.6019H72.7344C72.0223 17.6019 71.4453 17.0249 71.4453 16.3128C71.4453 15.6007 72.0223 15.0237 72.7344 15.0237H77.0716C77.7837 15.0237 78.3607 15.6007 78.3607 16.3128C78.3607 17.0249 77.7837 17.6019 77.0716 17.6019Z" fill="#AEC1ED"/>
<path d="M75.1105 35.1146C75.1105 35.5592 74.747 35.9226 74.3025 35.9226H13.6967C13.2525 35.9226 12.8887 35.5592 12.8887 35.1146V27.0337C12.8887 26.5896 13.2525 26.2257 13.6967 26.2257H74.3024C74.7468 26.2257 75.1103 26.5896 75.1103 27.0337V35.1146H75.1105Z" fill="white"/>
<path d="M16.2992 35.1146V27.0337C16.2992 26.5896 16.663 26.2257 17.1072 26.2257H13.6967C13.2525 26.2257 12.8887 26.5896 12.8887 27.0337V35.1146C12.8887 35.5592 13.2525 35.9226 13.6967 35.9226H17.1072C16.663 35.9226 16.2992 35.5592 16.2992 35.1146Z" fill="#EEF6FF"/>
<path d="M74.303 26.2257H63.2881V35.9226H74.303C74.7475 35.9226 75.111 35.5592 75.111 35.1146V27.0337C75.111 26.5896 74.7475 26.2257 74.303 26.2257Z" fill="#FF9518"/>
<path d="M88.0003 85.25C88.0003 85.7227 87.6136 86.1094 87.141 86.1094H61.6357C61.1631 86.1094 60.7764 85.7227 60.7764 85.25V58.7391C60.7764 58.2665 61.1631 57.8798 61.6357 57.8798H87.141C87.6136 57.8798 88.0003 58.2665 88.0003 58.7391V85.25Z" fill="#52BBEF"/>
<path d="M64.1869 85.25V58.7391C64.1869 58.2665 64.5736 57.8798 65.0463 57.8798H61.6357C61.1631 57.8798 60.7764 58.2665 60.7764 58.7391V85.25C60.7764 85.7227 61.1631 86.1094 61.6357 86.1094H65.0463C64.5736 86.1094 64.1869 85.7227 64.1869 85.25Z" fill="#1E99D6"/>
<path d="M81.3389 66.1251H67.4385C66.7264 66.1251 66.1494 65.5481 66.1494 64.8361C66.1494 64.124 66.7264 63.547 67.4385 63.547H81.3389C82.0509 63.547 82.6279 64.124 82.6279 64.8361C82.6279 65.548 82.0509 66.1251 81.3389 66.1251Z" fill="#1E99D6"/>
<path d="M81.3389 70.6449H67.4385C66.7264 70.6449 66.1494 70.0679 66.1494 69.3558C66.1494 68.6438 66.7264 68.0668 67.4385 68.0668H81.3389C82.0509 68.0668 82.6279 68.6438 82.6279 69.3558C82.6279 70.0679 82.0509 70.6449 81.3389 70.6449Z" fill="#1E99D6"/>
<path d="M81.3389 75.165H67.4385C66.7264 75.165 66.1494 74.5881 66.1494 73.876C66.1494 73.1639 66.7264 72.5869 67.4385 72.5869H81.3389C82.0509 72.5869 82.6279 73.1639 82.6279 73.876C82.6279 74.5881 82.0509 75.165 81.3389 75.165Z" fill="#1E99D6"/>
<path d="M74.4166 79.6849H67.4385C66.7264 79.6849 66.1494 79.1079 66.1494 78.3958C66.1494 77.6837 66.7264 77.1068 67.4385 77.1068H74.4166C75.1287 77.1068 75.7057 77.6837 75.7057 78.3958C75.7057 79.1079 75.1285 79.6849 74.4166 79.6849Z" fill="#1E99D6"/>
<path d="M25.4925 47.9717C25.4925 48.4443 25.1058 48.831 24.6332 48.831H17.2021C16.7295 48.831 16.3428 48.4443 16.3428 47.9717V40.5406C16.3428 40.068 16.7295 39.6813 17.2021 39.6813H24.6332C25.1058 39.6813 25.4925 40.068 25.4925 40.5406V47.9717Z" fill="#52BBEF"/>
<path d="M55.9392 43.4847H29.5547C28.8426 43.4847 28.2656 42.9077 28.2656 42.1956C28.2656 41.4835 28.8426 40.9066 29.5547 40.9066H55.9392C56.6513 40.9066 57.2283 41.4835 57.2283 42.1956C57.2283 42.9077 56.6511 43.4847 55.9392 43.4847Z" fill="#52BBEF"/>
<path d="M47.5158 47.6063H29.5547C28.8426 47.6063 28.2656 47.0293 28.2656 46.3172C28.2656 45.6051 28.8426 45.0281 29.5547 45.0281H47.5158C48.2279 45.0281 48.8049 45.6051 48.8049 46.3172C48.8049 47.0293 48.2279 47.6063 47.5158 47.6063Z" fill="#52BBEF"/>
<path d="M25.4925 59.5738C25.4925 60.0464 25.1058 60.4331 24.6332 60.4331H17.2021C16.7295 60.4331 16.3428 60.0464 16.3428 59.5738V52.1426C16.3428 51.6699 16.7295 51.2832 17.2021 51.2832H24.6332C25.1058 51.2832 25.4925 51.6699 25.4925 52.1426V59.5738Z" fill="#02AF8E"/>
<path d="M55.9392 55.0866H29.5547C28.8426 55.0866 28.2656 54.5096 28.2656 53.7975C28.2656 53.0855 28.8426 52.5085 29.5547 52.5085H55.9392C56.6513 52.5085 57.2283 53.0855 57.2283 53.7975C57.2283 54.5096 56.6511 55.0866 55.9392 55.0866Z" fill="#02AF8E"/>
<path d="M47.5158 59.2082H29.5547C28.8426 59.2082 28.2656 58.6312 28.2656 57.9191C28.2656 57.2071 28.8426 56.6301 29.5547 56.6301H47.5158C48.2279 56.6301 48.8049 57.2071 48.8049 57.9191C48.8049 58.6312 48.2279 59.2082 47.5158 59.2082Z" fill="#02AF8E"/>
<path d="M25.4925 71.1756C25.4925 71.6483 25.1058 72.035 24.6332 72.035H17.2021C16.7295 72.035 16.3428 71.6483 16.3428 71.1756V63.7446C16.3428 63.272 16.7295 62.8853 17.2021 62.8853H24.6332C25.1058 62.8853 25.4925 63.272 25.4925 63.7446V71.1756Z" fill="#FF9518"/>
<path d="M19.7533 47.9717V40.5406C19.7533 40.068 20.14 39.6813 20.6127 39.6813H17.2021C16.7295 39.6813 16.3428 40.068 16.3428 40.5406V47.9717C16.3428 48.4443 16.7295 48.831 17.2021 48.831H20.6127C20.14 48.831 19.7533 48.4443 19.7533 47.9717Z" fill="#1E99D6"/>
<path d="M19.7533 59.5738V52.1426C19.7533 51.6699 20.14 51.2832 20.6127 51.2832H17.2021C16.7295 51.2832 16.3428 51.6699 16.3428 52.1426V59.5738C16.3428 60.0464 16.7295 60.4331 17.2021 60.4331H20.6127C20.14 60.4331 19.7533 60.0464 19.7533 59.5738Z" fill="#0F9390"/>
<path d="M19.7533 71.1756V63.7446C19.7533 63.272 20.14 62.8853 20.6127 62.8853H17.2021C16.7295 62.8853 16.3428 63.272 16.3428 63.7446V71.1756C16.3428 71.6483 16.7295 72.035 17.2021 72.035H20.6127C20.14 72.035 19.7533 71.6483 19.7533 71.1756Z" fill="#EF8318"/>
<path d="M55.9392 66.6885H29.5547C28.8426 66.6885 28.2656 66.1116 28.2656 65.3995C28.2656 64.6874 28.8426 64.1104 29.5547 64.1104H55.9392C56.6513 64.1104 57.2283 64.6874 57.2283 65.3995C57.2283 66.1114 56.6511 66.6885 55.9392 66.6885Z" fill="#FF9518"/>
<path d="M47.5158 70.8101H29.5547C28.8426 70.8101 28.2656 70.2331 28.2656 69.5211C28.2656 68.8092 28.8426 68.232 29.5547 68.232H47.5158C48.2279 68.232 48.8049 68.8092 48.8049 69.5211C48.8049 70.2331 48.2279 70.8101 47.5158 70.8101Z" fill="#FF9518"/>
<path d="M66.8786 49.6272C69.3438 49.6272 71.3422 47.6288 71.3422 45.1636C71.3422 42.6984 69.3438 40.7 66.8786 40.7C64.4135 40.7 62.415 42.6984 62.415 45.1636C62.415 47.6288 64.4135 49.6272 66.8786 49.6272Z" fill="#91E0E8"/>
<path d="M67.1318 48.3192C65.3888 46.576 65.3888 43.7499 67.1318 42.0066C67.5606 41.5779 68.0551 41.2551 68.5828 41.0372C66.9656 40.3696 65.0356 40.6922 63.7213 42.0066C61.9783 43.7499 61.9783 46.576 63.7213 48.3192C65.0356 49.6334 66.9656 49.9561 68.5828 49.2886C68.0551 49.0706 67.5606 48.748 67.1318 48.3192Z" fill="#5DC1D8"/>
<path d="M75.1345 51.5969L71.7527 48.2149C73.1428 45.9945 72.8747 43.0248 70.9454 41.095C69.859 40.0087 68.4144 39.4103 66.8778 39.4103C65.3413 39.4103 63.8966 40.0086 62.8099 41.0952C60.5673 43.3383 60.5673 46.9877 62.81 49.2307C63.8965 50.3171 65.3413 50.9156 66.8778 50.9156C67.9751 50.9156 69.0244 50.6091 69.9308 50.039L73.3114 53.4196C73.5632 53.6714 73.8931 53.7972 74.2231 53.7972C74.5529 53.7972 74.8829 53.6714 75.1345 53.4198C75.6379 52.9166 75.6379 52.1003 75.1345 51.5969ZM64.6331 47.4078C63.3955 46.1699 63.3955 44.1559 64.633 42.9182C65.2326 42.3187 66.03 41.9886 66.8778 41.9886C67.7257 41.9886 68.523 42.3187 69.1225 42.9181C70.3602 44.1559 70.3602 46.1699 69.1225 47.4076C68.523 48.0073 67.7258 48.3375 66.8778 48.3375C66.0298 48.3375 65.2326 48.0073 64.6331 47.4078Z" fill="#1A2B63"/>
<path d="M0 22.9005C0 23.2394 0.277234 23.5165 0.616 23.5165H25.2586C25.5973 23.5165 25.8746 23.2394 25.8746 22.9005V6.39017C25.8746 6.0514 25.5973 5.77417 25.2586 5.77417H0.616C0.277234 5.77417 0 6.0514 0 6.39017V22.9005Z" fill="#91E0E8"/>
<path d="M3.41052 22.9005V6.39017C3.41052 6.0514 3.68775 5.77417 4.02652 5.77417H0.616C0.277234 5.77417 0 6.0514 0 6.39017V22.9007C0 23.2396 0.277234 23.5167 0.616 23.5167H4.02652C3.68775 23.5165 3.41052 23.2394 3.41052 22.9005Z" fill="#5DC1D8"/>
<path d="M5.90958 15.4208C6.12803 15.162 6.48519 15.162 6.70364 15.4208L9.90653 19.2208C10.125 19.4796 10.4821 19.4796 10.7006 19.2208L16.7461 12.0484C16.9646 11.7896 17.3217 11.7896 17.5402 12.0484L25.8746 21.9362V22.9005C25.8746 23.2394 25.5973 23.5165 25.2586 23.5165H0.616C0.277234 23.5165 0 23.2394 0 22.9005V22.4312L5.90958 15.4208Z" fill="#37C47A"/>
<path d="M22.4019 10.8527C23.4226 10.8527 24.2501 10.0253 24.2501 9.00454C24.2501 7.98383 23.4226 7.15637 22.4019 7.15637C21.3812 7.15637 20.5537 7.98383 20.5537 9.00454C20.5537 10.0253 21.3812 10.8527 22.4019 10.8527Z" fill="white"/>
</svg>
