<svg width="88" height="88" viewBox="0 0 88 88" fill="none" xmlns="http://www.w3.org/2000/svg">
<path d="M45.8906 86.1094C69.147 86.1094 88 67.2564 88 44C88 20.7436 69.147 1.89062 45.8906 1.89062C22.6343 1.89062 3.78125 20.7436 3.78125 44C3.78125 67.2564 22.6343 86.1094 45.8906 86.1094Z" fill="#AEC1ED"/>
<path d="M45.8906 86.1094C69.147 86.1094 88 67.2564 88 44C88 20.7436 69.147 1.89062 45.8906 1.89062C22.6343 1.89062 3.78125 20.7436 3.78125 44C3.78125 67.2564 22.6343 86.1094 45.8906 86.1094Z" fill="#69CDFF"/>
<path d="M26.7235 27.7509C26.7235 24.8337 27.4629 22.0861 28.7635 19.6852V9.76732C28.7635 9.29466 28.3767 8.90794 27.9041 8.90794H0.859375C0.386719 8.90794 0 9.29466 0 9.76732V27.4082C0 27.8809 0.386719 28.2676 0.859375 28.2676H11.5643C12.0369 28.2676 12.7105 28.527 13.0611 28.8441L18.7223 33.9635C19.073 34.2806 19.3598 34.1533 19.3598 33.6806V29.1271C19.3598 28.6545 19.7465 28.2678 20.2192 28.2678H26.7235V27.7509Z" fill="#FFAF10"/>
<path d="M3.41052 27.4082V9.76732C3.41052 9.29466 3.79723 8.90794 4.26989 8.90794H0.859375C0.386719 8.90794 0 9.29466 0 9.76732V27.4082C0 27.8809 0.386719 28.2676 0.859375 28.2676H4.26989C3.79723 28.2676 3.41052 27.8809 3.41052 27.4082Z" fill="#EF9614"/>
<path d="M22.4978 15.459H6.18652C5.47462 15.459 4.89746 14.882 4.89746 14.1699C4.89746 13.4578 5.47462 12.8808 6.18652 12.8808H22.4978C23.2099 12.8808 23.7869 13.4578 23.7869 14.1699C23.7869 14.882 23.2099 15.459 22.4978 15.459Z" fill="#DB722C"/>
<path d="M22.4978 19.5437H6.18652C5.47462 19.5437 4.89746 18.9667 4.89746 18.2547C4.89746 17.5426 5.47462 16.9656 6.18652 16.9656H22.4978C23.2099 16.9656 23.7869 17.5426 23.7869 18.2547C23.7869 18.9667 23.2099 19.5437 22.4978 19.5437Z" fill="#DB722C"/>
<path d="M14.3745 23.6283H6.18652C5.47462 23.6283 4.89746 23.0514 4.89746 22.3393C4.89746 21.6272 5.47462 21.0502 6.18652 21.0502H14.3745C15.0866 21.0502 15.6635 21.6272 15.6635 22.3393C15.6635 23.0512 15.0864 23.6283 14.3745 23.6283Z" fill="#DB722C"/>
<path d="M29.1299 34.2365V27.7509C29.1299 19.7101 35.6716 13.1684 43.7124 13.1684H48.0691C56.11 13.1684 62.6517 19.7101 62.6517 27.7509V34.2365C63.5931 34.2593 64.4739 34.5302 65.2298 34.9883V27.7509C65.2298 18.2885 57.5315 10.5903 48.0691 10.5903H43.7124C34.25 10.5903 26.5518 18.2885 26.5518 27.7509V34.9883C27.3078 34.5302 28.1887 34.2593 29.1299 34.2365Z" fill="#1A2B63"/>
<path d="M30.7963 44.5797V34.2877C30.7963 34.211 30.8006 34.1373 30.8018 34.0615H29.2581C26.2705 34.0615 23.8486 36.4834 23.8486 39.4709V42.4454C23.8486 45.4327 26.2705 47.8546 29.2581 47.8546H31.155C30.9208 46.7997 30.7963 45.704 30.7963 44.5797Z" fill="#FE3745"/>
<path d="M62.5231 34.0615H60.9794C60.9806 34.1373 60.9848 34.211 60.9848 34.2877V44.5797C60.9848 45.704 60.8602 46.7997 60.626 47.8545H62.523C65.5105 47.8545 67.9324 45.4326 67.9324 42.4452V39.4707C67.9324 36.4834 65.5105 34.0615 62.5231 34.0615Z" fill="#FE3745"/>
<path d="M31.1501 47.8316C28.3909 47.585 26.2279 45.2683 26.2279 42.4452V39.4707C26.2279 36.768 28.2101 34.5285 30.8001 34.1261C30.8005 34.1043 30.8015 34.083 30.8018 34.0613H29.2581C26.2705 34.0613 23.8486 36.4832 23.8486 39.4707V42.4452C23.8486 45.4326 26.2705 47.8545 29.2581 47.8545H31.155C31.1535 47.8467 31.1518 47.8392 31.1501 47.8316Z" fill="#B7092B"/>
<path d="M66.2832 60.9893H58.1409C58.1201 61.1822 58.0425 61.3687 57.9093 61.5017L51.5901 67.8212C51.4703 67.941 51.3156 68.007 51.1547 68.007C50.9738 68.0068 50.8069 67.9264 50.685 67.7806L46.5732 62.8555C46.3935 62.6402 46.1511 62.5218 45.8906 62.5218C45.63 62.5218 45.3876 62.6404 45.2079 62.8555L41.0961 67.7806C40.9742 67.9267 40.8074 68.007 40.6265 68.007C40.4657 68.007 40.3111 67.941 40.1914 67.8212L33.8719 61.5017C33.7388 61.3687 33.661 61.1822 33.6403 60.9893H25.4979C22.903 60.9893 20.792 63.1005 20.792 65.6953V77.814C27.8014 83.0251 36.4856 86.1094 45.8907 86.1094C55.2959 86.1094 63.9801 83.0251 70.9891 77.8138V65.6951C70.9891 63.1005 68.878 60.9893 66.2832 60.9893Z" fill="#AEC1ED"/>
<path d="M43.3944 75.499L44.3592 77.4366C45.2019 79.129 46.5806 79.129 47.4234 77.4366L48.3877 75.4994L47.3692 70.0494L50.2089 67.2097L46.5738 62.8554C46.394 62.64 46.1516 62.5216 45.8911 62.5216C45.6305 62.5216 45.3882 62.6402 45.2084 62.8554L41.5732 67.2097L44.413 70.0494L43.3944 75.499Z" fill="#B7092B"/>
<path d="M66.283 60.9893H58.1408C58.12 61.1822 58.0423 61.3687 57.9091 61.5017L52.6545 66.7562L47.4228 77.2647C46.5801 78.9571 45.2013 78.9571 44.3586 77.2647L39.1269 66.7568L33.8719 61.5017C33.7388 61.3687 33.661 61.1822 33.6403 60.9893H25.4979C22.903 60.9893 20.792 63.1005 20.792 65.6953V77.814C27.8012 83.0251 36.4854 86.1094 45.8906 86.1094C55.2957 86.1094 63.9799 83.0251 70.9889 77.8138V65.6951C70.9889 63.1005 68.8778 60.9893 66.283 60.9893Z" fill="#293D7C"/>
<path d="M24.2025 65.6953C24.2025 63.1005 26.3135 60.9893 28.9084 60.9893H25.4979C22.903 60.9893 20.792 63.1005 20.792 65.6953V77.814C21.8891 78.6295 23.0271 79.3932 24.2025 80.1008V65.6953Z" fill="#1A2B63"/>
<path d="M55.3656 56.3205C52.7732 58.4167 49.4762 59.6745 45.8903 59.6745C42.3045 59.6745 39.0072 58.4169 36.4149 56.3203L33.6339 60.3108C33.3636 60.6985 33.416 61.2891 33.7501 61.6234L40.0696 67.9429C40.4037 68.277 40.925 68.2536 41.2279 67.8908L45.3396 62.9657C45.6427 62.6031 46.1382 62.6031 46.441 62.9657L50.5528 67.8906C50.8556 68.2533 51.3769 68.2768 51.7112 67.9427L58.0304 61.6232C58.3647 61.2891 58.4171 60.6983 58.1469 60.3106L55.3656 56.3205Z" fill="white"/>
<path d="M37.0444 60.3106L38.7438 57.8724C37.9182 57.4267 37.1393 56.9061 36.4149 56.3203L33.6339 60.3108C33.3636 60.6985 33.416 61.2891 33.7501 61.6234L40.0696 67.9429C40.4037 68.277 40.925 68.2536 41.2279 67.8908L42.2289 66.6916L37.1606 61.6234C36.8265 61.2891 36.7741 60.6983 37.0444 60.3106Z" fill="#D9EAFC"/>
<path d="M52.7737 19.0273C51.6333 19.0273 50.5467 19.2558 49.5557 19.6682C50.5616 20.9074 51.2914 22.3785 51.6531 23.9874C57.2275 25.0657 61.1565 28.0674 61.1565 34.4596V27.4101C61.1565 22.7803 57.4035 19.0273 52.7737 19.0273Z" fill="#DB722C"/>
<path d="M45.8905 23.4946C48.0173 23.4946 50.0421 23.656 51.8815 24.0326C50.8419 19.1828 46.5343 15.5464 41.3739 15.5464C35.4369 15.5464 30.624 20.3589 30.624 26.296V34.4596C30.6242 26.0284 37.459 23.4946 45.8905 23.4946Z" fill="#EF8318"/>
<path d="M33.6557 26.8797V26.2962C33.6557 20.8722 37.6733 16.389 42.8947 15.6544C42.3978 15.5837 41.8903 15.5466 41.3739 15.5466C35.4369 15.5466 30.624 20.3591 30.624 26.2962V34.4597C30.6242 31.0351 31.7517 28.5837 33.6557 26.8797Z" fill="#DB722C"/>
<path d="M61.1566 44.5797C61.1566 53.0114 54.3215 59.8462 45.8903 59.8462C37.4588 59.8462 30.624 53.0112 30.624 44.5797V34.2877C30.624 25.8564 37.459 23.3228 45.8903 23.3228C54.3216 23.3228 61.1566 25.8564 61.1566 34.2877V44.5797Z" fill="#FFE2B8"/>
<path d="M33.6556 44.5797V34.2877C33.6556 26.368 39.6861 23.6524 47.4059 23.3518C46.9075 23.3326 46.4018 23.3228 45.8903 23.3228C37.4588 23.3228 30.624 25.8564 30.624 34.2877V44.5797C30.624 53.0114 37.459 59.8462 45.8903 59.8462C46.402 59.8462 46.9075 59.8201 47.4059 59.7707C39.6861 59.0098 33.6556 52.4996 33.6556 44.5797Z" fill="#FFC987"/>
<path d="M38.618 41.5332C37.7319 41.5332 37.0137 40.8151 37.0137 39.929V37.1482C37.0137 36.2622 37.7319 35.5439 38.618 35.5439C39.5041 35.5439 40.2222 36.2622 40.2222 37.1482V39.929C40.2222 40.8151 39.5041 41.5332 38.618 41.5332Z" fill="#A53535"/>
<path d="M53.1639 41.5332C52.2777 41.5332 51.5596 40.8151 51.5596 39.929V37.1482C51.5596 36.2622 52.2777 35.5439 53.1639 35.5439C54.0497 35.5439 54.7681 36.2622 54.7681 37.1482V39.929C54.768 40.8151 54.0497 41.5332 53.1639 41.5332Z" fill="#A53535"/>
<path d="M47.2807 45.1632H45.3556C43.9989 45.1632 42.8955 44.0598 42.8955 42.7032V38.1401C42.8955 37.2541 43.6138 36.5358 44.4998 36.5358C45.386 36.5358 46.1041 37.2541 46.1041 38.1401V41.9543H47.2807C48.1666 41.9543 48.885 42.6728 48.885 43.5586C48.885 44.445 48.1666 45.1632 47.2807 45.1632Z" fill="#A53535"/>
<path d="M45.5472 51.9063H47.6097C48.6291 51.9063 49.5402 52.3145 50.1396 52.9519C51.0603 51.9348 51.622 50.5868 51.622 49.11C51.622 48.368 51.0208 47.7668 50.2786 47.7668H41.5032C40.7614 47.7668 40.1602 48.368 40.1602 49.11C40.1602 51.0027 41.083 52.6833 42.5016 53.7274C42.9731 52.6642 44.1587 51.9063 45.5472 51.9063Z" fill="#F87EAB"/>
<path d="M44.4077 52.0879C43.8773 51.2194 43.5705 50.2002 43.5705 49.1102C43.5705 48.3682 44.1717 47.767 44.9137 47.767H41.5032C40.7614 47.767 40.1602 48.3682 40.1602 49.1102C40.1602 51.0029 41.083 52.6835 42.5016 53.7276C42.8368 52.9714 43.533 52.3722 44.4077 52.0879Z" fill="#E26693"/>
<path d="M62.6483 47.8512V52.0781C62.6483 52.789 62.0701 53.3672 61.3593 53.3672H50.4629C50.7247 53.7749 50.8749 54.2434 50.8749 54.7422C50.8749 55.1727 50.7606 55.5794 50.5621 55.9453H61.3593C63.4915 55.9453 65.2264 54.2104 65.2264 52.0781V47.1297C64.4647 47.5702 63.5862 47.8299 62.6483 47.8512Z" fill="#1A2B63"/>
<path d="M51.0469 54.7422C51.0469 56.3965 49.5 57.75 47.6094 57.75H45.5469C43.6562 57.75 42.1094 56.3965 42.1094 54.7422C42.1094 53.0879 43.6562 51.7344 45.5469 51.7344H47.6094C49.5 51.7344 51.0469 53.0879 51.0469 54.7422Z" fill="#445EA0"/>
</svg>
