<svg width="88" height="88" viewBox="0 0 88 88" fill="none" xmlns="http://www.w3.org/2000/svg">
<path d="M44 86.1094C67.2564 86.1094 86.1094 67.2564 86.1094 44C86.1094 20.7436 67.2564 1.89062 44 1.89062C20.7436 1.89062 1.89062 20.7436 1.89062 44C1.89062 67.2564 20.7436 86.1094 44 86.1094Z" fill="#EC9006"/>
<path d="M53.2812 66.7992H34.7188V73.9217H53.2812V66.7992Z" fill="#445EA0"/>
<path d="M38.1293 66.7992H34.7188V73.9217H38.1293V66.7992Z" fill="#293D7C"/>
<path d="M61.9616 78.0455C61.9616 78.5182 61.5749 78.9049 61.1023 78.9049H26.8984C26.4258 78.9049 26.0391 78.5182 26.0391 78.0455V74.608C26.0391 74.1354 26.4258 73.7487 26.8984 73.7487H61.1023C61.5749 73.7487 61.9616 74.1354 61.9616 74.608V78.0455Z" fill="#293D7C"/>
<path d="M32.8601 78.0455V74.608C32.8601 74.1354 33.2468 73.7487 33.7195 73.7487H26.8984C26.4258 73.7487 26.0391 74.1354 26.0391 74.608V78.0455C26.0391 78.5182 26.4258 78.9049 26.8984 78.9049H33.7195C33.2468 78.9049 32.8601 78.5182 32.8601 78.0455Z" fill="#1A2B63"/>
<path d="M0 65.2518C0 66.1971 0.773438 66.9706 1.71875 66.9706H86.2812C87.2266 66.9706 88 66.1971 88 65.2518V57.815H0V65.2518Z" fill="#293D7C"/>
<path d="M3.41052 65.2518V57.815H0V65.2518C0 66.1971 0.773438 66.9706 1.71875 66.9706H5.12927C4.18395 66.9706 3.41052 66.1971 3.41052 65.2518Z" fill="#1A2B63"/>
<path d="M85.8844 8.06387H2.11561C0.952187 8.06387 0 9.01572 0 10.1791V57.9869H88V10.1791C88 9.01572 87.0478 8.06387 85.8844 8.06387Z" fill="#445EA0"/>
<path d="M4.58539 54.0246C4.10672 54.0246 3.71484 53.6331 3.71484 53.1542V12.8963C3.71484 12.4176 4.10655 12.0259 4.58539 12.0259H83.4141C83.8928 12.0259 84.2845 12.4176 84.2845 12.8963V53.1542C84.2845 53.6331 83.8928 54.0246 83.4141 54.0246H4.58539Z" fill="#5DC1D8"/>
<path d="M7.42992 53.1542V12.8963C7.42992 12.4176 7.82162 12.0259 8.3003 12.0259H4.58539C4.10672 12.0259 3.71484 12.4176 3.71484 12.8963V53.1542C3.71484 53.6331 4.10655 54.0246 4.58539 54.0246H8.30047C7.8218 54.0246 7.42992 53.6331 7.42992 53.1542Z" fill="#28A5A5"/>
<path d="M45.1737 30.7582C45.1737 31.0418 44.9416 31.2738 44.658 31.2738H41.8223C41.5387 31.2738 41.3066 31.0418 41.3066 30.7582V17.9121C41.3066 17.6285 41.5387 17.3965 41.8223 17.3965H44.658C44.9416 17.3965 45.1737 17.6285 45.1737 17.9121V30.7582Z" fill="white"/>
<path d="M50.3297 30.7582C50.3297 31.0418 50.0977 31.2739 49.8141 31.2739H46.9785C46.6949 31.2739 46.4629 31.0418 46.4629 30.7582V22.6122C46.4629 22.3286 46.6949 22.0966 46.9785 22.0966H49.8141C50.0977 22.0966 50.3297 22.3286 50.3297 22.6122V30.7582Z" fill="white"/>
<path d="M55.4852 30.7582C55.4852 31.0418 55.2531 31.2738 54.9696 31.2738H52.1338C51.8502 31.2738 51.6182 31.0418 51.6182 30.7582V25.0746C51.6182 24.7911 51.8502 24.559 52.1338 24.559H54.9696C55.2531 24.559 55.4852 24.7911 55.4852 25.0746V30.7582Z" fill="white"/>
<path d="M60.6416 30.7582C60.6416 31.0418 60.4096 31.2738 60.126 31.2738H57.29C57.0064 31.2738 56.7744 31.0418 56.7744 30.7582V20.3742C56.7744 20.0906 57.0064 19.8586 57.29 19.8586H60.126C60.4096 19.8586 60.6416 20.0906 60.6416 20.3742V30.7582Z" fill="white"/>
<path d="M65.7977 30.7582C65.7977 31.0418 65.5657 31.2738 65.2821 31.2738H62.4463C62.1627 31.2738 61.9307 31.0418 61.9307 30.7582V23.7314C61.9307 23.4479 62.1627 23.2158 62.4463 23.2158H65.2821C65.5657 23.2158 65.7977 23.4479 65.7977 23.7314V30.7582Z" fill="white"/>
<path d="M61.9307 47.3014C61.9307 47.585 62.1627 47.817 62.4463 47.817H65.2821C65.5656 47.817 65.7977 47.585 65.7977 47.3014V34.4553C65.7977 34.1717 65.5656 33.9396 65.2821 33.9396H62.4463C62.1627 33.9396 61.9307 34.1717 61.9307 34.4553V47.3014Z" fill="#FFAF10"/>
<path d="M56.7744 47.3014C56.7744 47.585 57.0064 47.817 57.29 47.817H60.1256C60.4092 47.817 60.6413 47.585 60.6413 47.3014V39.1555C60.6413 38.8719 60.4092 38.6399 60.1256 38.6399H57.29C57.0064 38.6399 56.7744 38.8719 56.7744 39.1555V47.3014Z" fill="#FFAF10"/>
<path d="M51.6182 47.3014C51.6182 47.585 51.8502 47.817 52.1338 47.817H54.9696C55.2531 47.817 55.4852 47.585 55.4852 47.3014V41.6178C55.4852 41.3342 55.2531 41.1022 54.9696 41.1022H52.1338C51.8502 41.1022 51.6182 41.3342 51.6182 41.6178V47.3014Z" fill="#FFAF10"/>
<path d="M46.4629 47.3014C46.4629 47.585 46.6949 47.817 46.9785 47.817H49.8145C50.098 47.817 50.3301 47.585 50.3301 47.3014V36.9174C50.3301 36.6338 50.098 36.4017 49.8145 36.4017H46.9785C46.6949 36.4017 46.4629 36.6338 46.4629 36.9174V47.3014Z" fill="#FFAF10"/>
<path d="M41.3066 47.3014C41.3066 47.585 41.5387 47.817 41.8223 47.817H44.658C44.9416 47.817 45.1737 47.585 45.1737 47.3014V40.2748C45.1737 39.9912 44.9416 39.7592 44.658 39.7592H41.8223C41.5387 39.7592 41.3066 39.9912 41.3066 40.2748V47.3014Z" fill="#FFAF10"/>
<path d="M78.4717 22.7079H69.7705C69.0584 22.7079 68.4814 22.131 68.4814 21.4189C68.4814 20.7068 69.0584 20.1298 69.7705 20.1298H78.4717C79.1838 20.1298 79.7607 20.7068 79.7607 21.4189C79.7607 22.131 79.1836 22.7079 78.4717 22.7079Z" fill="#91E0E8"/>
<path d="M78.4717 26.3708H69.7705C69.0584 26.3708 68.4814 25.7938 68.4814 25.0817C68.4814 24.3696 69.0584 23.7926 69.7705 23.7926H78.4717C79.1838 23.7926 79.7607 24.3696 79.7607 25.0817C79.7607 25.7936 79.1836 26.3708 78.4717 26.3708Z" fill="#91E0E8"/>
<path d="M78.4717 30.0333H69.7705C69.0584 30.0333 68.4814 29.4563 68.4814 28.7442C68.4814 28.0321 69.0584 27.4551 69.7705 27.4551H78.4717C79.1838 27.4551 79.7607 28.0321 79.7607 28.7442C79.7607 29.4563 79.1836 30.0333 78.4717 30.0333Z" fill="#91E0E8"/>
<path d="M75.1846 33.6959H69.7705C69.0584 33.6959 68.4814 33.1189 68.4814 32.4069C68.4814 31.6948 69.0584 31.1178 69.7705 31.1178H75.1846C75.8966 31.1178 76.4736 31.6948 76.4736 32.4069C76.4736 33.1188 75.8965 33.6959 75.1846 33.6959Z" fill="#91E0E8"/>
<path d="M78.4717 40.4645H69.7705C69.0584 40.4645 68.4814 39.8876 68.4814 39.1755C68.4814 38.4634 69.0584 37.8864 69.7705 37.8864H78.4717C79.1838 37.8864 79.7607 38.4634 79.7607 39.1755C79.7607 39.8874 79.1836 40.4645 78.4717 40.4645Z" fill="#91E0E8"/>
<path d="M78.4717 44.127H69.7705C69.0584 44.127 68.4814 43.55 68.4814 42.838C68.4814 42.1259 69.0584 41.5489 69.7705 41.5489H78.4717C79.1838 41.5489 79.7607 42.1259 79.7607 42.838C79.7607 43.55 79.1836 44.127 78.4717 44.127Z" fill="#91E0E8"/>
<path d="M75.1846 47.7897H69.7705C69.0584 47.7897 68.4814 47.2127 68.4814 46.5006C68.4814 45.7887 69.0584 45.2115 69.7705 45.2115H75.1846C75.8966 45.2115 76.4736 45.7887 76.4736 46.5006C76.4736 47.2125 75.8965 47.7897 75.1846 47.7897Z" fill="#91E0E8"/>
<path d="M83.674 63.3932C83.674 63.6768 83.442 63.9088 83.1584 63.9088H80.1221C79.8385 63.9088 79.6064 63.6768 79.6064 63.3932V60.3568C79.6064 60.0732 79.8385 59.8412 80.1221 59.8412H83.1584C83.442 59.8412 83.674 60.0732 83.674 60.3568V63.3932Z" fill="#91E0E8"/>
<path d="M24.915 32.1068C24.6302 32.1068 24.3994 31.8759 24.3994 31.5911V18.228C24.3994 18.0881 24.4563 17.9539 24.5572 17.8568C24.6533 17.764 24.7818 17.7124 24.915 17.7124C24.9212 17.7124 24.9276 17.7126 24.9339 17.7127C32.4306 17.9876 38.5184 24.0754 38.7933 31.5722C38.7982 31.7121 38.7465 31.8481 38.6492 31.949C38.5519 32.0499 38.4179 32.1068 38.278 32.1068H24.915Z" fill="#FFAF10"/>
<path d="M23.2128 47.6967C15.2702 47.6967 8.80859 41.235 8.80859 33.2927C8.80859 29.5443 10.2463 25.992 12.8573 23.2899C15.4614 20.5948 18.9492 19.0353 22.6782 18.8987C22.6846 18.8985 22.6909 18.8983 22.6971 18.8983C22.8303 18.8983 22.9589 18.9499 23.055 19.0427C23.1559 19.1398 23.2128 19.2741 23.2128 19.414V33.2927H37.0913C37.2312 33.2927 37.3655 33.3496 37.4626 33.4505C37.5597 33.5514 37.6116 33.6873 37.6066 33.8272C37.47 37.5561 35.9105 41.0439 33.2154 43.6482C30.5135 46.259 26.961 47.6967 23.2128 47.6967Z" fill="#91E0E8"/>
<path d="M25.678 45.2315C17.7354 45.2315 11.2738 38.7699 11.2738 30.8275C11.2738 27.5798 12.3549 24.48 14.3416 21.9521C13.8212 22.3609 13.3246 22.8063 12.8573 23.2898C10.2465 25.9918 8.80859 29.5443 8.80859 33.2925C8.80859 41.2349 15.2702 47.6965 23.2127 47.6965C26.9612 47.6965 30.5137 46.2588 33.2154 43.648C33.6988 43.1807 34.1442 42.6841 34.5531 42.1637C32.0255 44.1504 28.9259 45.2315 25.678 45.2315Z" fill="#91E0E8"/>
</svg>
