<svg width="24" height="24" viewBox="0 0 24 24" fill="none" xmlns="http://www.w3.org/2000/svg">
<g clip-path="url(#clip0_555_8425)">
<path d="M16 23.1803C16 23.6721 15.6716 24 15.1789 24H2.86217C2.61584 24 2.28739 23.8361 2.12317 23.5902C1.95894 23.3443 1.95894 23.0164 2.12317 22.7705L3.7654 19.4918C3.92962 19.2459 4.17595 19 4.5044 19H13.5367C13.8651 19 14.1114 19.1639 14.2757 19.4918L15.8358 22.6066C15.9179 22.7705 16 22.9344 16 23.1803Z" fill="white"/>
<path d="M15.4992 5.09184L14.6429 6.57092C14.4094 7.038 13.8645 7.27154 13.3974 7.27154C13.1638 7.27154 12.9303 7.19369 12.6968 7.11584L9.8943 11.8645C10.2057 12.0202 10.4392 12.3316 10.5171 12.7208C10.5949 13.11 10.5949 13.4993 10.3614 13.8106L9.58291 15.134C9.34937 15.6011 8.80445 15.9125 8.33737 15.9125C8.10383 15.9125 7.79245 15.8347 7.55891 15.679L2.73243 12.8765C2.03181 12.4873 1.79827 11.5531 2.18751 10.8525L2.96597 9.52909C3.3552 8.82847 4.28936 8.59493 4.91213 8.98416L7.63675 4.23552C6.93614 3.84629 6.7026 2.91213 7.16967 2.21152L8.02598 0.732432C8.41522 0.0318134 9.34937 -0.201726 10.05 0.187506L14.9543 2.98998C15.2657 3.22352 15.5771 3.53491 15.6549 3.92414C15.7328 4.31337 15.6549 4.78045 15.4992 5.09184Z" fill="white"/>
<path d="M21.7512 15.2448C21.4623 15.8227 20.8122 16.1838 20.1621 16.1838C19.8732 16.1838 19.512 16.1116 19.2231 15.9671L12.2167 11.85C12.1445 11.7055 12.0722 11.561 12 11.4166L13.5169 8.81625C13.6613 8.81625 13.8058 8.81625 14.0225 8.74402L21.1011 12.8612C21.9679 13.2946 22.2568 14.3781 21.7512 15.2448Z" fill="white"/>
</g>
<defs>
<clipPath id="clip0_555_8425">
<rect width="24" height="24" fill="white"/>
</clipPath>
</defs>
</svg>
