<svg width="80" height="80" viewBox="0 0 80 80" fill="none" xmlns="http://www.w3.org/2000/svg">
<path d="M31.825 21.0875L34.6625 3.325C34.8625 2.125 35.8875 1.25 37.1 1.25C38.4875 1.25 39.575 2.375 39.575 3.7C39.575 3.8375 39.5625 3.975 39.5375 4.1125L35 32.5H30L31.825 21.0875Z" fill="#B7855F"/>
<path d="M32.3875 7.5V7.6125L31.825 21.0875L30 32.5H26.25L27.3875 7.3875C27.45 6.05 28.55 5 29.8875 5C31.275 5 32.3875 6.125 32.3875 7.5Z" fill="#9B6D4E"/>
<path d="M26.25 30V32.5H23.75V43.75C23.75 45.125 22.625 46.25 21.25 46.25H18.75H8.75C7.375 46.25 6.25 45.125 6.25 43.75V30C6.25 28.625 7.375 27.5 8.75 27.5H23.75C25.125 27.5 26.25 28.625 26.25 30Z" fill="#F0BC5E"/>
<path d="M37.5 32.5L36.25 53.75H9.45L8.75 46.25H18.75H21.25C22.625 46.25 23.75 45.125 23.75 43.75V32.5H26.25H30H35H37.5Z" fill="#DDDDDD"/>
<path d="M35 32.5H31.25L30 53.75H36.25L37.5 32.5H35Z" fill="#CCCCCC"/>
<path d="M67.5 62.5H73.75V68.75H67.5C67.5 66.3875 66.675 64.2125 65.3 62.5H67.5Z" fill="#B3B3B3"/>
<path d="M65.3 62.5C66.675 64.2125 67.5 66.3875 67.5 68.75C67.5 74.275 63.025 78.75 57.5 78.75C51.975 78.75 47.5 74.275 47.5 68.75C47.5 63.625 51.35 59.4 56.325 58.825C56.7125 58.775 57.1 58.75 57.5 58.75C60.6625 58.75 63.475 60.2125 65.3 62.5ZM61.25 68.75C61.25 66.675 59.575 65 57.5 65C55.425 65 53.75 66.675 53.75 68.75C53.75 70.825 55.425 72.5 57.5 72.5C59.575 72.5 61.25 70.825 61.25 68.75Z" fill="#808080"/>
<path d="M57.5 72.5C59.5711 72.5 61.25 70.8211 61.25 68.75C61.25 66.6789 59.5711 65 57.5 65C55.4289 65 53.75 66.6789 53.75 68.75C53.75 70.8211 55.4289 72.5 57.5 72.5Z" fill="#B3B3B3"/>
<path d="M18.75 58.75C24.275 58.75 28.75 63.225 28.75 68.75C28.75 74.275 24.275 78.75 18.75 78.75C13.225 78.75 8.75 74.275 8.75 68.75C8.75 63.225 13.225 58.75 18.75 58.75ZM22.5 68.75C22.5 66.675 20.825 65 18.75 65C16.675 65 15 66.675 15 68.75C15 70.825 16.675 72.5 18.75 72.5C20.825 72.5 22.5 70.825 22.5 68.75Z" fill="#808080"/>
<path d="M18.75 72.5C20.8211 72.5 22.5 70.8211 22.5 68.75C22.5 66.6789 20.8211 65 18.75 65C16.6789 65 15 66.6789 15 68.75C15 70.8211 16.6789 72.5 18.75 72.5Z" fill="#B3B3B3"/>
<path d="M51.25 53.75L56.325 58.825C51.35 59.4 47.5 63.625 47.5 68.75H28.75C28.75 63.225 24.275 58.75 18.75 58.75C13.225 58.75 8.75 63.225 8.75 68.75H1.25V53.75H9.45H36.25H41.25H51.25Z" fill="#B3B3B3"/>
<path d="M58.75 15H65V16.25H73.75L71.525 52.9C71.35 55.9 70.2875 58.775 68.4875 61.1875L67.5 62.5H65.3C63.475 60.2125 60.6625 58.75 57.5 58.75C57.1 58.75 56.7125 58.775 56.325 58.825L51.25 53.75V15H58.75Z" fill="#F7753C"/>
<path d="M65 10V15H58.75H51.25V53.75H41.25L46 12.2125C46.1375 10.95 47.2125 10 48.475 10H65Z" fill="#DDDDDD"/>
<path d="M78.75 8.75V16.25H73.75H65V15V10V8.75H78.75Z" fill="#DD4E4E"/>
<path d="M42.25 45L41.25 53.75H51.25V45H42.25Z" fill="#CCCCCC"/>
<path d="M51.25 40V53.75L56.325 58.825C56.7125 58.775 57.1 58.75 57.5 58.75C60.6625 58.75 63.475 60.2125 65.3 62.5H67.5L68.4875 61.1875C69.9287 59.2563 70.8875 57.025 71.3062 54.6737C52.8512 52.3362 51.25 40 51.25 40Z" fill="#E06027"/>
<path d="M15 7.5C15 11.6462 17.795 15 21.25 15C19.5175 15 17.9637 15.8363 16.83 17.1962C15.6962 18.5562 15 20.4213 15 22.5C15 20.4213 14.3038 18.5575 13.17 17.1962C12.0363 15.835 10.4825 15 8.75 15C10.4825 15 12.0363 14.1638 13.17 12.8038C14.3038 11.4437 15 9.57875 15 7.5Z" fill="#B0E1F4"/>
<path d="M5 7.5C6.38071 7.5 7.5 6.38071 7.5 5C7.5 3.61929 6.38071 2.5 5 2.5C3.61929 2.5 2.5 3.61929 2.5 5C2.5 6.38071 3.61929 7.5 5 7.5Z" fill="#D8EFFA"/>
<path d="M26.25 32.5V30C26.25 28.625 25.125 27.5 23.75 27.5H8.75C7.375 27.5 6.25 28.625 6.25 30V32.5H23.75H26.25Z" fill="#F7D49C"/>
<path d="M58.75 33.75C59.4404 33.75 60 33.1904 60 32.5C60 31.8096 59.4404 31.25 58.75 31.25C58.0596 31.25 57.5 31.8096 57.5 32.5C57.5 33.1904 58.0596 33.75 58.75 33.75Z" fill="#252525"/>
<path d="M18.75 63.75C15.9925 63.75 13.75 65.9925 13.75 68.75C13.75 71.5075 15.9925 73.75 18.75 73.75C21.5075 73.75 23.75 71.5075 23.75 68.75C23.75 65.9925 21.5075 63.75 18.75 63.75ZM18.75 71.25C17.3712 71.25 16.25 70.1287 16.25 68.75C16.25 67.3712 17.3712 66.25 18.75 66.25C20.1287 66.25 21.25 67.3712 21.25 68.75C21.25 70.1287 20.1287 71.25 18.75 71.25Z" fill="#252525"/>
<path d="M57.5 63.75C54.7425 63.75 52.5 65.9925 52.5 68.75C52.5 71.5075 54.7425 73.75 57.5 73.75C60.2575 73.75 62.5 71.5075 62.5 68.75C62.5 65.9925 60.2575 63.75 57.5 63.75ZM57.5 71.25C56.1212 71.25 55 70.1287 55 68.75C55 67.3712 56.1212 66.25 57.5 66.25C58.8787 66.25 60 67.3712 60 68.75C60 70.1287 58.8787 71.25 57.5 71.25Z" fill="#252525"/>
<path d="M78.75 7.5H65C64.31 7.5 63.75 8.05875 63.75 8.75H48.475C46.5625 8.75 44.965 10.18 44.7575 12.07L40.135 52.5H37.575L38.7475 32.5737C38.7687 32.2313 38.645 31.8938 38.4087 31.6438C38.1737 31.3913 37.8438 31.25 37.5 31.25H36.465L40.7663 4.33625C40.805 4.12375 40.8237 3.9125 40.8237 3.7C40.8237 1.66 39.1525 0 37.0988 0C35.2738 0 33.73 1.3125 33.4263 3.1275L28.9338 31.25H27.5575L28.6362 7.44625C28.6675 6.775 29.2175 6.25 29.8875 6.25C30.5775 6.25 31.1375 5.69125 31.1375 5C31.1375 4.30875 30.5775 3.75 29.8875 3.75C27.8787 3.75 26.2325 5.3225 26.1387 7.33125L25.2662 26.5763C24.8025 26.37 24.2913 26.25 23.75 26.25H8.75C6.6825 26.25 5 27.9325 5 30V43.75C5 45.4113 6.09375 46.8075 7.5925 47.2988L8.0775 52.5H1.25C0.56 52.5 0 53.0588 0 53.75V68.75C0 69.4413 0.56 70 1.25 70H7.57375C8.19875 75.6162 12.97 80 18.75 80C24.53 80 29.3025 75.6162 29.9263 70H46.3237C46.9487 75.6162 51.72 80 57.5 80C63.28 80 68.0525 75.6162 68.6763 70H73.75C74.44 70 75 69.4413 75 68.75V62.5C75 61.8088 74.44 61.25 73.75 61.25H69.9638C71.6275 58.775 72.6012 55.935 72.7738 52.9762L74.9263 17.5H78.75C79.44 17.5 80 16.9412 80 16.25V8.75C80 8.05875 79.44 7.5 78.75 7.5ZM47.2425 12.3475C47.3112 11.7225 47.84 11.25 48.475 11.25H63.75V13.75H51.25C50.56 13.75 50 14.3088 50 15V52.5H42.6512L47.2425 12.3475ZM35.895 3.53125C35.995 2.93375 36.5025 2.5 37.1 2.5C37.7762 2.5 38.325 3.03875 38.325 3.7C38.325 3.76375 38.3187 3.82625 38.3025 3.915L33.9338 31.25H31.465L35.895 3.53125ZM7.5 30C7.5 29.31 8.06125 28.75 8.75 28.75H23.75C24.4387 28.75 25 29.31 25 30V31.25H23.75C23.06 31.25 22.5 31.8088 22.5 32.5V43.75C22.5 44.44 21.9387 45 21.25 45H20V42.5C20 41.8088 19.44 41.25 18.75 41.25C18.06 41.25 17.5 41.8088 17.5 42.5V45H8.75C8.06125 45 7.5 44.44 7.5 43.75V30ZM10.1225 47.5H21.25C23.3175 47.5 25 45.8175 25 43.75V33.75H36.1737L35.0713 52.5H10.5887L10.1225 47.5ZM2.5 55H50.7325L53.85 58.1175C49.775 59.5062 46.8088 63.1475 46.3263 67.5H29.9263C29.3013 61.8838 24.53 57.5 18.75 57.5C12.97 57.5 8.1975 61.8838 7.57375 67.5H2.5V55ZM18.75 77.5C13.925 77.5 10 73.5738 10 68.75C10 63.9263 13.925 60 18.75 60C23.575 60 27.5 63.9263 27.5 68.75C27.5 73.5738 23.575 77.5 18.75 77.5ZM57.5 77.5C52.675 77.5 48.75 73.5738 48.75 68.75C48.75 64.3075 52.0687 60.575 56.485 60.065C56.82 60.0212 57.155 60 57.5 60C60.1725 60 62.66 61.195 64.325 63.2825C65.5662 64.8288 66.25 66.77 66.25 68.75C66.25 73.5738 62.325 77.5 57.5 77.5ZM72.5 67.5H68.6712C68.5238 66.1937 68.1462 64.9238 67.5625 63.75H72.5V67.5ZM70.2775 52.8275C70.1175 55.5737 69.1525 58.2075 67.49 60.4362L66.8763 61.25H65.8575C63.7288 58.8675 60.725 57.5 57.5 57.5C57.2612 57.5 57.04 57.5288 56.8113 57.5438L52.5 53.2325V16.25H57.5V27.5C57.5 28.1912 58.06 28.75 58.75 28.75C59.44 28.75 60 28.1912 60 27.5V16.25H63.75C63.75 16.9412 64.31 17.5 65 17.5H72.4225L70.2775 52.8275ZM77.5 15H66.25V10H77.5V15Z" fill="#252525"/>
<path d="M63.75 22.4687L63.3125 39.9688C63.295 40.66 63.84 41.2337 64.5313 41.25H64.5625C65.2388 41.25 65.795 40.71 65.8113 40.0312L66.2488 22.5312C66.2663 21.84 65.7213 21.2662 65.03 21.25C64.3525 21.2225 63.7675 21.78 63.75 22.4687Z" fill="#252525"/>
<path d="M7.5 15C7.5 15.6912 8.06 16.25 8.75 16.25C10.0412 16.25 11.27 16.87 12.21 17.995C13.2025 19.1888 13.75 20.7887 13.75 22.5C13.75 23.1912 14.31 23.75 15 23.75C15.69 23.75 16.25 23.1912 16.25 22.5C16.25 20.7887 16.7975 19.1888 17.79 17.9963C18.73 16.87 19.9587 16.25 21.25 16.25C21.94 16.25 22.5 15.6912 22.5 15C22.5 14.3088 21.94 13.75 21.25 13.75C18.4925 13.75 16.25 10.9462 16.25 7.5C16.25 6.80875 15.69 6.25 15 6.25C14.31 6.25 13.75 6.80875 13.75 7.5C13.75 9.21125 13.2025 10.8112 12.21 12.0037C11.27 13.13 10.0412 13.75 8.75 13.75C8.06 13.75 7.5 14.3088 7.5 15ZM14.13 13.6038C14.4575 13.2125 14.75 12.7887 15.005 12.34C15.62 13.415 16.4325 14.3237 17.3825 14.9937C16.8363 15.3787 16.3287 15.8475 15.8712 16.3962C15.545 16.7875 15.255 17.2062 15.0013 17.6525C14.7475 17.2075 14.4563 16.7863 14.1313 16.395C13.6763 15.8488 13.1712 15.3825 12.6287 15C13.17 14.6163 13.675 14.1488 14.13 13.6038Z" fill="#252525"/>
<path d="M5 3.75C5.69 3.75 6.25 3.19125 6.25 2.5V1.25C6.25 0.55875 5.69 0 5 0C4.31 0 3.75 0.55875 3.75 1.25V2.5C3.75 3.19125 4.31 3.75 5 3.75Z" fill="#252525"/>
<path d="M1.25 6.25H2.5C3.19 6.25 3.75 5.69125 3.75 5C3.75 4.30875 3.19 3.75 2.5 3.75H1.25C0.56 3.75 0 4.30875 0 5C0 5.69125 0.56 6.25 1.25 6.25Z" fill="#252525"/>
<path d="M7.5 6.25H8.75C9.44 6.25 10 5.69125 10 5C10 4.30875 9.44 3.75 8.75 3.75H7.5C6.81 3.75 6.25 4.30875 6.25 5C6.25 5.69125 6.81 6.25 7.5 6.25Z" fill="#252525"/>
<path d="M5 6.25C4.31 6.25 3.75 6.80875 3.75 7.5V8.75C3.75 9.44125 4.31 10 5 10C5.69 10 6.25 9.44125 6.25 8.75V7.5C6.25 6.80875 5.69 6.25 5 6.25Z" fill="#252525"/>
</svg>
