<svg width="80" height="80" viewBox="0 0 80 80" fill="none" xmlns="http://www.w3.org/2000/svg">
<path d="M41.4984 22.6158L37.1401 32.7852L41.4984 44.4073V73.4625H12.4431V44.4073L16.8014 32.7852L12.4431 22.6158V16.8048L13.8959 13.8992H40.0456L41.4984 16.8048V22.6158Z" fill="#4A97FF"/>
<path d="M41.4984 22.6158L37.1401 32.7852L41.4984 44.4073V73.4625H16.4382V44.4073L20.7965 32.7852L16.4382 22.6158V16.8048L17.891 13.8992H40.0456L41.4984 16.8048V22.6158Z" fill="#61A8FF"/>
<path d="M38.5928 0.824463H15.3486V6.63552H38.5928V0.824463Z" fill="#61A8FF"/>
<path d="M41.4984 16.8048H12.4431L15.3486 5.18268H38.5929L41.4984 16.8048Z" fill="#4A97FF"/>
<path d="M29.8761 9.54095H24.0651V12.4465H29.8761V9.54095Z" fill="#B3E59F"/>
<path d="M26.9706 10.9937C28.5753 10.9937 29.8761 10.3433 29.8761 9.54096C29.8761 8.73862 28.5753 8.0882 26.9706 8.0882C25.3659 8.0882 24.0651 8.73862 24.0651 9.54096C24.0651 10.3433 25.3659 10.9937 26.9706 10.9937Z" fill="#ACD898"/>
<path d="M26.9706 13.8992C28.5753 13.8992 29.8761 13.2488 29.8761 12.4465C29.8761 11.6441 28.5753 10.9937 26.9706 10.9937C25.3659 10.9937 24.0651 11.6441 24.0651 12.4465C24.0651 13.2488 25.3659 13.8992 26.9706 13.8992Z" fill="#B3E59F"/>
<path d="M59.0566 37.7809C59.9046 36.9329 57.5532 35.3094 58.0396 34.238C58.0869 34.1345 58.1323 34.031 58.1758 33.9256C58.6747 32.7218 58.9314 31.4316 58.9315 30.1285V26.9742H70.5536V30.1285C70.5532 31.5464 70.8572 32.9478 71.4452 34.238C71.9319 35.3094 69.5748 36.3538 70.4221 37.2018C71.3526 38.1316 57.197 39.6405 59.0566 37.7809Z" fill="#C1C1C1"/>
<path d="M76.3647 44.1586V69.0898C76.3647 69.6641 76.2516 70.2327 76.0319 70.7633C75.8121 71.2938 75.49 71.7759 75.084 72.1819C74.6779 72.588 74.1959 72.9101 73.6653 73.1298C73.1348 73.3496 72.5661 73.4627 71.9919 73.4626H57.4933C56.919 73.4627 56.3504 73.3496 55.8199 73.1298C55.2893 72.9101 54.8073 72.588 54.4012 72.1819C53.9951 71.7759 53.673 71.2938 53.4533 70.7633C53.2335 70.2327 53.1205 69.6641 53.1205 69.0898V44.1586C53.1206 41.5275 54.1657 39.0042 56.026 37.1436C56.8662 36.3037 57.5484 35.3195 58.0399 34.238H71.4453C71.9368 35.3195 72.619 36.3037 73.4592 37.1436C75.3195 39.0042 76.3646 41.5275 76.3647 44.1586Z" fill="#E2CBAC"/>
<path d="M61.6718 34.238C61.719 34.1345 61.7644 34.031 61.808 33.9257C62.3068 32.7218 62.5635 31.4315 62.5634 30.1285V26.9742H70.5537V30.1285C70.5533 31.5464 70.8573 32.9478 71.4453 34.238C71.932 35.3094 61.1851 35.3094 61.6718 34.238Z" fill="#CCCCCC"/>
<path d="M76.3647 44.1586V69.0898C76.3648 69.6641 76.2517 70.2327 76.0319 70.7633C75.8122 71.2938 75.4901 71.7759 75.084 72.1819C74.678 72.588 74.1959 72.9101 73.6654 73.1298C73.1348 73.3496 72.5662 73.4627 71.9919 73.4626H61.1253C60.551 73.4627 59.9824 73.3496 59.4518 73.1298C58.9213 72.9101 58.4392 72.588 58.0332 72.1819C57.6271 71.7759 57.305 71.2938 57.0853 70.7633C56.8655 70.2327 56.7524 69.6641 56.7524 69.0898V44.1586C56.7526 41.5275 57.7977 39.0042 59.658 37.1436C60.4982 36.3037 61.1803 35.3195 61.6719 34.238H71.4453C71.9368 35.3195 72.619 36.3037 73.4592 37.1436C75.3196 39.0042 76.3647 41.5275 76.3647 44.1586Z" fill="#F4DBB4"/>
<path d="M59.7354 24.0686H69.75C70.3485 24.0686 70.9224 24.3063 71.3456 24.7295C71.7688 25.1527 72.0065 25.7266 72.0065 26.3251V28.4269H57.4789V26.3251C57.4789 25.7266 57.7166 25.1527 58.1398 24.7295C58.563 24.3063 59.1369 24.0686 59.7354 24.0686Z" fill="#808080"/>
<path d="M72.0063 56.6014V75.0696C72.006 76.1845 71.563 77.2536 70.7747 78.0419C69.9864 78.8302 68.9173 79.2732 67.8024 79.2736H35.6873V76.2427C35.9203 76.3261 36.1661 76.3685 36.4136 76.368C36.9916 76.368 37.5459 76.1384 37.9545 75.7298C38.3632 75.3211 38.5928 74.7668 38.5928 74.1889C38.5928 73.6109 38.3632 73.0567 37.9545 72.648C37.5459 72.2393 36.9916 72.0097 36.4136 72.0097C36.1661 72.0092 35.9203 72.0516 35.6873 72.135V67.2628C36.129 67.5176 36.63 67.6516 37.1399 67.6515C37.6498 67.6513 38.1507 67.5169 38.5922 67.2619C39.0338 67.0068 39.4004 66.64 39.6553 66.1984C39.9102 65.7568 40.0444 65.2558 40.0444 64.7459C40.0444 64.236 39.9102 63.7351 39.6553 63.2935C39.4004 62.8518 39.0338 62.4851 38.5922 62.23C38.1507 61.9749 37.6498 61.8406 37.1399 61.8404C36.63 61.8402 36.129 61.9743 35.6873 62.229V57.4821L67.1378 52.4501C67.7384 52.354 68.3527 52.3894 68.9384 52.5539C69.524 52.7183 70.067 53.0078 70.5298 53.4025C70.9927 53.7971 71.3644 54.2875 71.6193 54.8398C71.8742 55.3921 72.0063 55.9931 72.0063 56.6014Z" fill="#F4D096"/>
<path d="M40.9826 56.6342V79.2737H35.6873V76.2428C35.9203 76.3262 36.1661 76.3686 36.4136 76.3681C36.9916 76.3681 37.5459 76.1385 37.9545 75.7299C38.3632 75.3212 38.5928 74.7669 38.5928 74.189C38.5928 73.611 38.3632 73.0568 37.9545 72.6481C37.5459 72.2394 36.9916 72.0098 36.4136 72.0098C36.1661 72.0093 35.9203 72.0517 35.6873 72.1351V67.2629C36.129 67.5177 36.63 67.6517 37.1399 67.6516C37.6498 67.6514 38.1507 67.517 38.5922 67.262C39.0338 67.0069 39.4004 66.6401 39.6553 66.1985C39.9102 65.7569 40.0444 65.2559 40.0444 64.746C40.0444 64.2361 39.9102 63.7352 39.6553 63.2935C39.4004 62.8519 39.0338 62.4851 38.5922 62.2301C38.1507 61.975 37.6498 61.8407 37.1399 61.8405C36.63 61.8403 36.129 61.9744 35.6873 62.2291V57.4822L40.9826 56.6342Z" fill="#EAC692"/>
<path d="M66.1952 67.6515C67.7999 67.6515 69.1007 66.3507 69.1007 64.746C69.1007 63.1413 67.7999 61.8405 66.1952 61.8405C64.5905 61.8405 63.2897 63.1413 63.2897 64.746C63.2897 66.3507 64.5905 67.6515 66.1952 67.6515Z" fill="#DDB98C"/>
<path d="M44.4038 69.1043C45.2062 69.1043 45.8566 68.4538 45.8566 67.6515C45.8566 66.8492 45.2062 66.1987 44.4038 66.1987C43.6015 66.1987 42.951 66.8492 42.951 67.6515C42.951 68.4538 43.6015 69.1043 44.4038 69.1043Z" fill="#DDB98C"/>
<path d="M53.8469 63.2933C55.0504 63.2933 56.026 62.3177 56.026 61.1141C56.026 59.9106 55.0504 58.935 53.8469 58.935C52.6434 58.935 51.6677 59.9106 51.6677 61.1141C51.6677 62.3177 52.6434 63.2933 53.8469 63.2933Z" fill="#DDB98C"/>
<path d="M52.3941 74.9154C53.5976 74.9154 54.5733 73.9397 54.5733 72.7362C54.5733 71.5327 53.5976 70.5571 52.3941 70.5571C51.1906 70.5571 50.215 71.5327 50.215 72.7362C50.215 73.9397 51.1906 74.9154 52.3941 74.9154Z" fill="#DDB98C"/>
<path d="M63.2897 76.3681C64.092 76.3681 64.7424 75.7176 64.7424 74.9153C64.7424 74.1129 64.092 73.4625 63.2897 73.4625C62.4873 73.4625 61.8369 74.1129 61.8369 74.9153C61.8369 75.7176 62.4873 76.3681 63.2897 76.3681Z" fill="#DDB98C"/>
<path d="M24.0652 74.9153H8.08484V79.2736H24.0652V74.9153Z" fill="#DDB98C"/>
<path d="M41.4984 22.6158H12.4431V44.4073H41.4984V22.6158Z" fill="#ACD898"/>
<path d="M41.4984 22.6158H16.4382V44.4073H41.4984V22.6158Z" fill="#B3E59F"/>
<path d="M26.9707 40.049C30.1801 40.049 32.7818 37.4473 32.7818 34.2379C32.7818 31.0286 30.1801 28.4269 26.9707 28.4269C23.7614 28.4269 21.1597 31.0286 21.1597 34.2379C21.1597 37.4473 23.7614 40.049 26.9707 40.049Z" fill="#61A8FF"/>
<path d="M26.6475 56.0294L25.1258 63.8235L25.8412 70.5571L25.5634 75.5564C25.551 75.7758 25.4551 75.9822 25.2954 76.1331C25.1357 76.2841 24.9242 76.3682 24.7045 76.3681H7.44563C7.22587 76.3682 7.01442 76.2841 6.8547 76.1331C6.69497 75.9822 6.59907 75.7758 6.58669 75.5564L6.30884 70.5571L7.30217 62.2691L5.50256 56.0294L5.17932 50.2184L6.63208 49.492H25.518L26.9708 50.2184L26.6475 56.0294Z" fill="#E2CBAC"/>
<path d="M26.6476 56.0294L25.1258 63.8235L25.8413 70.5571L25.5634 75.5564C25.5511 75.7758 25.4552 75.9822 25.2954 76.1331C25.1357 76.2841 24.9243 76.3682 24.7045 76.3681H10.5328C10.313 76.3682 10.1016 76.2841 9.94186 76.1331C9.78213 75.9822 9.68623 75.7758 9.67384 75.5564L9.396 70.5571L10.3893 62.2691L8.58972 56.0294L8.26648 50.2184L9.71924 49.492H25.518L26.9708 50.2184L26.6476 56.0294Z" fill="#F4DBB4"/>
<path d="M28.4234 47.3128H3.72644V50.2183H28.4234V47.3128Z" fill="#F08977"/>
<path d="M26.6475 56.0294L25.8412 70.557H6.30885L5.50256 56.0294H26.6475Z" fill="#F08977"/>
<path d="M26.9707 14.6257C29.0408 14.6257 30.6026 13.6888 30.6026 12.4465V9.54102C30.6026 8.29873 29.0408 7.36188 26.9707 7.36188C24.9005 7.36188 23.3387 8.29873 23.3387 9.54102V12.4465C23.3387 13.6888 24.9005 14.6257 26.9707 14.6257ZM26.9707 8.81464C28.3769 8.81464 29.1498 9.35943 29.1498 9.54102C29.1498 9.72262 28.3769 10.2674 26.9707 10.2674C25.5644 10.2674 24.7915 9.72262 24.7915 9.54102C24.7915 9.35943 25.5644 8.81464 26.9707 8.81464ZM24.7915 11.305C26.1916 11.8585 27.7498 11.8585 29.1498 11.305V12.4465C29.1498 12.6281 28.3769 13.1729 26.9707 13.1729C25.5644 13.1729 24.7915 12.6281 24.7915 12.4465V11.305Z" fill="black"/>
<path d="M76.2802 40.0831C75.7462 38.7912 74.962 37.6175 73.9727 36.6298C72.2544 34.9016 71.2868 32.5655 71.28 30.1285V29.1533H72.0064C72.199 29.1533 72.3838 29.0768 72.52 28.9405C72.6562 28.8043 72.7328 28.6196 72.7328 28.4269V26.3251C72.7319 25.5343 72.4174 24.7761 71.8581 24.2169C71.2989 23.6576 70.5407 23.3431 69.7499 23.3422H59.7353C58.9444 23.3431 58.1862 23.6576 57.627 24.2169C57.0678 24.7761 56.7532 25.5343 56.7524 26.3251V28.4269C56.7524 28.6196 56.8289 28.8043 56.9651 28.9405C57.1013 29.0768 57.2861 29.1533 57.4788 29.1533H58.2051V30.1285C58.2051 32.5668 57.2365 34.9053 55.5124 36.6296C53.5225 38.6309 52.402 41.3362 52.3941 44.1585V54.0736L42.2247 55.7007V16.8048C42.2247 16.744 39.3192 5.09299 39.3192 5.09299V0.824404C39.3192 0.631756 39.2427 0.446998 39.1065 0.310775C38.9702 0.174552 38.7855 0.0980225 38.5928 0.0980225H15.3486C15.156 0.0980225 14.9712 0.174552 14.835 0.310775C14.6988 0.446998 14.6222 0.631756 14.6222 0.824404V5.09299C14.6222 5.09299 11.7167 16.744 11.7167 16.8048V46.5864H3.7265C3.53386 46.5864 3.3491 46.663 3.21287 46.7992C3.07665 46.9354 3.00012 47.1202 3.00012 47.3128V50.2184C3.00012 50.411 3.07665 50.5958 3.21287 50.732C3.3491 50.8682 3.53386 50.9447 3.7265 50.9447H4.49211L5.86134 75.5967C5.8835 75.9862 6.04843 76.3539 6.32462 76.6294C6.6008 76.9049 6.96886 77.069 7.35841 77.0903V79.2736C7.35841 79.4663 7.43494 79.651 7.57116 79.7872C7.70739 79.9235 7.89215 80 8.08479 80H24.0652C24.2578 80 24.4426 79.9235 24.5788 79.7872C24.715 79.651 24.7916 79.4663 24.7916 79.2736V77.0903C25.1811 77.069 25.5492 76.9049 25.8254 76.6294C26.1016 76.3539 26.2665 75.9862 26.2886 75.5967L26.3669 74.1889H37.8664C37.866 74.5741 37.7128 74.9434 37.4405 75.2157C37.1681 75.4881 36.7988 75.6413 36.4137 75.6417C36.25 75.6422 36.0874 75.6143 35.9332 75.5593C35.8434 75.527 35.7482 75.5127 35.6529 75.5172C35.5576 75.5217 35.4641 75.545 35.3778 75.5856C35.2915 75.6262 35.2141 75.6835 35.1499 75.7541C35.0857 75.8246 35.0361 75.9071 35.0038 75.9969C34.9761 76.0759 34.9626 76.1591 34.9636 76.2428H34.9609V79.2736C34.9609 79.4663 35.0374 79.651 35.1737 79.7872C35.3099 79.9235 35.4947 80 35.6873 80H67.8025C69.1096 79.9985 70.3628 79.4786 71.2871 78.5543C72.2114 77.63 72.7313 76.3768 72.7328 75.0697V74.1345C73.9428 73.9546 75.0481 73.3465 75.8479 72.4208C76.6476 71.4951 77.0888 70.3132 77.0911 69.0899V44.1585C77.0922 42.7599 76.8167 41.3748 76.2802 40.0831ZM58.2051 26.3251C58.2056 25.9194 58.3669 25.5305 58.6538 25.2436C58.9406 24.9568 59.3296 24.7954 59.7353 24.795H69.7499C70.1556 24.7954 70.5445 24.9568 70.8314 25.2436C71.1182 25.5305 71.2796 25.9194 71.28 26.3251V27.7005H58.2051V26.3251ZM69.8272 29.1533V30.1285C69.8297 31.2791 70.0191 32.4217 70.3882 33.5116H59.1031C59.4706 32.4215 59.658 31.2788 59.6579 30.1285V29.1533H69.8272ZM38.0257 5.90908L40.568 16.0784H13.3736L15.9159 5.90908H38.0257ZM40.772 17.5312V21.8895H13.1695V17.5312H40.772ZM13.1695 23.3422H40.772V43.6809H13.1695V23.3422ZM37.8664 1.55079V4.45631H16.075V1.55079H37.8664ZM4.45289 48.0392H27.6971V49.492H4.45289V48.0392ZM25.1548 69.8307H6.99613L6.26975 56.7558H25.8801L25.1548 69.8307ZM26.2037 50.9447L25.9616 55.303H6.1893L5.94723 50.9447H26.2037ZM8.81118 78.5472V77.0945H23.3388V78.5472H8.81118ZM24.7044 75.6417H7.44558C7.41147 75.6418 7.37863 75.6288 7.35379 75.6054C7.32894 75.5821 7.31396 75.5501 7.31192 75.516L7.07676 71.2834H25.0729L24.8377 75.516C24.8357 75.55 24.8207 75.582 24.796 75.6053C24.7712 75.6287 24.7385 75.6417 24.7044 75.6417ZM27.6579 50.9447H28.4235C28.6161 50.9447 28.8009 50.8682 28.9371 50.732C29.0733 50.5958 29.1499 50.411 29.1499 50.2184V47.3128C29.1499 47.1202 29.0733 46.9354 28.9371 46.7992C28.8009 46.663 28.6161 46.5864 28.4235 46.5864H13.1695V45.1337H40.772V55.933L35.5725 56.7649C35.4019 56.7922 35.2467 56.8794 35.1346 57.0108C35.0225 57.1423 34.9609 57.3094 34.9609 57.4822V62.2291H34.964C34.9628 62.3564 34.9955 62.4817 35.0586 62.5923C35.1551 62.7589 35.3137 62.8804 35.4997 62.9301C35.6857 62.9798 35.8838 62.9537 36.0505 62.8574C36.3818 62.6667 36.7575 62.5665 37.1397 62.5668C37.522 62.5672 37.8975 62.6681 38.2284 62.8595C38.5594 63.0508 38.8341 63.3259 39.0252 63.657C39.2162 63.9881 39.3168 64.3637 39.3168 64.746C39.3168 65.1283 39.2162 65.5038 39.0252 65.835C38.8341 66.1661 38.5594 66.4411 38.2284 66.6325C37.8975 66.8238 37.522 66.9248 37.1397 66.9251C36.7575 66.9255 36.3818 66.8253 36.0505 66.6346C35.9679 66.5868 35.8768 66.5557 35.7822 66.5431C35.6877 66.5305 35.5916 66.5367 35.4994 66.5613C35.4072 66.5859 35.3208 66.6283 35.245 66.6863C35.1693 66.7443 35.1057 66.8166 35.0579 66.8992C34.9948 67.0097 34.9621 67.135 34.9633 67.2624H34.9609V72.1346H34.9636C34.9608 72.2538 34.9887 72.3717 35.0447 72.477C35.1007 72.5823 35.1829 72.6714 35.2834 72.7356H26.4475L27.6579 50.9447ZM71.28 75.0697C71.2789 75.9917 70.9122 76.8756 70.2603 77.5275C69.6083 78.1795 68.7244 78.5462 67.8025 78.5472H36.4137V77.0945C37.1843 77.0945 37.9233 76.7884 38.4682 76.2435C39.0131 75.6986 39.3192 74.9595 39.3192 74.1889C39.3192 73.4184 39.0131 72.6793 38.4682 72.1344C37.9233 71.5895 37.1843 71.2834 36.4137 71.2834V68.3042C36.9415 68.4122 37.4866 68.4014 38.0097 68.2727C38.5328 68.1439 39.0207 67.9004 39.4381 67.5598C39.8555 67.2192 40.1918 66.79 40.4228 66.3033C40.6538 65.8167 40.7737 65.2847 40.7737 64.746C40.7737 64.2073 40.6538 63.6753 40.4228 63.1886C40.1918 62.702 39.8555 62.2728 39.4381 61.9322C39.0207 61.5916 38.5328 61.3481 38.0097 61.2193C37.4866 61.0906 36.9415 61.0798 36.4137 61.1878V58.1007L67.2526 53.1675C67.7494 53.088 68.2576 53.1173 68.7421 53.2533C69.2265 53.3893 69.6757 53.6288 70.0586 53.9553C70.4414 54.2817 70.7489 54.6874 70.9598 55.1442C71.1707 55.6011 71.2799 56.0983 71.28 56.6014V75.0697ZM75.6383 69.0898C75.6368 69.9278 75.3473 70.7399 74.8183 71.39C74.2894 72.0401 73.553 72.4886 72.7328 72.6605V56.6014C72.7327 55.8881 72.5779 55.1832 72.2789 54.5355C71.98 53.8878 71.5441 53.3127 71.0013 52.8498C70.4585 52.387 69.8217 52.0474 69.1349 51.8546C68.4481 51.6617 67.7276 51.6202 67.0232 51.7329L53.8468 53.841V44.1585C53.8537 41.7215 54.8212 39.3855 56.5395 37.6574C57.3286 36.8683 57.9879 35.9594 58.4931 34.9643H70.9984C71.502 35.9587 72.1591 36.8674 72.9456 37.6572C74.6696 39.3816 75.6382 41.7201 75.6383 44.1585V69.0898Z" fill="black"/>
<path d="M66.1953 61.1141C65.4769 61.1141 64.7747 61.3271 64.1775 61.7262C63.5802 62.1252 63.1147 62.6925 62.8398 63.3561C62.5649 64.0198 62.493 64.75 62.6331 65.4545C62.7733 66.1591 63.1192 66.8062 63.6271 67.3141C64.135 67.8221 64.7822 68.168 65.4867 68.3081C66.1912 68.4482 66.9215 68.3763 67.5851 68.1014C68.2488 67.8265 68.816 67.361 69.2151 66.7638C69.6142 66.1665 69.8272 65.4643 69.8272 64.746C69.8261 63.7831 69.4431 62.8599 68.7622 62.1791C68.0813 61.4982 67.1582 61.1152 66.1953 61.1141ZM66.1953 66.9251C65.7643 66.9251 65.343 66.7973 64.9846 66.5579C64.6262 66.3184 64.3469 65.9781 64.182 65.5799C64.0171 65.1817 63.9739 64.7436 64.058 64.3209C64.1421 63.8981 64.3496 63.5099 64.6544 63.2051C64.9591 62.9003 65.3474 62.6928 65.7701 62.6087C66.1928 62.5246 66.631 62.5678 67.0292 62.7327C67.4274 62.8977 67.7677 63.177 68.0072 63.5353C68.2466 63.8937 68.3744 64.315 68.3744 64.746C68.3738 65.3237 68.144 65.8776 67.7355 66.2862C67.3269 66.6947 66.773 66.9245 66.1953 66.9251Z" fill="black"/>
<path d="M44.4039 65.4724C43.9729 65.4724 43.5516 65.6002 43.1932 65.8396C42.8348 66.0791 42.5555 66.4194 42.3906 66.8176C42.2257 67.2158 42.1825 67.6539 42.2666 68.0766C42.3507 68.4993 42.5582 68.8876 42.863 69.1924C43.1677 69.4971 43.556 69.7047 43.9787 69.7888C44.4015 69.8728 44.8396 69.8297 45.2378 69.6648C45.636 69.4998 45.9763 69.2205 46.2158 68.8622C46.4552 68.5038 46.583 68.0825 46.583 67.6515C46.5824 67.0737 46.3526 66.5198 45.9441 66.1113C45.5355 65.7028 44.9816 65.473 44.4039 65.4724ZM44.4039 68.3779C44.2602 68.3779 44.1198 68.3353 44.0003 68.2555C43.8809 68.1756 43.7878 68.0622 43.7328 67.9295C43.6778 67.7967 43.6634 67.6507 43.6915 67.5098C43.7195 67.3689 43.7887 67.2394 43.8902 67.1379C43.9918 67.0363 44.1213 66.9671 44.2622 66.9391C44.4031 66.911 44.5491 66.9254 44.6818 66.9804C44.8146 67.0354 44.928 67.1285 45.0078 67.2479C45.0876 67.3674 45.1303 67.5078 45.1303 67.6515C45.1303 67.8441 45.0537 68.0289 44.9175 68.1651C44.7813 68.3013 44.5965 68.3779 44.4039 68.3779Z" fill="black"/>
<path d="M53.8468 58.2086C53.2722 58.2086 52.7104 58.379 52.2326 58.6982C51.7548 59.0175 51.3824 59.4713 51.1625 60.0022C50.9425 60.5331 50.885 61.1173 50.9971 61.6809C51.1092 62.2445 51.3859 62.7623 51.7923 63.1686C52.1986 63.575 52.7164 63.8517 53.28 63.9638C53.8436 64.0759 54.4278 64.0184 54.9587 63.7984C55.4896 63.5785 55.9434 63.2061 56.2627 62.7283C56.5819 62.2505 56.7523 61.6887 56.7523 61.1141C56.7514 60.3438 56.445 59.6053 55.9003 59.0606C55.3556 58.5159 54.6171 58.2095 53.8468 58.2086ZM53.8468 62.5669C53.5595 62.5669 53.2786 62.4817 53.0397 62.322C52.8008 62.1624 52.6146 61.9355 52.5046 61.67C52.3947 61.4046 52.3659 61.1125 52.422 60.8307C52.478 60.5489 52.6164 60.29 52.8196 60.0868C53.0227 59.8837 53.2816 59.7453 53.5634 59.6892C53.8452 59.6332 54.1373 59.662 54.4028 59.7719C54.6682 59.8819 54.8951 60.0681 55.0547 60.307C55.2144 60.5459 55.2996 60.8268 55.2996 61.1141C55.2991 61.4993 55.146 61.8685 54.8736 62.1409C54.6012 62.4132 54.232 62.5664 53.8468 62.5669Z" fill="black"/>
<path d="M52.3942 69.8306C51.8195 69.8306 51.2578 70.001 50.78 70.3203C50.3021 70.6396 49.9297 71.0933 49.7098 71.6243C49.4899 72.1552 49.4324 72.7394 49.5445 73.303C49.6566 73.8666 49.9333 74.3843 50.3397 74.7907C50.746 75.197 51.2637 75.4737 51.8273 75.5859C52.391 75.698 52.9752 75.6404 53.5061 75.4205C54.037 75.2006 54.4908 74.8282 54.81 74.3504C55.1293 73.8726 55.2997 73.3108 55.2997 72.7362C55.2988 71.9658 54.9924 71.2273 54.4477 70.6826C53.903 70.1379 53.1645 69.8315 52.3942 69.8306ZM52.3942 74.1889C52.1069 74.1889 51.826 74.1037 51.5871 73.9441C51.3482 73.7845 51.162 73.5576 51.052 73.2921C50.942 73.0266 50.9133 72.7345 50.9693 72.4527C51.0254 72.1709 51.1637 71.9121 51.3669 71.7089C51.5701 71.5057 51.8289 71.3674 52.1108 71.3113C52.3926 71.2553 52.6847 71.284 52.9501 71.394C53.2156 71.5039 53.4425 71.6901 53.6021 71.929C53.7617 72.168 53.8469 72.4488 53.8469 72.7362C53.8465 73.1213 53.6933 73.4906 53.421 73.7629C53.1486 74.0353 52.7793 74.1885 52.3942 74.1889Z" fill="black"/>
<path d="M63.2896 72.7362C62.8586 72.7362 62.4373 72.864 62.0789 73.1035C61.7206 73.3429 61.4413 73.6832 61.2764 74.0814C61.1114 74.4796 61.0683 74.9178 61.1523 75.3405C61.2364 75.7632 61.444 76.1515 61.7487 76.4562C62.0535 76.761 62.4418 76.9685 62.8645 77.0526C63.2872 77.1367 63.7253 77.0935 64.1235 76.9286C64.5217 76.7637 64.8621 76.4844 65.1015 76.126C65.341 75.7677 65.4688 75.3463 65.4688 74.9153C65.4681 74.3376 65.2383 73.7837 64.8298 73.3752C64.4213 72.9666 63.8674 72.7368 63.2896 72.7362ZM63.2896 75.6417C63.1459 75.6417 63.0055 75.5991 62.8861 75.5193C62.7666 75.4395 62.6735 75.326 62.6185 75.1933C62.5635 75.0606 62.5492 74.9145 62.5772 74.7736C62.6052 74.6327 62.6744 74.5033 62.776 74.4017C62.8776 74.3001 63.007 74.231 63.1479 74.2029C63.2888 74.1749 63.4349 74.1893 63.5676 74.2443C63.7003 74.2992 63.8138 74.3923 63.8936 74.5118C63.9734 74.6312 64.016 74.7717 64.016 74.9153C64.016 75.108 63.9395 75.2928 63.8032 75.429C63.667 75.5652 63.4823 75.6417 63.2896 75.6417Z" fill="black"/>
<path d="M26.9708 26.9742C25.6778 26.9742 24.4139 27.3576 23.3388 28.0759C22.2637 28.7943 21.4258 29.8153 20.931 31.0099C20.4362 32.2044 20.3067 33.5189 20.559 34.787C20.8112 36.0552 21.4338 37.22 22.3481 38.1343C23.2624 39.0486 24.4273 39.6712 25.6954 39.9235C26.9635 40.1757 28.278 40.0462 29.4726 39.5514C30.6671 39.0566 31.6881 38.2187 32.4065 37.1436C33.1248 36.0686 33.5082 34.8046 33.5082 33.5116C33.5063 31.7784 32.8169 30.1167 31.5913 28.8911C30.3657 27.6655 28.704 26.9761 26.9708 26.9742ZM26.9708 38.5963C25.9651 38.5963 24.9821 38.2981 24.1459 37.7394C23.3097 37.1807 22.658 36.3865 22.2732 35.4574C21.8883 34.5283 21.7876 33.506 21.9838 32.5197C22.18 31.5333 22.6643 30.6273 23.3754 29.9162C24.0865 29.2051 24.9925 28.7208 25.9788 28.5246C26.9651 28.3285 27.9875 28.4291 28.9166 28.814C29.8457 29.1988 30.6398 29.8506 31.1985 30.6867C31.7572 31.5229 32.0555 32.506 32.0555 33.5116C32.0539 34.8597 31.5177 36.1521 30.5645 37.1053C29.6113 38.0586 28.3189 38.5948 26.9708 38.5963Z" fill="black"/>
</svg>
