<svg width="24" height="24" viewBox="0 0 24 24" fill="none" xmlns="http://www.w3.org/2000/svg">
<path d="M23.511 10.35C23.0918 7.29461 21.476 4.53088 19.0191 2.66682C16.5622 0.802755 13.4654 -0.00895726 10.41 0.410251C7.35464 0.829458 4.59091 2.44525 2.72685 4.90216C0.862783 7.35907 0.0510709 10.4559 0.470279 13.5113C0.815651 16.0401 1.97777 18.3869 3.77977 20.1945C5.58178 22.002 7.92498 23.1714 10.4528 23.5245C10.97 23.5922 11.4911 23.6263 12.0128 23.6265C14.1204 23.63 16.1885 23.0548 17.9918 21.9638C18.1183 21.8875 18.2286 21.7871 18.3164 21.6682C18.4042 21.5494 18.4676 21.4144 18.5032 21.271C18.5388 21.1276 18.5458 20.9786 18.5238 20.8325C18.5018 20.6864 18.4513 20.5461 18.375 20.4195C18.2988 20.2929 18.1984 20.1826 18.0795 20.0949C17.9607 20.0071 17.8257 19.9436 17.6823 19.9081C17.3927 19.8362 17.0864 19.8823 16.8308 20.0363C15.5473 20.8067 14.0979 21.2585 12.604 21.354C11.1101 21.4495 9.61501 21.1858 8.24387 20.5851C6.87272 19.9843 5.66536 19.064 4.72279 17.901C3.78022 16.7381 3.12985 15.3663 2.82608 13.9005C2.52231 12.4346 2.57397 10.9174 2.97675 9.47562C3.37953 8.03385 4.1217 6.7095 5.1412 5.61334C6.16069 4.51719 7.42785 3.6811 8.83669 3.17503C10.2455 2.66896 11.7551 2.50762 13.239 2.7045C14.6174 2.88777 15.9377 3.37535 17.1044 4.13193C18.271 4.8885 19.2548 5.89512 19.9843 7.07885C20.7139 8.26258 21.171 9.59377 21.3226 10.976C21.4741 12.3582 21.3163 13.7568 20.8605 15.0705C20.7423 15.3864 20.5286 15.6576 20.2492 15.8466C19.9698 16.0356 19.6385 16.1329 19.3013 16.125C18.8569 16.1244 18.4309 15.9476 18.1166 15.6334C17.8024 15.3192 17.6256 14.8931 17.625 14.4488V7.5C17.625 7.20163 17.5065 6.91548 17.2955 6.7045C17.0845 6.49353 16.7984 6.375 16.5 6.375C16.2017 6.375 15.9155 6.49353 15.7045 6.7045C15.4936 6.91548 15.375 7.20163 15.375 7.5V7.5105C14.5222 6.86681 13.5036 6.47934 12.4386 6.39345C11.3735 6.30756 10.306 6.52679 9.36105 7.02549C8.41606 7.5242 7.63266 8.28174 7.10253 9.20946C6.5724 10.1372 6.31748 11.1967 6.36759 12.264C6.4177 13.3314 6.77077 14.3624 7.38549 15.2363C8.00021 16.1103 8.85114 16.7911 9.83869 17.1991C10.8262 17.6071 11.9096 17.7253 12.9619 17.54C14.0142 17.3547 14.992 16.8735 15.7808 16.1528C16.0995 16.8166 16.5988 17.3771 17.2214 17.7702C17.8441 18.1632 18.5649 18.3728 19.3013 18.375C20.1062 18.3828 20.8936 18.1397 21.5541 17.6795C22.2145 17.2193 22.7153 16.5648 22.9868 15.807C23.5931 14.0556 23.7728 12.1848 23.511 10.35V10.35ZM12 15.375C11.3325 15.375 10.68 15.1771 10.125 14.8062C9.56996 14.4354 9.13738 13.9083 8.88193 13.2916C8.62649 12.6749 8.55965 11.9963 8.68988 11.3416C8.8201 10.6869 9.14154 10.0855 9.61354 9.61352C10.0855 9.14151 10.6869 8.82007 11.3416 8.68985C11.9963 8.55962 12.6749 8.62646 13.2916 8.88191C13.9083 9.13735 14.4354 9.56994 14.8062 10.125C15.1771 10.68 15.375 11.3325 15.375 12C15.374 12.8948 15.0181 13.7527 14.3854 14.3854C13.7527 15.0181 12.8948 15.374 12 15.375V15.375Z" fill="#3B3B3B"/>
</svg>
