<svg width="24" height="24" viewBox="0 0 24 24" fill="none" xmlns="http://www.w3.org/2000/svg">
<path d="M23.511 10.35C23.0918 7.29458 21.476 4.53085 19.0191 2.66679C16.5622 0.802724 13.4654 -0.00898778 10.41 0.41022C7.35464 0.829428 4.59091 2.44522 2.72685 4.90213C0.862783 7.35904 0.0510709 10.4558 0.470279 13.5112C0.815651 16.0401 1.97777 18.3869 3.77977 20.1944C5.58178 22.002 7.92498 23.1713 10.4528 23.5245C10.97 23.5922 11.4911 23.6263 12.0128 23.6265C14.1204 23.6299 16.1885 23.0548 17.9918 21.9637C18.1183 21.8875 18.2286 21.7871 18.3164 21.6682C18.4042 21.5493 18.4676 21.4144 18.5032 21.271C18.5388 21.1276 18.5458 20.9786 18.5238 20.8325C18.5018 20.6864 18.4513 20.546 18.375 20.4195C18.2988 20.2929 18.1984 20.1826 18.0795 20.0948C17.9607 20.0071 17.8257 19.9436 17.6823 19.908C17.3927 19.8361 17.0864 19.8823 16.8308 20.0362C15.5473 20.8066 14.0979 21.2585 12.604 21.3539C11.1101 21.4494 9.61501 21.1858 8.24387 20.585C6.87272 19.9843 5.66536 19.064 4.72279 17.901C3.78022 16.738 3.12985 15.3663 2.82608 13.9004C2.52231 12.4346 2.57397 10.9174 2.97675 9.47559C3.37953 8.03382 4.1217 6.70947 5.1412 5.61331C6.16069 4.51716 7.42785 3.68107 8.83669 3.175C10.2455 2.66893 11.7551 2.50759 13.239 2.70447C14.6174 2.88774 15.9377 3.37532 17.1044 4.1319C18.271 4.88847 19.2548 5.89509 19.9843 7.07882C20.7139 8.26255 21.171 9.59374 21.3226 10.976C21.4741 12.3582 21.3163 13.7568 20.8605 15.0705C20.7423 15.3864 20.5286 15.6576 20.2492 15.8466C19.9698 16.0355 19.6385 16.1328 19.3013 16.125C18.8569 16.1244 18.4309 15.9476 18.1166 15.6334C17.8024 15.3191 17.6256 14.8931 17.625 14.4487V7.49997C17.625 7.2016 17.5065 6.91545 17.2955 6.70447C17.0845 6.4935 16.7984 6.37497 16.5 6.37497C16.2017 6.37497 15.9155 6.4935 15.7045 6.70447C15.4936 6.91545 15.375 7.2016 15.375 7.49997V7.51047C14.5222 6.86678 13.5036 6.47931 12.4386 6.39342C11.3735 6.30753 10.306 6.52676 9.36104 7.02546C8.41606 7.52417 7.63266 8.28171 7.10253 9.20943C6.5724 10.1372 6.31748 11.1967 6.36759 12.264C6.4177 13.3313 6.77077 14.3623 7.38549 15.2363C8.00021 16.1103 8.85114 16.7911 9.83869 17.1991C10.8262 17.607 11.9096 17.7253 12.9619 17.54C14.0142 17.3547 14.992 16.8735 15.7808 16.1527C16.0995 16.8165 16.5988 17.3771 17.2214 17.7701C17.8441 18.1632 18.5649 18.3728 19.3013 18.375C20.1062 18.3827 20.8936 18.1396 21.5541 17.6794C22.2145 17.2192 22.7153 16.5648 22.9868 15.807C23.5931 14.0556 23.7728 12.1848 23.511 10.35ZM12 15.375C11.3325 15.375 10.68 15.177 10.125 14.8062C9.56996 14.4353 9.13738 13.9082 8.88194 13.2915C8.62649 12.6748 8.55965 11.9962 8.68988 11.3415C8.8201 10.6869 9.14154 10.0855 9.61354 9.61348C10.0855 9.14148 10.6869 8.82004 11.3416 8.68982C11.9963 8.55959 12.6749 8.62643 13.2916 8.88188C13.9083 9.13732 14.4354 9.5699 14.8062 10.1249C15.1771 10.6799 15.375 11.3325 15.375 12C15.374 12.8948 15.0181 13.7526 14.3854 14.3854C13.7527 15.0181 12.8948 15.374 12 15.375Z" fill="white"/>
</svg>
