<svg width="80" height="80" viewBox="0 0 80 80" fill="none" xmlns="http://www.w3.org/2000/svg">
<path d="M7.50012 58.75H72.5001V72.5H7.50012V58.75Z" fill="#E3BD3F"/>
<g opacity="0.5">
<path opacity="0.5" d="M18.7501 72.5C18.7205 70.5078 18.3266 68.5378 17.5876 66.6875C16.1786 63.3004 13.7323 60.4471 10.6001 58.5375L11.8501 56.4125C15.4428 58.603 18.2482 61.8766 19.8626 65.7625C20.7389 67.9028 21.2094 70.1875 21.2501 72.5H18.7501Z" fill="#E29D13"/>
</g>
<g opacity="0.5">
<path opacity="0.5" d="M31.2501 72.5C31.2205 70.5078 30.8266 68.5378 30.0876 66.6875C28.6786 63.3004 26.2323 60.4471 23.1001 58.5375L24.3501 56.4125C27.9428 58.603 30.7482 61.8766 32.3626 65.7625C33.2389 67.9028 33.7094 70.1875 33.7501 72.5H31.2501Z" fill="#E29D13"/>
</g>
<g opacity="0.5">
<path opacity="0.5" d="M43.7501 72.5C43.7205 70.5078 43.3266 68.5378 42.5876 66.6875C41.1786 63.3004 38.7323 60.4471 35.6001 58.5375L36.8501 56.4125C40.4428 58.603 43.2482 61.8766 44.8626 65.7625C45.7389 67.9028 46.2094 70.1875 46.2501 72.5H43.7501Z" fill="#E29D13"/>
</g>
<g opacity="0.5">
<path opacity="0.5" d="M56.2501 72.5C56.2205 70.5078 55.8266 68.5378 55.0876 66.6875C53.6786 63.3004 51.2323 60.4471 48.1001 58.5375L49.3501 56.4125C52.9428 58.603 55.7482 61.8766 57.3626 65.7625C58.2389 67.9028 58.7094 70.1875 58.7501 72.5H56.2501Z" fill="#E29D13"/>
</g>
<g opacity="0.5">
<path opacity="0.5" d="M67.5001 72.5C67.4705 70.5078 67.0766 68.5378 66.3376 66.6875C64.9286 63.3004 62.4823 60.4471 59.3501 58.5375L60.6001 56.4125C64.1928 58.603 66.9982 61.8766 68.6126 65.7625C69.4889 67.9028 69.9594 70.1875 70.0001 72.5H67.5001Z" fill="#E29D13"/>
</g>
<path d="M21.7001 38.3L32.5001 27.5H62.5001V20H13.7501V35L21.7001 38.3Z" fill="#78B22A"/>
<path d="M13.7501 31.4125H19.2251C21.3471 31.4198 23.3995 30.6557 25.0001 29.2625L28.1751 26.4875C29.766 25.1028 31.8035 24.3393 33.9126 24.3375H62.5001V20H13.7501V31.4125Z" fill="#94D531"/>
<path d="M13.7501 57.5C19.9633 57.5 25.0001 52.4632 25.0001 46.25C25.0001 40.0368 19.9633 35 13.7501 35C7.53692 35 2.50012 40.0368 2.50012 46.25C2.50012 52.4632 7.53692 57.5 13.7501 57.5Z" fill="#9A9B9F"/>
<path d="M13.7502 35C11.6903 34.9944 9.6685 35.5545 7.90513 36.6191C6.14176 37.6838 4.70453 39.2121 3.75015 41.0375V41.7875C3.74565 43.9736 4.29145 46.1256 5.33725 48.0453C6.38305 49.965 7.89521 51.5906 9.73438 52.7723C11.5736 53.954 13.6806 54.6538 15.8613 54.8072C18.042 54.9606 20.2262 54.5626 22.2127 53.65C23.6331 52.0235 24.5554 50.0225 24.8694 47.8861C25.1835 45.7496 24.876 43.5679 23.9837 41.6014C23.0914 39.635 21.652 37.9669 19.8374 36.7963C18.0228 35.6257 15.9096 35.0021 13.7502 35V35Z" fill="#B4B5B9"/>
<path d="M62.5001 20V7.5H55.0001L40.0001 20H62.5001Z" fill="#9A9B9F"/>
<path d="M55.0001 7.5L41.5001 18.75H54.0751C55.6465 18.75 57.1536 18.1258 58.2647 17.0146C59.3759 15.9035 60.0001 14.3964 60.0001 12.825V7.5H55.0001Z" fill="#B4B5B9"/>
<path d="M13.7501 51.25C16.5115 51.25 18.7501 49.0114 18.7501 46.25C18.7501 43.4886 16.5115 41.25 13.7501 41.25C10.9887 41.25 8.75012 43.4886 8.75012 46.25C8.75012 49.0114 10.9887 51.25 13.7501 51.25Z" fill="#393A3A"/>
<path d="M16.2501 22.5H22.5001V25H16.2501V22.5Z" fill="#5A8B1C"/>
<path d="M16.2501 26.25H22.5001V28.75H16.2501V26.25Z" fill="#5A8B1C"/>
<path d="M62.5001 12.5H67.5001V27.5H62.5001V12.5Z" fill="#B5B1A5"/>
<path d="M67.5001 20H72.5001V25H67.5001V20Z" fill="#D5D6D8"/>
<path d="M2.50012 56.25H5.00012V58.75H2.50012V56.25Z" fill="#302107"/>
<path d="M7.50012 56.25H72.5001V58.75H7.50012V56.25Z" fill="#302107"/>
<path d="M75.0001 56.25H77.5001V58.75H75.0001V56.25Z" fill="#302107"/>
<path d="M72.5001 16.25H77.5001V28.75H72.5001V16.25Z" fill="#78B22A"/>
<path d="M55.0001 15H60.0001V17.5H55.0001V15Z" fill="#393A3A"/>
<path d="M55.0001 11.25H60.0001V13.75H55.0001V11.25Z" fill="#393A3A"/>
<path d="M55.1895 10.8757C56.2798 9.99423 56.8891 8.94002 56.5504 8.52109C56.2117 8.10215 55.0532 8.47713 53.9629 9.35862C52.8726 10.2401 52.2633 11.2943 52.602 11.7133C52.9407 12.1322 54.0992 11.7572 55.1895 10.8757Z" fill="#F0F0F1"/>
<path d="M21.7535 40.8093C22.1419 40.2306 21.2397 38.9447 19.7384 37.9372C18.2372 36.9298 16.7054 36.5822 16.317 37.1609C15.9286 37.7397 16.8308 39.0255 18.332 40.033C19.8333 41.0404 21.3651 41.388 21.7535 40.8093Z" fill="#F0F0F1"/>
<path d="M47.5001 27.5C47.5001 27.5 48.7501 46.25 55.0001 46.25V27.5H47.5001Z" fill="#9A9B9F"/>
<path d="M57.5001 27.5C57.5001 35.7875 56.3751 46.25 55.0001 46.25C53.6251 46.25 52.5001 35.7875 52.5001 27.5H57.5001Z" fill="#B4B5B9"/>
<path d="M56.7781 32.7562C56.9193 30.2827 56.5982 28.2528 56.0608 28.2221C55.5234 28.1914 54.9732 30.1716 54.832 32.645C54.6907 35.1184 55.0118 37.1484 55.5492 37.1791C56.0866 37.2098 56.6368 35.2296 56.7781 32.7562Z" fill="#E1E1E3"/>
<path d="M33.7501 27.5C33.7501 27.5 35.0001 46.25 41.2501 46.25V27.5H33.7501Z" fill="#9A9B9F"/>
<path d="M43.7501 27.5C43.7501 35.7875 42.6251 46.25 41.2501 46.25C39.8751 46.25 38.7501 35.7875 38.7501 27.5H43.7501Z" fill="#B4B5B9"/>
<path d="M43.0443 32.7537C43.1856 30.2802 42.8644 28.2503 42.327 28.2196C41.7896 28.1889 41.2395 30.1691 41.0982 32.6425C40.9569 35.1159 41.2781 37.1459 41.8155 37.1766C42.3529 37.2073 42.903 35.2271 43.0443 32.7537Z" fill="#E1E1E3"/>
<path d="M63.8876 21.9875C63.8869 22.9587 64.2631 23.8923 64.9369 24.5917C65.6107 25.2911 66.5295 25.7019 67.5001 25.7375V12.5H63.8876V21.9875Z" fill="#D9D5CA"/>
<path d="M73.9626 22.9875C73.9662 23.9623 74.3291 24.9016 74.9817 25.6257C75.6343 26.3498 76.531 26.808 77.5002 26.9125V16.25H73.9626V22.9875Z" fill="#94D531"/>
<path d="M59.3126 23.35H42.5001C42.1686 23.35 41.8507 23.2183 41.6162 22.9839C41.3818 22.7494 41.2501 22.4315 41.2501 22.1C41.2501 21.7685 41.3818 21.4505 41.6162 21.2161C41.8507 20.9817 42.1686 20.85 42.5001 20.85H59.3126C59.6441 20.85 59.9621 20.9817 60.1965 21.2161C60.4309 21.4505 60.5626 21.7685 60.5626 22.1C60.5626 22.4315 60.4309 22.7494 60.1965 22.9839C59.9621 23.2183 59.6441 23.35 59.3126 23.35Z" fill="#E4F0D4"/>
<path d="M38.3626 23.35H36.5876C36.2561 23.35 35.9382 23.2183 35.7038 22.9839C35.4693 22.7494 35.3376 22.4315 35.3376 22.1C35.3376 21.7685 35.4693 21.4505 35.7038 21.2161C35.9382 20.9817 36.2561 20.85 36.5876 20.85H38.3626C38.6942 20.85 39.0121 20.9817 39.2465 21.2161C39.4809 21.4505 39.6126 21.7685 39.6126 22.1C39.6126 22.4315 39.4809 22.7494 39.2465 22.9839C39.0121 23.2183 38.6942 23.35 38.3626 23.35V23.35Z" fill="#E4F0D4"/>
<path d="M13.7501 40C12.514 40 11.3056 40.3666 10.2778 41.0533C9.25 41.7401 8.44893 42.7162 7.97588 43.8582C7.50283 45.0003 7.37906 46.2569 7.62022 47.4693C7.86137 48.6817 8.45663 49.7953 9.33071 50.6694C10.2048 51.5435 11.3184 52.1388 12.5308 52.3799C13.7432 52.6211 14.9999 52.4973 16.1419 52.0243C17.2839 51.5512 18.26 50.7501 18.9468 49.7223C19.6336 48.6945 20.0001 47.4861 20.0001 46.25C20.0001 44.5924 19.3416 43.0027 18.1695 41.8306C16.9974 40.6585 15.4077 40 13.7501 40ZM13.7501 50C13.0084 50 12.2834 49.7801 11.6667 49.368C11.0501 48.956 10.5694 48.3703 10.2856 47.6851C10.0017 46.9998 9.92748 46.2458 10.0722 45.5184C10.2169 44.791 10.574 44.1228 11.0985 43.5984C11.6229 43.0739 12.2911 42.7168 13.0185 42.5721C13.746 42.4274 14.5 42.5016 15.1852 42.7855C15.8704 43.0693 16.4561 43.5499 16.8681 44.1666C17.2802 44.7833 17.5001 45.5083 17.5001 46.25C17.5001 47.2446 17.105 48.1984 16.4018 48.9017C15.6985 49.6049 14.7447 50 13.7501 50Z" fill="black"/>
<path d="M16.2501 22.5H22.5001V25H16.2501V22.5Z" fill="black"/>
<path d="M16.2501 26.25H22.5001V28.75H16.2501V26.25Z" fill="black"/>
<path d="M2.50012 56.25H5.00012V58.75H2.50012V56.25Z" fill="black"/>
<path d="M75.0002 56.25H77.5002V58.75H75.0002V56.25Z" fill="black"/>
<path d="M77.5002 15H72.5002C72.1687 15 71.8507 15.1317 71.6163 15.3661C71.3819 15.6005 71.2502 15.9185 71.2502 16.25V18.75H68.7502V12.5C68.7502 12.1685 68.6185 11.8505 68.3841 11.6161C68.1497 11.3817 67.8317 11.25 67.5002 11.25H63.7502V7.5C63.7502 7.16848 63.6185 6.85054 63.3841 6.61612C63.1497 6.3817 62.8317 6.25 62.5002 6.25H55.0002C54.7081 6.24943 54.4251 6.35115 54.2002 6.5375L39.5502 18.75H13.7502C13.4187 18.75 13.1007 18.8817 12.8663 19.1161C12.6319 19.3505 12.5002 19.6685 12.5002 20V33.8125C9.87266 34.0806 7.39756 35.174 5.42999 36.9359C3.46242 38.6979 2.1035 41.0378 1.5482 43.6199C0.992906 46.202 1.26977 48.8937 2.33907 51.3087C3.40836 53.7237 5.21514 55.738 7.50018 57.0625V58.75H10.8752C13.8856 60.6423 16.2318 63.4254 17.5877 66.7125C18.3237 68.555 18.7176 70.5162 18.7502 72.5H21.2502C21.2192 70.2076 20.7658 67.9405 19.9127 65.8125C18.8312 63.1167 17.1515 60.7017 15.0002 58.75H23.3752C26.3856 60.6423 28.7318 63.4254 30.0877 66.7125C30.8237 68.555 31.2176 70.5162 31.2502 72.5H33.7502C33.7192 70.2076 33.2658 67.9405 32.4127 65.8125C31.3312 63.1167 29.6515 60.7017 27.5002 58.75H35.8752C38.8856 60.6423 41.2318 63.4254 42.5877 66.7125C43.3237 68.555 43.7176 70.5162 43.7502 72.5H46.2502C46.2192 70.2076 45.7658 67.9405 44.9127 65.8125C43.8312 63.1167 42.1515 60.7017 40.0002 58.75H48.3752C51.3856 60.6423 53.7318 63.4254 55.0877 66.7125C55.8237 68.555 56.2176 70.5162 56.2502 72.5H58.7502C58.7192 70.2076 58.2658 67.9405 57.4127 65.8125C56.3312 63.1167 54.6515 60.7017 52.5002 58.75H59.6252C62.6356 60.6423 64.9818 63.4254 66.3377 66.7125C67.0737 68.555 67.4676 70.5162 67.5002 72.5H70.0002C69.9692 70.2076 69.5158 67.9405 68.6627 65.8125C67.5812 63.1167 65.9015 60.7017 63.7502 58.75H72.5002V56.25H21.2502C22.5995 55.2414 23.731 53.9704 24.5767 52.5134C25.4224 51.0564 25.9649 49.4435 26.1716 47.7716C26.3782 46.0997 26.2448 44.4032 25.7793 42.7842C25.3138 41.1651 24.5258 39.6569 23.4627 38.35L32.6627 29.1375C33.1502 34.3 34.9502 47.0875 41.0127 47.475L41.2502 47.5C42.6127 47.5 43.4877 46.325 44.2627 40.1375C44.7033 36.3568 44.9495 32.556 45.0002 28.75H46.3502C46.7877 33.625 48.5252 47.075 54.7377 47.5H55.0002C56.3627 47.5 57.2377 46.325 58.0127 40.1375C58.4533 36.3568 58.6995 32.556 58.7502 28.75H67.5002C67.8317 28.75 68.1497 28.6183 68.3841 28.3839C68.6185 28.1495 68.7502 27.8315 68.7502 27.5V26.25H71.2502V28.75C71.2502 29.0815 71.3819 29.3995 71.6163 29.6339C71.8507 29.8683 72.1687 30 72.5002 30H77.5002C77.8317 30 78.1497 29.8683 78.3841 29.6339C78.6185 29.3995 78.7502 29.0815 78.7502 28.75V16.25C78.7502 15.9185 78.6185 15.6005 78.3841 15.3661C78.1497 15.1317 77.8317 15 77.5002 15V15ZM55.4502 8.75H61.2502V18.75H43.4502L55.4502 8.75ZM13.7502 56.25C11.7724 56.25 9.83897 55.6635 8.19448 54.5647C6.54999 53.4659 5.26826 51.9041 4.51139 50.0768C3.75451 48.2496 3.55648 46.2389 3.94233 44.2991C4.32818 42.3593 5.28059 40.5775 6.67911 39.1789C8.07764 37.7804 9.85947 36.828 11.7993 36.4422C13.7391 36.0563 15.7498 36.2543 17.577 37.0112C19.4043 37.7681 20.9661 39.0498 22.0649 40.6943C23.1637 42.3388 23.7502 44.2722 23.7502 46.25C23.7502 48.9022 22.6966 51.4457 20.8213 53.3211C18.9459 55.1964 16.4023 56.25 13.7502 56.25V56.25ZM31.6127 26.6125L21.6127 36.6125C19.7298 35.0525 17.4308 34.079 15.0002 33.8125V21.25H61.2502V26.25H32.5002C32.3357 26.2491 32.1726 26.2806 32.0203 26.3428C31.868 26.405 31.7295 26.4967 31.6127 26.6125V26.6125ZM35.1002 28.75H37.5002C37.5467 32.5557 37.7887 36.3566 38.2252 40.1375C38.3627 41.2125 38.5002 42.125 38.6377 42.925C36.8127 39.825 35.5627 33.8125 35.1002 28.75V28.75ZM41.2502 43.2C40.4351 38.4261 40.017 33.5929 40.0002 28.75H42.5002C42.4834 33.5929 42.0653 38.4261 41.2502 43.2V43.2ZM48.8502 28.75H51.2502C51.2968 32.5557 51.5387 36.3566 51.9752 40.1375C52.1127 41.2125 52.2502 42.125 52.3877 42.925C50.5627 39.825 49.3127 33.8125 48.8502 28.75V28.75ZM55.0002 43.2C54.1851 38.4261 53.767 33.5929 53.7502 28.75H56.2502C56.2334 33.5929 55.8153 38.4261 55.0002 43.2ZM66.2502 26.25H63.7502V13.75H66.2502V26.25ZM68.7502 23.75V21.25H71.2502V23.75H68.7502ZM76.2502 27.5H73.7502V17.5H76.2502V27.5Z" fill="black"/>
<path d="M55.0002 15H60.0002V17.5H55.0002V15Z" fill="black"/>
<path d="M55.0002 11.25H60.0002V13.75H55.0002V11.25Z" fill="black"/>
</svg>
