<svg width="80" height="80" viewBox="0 0 80 80" fill="none" xmlns="http://www.w3.org/2000/svg">
<g clip-path="url(#clip0_588_11024)">
<path d="M47.0785 3.91591L47.1138 4.04773C47.2279 4.4736 47.2278 4.91922 47.1025 5.34403L44.5941 14.1127C43.0607 13.1759 41.171 12.8563 39.3155 13.3535L37.7641 13.7692L40.7559 3.31692C40.9916 2.49302 41.6278 1.86609 42.4492 1.64602C42.9156 1.52104 43.3971 1.53331 43.853 1.6937L45.5253 2.25633C46.2883 2.50832 46.8693 3.13514 47.0785 3.91591Z" fill="#AAB2BD"/>
<path d="M37.7642 13.7692L39.3156 13.3536C41.1712 12.8563 43.0609 13.176 44.5943 14.1127C46.0451 14.9846 47.1611 16.3918 47.6339 18.1561C47.9083 19.1803 47.9441 20.2466 47.7323 21.2814L46.1672 28.9062L41.0973 30.2647L43.4798 22.4861C43.8125 21.3754 43.8361 20.2062 43.5372 19.0908L43.4122 18.6244C42.9721 16.9817 41.9062 15.6807 40.5434 14.8938C39.1806 14.107 37.5208 13.8345 35.8782 14.2746L37.7642 13.7692Z" fill="#CCD1D9"/>
<path d="M38.5834 29.9275C37.5777 28.1212 35.7195 26.9455 33.6549 26.8249C33.0906 25.9763 32.3155 25.3145 31.4299 24.8889C30.8548 24.6083 30.2203 24.4305 29.565 24.3779L31.639 18.247C32.3014 16.298 33.8907 14.8071 35.8781 14.2746C37.5208 13.8344 39.1805 14.107 40.5433 14.8938C41.9061 15.6806 42.972 16.9817 43.4122 18.6244L43.5372 19.0908C43.836 20.2062 43.8124 21.3754 43.4797 22.4861L41.0973 30.2646L39.0693 30.808L38.5834 29.9275Z" fill="#E6E9ED"/>
<path d="M39.0695 30.8081L13.7199 37.6004L6.62204 39.5023L6.60258 38.4968C6.58783 37.4683 6.82802 36.4585 7.29692 35.5721C7.76583 34.6857 8.45058 33.9154 9.31949 33.3456L9.33017 33.2232C9.44208 31.2479 10.6118 29.489 12.3872 28.6112L14.3166 27.6595L15.2296 26.0781C16.0684 24.6253 17.456 23.558 19.0784 23.1233C20.7008 22.6885 22.4362 22.9191 23.889 23.7579L25.4704 24.6709L28.5211 24.3751C28.872 24.3463 29.2182 24.3405 29.5652 24.3779C30.2205 24.4305 30.855 24.6083 31.4301 24.8889C32.3157 25.3145 33.0908 25.9763 33.6551 26.8249C35.7197 26.9455 37.5779 28.1213 38.5836 29.9275L39.0695 30.8081Z" fill="#DFB28B"/>
<path d="M41.0976 30.2646L46.1675 28.9062L55.2933 26.4609C55.851 26.3115 56.4296 26.6455 56.579 27.2032L57.1224 29.2312C57.2718 29.7889 56.9378 30.3674 56.3801 30.5168L54.3521 31.0602L7.70894 43.5582L5.68097 44.1016C5.12328 44.2511 4.54473 43.917 4.39529 43.3593L3.8519 41.3314C3.70246 40.7737 4.03649 40.1951 4.59418 40.0457L6.62215 39.5023L13.72 37.6004L39.0696 30.808L41.0976 30.2646Z" fill="#D3A06C"/>
<path d="M11.4591 69.7228L6.19097 50.0617C5.57694 47.7701 6.15218 45.3338 7.7087 43.5582L54.3519 31.0602C56.5876 31.8196 58.304 33.642 58.918 35.9336L64.1862 55.5946L65.9604 56.619C66.4747 56.9159 66.8445 57.4037 66.9967 57.9715C67.1542 58.5596 67.0576 59.1724 66.7755 59.6609C66.4935 60.1495 66.0111 60.5396 65.423 60.6972L12.9393 74.7601C11.7529 75.078 10.5315 74.3728 10.2137 73.1865C10.0615 72.6187 10.1379 72.0113 10.4348 71.4971L11.4591 69.7228Z" fill="#CF9E76"/>
<path d="M52.2984 47.0428L49.7594 56.7108L54.3497 58.0239L57.2518 48.2912L52.2984 47.0428Z" fill="#D3A06C"/>
<path d="M25.4145 45.2089C26.5627 45.1947 27.6754 45.4943 28.6296 46.0537C28.7324 46.1131 28.8251 46.1752 28.928 46.2346C30.1793 47.0513 31.1477 48.3133 31.5662 49.8748L31.8378 50.8888L32.6366 53.8699C31.0844 53.0252 28.6113 52.8401 26.0256 53.533C23.44 54.2258 21.3907 55.6226 20.4688 57.1302L19.6701 54.1491L19.3984 53.1352C18.98 51.5736 19.1877 49.9965 19.863 48.6635C20.4175 47.5695 21.288 46.6407 22.3929 46.0186C22.8443 45.7563 23.335 45.5597 23.8521 45.4211L25.4145 45.2089Z" fill="#CCD1D9"/>
<path d="M30.4876 45.8493C32.5848 45.483 34.7467 46.0883 36.3645 47.5023L31.838 50.8887L31.5663 49.8748C31.1479 48.3132 30.1794 47.0513 28.9281 46.2346L29.861 45.9846C30.0739 45.9275 30.2794 45.8833 30.4876 45.8493Z" fill="#AAB2BD"/>
<path d="M29.1971 41.0329L30.4876 45.8493C30.2794 45.8833 30.0739 45.9275 29.861 45.9846L28.9281 46.2346C28.8252 46.1752 28.7325 46.1131 28.6297 46.0537C27.6756 45.4943 26.5628 45.1947 25.4146 45.2089L26.6146 41.0076C26.7446 40.5598 27.0951 40.205 27.5514 40.0827C28.2714 39.8898 29.0042 40.3129 29.1971 41.0329Z" fill="#AAB2BD"/>
<path d="M22.393 46.0186C21.2881 46.6407 20.4176 47.5695 19.8631 48.6636L18.9302 48.9135C18.7173 48.9706 18.5172 49.0351 18.3198 49.1097L18.3117 49.0793L17.0293 44.2933C16.8364 43.5733 17.2595 42.8405 17.9794 42.6476C18.4357 42.5253 18.9167 42.6573 19.2531 42.9801L22.393 46.0186Z" fill="#AAB2BD"/>
<path d="M18.9305 48.9137L19.8634 48.6637C19.1881 49.9966 18.9803 51.5738 19.3988 53.1353L19.6704 54.1493L14.0571 53.4798C14.7512 51.4463 16.3208 49.8411 18.3201 49.1098C18.5175 49.0352 18.7176 48.9707 18.9305 48.9137Z" fill="#AAB2BD"/>
<path d="M32.6368 53.8699C33.4515 54.3145 34.0067 54.9265 34.2105 55.687C34.8109 57.9279 32.1235 60.5933 28.1994 61.6448C24.2753 62.6963 20.6152 61.7316 20.0148 59.4907C19.811 58.7303 19.9858 57.9227 20.469 57.1302C21.3909 55.6226 23.4402 54.2258 26.0258 53.5329C28.6115 52.8401 31.0846 53.0251 32.6368 53.8699Z" fill="#AAB2BD"/>
<path d="M33.0359 51.3035L38.0294 47.567L37.0573 46.7135C35.444 45.296 33.3665 44.604 31.2707 44.7157L30.2102 40.7581C29.869 39.4845 28.5563 38.7266 27.2828 39.0679C26.4766 39.2839 25.8334 39.917 25.6027 40.719L24.6022 44.217C24.2625 44.2591 23.9212 44.3157 23.5805 44.407C23.2398 44.4983 22.9159 44.6199 22.6009 44.7543L19.9855 42.2252C19.3845 41.645 18.5108 41.4183 17.7047 41.6343C16.4311 41.9756 15.6733 43.2883 16.0145 44.5618L17.0749 48.5194C15.2041 49.4706 13.7509 51.1087 13.0625 53.1429L12.6474 54.368L18.8401 55.1072L19.3485 57.0044C18.8985 57.9085 18.757 58.8528 19.0007 59.7624C19.7625 62.6056 23.9223 63.8775 28.471 62.6587C33.0197 61.4399 35.9862 58.2584 35.2244 55.4152C34.9807 54.5057 34.386 53.7587 33.5442 53.2007L33.0359 51.3035ZM32.4288 49.135C32.1347 48.2727 31.6953 47.497 31.1405 46.8296C32.3344 46.7183 33.5311 46.9541 34.5789 47.5265L32.4288 49.135ZM27.6215 41.2974C27.6929 41.0446 28.1141 41.047 28.1823 41.3015L29.1938 45.0765L29.0813 45.1067C28.3671 44.7047 27.585 44.4262 26.7685 44.2788L27.6215 41.2974ZM30.5523 50.1464L31.1158 52.2494C29.5529 51.9368 27.6898 52.0002 25.7541 52.5189C23.8184 53.0376 22.1731 53.9142 20.976 54.9664L20.4125 52.8634C19.6634 50.0678 21.3284 47.1841 24.1239 46.435C26.9194 45.6859 29.8032 47.3509 30.5523 50.1464ZM18.5261 43.7345L20.7558 45.891C20.1221 46.4259 19.584 47.0581 19.1668 47.7643L19.0543 47.7945L18.0427 44.0194C17.9745 43.7649 18.3382 43.5523 18.5261 43.7345ZM18.2436 50.2852C18.0981 51.1415 18.1045 52.0331 18.2807 52.926L15.6144 52.608C16.2366 51.5881 17.1541 50.7859 18.2436 50.2852ZM27.9276 60.6308C24.3422 61.5915 21.4142 60.6578 21.0287 59.219C20.6431 57.7801 22.712 55.5076 26.2975 54.5469C29.8829 53.5861 32.8109 54.5198 33.1964 55.9586C33.582 57.3975 31.5131 59.67 27.9276 60.6308Z" fill="black"/>
<path d="M22.4406 52.32C23.0006 52.17 23.3329 51.5944 23.1829 51.0344C23.0328 50.4744 22.4572 50.142 21.8972 50.2921C21.3372 50.4421 21.0048 51.0178 21.1549 51.5778C21.3049 52.1378 21.8806 52.4701 22.4406 52.32Z" fill="black"/>
<path d="M25.3564 59.1463C25.9164 58.9962 26.2488 58.4206 26.0987 57.8606C25.9487 57.3006 25.373 56.9683 24.813 57.1183C24.253 57.2684 23.9207 57.844 24.0708 58.404C24.2208 58.964 24.7964 59.2963 25.3564 59.1463Z" fill="black"/>
<path d="M29.4123 58.0594C29.9723 57.9094 30.3047 57.3338 30.1546 56.7738C30.0046 56.2137 29.429 55.8814 28.869 56.0315C28.309 56.1815 27.9766 56.7571 28.1267 57.3171C28.2767 57.8771 28.8523 58.2095 29.4123 58.0594Z" fill="black"/>
<path d="M28.5247 50.6898C29.0847 50.5397 29.417 49.9641 29.267 49.4041C29.1169 48.8441 28.5413 48.5118 27.9813 48.6618C27.4213 48.8119 27.0889 49.3875 27.239 49.9475C27.389 50.5075 27.9647 50.8398 28.5247 50.6898Z" fill="black"/>
<path d="M66.484 55.7092L65.0877 54.9031L59.9309 35.6577C59.4663 33.9238 58.449 32.4347 57.0753 31.3639C57.93 30.9197 58.3956 29.9277 58.1361 28.9593L57.5927 26.9314C57.293 25.8129 56.1398 25.1471 55.0214 25.4468L47.5362 27.4525L48.7561 21.4884C49 20.3015 48.962 19.0565 48.6484 17.8863C48.1806 16.1403 47.1499 14.695 45.8105 13.6791L48.1135 5.6284C48.2854 5.02482 48.2912 4.38532 48.1284 3.77795L48.0931 3.64613C47.7926 2.52467 46.9559 1.63274 45.8562 1.26011L44.189 0.696125C43.5388 0.475852 42.8448 0.45315 42.1806 0.631111C41.0115 0.944376 40.0792 1.86148 39.7456 3.02569L36.9186 12.9089L35.6044 13.261C33.2723 13.8859 31.418 15.625 30.6449 17.9111L28.8156 23.3168C28.6843 23.3216 28.5526 23.3166 28.4204 23.3303L25.7035 23.5943L24.4101 22.8475C22.7025 21.8607 20.7119 21.5986 18.8066 22.1091C16.9013 22.6196 15.3085 23.842 14.322 25.5506L13.5654 26.8597L11.9206 27.6732C9.93237 28.6569 8.57707 30.5872 8.3134 32.7749C6.53966 34.1414 5.51759 36.2486 5.55466 38.5123L5.55833 38.7004L4.32229 39.0316C3.20386 39.3313 2.53803 40.4845 2.83771 41.6029L3.38111 43.6309C3.64058 44.5992 4.5398 45.2256 5.50212 45.1829C4.84759 46.7961 4.71133 48.5954 5.17566 50.3282L10.3324 69.5736L9.52632 70.9699C9.09532 71.7179 8.97611 72.6236 9.19944 73.4571C9.66703 75.2021 11.467 76.2413 13.212 75.7737L65.6937 61.7113C67.4388 61.2437 68.478 59.4438 68.0104 57.6987C67.787 56.8652 67.231 56.1405 66.484 55.7092ZM46.6992 21.068L45.2689 28.06L42.6549 28.7604L44.4815 22.7892C44.8763 21.4966 44.9009 20.124 44.5509 18.818L44.4268 18.3546C43.947 16.5639 42.8249 15.1181 41.3788 14.1829C43.793 14.3142 45.9616 15.9708 46.6205 18.4297C46.85 19.2865 46.8774 20.1997 46.6992 21.068ZM41.7641 3.60312C41.9692 2.88414 42.8067 2.44455 43.5156 2.68497L45.1838 3.24869C45.6166 3.39572 45.9467 3.74742 46.0652 4.18952L46.1005 4.32134C46.1646 4.56064 46.1627 4.81327 46.0939 5.05124L43.928 12.6239C42.492 12.0589 40.8823 11.912 39.2793 12.2894L41.7641 3.60312ZM32.6335 18.5835C33.1817 16.963 34.495 15.7319 36.1478 15.289C38.8663 14.5606 41.6704 16.1795 42.3988 18.898L42.523 19.3614C42.771 20.2871 42.7545 21.2599 42.4738 22.1752L40.2639 29.4011L39.5896 29.5817L39.4974 29.4162C38.3969 27.4343 36.4522 26.1187 34.2294 25.8253C33.3828 24.7383 32.2297 23.9637 30.944 23.5779L32.6335 18.5835ZM9.89765 34.2219L10.3354 33.9329L10.3737 33.289C10.4691 31.6942 11.4192 30.2637 12.8509 29.5551L15.0659 28.4606L16.139 26.6005C16.8469 25.3773 17.9862 24.5025 19.35 24.1371C20.7138 23.7717 22.1379 23.9596 23.3616 24.6652L25.2374 25.7482L28.6239 25.42C30.2743 25.2604 31.8658 26.0207 32.7798 27.4038L33.0688 27.8415L33.5924 27.8729C35.1918 27.9692 36.6165 28.8166 37.4785 30.1474L14.7612 36.2345C14.813 34.9349 15.6912 33.8117 16.9607 33.4716L17.5873 33.3037L17.8099 32.2159C17.9628 31.4685 18.5152 30.8815 19.2524 30.6839C19.7604 30.5478 20.3147 30.621 20.7708 30.8835L20.9624 30.9941L22.012 29.1761L21.8204 29.0656C20.8716 28.5177 19.7676 28.3723 18.709 28.656C17.2438 29.0486 16.1342 30.1925 15.7828 31.6593C13.8751 32.4486 12.6142 34.3297 12.6491 36.4396L12.6562 36.7985L7.67045 38.1344C7.75126 36.55 8.56063 35.1051 9.89765 34.2219ZM4.86568 41.0595L55.5648 27.4748L56.1092 29.5025L5.40907 43.0875L4.86568 41.0595ZM65.1503 59.6834L12.6687 73.7458C12.042 73.9137 11.3953 73.5403 11.2274 72.9137C11.1473 72.6146 11.1904 72.2889 11.3445 72.0205L12.1507 70.6242L22.8847 67.7481L22.3413 65.7201L12.2015 68.4371L7.20362 49.7849C6.70669 47.9303 7.13008 45.9736 8.31909 44.4813L54.2859 32.1646C56.0608 32.8627 57.4058 34.3455 57.9027 36.2001L63.2847 56.286L65.4344 57.5271C65.7021 57.6826 65.9023 57.943 65.9824 58.2421C66.1503 58.8688 65.777 59.5155 65.1503 59.6834Z" fill="black"/>
<path d="M24.3693 65.1768L28.4252 64.09L28.9686 66.118L24.9126 67.2048L24.3693 65.1768Z" fill="black"/>
<path d="M59.162 45.5558L57.1502 44.9548L56.5324 47.0255L53.584 46.2875L54.2996 43.5679L52.2698 43.0337L51.5477 45.7778L50.0275 45.3973L49.5168 47.4338L51.0125 47.8079L50.3074 50.4856L46.8063 49.5305L46.254 51.5575L49.7727 52.5176L49.012 55.4058L47.1628 54.8765L46.5854 56.895L48.4781 57.4366L47.9606 59.4032L49.9904 59.9374L50.4966 58.014L53.0367 58.7408L52.5683 60.3106L54.5801 60.9116L55.0552 59.3182L58.3554 60.2619L58.9329 58.2434L55.6549 57.3057L56.533 54.3611L60.3224 55.3943L60.8747 53.3672L57.1334 52.3472L57.9682 49.549L59.9988 50.0579L60.5095 48.0214L58.5689 47.5361L59.162 45.5558ZM53.6386 56.7287L51.0329 55.9837L51.7997 53.07L54.5093 53.8089L53.6386 56.7287ZM55.1097 51.7951L52.3334 51.0382L53.049 48.3186L55.9312 49.0406L55.1097 51.7951Z" fill="black"/>
<path d="M25.1849 31.7178C25.5753 31.0416 26.5366 30.784 27.2129 31.1744L27.5896 31.3919L28.6392 29.574L28.2625 29.3565C26.605 28.3987 24.3235 29.01 23.367 30.6683L23.1495 31.045L24.9674 32.0945L25.1849 31.7178Z" fill="black"/>
<path d="M60.5644 74.4198C60.8814 73.8273 61.5248 73.2971 61.8717 72.8328C62.6968 71.7268 63.3831 70.5223 64.2223 69.4269C67.1656 65.5836 69.6519 61.3402 71.1644 56.7062C72.6333 52.2022 73.6549 46.86 74.267 42.185L76.7885 35.6516L50.2959 25.1623L47.7743 31.6957C43.8364 37.5125 38.8633 44.5791 36.9358 51.4489C36.2429 53.9186 35.7779 56.4484 35.4189 58.9884C35.2431 60.236 35.0928 61.4861 34.954 62.7384C34.8425 63.7403 34.8931 64.7738 34.6159 65.7511C34.5714 65.9092 33.9839 67.6348 33.9076 67.6247L40.9098 68.5351C41.6856 68.6356 42.4395 68.868 43.1395 69.2229L61.8337 78.6816C61.8337 78.6816 60.4747 75.5384 60.4734 75.5353C60.3036 75.1426 60.3772 74.77 60.5644 74.4198Z" fill="#9C5F20"/>
<path d="M65.5969 50.5727C65.1445 49.1651 63.7461 49.5194 63.7461 49.5194C63.7461 49.5194 64.5242 48.3747 63.9592 47.4857C63.4451 46.6771 61.6261 47.1001 61.6261 47.1001C61.6261 47.1001 60.7958 45.8968 59.9566 45.834C59.1177 45.7705 59.2396 48.0557 59.2396 48.0557L60.7308 53.7099L62.5527 54.7802C64.3047 54.8178 63.9156 52.5205 63.9156 52.5205C63.9156 52.5205 65.9843 51.7781 65.5969 50.5727Z" fill="#C12929"/>
<path d="M59.0855 55.555C58.8963 55.4801 58.4763 55.3138 58.4763 55.3138C57.03 54.7411 55.0547 56.0955 54.3674 57.6025C54.2651 57.8633 54.2041 58.0341 54.2041 58.0341C54.2041 58.0341 58.7076 58.7477 59.1669 55.6223C59.1665 55.6213 59.1373 55.5964 59.0855 55.555Z" fill="#C12929"/>
<path d="M61.4268 54.0466C61.0226 53.8414 59.1665 55.6213 59.1665 55.6213L63.1749 58.0804C63.1749 58.0804 64.8143 55.7678 61.4268 54.0466Z" fill="#EDBF36"/>
<path d="M50.6714 49.1489C50.0217 49.8582 49.5247 50.705 48.8328 51.3716C47.006 53.1313 43.473 54.4715 40.0464 55.0178C40.8194 60.0605 44.1325 64.5649 49.1624 66.5564C49.9544 66.8699 50.7575 67.0925 51.5629 67.2599C52.6658 65.0253 53.5956 60.2058 54.2036 58.033C54.6691 56.3687 56.8923 54.6865 58.4763 55.3137L59.1779 55.5915L61.4267 54.0466C63.6683 48.2384 54.9518 44.4743 50.6714 49.1489Z" fill="#F4C69D"/>
<path d="M49.1497 28.056L75.6681 38.5555L74.8276 40.7333L48.3091 30.2338L49.1497 28.056Z" fill="white"/>
<path d="M60.5646 74.42C60.6031 74.3482 60.6581 74.2804 60.7048 74.211L44.3996 65.961C43.6993 65.6068 42.9461 65.3747 42.1698 65.2732C42.1698 65.2732 39.2871 64.8984 37.2202 64.6299C36.2132 64.4989 35.5844 63.4801 35.874 62.4943C35.8748 62.4921 35.8754 62.4906 35.8752 62.4889C36.1524 61.5116 36.1021 60.4774 36.2134 59.4762C36.3528 58.2243 36.5025 56.9738 36.6783 55.7262C37.0365 53.1859 37.5012 50.6568 38.1951 48.1867C38.299 47.8169 38.4158 47.4456 38.5366 47.075C37.8945 48.533 37.3441 49.9955 36.936 51.449C36.2431 53.9187 35.7782 56.4485 35.4192 58.9885C35.2434 60.2361 35.0938 61.4866 34.9543 62.7385C34.8427 63.7404 34.8933 64.7739 34.6161 65.7512C34.5716 65.9093 33.9841 67.635 33.9079 67.6248L40.91 68.5352C41.6859 68.6357 42.4398 68.8681 43.1398 69.2231L61.834 78.6817C61.834 78.6817 60.475 75.5385 60.4737 75.5355C60.3039 75.1427 60.3774 74.7701 60.5646 74.42Z" fill="#8C551D"/>
<path d="M57.7629 52.2303C58.2703 52.4312 58.8425 52.1774 59.0409 51.6635C59.2392 51.1495 58.9887 50.57 58.4812 50.369C57.9738 50.1681 57.4016 50.4219 57.2032 50.9359C57.0048 51.4499 57.2554 52.0294 57.7629 52.2303Z" fill="black"/>
<path d="M63.6244 71.6454C64.0294 71.0308 64.4126 70.4511 64.8302 69.9042C68.1118 65.6209 70.4886 61.263 71.895 56.951C73.1966 52.9599 74.3055 47.7895 75.0181 42.381L77.5057 35.9355C77.6606 35.534 77.4655 35.0827 77.0692 34.9258L50.5765 24.4364C50.1802 24.2795 49.7345 24.4772 49.5796 24.8786L47.0903 31.3285L46.4179 32.3192C42.4911 38.1029 38.0422 44.6572 36.1962 51.2363C34.8856 55.9059 34.3692 60.8682 33.9132 65.246L34.6791 65.3274L33.9051 65.3248C33.888 65.4804 33.8513 65.629 33.7936 65.7785L33.1909 67.34C33.1046 67.5636 33.1249 67.8151 33.2461 68.0213C33.3673 68.2275 33.5737 68.3669 33.8093 68.3966L40.8115 69.307C41.5041 69.3963 42.1726 69.6015 42.7956 69.9185L61.4895 79.3778C61.5101 79.3885 61.5321 79.3981 61.5536 79.4066C61.8302 79.5161 62.1464 79.4547 62.3636 79.2452C62.5986 79.0195 62.6686 78.6689 62.5385 78.368L61.179 75.2221C61.1051 75.0497 61.1433 74.8523 61.2771 74.7195C62.2058 73.7968 62.9263 72.7029 63.6244 71.6454ZM62.3439 70.7802C61.6939 71.7664 61.0733 72.6956 60.3145 73.4823L57.6397 72.4232L57.0794 73.8751L59.6166 74.8796C59.5892 75.2052 59.6358 75.5383 59.7698 75.8483L60.2775 77.0226L43.4845 68.5251C43.2735 68.4189 43.0596 68.3225 42.8417 68.2362C42.254 68.0036 41.6394 67.8447 41.0093 67.7626L34.9844 66.9789L35.2282 66.3474C35.3344 66.0723 35.404 65.7869 35.4351 65.4987C35.4356 65.4973 35.4445 65.4121 35.4451 65.4106C35.4482 65.3792 35.452 65.3456 35.4551 65.3142L37.0111 65.9302L37.5714 64.4784L35.6234 63.7071C36.0382 59.8343 36.5663 55.6165 37.6757 51.663C39.4523 45.3302 43.8274 38.888 47.6853 33.2035L48.4083 32.1373C48.4419 32.0887 48.4689 32.0358 48.4905 31.9799L50.7322 26.1718L75.7921 36.0938L73.5508 41.9013C73.5283 41.9593 73.5131 42.0202 73.5049 42.0823C72.8039 47.4309 71.7137 52.5376 70.433 56.4617C69.0819 60.6047 66.7874 64.8053 63.6144 68.9484C63.1627 69.5386 62.7461 70.1704 62.3439 70.7802Z" fill="black"/>
<path d="M52.654 66.6643C53.3117 64.9496 53.8843 62.5754 54.3604 60.5797C54.511 59.9498 54.6498 59.3696 54.7781 58.868C55.7215 58.9177 57.4234 58.8601 58.6236 57.9662C59.0504 57.6482 59.365 57.2505 59.5902 56.7932L62.7755 58.7473C62.8143 58.771 62.8537 58.7908 62.8946 58.807C63.2164 58.9344 63.5918 58.8287 63.7991 58.5358C63.8806 58.4208 64.5816 57.3795 64.2555 56.0386C64.1792 55.7247 64.0485 55.4277 63.8763 55.1437C63.9844 55.0584 64.0773 54.9697 64.1498 54.8846C64.6269 54.3228 64.724 53.5553 64.7218 53.0172C65.6818 52.5295 66.736 51.6004 66.3276 50.3315C66.0471 49.4614 65.4636 48.9952 64.8655 48.8128C64.9854 48.2603 64.9645 47.6294 64.6046 47.0634C64.0146 46.1344 62.6972 46.1526 61.9439 46.2526C61.5454 45.7886 60.8373 45.1208 60.0121 45.056C59.6677 45.0301 59.3391 45.1535 59.0885 45.4025C58.7466 45.7424 58.5865 46.3008 58.5146 46.8423C55.9064 45.8163 52.4451 46.0652 50.1059 48.6195C49.7986 48.9556 49.5292 49.3109 49.2695 49.6541C48.9508 50.0752 48.6494 50.473 48.3022 50.8075C46.8321 52.2231 43.885 53.4881 40.7133 54.1085C40.5074 51.9809 40.7658 49.7785 41.585 47.6559C43.1517 43.5965 46.4182 40.5557 50.5484 39.3123L50.1097 37.818C45.5215 39.199 41.8923 42.5782 40.1516 47.0884C37.0619 55.0939 40.9786 64.1529 48.8825 67.2824C51.6354 68.3723 54.6154 68.6384 57.5013 68.0521L57.1991 66.5231C55.6937 66.8292 54.1605 66.8691 52.654 66.6643ZM55.452 57.3189C55.7913 56.8808 56.2394 56.4817 56.7416 56.2294C57.2904 55.9529 57.8072 55.8856 58.1949 56.0391L58.2372 56.0558C58.1183 56.3125 57.9501 56.5321 57.7147 56.7076C57.1131 57.1573 56.2062 57.2978 55.452 57.3189ZM60.4578 55.5023C60.8009 55.2147 61.1132 54.9794 61.3088 54.8643C62.1164 55.3172 62.6158 55.8429 62.7567 56.3941C62.8046 56.5847 62.808 56.7685 62.7886 56.9323L60.4578 55.5023ZM60.9933 47.5467C61.1733 47.8062 61.4903 47.9309 61.7946 47.8597C62.4976 47.6995 63.2272 47.7742 63.3097 47.9073C63.5392 48.2676 63.2325 48.891 63.1103 49.0769C62.9287 49.344 62.9291 49.6964 63.1118 49.9637C63.2943 50.2293 63.6204 50.3542 63.9309 50.2755C64.097 50.2325 64.6504 50.1495 64.8641 50.814C64.9525 51.0901 64.2041 51.5862 63.6571 51.7856C63.3042 51.912 63.0929 52.2777 63.1559 52.6516C63.2055 52.9449 63.206 53.6029 62.9823 53.8658C62.96 53.8913 62.9069 53.9455 62.7849 53.9768C62.6448 53.8711 62.4957 53.7693 62.3371 53.6706C62.9601 51.3372 62.1034 49.0975 60.0015 47.6418C60.008 47.2737 60.0488 46.9091 60.1074 46.6846C60.3907 46.8411 60.7618 47.2131 60.9933 47.5467ZM40.9427 55.6505C44.4473 54.9769 47.661 53.5756 49.3621 51.936C49.7962 51.5179 50.1492 51.0526 50.4899 50.6025C50.7397 50.2721 50.976 49.9615 51.2346 49.679C53.4117 47.3006 56.8397 47.4486 58.9558 48.7927C60.6782 49.8873 61.348 51.5793 60.8242 53.3754C60.422 53.5525 59.8554 53.9332 59.0233 54.6934L58.7553 54.5872C57.9583 54.2717 56.9999 54.3592 56.0577 54.8331C54.8141 55.4587 53.7955 56.6312 53.4631 57.8202C53.289 58.4425 53.0885 59.2811 52.8656 60.2138C52.3967 62.1739 51.7795 64.7514 51.1185 66.3676C50.5515 66.2226 49.9918 66.0479 49.4428 65.8305C44.9369 64.0464 41.8783 60.1198 40.9427 55.6505Z" fill="black"/>
<path d="M59.6345 65.7879L60.2069 67.2355C60.8437 66.9771 61.4684 66.673 62.0602 66.3341L61.3027 64.9764C60.7698 65.2825 60.2083 65.5556 59.6345 65.7879Z" fill="black"/>
<path d="M50.0228 30.0753L52.173 30.9266L51.6126 32.3784L49.4625 31.5271L50.0228 30.0753Z" fill="black"/>
<path d="M53.6063 31.4941L55.7565 32.3454L55.1961 33.7972L53.046 32.9459L53.6063 31.4941Z" fill="black"/>
<path d="M57.1899 32.913L59.3401 33.7643L58.7797 35.2162L56.6296 34.3649L57.1899 32.913Z" fill="black"/>
<path d="M60.7732 34.3318L62.9233 35.1831L62.363 36.635L60.2129 35.7836L60.7732 34.3318Z" fill="black"/>
<path d="M64.3571 35.7506L66.5072 36.6019L65.9469 38.0538L63.7967 37.2025L64.3571 35.7506Z" fill="black"/>
<path d="M67.9404 37.1694L70.0906 38.0207L69.5302 39.4726L67.3801 38.6213L67.9404 37.1694Z" fill="black"/>
<path d="M71.5239 38.5884L73.6741 39.4397L73.1137 40.8915L70.9636 40.0402L71.5239 38.5884Z" fill="black"/>
</g>
<defs>
<clipPath id="clip0_588_11024">
<rect width="80" height="80" fill="white"/>
</clipPath>
</defs>
</svg>
