<svg width="80" height="80" viewBox="0 0 80 80" fill="none" xmlns="http://www.w3.org/2000/svg">
<g clip-path="url(#clip0_594_10431)">
<path d="M32.5 16.25C35.9518 16.25 38.75 13.4518 38.75 10C38.75 6.54822 35.9518 3.75 32.5 3.75C29.0482 3.75 26.25 6.54822 26.25 10C26.25 13.4518 29.0482 16.25 32.5 16.25Z" fill="#F7A539"/>
<path d="M78.75 33.75V61.25L66.25 33.75H72.5H78.75Z" fill="#F7A539"/>
<path d="M48.75 33.75L52.5 61.25C51.6785 61.2475 50.8647 61.4075 50.1053 61.7207C49.3459 62.0339 48.6559 62.4942 48.0751 63.0751C47.4942 63.6559 47.0339 64.3459 46.7207 65.1053C46.4075 65.8647 46.2475 66.6785 46.25 67.5C46.2525 66.6785 46.0925 65.8647 45.7793 65.1053C45.4661 64.3459 45.0058 63.6559 44.4249 63.0751C43.8441 62.4942 43.1541 62.0339 42.3947 61.7207C41.6353 61.4075 40.8215 61.2475 40 61.25V33.75H48.75Z" fill="#FFCC3E"/>
<path d="M57.5 33.75L65 61.25C64.1785 61.2475 63.3647 61.4075 62.6053 61.7207C61.8459 62.0339 61.1559 62.4942 60.5751 63.0751C59.9942 63.6559 59.5339 64.3459 59.2207 65.1053C58.9075 65.8647 58.7475 66.6785 58.75 67.5C58.7525 66.6785 58.5925 65.8647 58.2793 65.1053C57.9661 64.3459 57.5058 63.6559 56.9249 63.0751C56.3441 62.4942 55.6541 62.0339 54.8947 61.7207C54.1353 61.4075 53.3215 61.2475 52.5 61.25L48.75 33.75H57.5Z" fill="#F7A539"/>
<path d="M66.25 33.75L78.75 61.25C74.6125 61.25 71.25 64.05 71.25 67.5C71.2525 66.6785 71.0925 65.8647 70.7793 65.1053C70.4661 64.3459 70.0058 63.6559 69.4249 63.0751C68.8441 62.4942 68.1541 62.0339 67.3947 61.7207C66.6353 61.4075 65.8215 61.2475 65 61.25L57.5 33.75H66.25Z" fill="#FFCC3E"/>
<path d="M72.5 25V33.75H66.25H57.5V25H72.5Z" fill="#956143"/>
<path d="M72.5 25H57.5L48.75 17.5H63.75L72.5 25Z" fill="#D63E3E"/>
<path d="M48.75 33.75H40V25L48.75 17.5L57.5 25V33.75H48.75Z" fill="#B28364"/>
<path d="M22.5 23.125V33.75H13.75V23.125C13.75 21.9647 14.2109 20.8519 15.0314 20.0314C15.8519 19.2109 16.9647 18.75 18.125 18.75C19.2836 18.7556 20.3932 19.2183 21.2124 20.0376C22.0317 20.8568 22.4944 21.9664 22.5 23.125Z" fill="#68AA22"/>
<path d="M13.75 23.125V33.75H1.25V17.5C1.25 15.8424 1.90848 14.2527 3.08058 13.0806C4.25269 11.9085 5.8424 11.25 7.5 11.25C9.1576 11.25 10.7473 11.9085 11.9194 13.0806C13.0915 14.2527 13.75 15.8424 13.75 17.5V23.125Z" fill="#80BC39"/>
<path d="M13.75 33.75L1.25 61.25V33.75H13.75Z" fill="#FFCC3E"/>
<path d="M22.5 33.75L15 61.25C14.1785 61.2475 13.3647 61.4075 12.6053 61.7207C11.8459 62.0339 11.1559 62.4942 10.5751 63.0751C9.9942 63.6559 9.53393 64.3459 9.22071 65.1053C8.9075 65.8647 8.74752 66.6785 8.75 67.5C8.7338 66.6455 8.52804 65.8054 8.14758 65.0401C7.76712 64.2749 7.22145 63.6037 6.55 63.075C5.04893 61.8695 3.17501 61.2243 1.25 61.25L13.75 33.75H22.5Z" fill="#F7A539"/>
<path d="M31.25 33.75L27.5 61.25C26.6785 61.2475 25.8647 61.4075 25.1053 61.7207C24.3459 62.0339 23.6559 62.4942 23.0751 63.0751C22.4942 63.6559 22.0339 64.3459 21.7207 65.1053C21.4075 65.8647 21.2475 66.6785 21.25 67.5C21.2525 66.6785 21.0925 65.8647 20.7793 65.1053C20.4661 64.3459 20.0058 63.6559 19.4249 63.0751C18.8441 62.4942 18.1541 62.0339 17.3947 61.7207C16.6353 61.4075 15.8215 61.2475 15 61.25L22.5 33.75H31.25Z" fill="#FFCC3E"/>
<path d="M40 33.75V61.25C39.1785 61.2475 38.3647 61.4075 37.6053 61.7207C36.8459 62.0339 36.1559 62.4942 35.5751 63.0751C34.9942 63.6559 34.5339 64.3459 34.2207 65.1053C33.9075 65.8647 33.7475 66.6785 33.75 67.5C33.7525 66.6785 33.5925 65.8647 33.2793 65.1053C32.9661 64.3459 32.5058 63.6559 31.9249 63.0751C31.3441 62.4942 30.6541 62.0339 29.8947 61.7207C29.1353 61.4075 28.3215 61.2475 27.5 61.25L31.25 33.75H40Z" fill="#F7A539"/>
<path d="M78.75 61.25V76.25H1.25V61.25C3.17501 61.2243 5.04893 61.8695 6.55 63.075C7.22145 63.6037 7.76712 64.2749 8.14758 65.0401C8.52804 65.8054 8.7338 66.6456 8.75 67.5C8.75 65.8424 9.40848 64.2527 10.5806 63.0806C11.7527 61.9085 13.3424 61.25 15 61.25C16.6576 61.25 18.2473 61.9085 19.4194 63.0806C20.5915 64.2527 21.25 65.8424 21.25 67.5C21.25 65.8424 21.9085 64.2527 23.0806 63.0806C24.2527 61.9085 25.8424 61.25 27.5 61.25C29.1576 61.25 30.7473 61.9085 31.9194 63.0806C33.0915 64.2527 33.75 65.8424 33.75 67.5C33.75 65.8424 34.4085 64.2527 35.5806 63.0806C36.7527 61.9085 38.3424 61.25 40 61.25C41.6576 61.25 43.2473 61.9085 44.4194 63.0806C45.5915 64.2527 46.25 65.8424 46.25 67.5C46.25 65.8424 46.9085 64.2527 48.0806 63.0806C49.2527 61.9085 50.8424 61.25 52.5 61.25C54.1576 61.25 55.7473 61.9085 56.9194 63.0806C58.0915 64.2527 58.75 65.8424 58.75 67.5C58.75 65.8424 59.4085 64.2527 60.5806 63.0806C61.7527 61.9085 63.3424 61.25 65 61.25C66.6576 61.25 68.2473 61.9085 69.4194 63.0806C70.5915 64.2527 71.25 65.8424 71.25 67.5C71.25 64.05 74.6125 61.25 78.75 61.25Z" fill="#E28D30"/>
<path d="M78.75 32.5H73.75V25C73.7498 24.8197 73.7106 24.6415 73.6351 24.4777C73.5596 24.314 73.4495 24.1685 73.3125 24.0512L64.5625 16.5513C64.3366 16.3566 64.0482 16.2497 63.75 16.25H48.75C48.4518 16.2497 48.1634 16.3566 47.9375 16.5513L39.1875 24.0512C39.0505 24.1685 38.9404 24.314 38.8649 24.4777C38.7894 24.6415 38.7502 24.8197 38.75 25V32.5H23.75V23.125C23.7444 21.6349 23.15 20.2074 22.0963 19.1537C21.0426 18.1 19.6151 17.5056 18.125 17.5C17.0117 17.4994 15.9236 17.831 15 18.4525V17.5C15 15.5109 14.2098 13.6032 12.8033 12.1967C11.3968 10.7902 9.48912 10 7.5 10C5.51088 10 3.60322 10.7902 2.1967 12.1967C0.790176 13.6032 0 15.5109 0 17.5L0 76.25C0 76.5815 0.131696 76.8995 0.366117 77.1339C0.600537 77.3683 0.918479 77.5 1.25 77.5H78.75C79.0815 77.5 79.3995 77.3683 79.6339 77.1339C79.8683 76.8995 80 76.5815 80 76.25V33.75C80 33.4185 79.8683 33.1005 79.6339 32.8661C79.3995 32.6317 79.0815 32.5 78.75 32.5ZM77.5 55.4787L71.9338 43.2288C71.7918 42.9345 71.5404 42.7075 71.2332 42.5964C70.9261 42.4852 70.5876 42.4987 70.2902 42.634C69.9929 42.7693 69.7603 43.0156 69.6423 43.3202C69.5243 43.6248 69.5302 43.9635 69.6588 44.2637L76.8925 60.1813C74.6934 60.5511 72.7144 61.7361 71.35 63.5C71.0507 63.0241 70.6998 62.5827 70.3037 62.1838C69.133 61.0206 67.6108 60.2766 65.9737 60.0675L59.1362 35H65.445L67.385 39.2675C67.5462 39.5468 67.7992 39.7616 68.1009 39.8756C68.4026 39.9895 68.7344 39.9955 69.04 39.8925C69.1898 39.825 69.3248 39.7286 69.4373 39.6088C69.5498 39.4891 69.6376 39.3483 69.6956 39.1946C69.7537 39.0409 69.7808 38.8772 69.7756 38.713C69.7703 38.5488 69.7328 38.3872 69.665 38.2375L68.1913 35H77.5V55.4787ZM53.6037 60.0887L50.1825 35H56.545L63.4113 60.1725C62.0014 60.4765 60.7085 61.1789 59.6862 62.1963C59.3379 62.5489 59.024 62.934 58.7487 63.3462C58.4722 62.9298 58.1557 62.5413 57.8037 62.1862C56.6643 61.0556 55.1921 60.3204 53.6037 60.0887ZM66.225 32.5H58.75V26.25H71.25V32.5H66.225ZM69.125 23.75H57.9613L52.125 18.75H63.2875L69.125 23.75ZM41.25 25.575L48.75 19.1463L56.25 25.575V32.5H50V28.75C50 28.4185 49.8683 28.1005 49.6339 27.8661C49.3995 27.6317 49.0815 27.5 48.75 27.5C48.4185 27.5 48.1005 27.6317 47.8661 27.8661C47.6317 28.1005 47.5 28.4185 47.5 28.75V32.5H41.25V25.575ZM40 43.75C40.3315 43.75 40.6495 43.6183 40.8839 43.3839C41.1183 43.1495 41.25 42.8315 41.25 42.5V35H47.6587L51.0863 60.135C49.6094 60.4168 48.251 61.1348 47.1862 62.1963C46.8379 62.5489 46.524 62.934 46.2487 63.3462C45.9722 62.9298 45.6557 62.5413 45.3037 62.1862C44.2007 61.0905 42.7839 60.3653 41.25 60.1113V52.5C41.25 52.1685 41.1183 51.8505 40.8839 51.6161C40.6495 51.3817 40.3315 51.25 40 51.25C39.6685 51.25 39.3505 51.3817 39.1161 51.6161C38.8817 51.8505 38.75 52.1685 38.75 52.5V60.1113C37.2119 60.3678 35.7917 61.0965 34.6862 62.1963C34.3379 62.5489 34.024 62.934 33.7487 63.3462C33.4722 62.9298 33.1557 62.5413 32.8037 62.1862C31.7412 61.1292 30.3863 60.4147 28.9137 60.135L32.3412 35H38.75V42.5C38.75 42.8315 38.8817 43.1495 39.1161 43.3839C39.3505 43.6183 39.6685 43.75 40 43.75ZM17.0325 53.7938C16.7129 53.7064 16.3717 53.7495 16.0839 53.9136C15.7961 54.0776 15.5852 54.3493 15.4975 54.6688L14.0262 60.0675C12.3849 60.2782 10.8592 61.0252 9.68625 62.1925C9.29669 62.5856 8.95092 63.0198 8.655 63.4875C8.27682 62.9788 7.83913 62.5172 7.35125 62.1125C6.12675 61.1143 4.66555 60.4487 3.10875 60.18L14.555 35H20.8638L16.8638 49.6712C16.7764 49.9908 16.8195 50.332 16.9836 50.6198C17.1476 50.9077 17.4193 51.1186 17.7388 51.2062C17.8968 51.2617 18.0649 51.2827 18.2318 51.2676C18.3986 51.2525 18.5602 51.2017 18.7058 51.1188C18.8513 51.0358 18.9773 50.9226 19.0753 50.7867C19.1733 50.6508 19.241 50.4955 19.2738 50.3312L23.455 35H29.8175L26.3963 60.09C24.8032 60.3221 23.3272 61.0605 22.1863 62.1963C21.8379 62.5489 21.524 62.934 21.2488 63.3462C20.9722 62.9298 20.6557 62.5413 20.3037 62.1862C19.2835 61.1735 17.9942 60.4747 16.5887 60.1725L17.91 55.3288C17.9532 55.1703 17.9648 55.005 17.9441 54.8421C17.9233 54.6792 17.8707 54.522 17.7892 54.3795C17.7078 54.2369 17.599 54.1118 17.4691 54.0113C17.3393 53.9108 17.1909 53.8369 17.0325 53.7938ZM2.5 35H11.8087L2.5 55.48V35ZM7.5 12.5C8.15735 12.4974 8.80872 12.6249 9.41654 12.8752C10.0244 13.1256 10.5766 13.4937 11.0414 13.9586C11.5063 14.4234 11.8744 14.9756 12.1248 15.5835C12.3751 16.1913 12.5026 16.8426 12.5 17.5V26.25C12.5 26.5815 12.6317 26.8995 12.8661 27.1339C13.1005 27.3683 13.4185 27.5 13.75 27.5C14.0815 27.5 14.3995 27.3683 14.6339 27.1339C14.8683 26.8995 15 26.5815 15 26.25V23.125C15 22.2962 15.3292 21.5013 15.9153 20.9153C16.5013 20.3292 17.2962 20 18.125 20C18.9522 20.0052 19.744 20.3362 20.3289 20.9211C20.9138 21.506 21.2448 22.2978 21.25 23.125V32.5H2.5V17.5C2.5 16.1739 3.02678 14.9021 3.96447 13.9645C4.90215 13.0268 6.17392 12.5 7.5 12.5ZM2.5 75V62.6C3.69226 62.7788 4.81466 63.2744 5.75 64.035C6.28056 64.4465 6.71286 64.9709 7.01555 65.5703C7.31824 66.1696 7.48373 66.8288 7.5 67.5C7.5 67.8315 7.6317 68.1495 7.86612 68.3839C8.10054 68.6183 8.41848 68.75 8.75 68.75C9.08152 68.75 9.39946 68.6183 9.63388 68.3839C9.8683 68.1495 10 67.8315 10 67.5C10 66.8434 10.1293 66.1932 10.3806 65.5866C10.6319 64.98 11.0002 64.4288 11.4645 63.9645C11.9288 63.5002 12.48 63.1319 13.0866 62.8806C13.6932 62.6293 14.3434 62.5 15 62.5C15.6566 62.5 16.3068 62.6293 16.9134 62.8806C17.52 63.1319 18.0712 63.5002 18.5355 63.9645C18.9998 64.4288 19.3681 64.98 19.6194 65.5866C19.8707 66.1932 20 66.8434 20 67.5C20 67.8315 20.1317 68.1495 20.3661 68.3839C20.6005 68.6183 20.9185 68.75 21.25 68.75C21.5815 68.75 21.8995 68.6183 22.1339 68.3839C22.3683 68.1495 22.5 67.8315 22.5 67.5C22.5 66.1739 23.0268 64.9021 23.9645 63.9645C24.9021 63.0268 26.1739 62.5 27.5 62.5C28.8261 62.5 30.0979 63.0268 31.0355 63.9645C31.9732 64.9021 32.5 66.1739 32.5 67.5C32.5 67.8315 32.6317 68.1495 32.8661 68.3839C33.1005 68.6183 33.4185 68.75 33.75 68.75C34.0815 68.75 34.3995 68.6183 34.6339 68.3839C34.8683 68.1495 35 67.8315 35 67.5C35 66.1739 35.5268 64.9021 36.4645 63.9645C37.4021 63.0268 38.6739 62.5 40 62.5C41.3261 62.5 42.5979 63.0268 43.5355 63.9645C44.4732 64.9021 45 66.1739 45 67.5C45 67.8315 45.1317 68.1495 45.3661 68.3839C45.6005 68.6183 45.9185 68.75 46.25 68.75C46.5815 68.75 46.8995 68.6183 47.1339 68.3839C47.3683 68.1495 47.5 67.8315 47.5 67.5C47.5 66.1739 48.0268 64.9021 48.9645 63.9645C49.9021 63.0268 51.1739 62.5 52.5 62.5C53.8261 62.5 55.0979 63.0268 56.0355 63.9645C56.9732 64.9021 57.5 66.1739 57.5 67.5C57.5 67.8315 57.6317 68.1495 57.8661 68.3839C58.1005 68.6183 58.4185 68.75 58.75 68.75C59.0815 68.75 59.3995 68.6183 59.6339 68.3839C59.8683 68.1495 60 67.8315 60 67.5C60 66.1739 60.5268 64.9021 61.4645 63.9645C62.4021 63.0268 63.6739 62.5 65 62.5C66.3261 62.5 67.5979 63.0268 68.5355 63.9645C69.4732 64.9021 70 66.1739 70 67.5C70 67.8315 70.1317 68.1495 70.3661 68.3839C70.6005 68.6183 70.9185 68.75 71.25 68.75C71.5815 68.75 71.8995 68.6183 72.1339 68.3839C72.3683 68.1495 72.5 67.8315 72.5 67.5C72.5 65.085 74.6513 63.0662 77.5 62.6012V75H2.5Z" fill="#252525"/>
<path d="M32.5 17.5C33.9834 17.5 35.4334 17.0601 36.6668 16.236C37.9001 15.4119 38.8614 14.2406 39.4291 12.8701C39.9967 11.4997 40.1453 9.99168 39.8559 8.53683C39.5665 7.08197 38.8522 5.7456 37.8033 4.6967C36.7544 3.64781 35.418 2.9335 33.9632 2.64411C32.5083 2.35472 31.0003 2.50325 29.6299 3.07091C28.2594 3.63856 27.0881 4.59986 26.264 5.83323C25.4399 7.0666 25 8.51664 25 10C25.002 11.9885 25.7928 13.895 27.1989 15.3011C28.605 16.7072 30.5115 17.498 32.5 17.5ZM32.5 5C33.4889 5 34.4556 5.29325 35.2778 5.84266C36.1001 6.39206 36.741 7.17296 37.1194 8.08659C37.4978 9.00022 37.5968 10.0055 37.4039 10.9755C37.211 11.9454 36.7348 12.8363 36.0355 13.5355C35.3363 14.2348 34.4454 14.711 33.4754 14.9039C32.5055 15.0969 31.5002 14.9978 30.5866 14.6194C29.673 14.241 28.8921 13.6001 28.3427 12.7779C27.7932 11.9556 27.5 10.9889 27.5 10C27.5 8.67392 28.0268 7.40215 28.9645 6.46447C29.9021 5.52679 31.1739 5 32.5 5Z" fill="#252525"/>
<path d="M40 48.75C40.6904 48.75 41.25 48.1904 41.25 47.5C41.25 46.8096 40.6904 46.25 40 46.25C39.3096 46.25 38.75 46.8096 38.75 47.5C38.75 48.1904 39.3096 48.75 40 48.75Z" fill="#252525"/>
</g>
<defs>
<clipPath id="clip0_594_10431">
<rect width="80" height="80" fill="white"/>
</clipPath>
</defs>
</svg>
