<svg width="80" height="80" viewBox="0 0 80 80" fill="none" xmlns="http://www.w3.org/2000/svg">
<g clip-path="url(#clip0_668_11295)">
<path d="M40.6171 46.8202C41.5061 45.5948 42.5854 44.9598 43.1759 44.6741C40.8267 43.8296 38.8457 43.69 37.5758 43.7027C35.6964 43.7217 34.3122 43.7344 33.2201 44.744C31.7026 46.1345 31.8614 48.4075 31.9058 48.9028L24.6485 50.6298L17.3912 52.3632C17.2071 51.906 16.3245 49.8044 14.3435 49.2456C12.9149 48.8456 11.6768 49.4552 9.9942 50.2869C8.85132 50.852 7.14334 51.8679 5.42902 53.6839C6.083 53.6712 7.33382 53.7473 8.67989 54.4458C10.5593 55.4172 11.4355 56.9855 11.7212 57.5633C11.4609 58.7125 10.045 65.4175 14.28 71.5573C17.1753 75.7606 21.5945 77.3352 23.1501 77.894C25.0676 79.2781 28.1597 79.7734 31.3852 79.0051C34.6107 78.2368 37.1504 76.3892 38.2425 74.2939C39.379 73.0875 42.6172 69.6906 43.3093 64.6301C44.3252 57.2331 40.052 51.887 39.3028 50.979C39.2965 50.3314 39.3727 48.5409 40.6171 46.8202Z" fill="#E7F2F1"/>
<path d="M61.9193 72.2875C61.7415 73.3732 61.9066 75.005 62.6685 75.278C63.5574 75.6019 65.2082 74.0336 65.6527 72.2875C66.0844 70.5795 65.259 69.1065 64.9606 68.6303C64.9225 68.6176 64.878 68.5985 64.84 68.5858C64.313 68.8715 62.2875 70.0652 61.9193 72.2875Z" fill="#E7F2F1"/>
<path d="M75.183 50.6743C75.9894 48.9536 76.1926 46.7568 75.3481 46.1155C75.164 45.9758 74.4338 45.5313 72.2242 46.7631C71.5448 47.1441 70.694 46.7885 70.4718 46.052C70.0781 44.744 69.4305 43.1313 68.6368 43.1249C67.5511 43.1122 66.605 46.0964 66.3955 48.3568C66.3892 48.4393 66.3828 48.5219 66.3765 48.6044C61.6906 49.6394 58.1921 53.8236 58.1921 58.8269C58.1921 63.2714 60.9478 67.062 64.8399 68.5858C64.8653 68.5668 64.8844 68.5605 64.9034 68.5478C64.9161 68.5732 64.9352 68.5985 64.9606 68.6303C66.1034 69.062 67.3416 69.297 68.6368 69.297C74.402 69.297 79.0815 64.6112 79.0815 58.8269C79.0815 55.5316 77.564 52.5918 75.183 50.6743Z" fill="#E7F2F1"/>
<path d="M17.0344 42.655C22.0695 40.6676 24.5394 34.9659 22.552 29.9181C20.971 25.899 17.0408 23.5243 12.9645 23.7212C12.9391 23.5434 12.9137 23.372 12.8819 23.1878C12.6089 21.8227 12.0819 20.7878 11.6819 20.1401C11.5295 20.4957 11.3771 20.8513 11.2184 21.2005C11.066 21.556 10.9136 21.9116 10.7613 22.2608C10.5073 21.9243 10.0692 21.4418 9.40249 21.0417C9.00883 20.8068 8.64057 20.6671 8.34215 20.5782C8.52628 21.6132 8.67867 22.7307 8.78025 23.9244C8.812 24.2418 8.8247 24.5466 8.84375 24.8514C4.49444 27.1562 2.47534 32.4261 4.32301 37.1247C6.31035 42.1724 11.9994 44.6487 17.0344 42.655Z" fill="#E7F2F1"/>
<path d="M54.5984 36.3882C54.7127 36.2104 54.8397 36.039 54.9794 35.8739C56.7826 33.7088 59.2144 30.1341 60.5732 25.1753C61.3288 22.4196 61.5764 19.8418 61.57 17.5941C61.9383 18.3243 63.3351 20.9466 66.4146 21.9117C68.6305 22.6101 71.5893 22.4006 71.9385 21.3402C72.3385 20.1275 68.821 19.3592 66.6749 15.2766C65.4876 13.0226 65.6527 11.5368 64.1733 10.5971C62.8526 9.75901 61.2335 9.9241 60.0398 10.2416C60.5287 9.40345 61.5637 7.35896 61.1002 4.82556C60.6938 2.57789 59.1509 0.450856 58.389 0.647686C57.8049 0.793721 58.0779 2.18423 57.1509 4.15888C56.5286 5.4732 55.6842 6.36211 55.0683 6.9272C53.2841 6.24147 51.119 5.73352 48.63 5.73352C48.4269 5.73352 48.2237 5.73987 48.0205 5.74622C45.7538 5.82241 43.7728 6.31131 42.1219 6.95895C41.5124 6.39385 40.6679 5.4732 40.0457 4.15888C39.1187 2.18423 39.3854 0.793721 38.8076 0.647686C38.0393 0.450856 36.5028 2.57789 36.0901 4.82556C35.6266 7.35896 36.6996 9.46059 37.1885 10.2987C35.9948 9.98124 34.3376 9.75901 33.017 10.5971C31.5376 11.5368 31.709 13.0226 30.5217 15.2766C28.3692 19.3592 24.858 20.1275 25.258 21.3402C25.6073 22.4006 28.5661 22.6101 30.782 21.9117C33.8614 20.9466 35.3281 18.2735 35.6964 17.5433C35.6837 19.5878 35.8869 21.9053 36.4901 24.3816C36.5536 24.6419 36.6234 24.9086 36.6932 25.1753C38.052 30.1341 40.4838 33.7088 42.287 35.8739C42.4267 36.039 42.5537 36.2104 42.668 36.3882C43.0934 37.0359 43.3855 37.7724 43.595 38.528C44.2109 40.7375 46.2427 42.3757 48.63 42.3757C51.0237 42.3757 53.0555 40.7375 53.6651 38.528C53.881 37.7724 54.173 37.0359 54.5984 36.3882Z" fill="#E7F2F1"/>
<path d="M38.7123 71.1065C38.9663 72.1669 38.7758 73.259 38.2425 74.2939C37.1504 76.3892 34.6107 78.2369 31.3852 79.0051C28.1597 79.7734 25.0676 79.2782 23.1501 77.894C22.204 77.2146 21.5437 76.3257 21.2961 75.2654C20.5341 72.0526 23.8104 68.516 28.6232 67.3668C33.4297 66.2175 37.9504 67.8938 38.7123 71.1065Z" fill="#F48CA7"/>
<path d="M39.3028 50.979C40.052 51.887 44.3252 57.2331 43.3093 64.6301C42.6172 69.6906 39.379 73.0875 38.2425 74.2939C38.7758 73.2589 38.9663 72.1668 38.7123 71.1065C37.9504 67.8937 33.4297 66.2175 28.6232 67.3667C23.8104 68.516 20.5341 72.0526 21.2961 75.2653C21.5437 76.3257 22.204 77.2146 23.1501 77.894C21.5945 77.3352 17.1753 75.7606 14.28 71.5573C10.045 65.4175 11.4609 58.7125 11.7212 57.5633C11.4355 56.9855 10.5593 55.4172 8.67989 54.4458C7.33382 53.7473 6.083 53.6712 5.42902 53.6839C7.14334 51.8679 8.85132 50.852 9.9942 50.2869C11.6768 49.4552 12.9149 48.8456 14.3435 49.2456C16.3245 49.8044 17.2071 51.906 17.3912 52.3632L24.6485 50.6298L31.9058 48.9028C31.8614 48.4075 31.7026 46.1345 33.2201 44.744C34.3122 43.7344 35.6964 43.7217 37.5758 43.7027C38.8457 43.69 40.8267 43.8296 43.1759 44.6741C42.5854 44.9598 41.5061 45.5948 40.6171 46.8202C39.3727 48.5409 39.2965 50.3314 39.3028 50.979ZM37.7155 63.6587C38.5155 63.4682 39.0108 62.6618 38.8203 61.8555C38.6298 61.0555 37.8234 60.5539 37.0234 60.7507C36.217 60.9412 35.7218 61.7475 35.9123 62.5476C36.1091 63.3539 36.9091 63.8492 37.7155 63.6587ZM18.8389 68.1604C19.6452 67.9699 20.1405 67.1635 19.9436 66.3635C19.7532 65.5572 18.9531 65.0619 18.1468 65.2524C17.3468 65.4429 16.8515 66.2492 17.042 67.0556C17.2325 67.8556 18.0388 68.3509 18.8389 68.1604Z" fill="#FEC4B9"/>
<path d="M64.9606 68.6303C65.259 69.1065 66.0844 70.5795 65.6527 72.2875C65.2082 74.0336 63.5574 75.6019 62.6685 75.278C61.9066 75.005 61.7415 73.3732 61.9193 72.2875C62.2875 70.0652 64.313 68.8715 64.84 68.5858C64.878 68.5985 64.9225 68.6176 64.9606 68.6303Z" fill="#E15C63"/>
<path d="M75.3481 46.1155C76.1926 46.7567 75.9894 48.9536 75.1831 50.6743C74.6878 51.741 73.964 52.6236 73.1132 52.8458C72.2623 53.068 71.7798 52.4966 70.8718 52.8458C69.2655 53.4617 69.3797 55.7792 68.6369 55.8363C67.7099 55.9062 66.1098 52.4013 66.3765 48.6044C66.3828 48.5219 66.3892 48.4393 66.3955 48.3568C66.6051 46.0964 67.5511 43.1122 68.6369 43.1249C69.4305 43.1313 70.0782 44.744 70.4718 46.052C70.6941 46.7885 71.5449 47.1441 72.2243 46.7631C74.4338 45.5313 75.164 45.9758 75.3481 46.1155Z" fill="#E15C63"/>
<path d="M67.1956 62.5793C68.8401 63.0555 69.4623 65.0873 68.4845 66.4905C67.2908 68.1985 65.7416 68.9033 64.9035 68.5477C64.0781 68.1985 63.5447 66.6112 63.8431 64.6365C64.0019 63.5825 64.7828 62.6936 65.8305 62.5095C66.2241 62.4396 66.6686 62.4396 67.1448 62.5666C67.1575 62.573 67.1765 62.5793 67.1956 62.5793Z" fill="#FFC05A"/>
<path d="M73.1131 59.576C73.9386 59.576 74.6052 60.2427 74.6052 61.0745C74.6052 61.8999 73.9386 62.5666 73.1131 62.5666C72.2877 62.5666 71.621 61.8999 71.621 61.0745C71.621 60.2427 72.2877 59.576 73.1131 59.576Z" fill="#543927"/>
<path d="M62.6685 57.3347C63.4876 57.3347 64.1606 58.0014 64.1606 58.8268C64.1606 59.6522 63.4876 60.3253 62.6685 60.3253C61.8431 60.3253 61.1764 59.6522 61.1764 58.8268C61.1764 58.0014 61.8431 57.3347 62.6685 57.3347Z" fill="#543927"/>
<path d="M38.8203 61.8555C39.0108 62.6618 38.5155 63.4682 37.7155 63.6587C36.9091 63.8492 36.1091 63.3539 35.9123 62.5475C35.7218 61.7475 36.217 60.9412 37.0234 60.7507C37.8234 60.5539 38.6298 61.0554 38.8203 61.8555Z" fill="#543927"/>
<path d="M19.9436 66.3636C20.1405 67.1636 19.6452 67.97 18.8389 68.1604C18.0388 68.3509 17.2325 67.8557 17.042 67.0557C16.8515 66.2493 17.3468 65.4429 18.1468 65.2524C18.9531 65.0619 19.7532 65.5572 19.9436 66.3636Z" fill="#543927"/>
<path d="M9.35173 33.3405C9.6565 34.1087 9.28189 34.9786 8.51362 35.277C7.74534 35.5818 6.88183 35.2072 6.57706 34.4389C6.27864 33.6706 6.65326 32.8008 7.42153 32.496C8.18345 32.1912 9.05331 32.5722 9.35173 33.3405Z" fill="#543927"/>
<path d="M19.0725 29.4992C19.3773 30.2674 18.9963 31.1309 18.2344 31.4357C17.4661 31.7405 16.5963 31.3659 16.2978 30.5976C15.9931 29.8293 16.3677 28.9595 17.136 28.6547C17.9042 28.3499 18.7677 28.7309 19.0725 29.4992Z" fill="#543927"/>
<path d="M20.571 35.3343C20.9583 36.6359 18.2154 38.6804 15.8344 39.6201C13.4597 40.5598 10.0628 40.9408 9.46599 39.7281C9.3009 39.4043 9.17391 38.6169 10.7232 36.8201C10.9009 35.2645 11.9232 33.9311 13.3708 33.3597C14.8248 32.7819 16.4757 33.0612 17.663 34.0708C20.025 34.3248 20.4631 34.9851 20.571 35.3343Z" fill="#F49C60"/>
<path d="M22.552 29.9181C24.5394 34.9659 22.0695 40.6676 17.0344 42.655C11.9994 44.6487 6.31035 42.1724 4.32301 37.1247C2.47534 32.4261 4.49444 27.1562 8.84375 24.8514C8.8247 24.5466 8.812 24.2418 8.78025 23.9244C8.67867 22.7307 8.52628 21.6132 8.34215 20.5782C8.64057 20.6671 9.00883 20.8068 9.40249 21.0417C10.0692 21.4418 10.5073 21.9243 10.7613 22.2608C10.9136 21.9116 11.066 21.556 11.2184 21.2005C11.3771 20.8513 11.5295 20.4957 11.6819 20.1401C12.0819 20.7878 12.6089 21.8227 12.8819 23.1878C12.9137 23.372 12.9391 23.5434 12.9645 23.7212C17.0408 23.5243 20.971 25.899 22.552 29.9181ZM15.8344 39.62C18.2154 38.6803 20.9583 36.6358 20.571 35.3342C20.4631 34.9849 20.025 34.3246 17.663 34.0706C16.4757 33.0611 14.8248 32.7817 13.3708 33.3595C11.9232 33.9309 10.9009 35.2643 10.7232 36.8199C9.17391 38.6168 9.3009 39.4041 9.46599 39.7279C10.0628 40.9406 13.4597 40.5597 15.8344 39.62ZM18.2344 31.4356C18.9964 31.1309 19.3773 30.2674 19.0726 29.4991C18.7678 28.7308 17.9043 28.3499 17.136 28.6546C16.3677 28.9594 15.9931 29.8293 16.2979 30.5975C16.5963 31.3658 17.4662 31.7404 18.2344 31.4356ZM8.51358 35.277C9.28185 34.9786 9.65647 34.1087 9.3517 33.3405C9.05328 32.5722 8.18342 32.1912 7.42149 32.496C6.65322 32.8008 6.27861 33.6706 6.57703 34.4389C6.8818 35.2072 7.74531 35.5818 8.51358 35.277Z" fill="#F9B132"/>
<path d="M56.5921 17.4037C57.4112 17.4037 58.0715 18.064 58.0715 18.8831C58.0715 19.7021 57.4112 20.3625 56.5921 20.3625C55.7794 20.3625 55.1191 19.7021 55.1191 18.8831C55.1191 18.064 55.7794 17.4037 56.5921 17.4037Z" fill="#543927"/>
<path d="M40.9282 17.4037C41.741 17.4037 42.4013 18.064 42.4013 18.8831C42.4013 19.7021 41.741 20.3625 40.9282 20.3625C40.1092 20.3625 39.4489 19.7021 39.4489 18.8831C39.4489 18.064 40.1092 17.4037 40.9282 17.4037Z" fill="#543927"/>
<path d="M54.5984 36.3882C54.173 37.0359 53.8809 37.7724 53.6651 38.528C53.0555 40.7376 51.0237 42.3757 48.63 42.3757C46.2427 42.3757 44.2109 40.7376 43.595 38.528C43.3854 37.7724 43.0934 37.0359 42.668 36.3882C42.9029 36.0708 44.9982 33.4041 48.63 33.4041C49.0046 33.4041 52.4015 33.4612 54.5984 36.3882Z" fill="#655F68"/>
<path d="M61.1002 4.82556C61.5637 7.35896 60.5287 9.40345 60.0398 10.2416C59.5128 9.49234 58.8271 8.85106 58.0271 8.36851C57.2017 7.87326 56.2112 7.36531 55.0683 6.9272C55.6842 6.36211 56.5287 5.4732 57.1509 4.15888C58.0779 2.18423 57.8049 0.793721 58.389 0.647686C59.1509 0.450856 60.6938 2.57789 61.1002 4.82556Z" fill="#B29576"/>
<path d="M40.0457 4.15888C40.6679 5.4732 41.5124 6.39386 42.1219 6.95895C41.0044 7.38436 40.0393 7.88595 39.2393 8.36851C38.4139 8.86376 37.7218 9.52409 37.1885 10.2987C36.6996 9.46059 35.6265 7.35896 36.09 4.82556C36.5027 2.57789 38.0393 0.450856 38.8076 0.647686C39.3853 0.793721 39.1187 2.18423 40.0457 4.15888Z" fill="#B29576"/>
<path d="M66.6749 15.2766C68.821 19.3593 72.3386 20.1275 71.9385 21.3403C71.5893 22.4006 68.6305 22.6101 66.4146 21.9117C63.3352 20.9466 61.9383 18.3243 61.5701 17.5942C61.5637 15.8544 61.3923 14.3179 61.1827 13.0226C61.0113 12.0067 60.6176 11.0607 60.0399 10.2416C61.2335 9.92413 62.8526 9.75905 64.1733 10.5972C65.6527 11.5369 65.4876 13.0226 66.6749 15.2766Z" fill="#655F68"/>
<path d="M55.0683 6.9272C56.2112 7.36531 57.2017 7.87326 58.0271 8.36851C57.2081 11.0035 54.4397 12.5527 51.7857 11.867C49.1126 11.1749 47.4364 8.4574 48.0205 5.74622C48.2237 5.73987 48.4269 5.73352 48.6301 5.73352C51.119 5.73352 53.2841 6.24147 55.0683 6.9272Z" fill="#655F68"/>
<path d="M39.2394 8.36853C44.6046 8.6352 48.3126 13.4036 47.6904 17.81C47.0427 22.3689 41.8299 25.9689 36.4901 24.3816C35.8869 21.9054 35.6837 19.5878 35.6964 17.5434C35.7091 15.829 35.8742 14.3052 36.0837 13.0226C36.2488 12.0321 36.6298 11.1051 37.1885 10.2987C37.7219 9.52411 38.4139 8.86378 39.2394 8.36853ZM42.4013 18.8831C42.4013 18.064 41.741 17.4037 40.9283 17.4037C40.1092 17.4037 39.4489 18.064 39.4489 18.8831C39.4489 19.7021 40.1092 20.3625 40.9283 20.3625C41.741 20.3625 42.4013 19.7021 42.4013 18.8831Z" fill="#655F68"/>
<path d="M37.1885 10.2988C36.6298 11.1051 36.2488 12.0321 36.0837 13.0226C35.8742 14.3052 35.7091 15.8291 35.6964 17.5434C35.3281 18.2736 33.8614 20.9466 30.782 21.9117C28.5661 22.6102 25.6073 22.4007 25.258 21.3403C24.858 20.1276 28.3692 19.3593 30.5217 15.2767C31.709 13.0226 31.5376 11.5369 33.017 10.5972C34.3376 9.75907 35.9948 9.9813 37.1885 10.2988Z" fill="#D6EAE8"/>
<path d="M43.595 38.528C43.595 38.528 50.3888 41.2328 51.938 34.2041C52.8523 34.6422 53.8047 35.3279 54.5984 36.3883C54.173 37.0359 53.8809 37.7724 53.6651 38.528C53.0555 40.7376 51.0237 42.3757 48.63 42.3757C46.2427 42.3757 44.2109 40.7376 43.595 38.528Z" fill="#5D5560"/>
<path d="M61.57 17.5941C61.5763 19.8418 61.3287 22.4197 60.5731 25.1753C59.2144 30.1341 56.7826 33.7088 54.9793 35.874C54.8396 36.039 54.7127 36.2105 54.5984 36.3883C53.8047 35.3279 52.8523 34.6422 51.938 34.2041C51.938 34.2041 62.5668 23.3848 58.027 8.36853C58.827 8.85108 59.5128 9.49237 60.0398 10.2416C60.6176 11.0607 61.0112 12.0067 61.1827 13.0226C61.3922 14.3179 61.5636 15.8544 61.57 17.5941Z" fill="#D6EAE8"/>
<path d="M64.9034 68.5478C65.7416 68.9033 67.2908 68.1985 68.4845 66.4906C68.4845 66.4906 80.707 65.1699 75.1831 50.6743C77.5641 52.5918 79.0816 55.5316 79.0816 58.8269C79.0816 64.6112 74.4021 69.297 68.6369 69.297C67.3416 69.297 66.1035 69.0621 64.9606 68.6303C64.9352 68.5985 64.9161 68.5732 64.9034 68.5478Z" fill="#D6EAE8"/>
<path d="M33.2455 73.9256C36.3757 71.7732 37.0043 68.5858 37.0043 68.5858C37.8678 69.2461 38.4774 70.1033 38.7123 71.1065C38.9663 72.1669 38.7758 73.2589 38.2425 74.2939C37.1504 76.3892 34.6106 78.2368 31.3852 79.0051C28.1597 79.7734 25.0675 79.2781 23.15 77.894C22.204 77.2146 21.5436 76.3257 21.296 75.2653C27.1882 76.5733 30.9153 75.5384 33.2455 73.9256Z" fill="#EA728C"/>
<path d="M39.3092 50.9918C40.0838 51.9315 44.3188 57.265 43.3093 64.6302C42.6172 69.6907 39.379 73.0876 38.2425 74.294C38.7758 73.259 38.9663 72.1669 38.7123 71.1066C38.4774 70.1034 37.8678 69.2462 37.0043 68.5859C43.6458 64.0651 39.4552 51.4363 39.3092 50.9918Z" fill="#F7B6AD"/>
<path d="M11.466 43.1377C15.0026 42.2107 17.1741 40.3566 18.4757 38.1979C19.8281 37.2518 20.8123 36.147 20.571 35.3343C20.5138 35.1502 20.3615 34.8771 19.8789 34.6232C20.8758 30.2548 19.6884 25.969 19.6884 25.969L19.6948 25.9626C20.9265 26.9849 21.9234 28.3183 22.552 29.9183C24.5393 34.966 22.0694 40.6678 17.0344 42.6551C15.1931 43.3853 13.2692 43.5123 11.466 43.144V43.1377Z" fill="#EF9D26"/>
<path d="M75.9488 50.5073C76.1405 50.0215 76.2885 49.5174 76.3869 49.0272C76.7094 47.4183 76.4726 46.1725 75.7373 45.6106C74.9665 45.0214 73.6814 45.224 71.9131 46.2119C71.708 46.3268 71.5169 46.2779 71.4217 46.2398C71.2541 46.1725 71.129 46.036 71.0775 45.8659C70.3861 43.5706 69.6121 42.4975 68.6426 42.4886C68.6381 42.4886 68.6343 42.4886 68.6299 42.4886C66.8019 42.4886 65.9714 46.4551 65.7866 48.1053C60.991 49.3853 57.5547 53.8146 57.5547 58.8281C57.5547 63.1107 59.9909 66.8283 63.5434 68.6798C62.652 69.3687 61.5687 70.5204 61.2945 72.1859C61.0964 73.3808 61.236 75.4399 62.4513 75.8774C62.5739 75.9218 62.7307 75.9568 62.9199 75.9568C63.1783 75.9568 63.4964 75.8907 63.8685 75.6939C64.9396 75.125 65.925 73.7891 66.2666 72.4449C66.5358 71.3808 66.3822 70.4074 66.1238 69.6341C66.932 69.8226 67.7708 69.9325 68.6356 69.9325C74.7456 69.9325 79.7165 64.9508 79.7165 58.8281C79.7165 55.6172 78.3412 52.6191 75.9488 50.5073V50.5073ZM65.0355 72.1332C64.7593 73.2208 63.9231 74.2278 63.2736 74.5726C63.0405 74.6964 62.9129 74.6939 62.8818 74.6837C62.657 74.6024 62.3548 73.5561 62.5472 72.3929C62.7923 70.9071 63.9256 69.9249 64.6761 69.4252C64.9898 70.0627 65.3098 71.0519 65.0355 72.1332V72.1332ZM68.6235 43.7579C68.6286 43.7592 69.1696 43.9388 69.861 46.2322C70.0242 46.7732 70.4191 47.2043 70.9442 47.417C71.4655 47.6291 72.0446 47.5916 72.5309 47.3205C74.1202 46.4335 74.8262 46.5129 74.9646 46.6195C75.2275 46.8195 75.3722 47.6259 75.1411 48.7777C74.7938 50.5098 73.8522 51.9943 72.9506 52.2311C72.7011 52.2959 72.4992 52.2527 72.2192 52.193C71.8134 52.1073 71.3087 51.9994 70.6471 52.2514C69.4489 52.7086 69.0077 53.868 68.7162 54.635C68.6584 54.7848 68.5886 54.9702 68.5257 55.1042C67.9003 54.4908 66.7282 51.6882 67.0292 48.4164C67.2641 45.8627 68.2241 43.8398 68.6235 43.7579ZM65.1536 67.9661C64.6914 67.7686 64.1974 66.5349 64.4717 64.7317C64.5949 63.9228 65.1993 63.2657 65.9403 63.1349C66.2889 63.0726 66.6387 63.0885 67.019 63.1914C67.5708 63.3501 68.0019 63.7635 68.2013 64.3273C68.4165 64.9343 68.327 65.6073 67.9632 66.1286C66.9117 67.6347 65.6336 68.1731 65.1536 67.9661V67.9661ZM68.6356 68.6632C68.1899 68.6632 67.7543 68.6226 67.3238 68.5648C67.9213 68.1509 68.5041 67.5731 69.0051 66.8556C69.6026 65.9991 69.7499 64.8955 69.3981 63.9038C69.0597 62.9488 68.3207 62.2447 67.3702 61.9717C67.3663 61.9704 67.3111 61.9558 67.3079 61.9545C66.786 61.8148 66.252 61.7901 65.72 61.8853C64.4291 62.1133 63.4234 63.1812 63.2164 64.5419C63.0767 65.4613 63.1066 66.3178 63.2659 67.0505C60.5948 65.2911 58.8246 62.2656 58.8246 58.8294C58.8246 54.5277 61.6767 50.7047 65.7142 49.4393C65.7092 52.3041 66.6343 54.9759 67.6356 55.9956C67.9479 56.3137 68.2743 56.4744 68.6057 56.4744C68.6311 56.4744 68.6565 56.4731 68.6826 56.4712H68.6832C69.3969 56.4179 69.6661 55.7118 69.9035 55.0883C70.1524 54.4343 70.4344 53.694 71.1004 53.4394C71.4102 53.3207 71.6268 53.367 71.9557 53.4362C72.3023 53.5105 72.7354 53.6026 73.2738 53.4597C74.1202 53.2375 74.8256 52.5556 75.3627 51.6863C77.3253 53.5416 78.4472 56.0985 78.4472 58.8287C78.4466 64.2511 74.0452 68.6632 68.6356 68.6632V68.6632Z" fill="black"/>
<path d="M62.6666 56.6979C61.4932 56.6979 60.5389 57.6535 60.5389 58.8281C60.5389 60.0027 61.4932 60.9583 62.6666 60.9583C63.84 60.9583 64.7943 60.0027 64.7943 58.8281C64.7943 57.6535 63.8393 56.6979 62.6666 56.6979ZM62.6666 59.6891C62.1936 59.6891 61.8088 59.303 61.8088 58.8287C61.8088 58.3544 62.1929 57.9684 62.6666 57.9684C63.1403 57.9684 63.5244 58.3544 63.5244 58.8287C63.5244 59.303 63.1396 59.6891 62.6666 59.6891Z" fill="black"/>
<path d="M73.1125 58.9412C71.9392 58.9412 70.9849 59.8967 70.9849 61.0714C70.9849 62.246 71.9392 63.2016 73.1125 63.2016C74.2859 63.2016 75.2402 62.246 75.2402 61.0714C75.2402 59.8967 74.2853 58.9412 73.1125 58.9412ZM73.1125 61.9324C72.6395 61.9324 72.2547 61.5463 72.2547 61.072C72.2547 60.5977 72.6389 60.2117 73.1125 60.2117C73.5862 60.2117 73.9703 60.5977 73.9703 61.072C73.9703 61.5463 73.5856 61.9324 73.1125 61.9324Z" fill="black"/>
<path d="M55.4645 36.2822C58.1211 33.098 60.0983 29.315 61.184 25.3429C61.6971 23.4647 62.0088 21.5593 62.1364 19.638C63.2355 21.0171 64.6368 22.0196 66.2229 22.5187C67.0794 22.7885 68.1372 22.9485 69.1442 22.9485C70.7404 22.9485 72.2084 22.546 72.5418 21.5396C72.8599 20.577 72.0084 19.9243 71.0224 19.1688C69.9042 18.3122 68.3734 17.1389 67.2375 14.9826C66.8184 14.1864 66.574 13.4835 66.3581 12.8632C65.9689 11.7419 65.6318 10.773 64.5162 10.0644C63.4514 9.38884 62.2412 9.279 61.1764 9.38694C61.6983 8.13865 62.0615 6.52655 61.7282 4.71C61.3936 2.88202 60.311 0.924515 59.264 0.253388C58.8176 -0.0329683 58.457 -0.025984 58.2309 0.0317951C57.5503 0.205767 57.4163 0.885784 57.2735 1.6058C57.1592 2.18423 57.0036 2.97599 56.575 3.88458C56.076 4.94683 55.429 5.69352 54.909 6.20464C53.1464 5.57161 51.0403 5.09541 48.6333 5.09541C48.4402 5.09541 48.2593 5.11318 48.0694 5.11953C48.0015 5.11382 47.9355 5.11255 47.8713 5.12779C45.7532 5.21668 43.8782 5.65161 42.2941 6.2275C41.5899 5.52462 41.0216 4.74111 40.6185 3.88458C40.1905 2.97599 40.035 2.18486 39.9207 1.60644C39.7778 0.885784 39.6438 0.205133 38.9619 0.0311602C38.7416 -0.0247142 38.3797 -0.0329683 37.9314 0.253388C36.885 0.92388 35.8018 2.88139 35.4672 4.71C35.1339 6.53036 35.5079 8.16215 36.0425 9.43011C34.7161 9.27455 33.5897 9.48599 32.6792 10.0644C31.5624 10.773 31.2259 11.7419 30.8366 12.8638C30.6208 13.4842 30.3763 14.1871 29.9573 14.9826C28.8214 17.1389 27.2912 18.3122 26.173 19.1688C25.187 19.9243 24.3355 20.577 24.6536 21.5396C24.9857 22.5466 26.4537 22.9492 28.0505 22.9492C29.0575 22.9492 30.116 22.7892 30.9725 22.5193C32.8932 21.9142 34.2424 20.6913 35.1263 19.5878C35.231 21.2177 35.4774 22.8355 35.8603 24.4355C35.8628 24.4654 35.8742 24.4927 35.8812 24.5219C35.9479 24.7956 36.0076 25.0705 36.0825 25.3435C37.1682 29.3157 39.1454 33.0986 41.802 36.2828C41.9131 36.4161 42.0153 36.5609 42.1144 36.7101C42.1169 36.7146 42.1207 36.7177 42.1233 36.7222C42.4839 37.267 42.7703 37.9152 42.9861 38.6962C43.6903 41.2372 46.0129 43.0119 48.6339 43.0119C51.2549 43.0119 53.5762 41.2372 54.281 38.6962C54.4969 37.9178 54.7813 37.2708 55.1407 36.7266C55.1445 36.7203 55.1502 36.7152 55.154 36.7088C55.2518 36.5596 55.3534 36.4149 55.4645 36.2822V36.2822ZM63.8342 11.1362C64.5771 11.6079 64.7955 12.2372 65.1581 13.2797C65.3879 13.942 65.6489 14.6937 66.113 15.5744C67.3785 17.977 69.1061 19.3008 70.249 20.177C70.689 20.5142 71.2922 20.9764 71.3354 21.1415C71.1995 21.5523 68.915 22.0361 66.6045 21.3085C64.2736 20.5745 62.932 18.8195 62.2012 17.4271C62.1853 15.9306 62.0577 14.4271 61.8088 12.9223C61.678 12.1292 61.4202 11.3743 61.0539 10.6816C61.9479 10.5533 62.9784 10.5933 63.8342 11.1362V11.1362ZM57.7236 4.42618C58.2182 3.37537 58.3922 2.49471 58.5192 1.85216C58.5522 1.68326 58.5903 1.48897 58.6278 1.34738C59.1294 1.69977 60.1478 3.13409 60.4786 4.93858C60.7764 6.56528 60.4043 8.00659 59.9123 9.09931C59.4551 8.61231 58.937 8.17865 58.3516 7.8269C57.7414 7.45991 57.0068 7.07577 56.182 6.71132C56.829 6.00273 57.337 5.24906 57.7236 4.42618V4.42618ZM48.5647 6.36909C48.5882 6.36909 48.6098 6.36591 48.6333 6.36591C52.3279 6.36591 55.2848 7.55515 57.2392 8.65549C56.3592 10.6562 54.0918 11.8067 51.9432 11.2505C49.7768 10.6905 48.3456 8.56406 48.5647 6.36909V6.36909ZM36.7155 4.93858C37.0463 3.13473 38.0647 1.69977 38.5663 1.34738C38.6038 1.48961 38.6419 1.68453 38.6749 1.85343C38.8019 2.49598 38.9759 3.376 39.4699 4.42618C39.8616 5.25922 40.3804 6.03511 41.0166 6.74052C40.2191 7.09609 39.508 7.47007 38.9143 7.8269C38.3098 8.19008 37.7765 8.64025 37.3085 9.14693C36.8031 8.03325 36.4171 6.56973 36.7155 4.93858V4.93858ZM37.0254 23.8558C36.5549 21.7955 36.3187 19.7053 36.3295 17.5992C36.3301 17.5916 36.3295 17.584 36.3301 17.5757C36.3384 16.0988 36.4641 14.6144 36.7098 13.1286C36.9904 11.4333 37.972 9.95266 39.407 9.02502C41.7061 9.19074 43.8522 10.2841 45.3183 12.0581C46.698 13.7274 47.3329 15.7903 47.0592 17.7186C46.7761 19.7224 45.5246 21.5701 43.6274 22.7879C41.6667 24.0476 39.2813 24.4228 37.0254 23.8558V23.8558ZM30.5903 21.3079C28.2785 22.0361 25.9959 21.5523 25.8594 21.1612C25.9026 20.9758 26.5057 20.5135 26.9458 20.1764C28.0886 19.3008 29.8157 17.977 31.0811 15.5737C31.5446 14.6937 31.8062 13.9426 32.036 13.2797C32.3986 12.2365 32.617 11.6073 33.3605 11.1362C34.078 10.6803 35.0285 10.5508 36.1872 10.7368C35.8355 11.4149 35.5853 12.1495 35.4577 12.9223C35.2113 14.4112 35.085 15.8982 35.0666 17.3789C34.5402 18.3732 33.158 20.4989 30.5903 21.3079V21.3079ZM37.3758 25.2349C37.9416 25.3359 38.5117 25.3924 39.0813 25.3924C40.9181 25.3924 42.736 24.8705 44.3138 23.8578C46.5227 22.4406 47.9812 20.2678 48.3171 17.8976C48.6402 15.6169 47.9043 13.194 46.2973 11.2505C44.9843 9.66186 43.1969 8.54438 41.2229 8.03643C42.8223 7.28784 44.8776 6.61417 47.291 6.42433C47.1081 9.16407 48.9152 11.78 51.6257 12.481C52.1133 12.6073 52.6016 12.667 53.0835 12.667C55.2982 12.667 57.349 11.3883 58.3192 9.35011C59.504 10.2809 60.3072 11.6213 60.5567 13.1299C60.805 14.6315 60.9313 16.1312 60.9377 17.6233C60.9377 17.6309 60.937 17.6379 60.9377 17.6449C60.9459 20.1294 60.6196 22.593 59.9592 25.0083C58.9332 28.7658 57.069 32.3443 54.5693 35.3691C52.2879 32.9062 49.2587 32.7672 48.6339 32.7672C45.644 32.7672 43.642 34.3939 42.7036 35.3768C40.2515 32.411 38.4152 28.9118 37.3758 25.2349V25.2349ZM48.6333 41.7407C46.5811 41.7407 44.7614 40.3489 44.2097 38.3559C44.0097 37.6359 43.7493 37.0117 43.4376 36.4542C44.096 35.7145 45.8916 34.0364 48.6333 34.0364C48.9672 34.0364 51.839 34.1132 53.8296 36.4517C53.5165 37.0104 53.2562 37.6346 53.0556 38.3559C52.5045 40.3489 50.6847 41.7407 48.6333 41.7407V41.7407Z" fill="black"/>
<path d="M40.9251 20.9968C42.0896 20.9968 43.0363 20.0482 43.0363 18.8818C43.0363 17.7154 42.0896 16.7668 40.9251 16.7668C39.7607 16.7668 38.814 17.7154 38.814 18.8818C38.814 20.0482 39.7607 20.9968 40.9251 20.9968ZM40.9251 18.0374C41.3886 18.0374 41.7664 18.4164 41.7664 18.8825C41.7664 19.3485 41.3886 19.7275 40.9251 19.7275C40.4616 19.7275 40.0838 19.3485 40.0838 18.8825C40.0838 18.4164 40.4616 18.0374 40.9251 18.0374Z" fill="black"/>
<path d="M56.5947 20.9968C57.7591 20.9968 58.7058 20.0482 58.7058 18.8818C58.7058 17.7154 57.7591 16.7668 56.5947 16.7668C55.4302 16.7668 54.4835 17.7154 54.4835 18.8818C54.4835 20.0482 55.4302 20.9968 56.5947 20.9968ZM56.5947 18.0374C57.0582 18.0374 57.436 18.4164 57.436 18.8825C57.436 19.3485 57.0582 19.7275 56.5947 19.7275C56.1312 19.7275 55.7534 19.3485 55.7534 18.8825C55.7534 18.4164 56.1312 18.0374 56.5947 18.0374Z" fill="black"/>
<path d="M51.9679 36.6181C51.4587 36.592 50.9482 36.6879 50.4841 36.8962C50.0352 37.0981 49.6314 37.4067 49.3171 37.7876C49.0942 38.0587 49.1336 38.4587 49.4041 38.6816C49.5228 38.7788 49.665 38.8264 49.8073 38.8264C49.9907 38.8264 50.1723 38.747 50.2981 38.5953C50.4308 38.434 50.6612 38.2092 51.0047 38.0543C51.3584 37.8956 51.6879 37.8765 51.9019 37.886C52.2454 37.8987 52.5508 37.6346 52.5692 37.2848C52.5876 36.9349 52.3178 36.6359 51.9679 36.6181Z" fill="black"/>
<path d="M46.7818 36.8955C46.3189 36.6873 45.8084 36.592 45.2979 36.6174C44.9481 36.6352 44.6782 36.9336 44.6966 37.2841C44.715 37.6346 45.0046 37.8974 45.3639 37.8854C45.5792 37.8765 45.9075 37.8949 46.2617 38.0536C46.6065 38.2086 46.8357 38.4321 46.9672 38.5927C47.0922 38.7457 47.2745 38.8251 47.4586 38.8251C47.6002 38.8251 47.7424 38.7781 47.8605 38.681C48.1323 38.4587 48.171 38.0587 47.9494 37.7876C47.6364 37.4073 47.2326 37.0981 46.7818 36.8955Z" fill="black"/>
<path d="M35.3281 51.0248C35.6685 51.0248 35.9497 50.7549 35.9618 50.4121C35.979 49.9238 36.0875 49.4571 36.285 49.0247C36.7136 48.0882 37.4507 47.5663 37.8527 47.339C38.1574 47.1663 38.2647 46.7783 38.092 46.4736C37.9193 46.1688 37.5307 46.0621 37.2266 46.2342C36.6914 46.5383 35.7072 47.2355 35.1307 48.4977C34.8634 49.0825 34.7161 49.7117 34.6938 50.367C34.6811 50.7181 34.9554 51.0121 35.3059 51.0235C35.3123 51.0248 35.3205 51.0248 35.3281 51.0248Z" fill="black"/>
<path d="M36.8736 60.1304C35.7326 60.4034 35.0259 61.5539 35.2977 62.6961C35.4291 63.2504 35.7688 63.7203 36.2539 64.0187C36.5929 64.227 36.9752 64.3343 37.3631 64.3343C37.5288 64.3343 37.6945 64.3152 37.8596 64.2752C39.0012 64.0035 39.7079 62.853 39.4362 61.7094C39.3047 61.1564 38.9663 60.6872 38.4819 60.3888C37.9987 60.0904 37.4279 59.9983 36.8736 60.1304ZM37.565 63.0403C37.3434 63.0949 37.1136 63.0568 36.9187 62.9368C36.7225 62.8168 36.5859 62.6269 36.5326 62.4022C36.4228 61.9406 36.7079 61.4752 37.1682 61.3653C37.2342 61.3501 37.3015 61.3418 37.3675 61.3418C37.5244 61.3418 37.6787 61.385 37.8152 61.4694C38.0107 61.5894 38.1473 61.7793 38.2006 62.0034C38.3111 62.4657 38.026 62.9304 37.565 63.0403Z" fill="black"/>
<path d="M41.1308 47.1935C41.8826 46.1548 42.8089 45.5605 43.4534 45.2436C43.682 45.1312 43.8217 44.8931 43.8077 44.6385C43.7944 44.3846 43.6287 44.163 43.3886 44.076C41.4762 43.3883 39.5035 43.036 37.5682 43.0683C35.6094 43.088 34.0627 43.1045 32.7897 44.2753C31.4398 45.5173 31.2296 47.3148 31.2449 48.405L17.7563 51.6241C17.2788 50.6438 16.2832 49.1345 14.52 48.6361C12.8571 48.1656 11.4692 48.8494 9.71103 49.7167C7.96241 50.579 6.36682 51.767 4.96806 53.2451C4.79281 53.4305 4.74519 53.7029 4.84805 53.9365C4.94901 54.1676 5.17822 54.3169 5.42966 54.3169H5.43791C6.15094 54.2991 7.25002 54.4204 8.38782 55.0083C9.84119 55.7582 10.6552 56.9169 11.052 57.6496C10.6018 59.7875 9.75674 66.1114 13.7562 71.9179C16.7309 76.2361 21.1672 77.8546 22.8726 78.4698C22.9774 78.5428 23.0802 78.6165 23.192 78.6851C24.6003 79.5518 26.4251 80.0007 28.3826 80.0007C29.4112 80.0007 30.4766 79.8768 31.5369 79.6235C34.8608 78.8298 37.4895 76.9238 38.7111 74.7174C38.7162 74.7123 38.7238 74.7104 38.7289 74.7047C39.9594 73.4018 43.2255 69.942 43.9429 64.7146C44.9017 57.7309 41.3048 52.4628 39.9416 50.7574C39.9644 49.9225 40.1695 48.5205 41.1308 47.1935V47.1935ZM31.2398 78.3879C28.4848 79.0457 25.7235 78.7524 23.8561 77.6031C22.8193 76.965 22.1475 76.1053 21.9119 75.1174C21.2307 72.2481 24.3063 69.0474 28.7693 67.9832C29.7394 67.7515 30.7103 67.6378 31.6417 67.6378C33.3567 67.6378 34.9421 68.0226 36.1523 68.7674C37.1898 69.4061 37.8622 70.2652 38.0971 71.2538C38.779 74.1218 35.7028 77.3225 31.2398 78.3879V78.3879ZM42.6839 64.5412C42.2439 67.7432 40.7473 70.2442 39.4457 71.9325C39.4387 71.6068 39.4095 71.2817 39.3333 70.9592C39.019 69.636 38.1498 68.5039 36.8183 67.6854C34.6697 66.3629 31.5503 66.013 28.4746 66.747C23.3317 67.9743 19.8338 71.8608 20.6776 75.4107C20.7526 75.7275 20.8618 76.0323 20.9995 76.3256C19.089 75.4101 16.6318 73.8545 14.8007 71.1966C10.9403 65.5921 11.9409 59.451 12.339 57.7023C12.372 57.5595 12.3536 57.4103 12.2889 57.2788C11.8698 56.4325 10.8799 54.8654 8.96942 53.8794C8.31099 53.5397 7.6005 53.2997 6.86651 53.1676C7.91098 52.2324 9.05133 51.4584 10.2717 50.8552C11.9009 50.0514 12.9784 49.5186 14.1734 49.8577C15.7391 50.3009 16.5302 51.9219 16.7982 52.5981C16.9144 52.8908 17.2255 53.0559 17.536 52.9816L32.0525 49.5167C32.3592 49.4437 32.5662 49.1561 32.5376 48.8418C32.4716 48.1167 32.4487 46.3129 33.6481 45.2093C34.5624 44.368 35.7631 44.3553 37.5796 44.3369C38.9479 44.3211 40.3073 44.5001 41.6584 44.862C41.1359 45.2563 40.5879 45.7751 40.1016 46.4475C38.8393 48.1916 38.6609 50.0361 38.6673 50.9815C38.6685 51.1276 38.7193 51.2685 38.8127 51.3816C39.9549 52.7651 43.6083 57.7988 42.6839 64.5412V64.5412Z" fill="black"/>
<path d="M14.329 53.4629C13.2477 52.5969 12.054 52.4178 11.4394 52.3892C11.0927 52.3746 10.7911 52.6426 10.7746 52.9931C10.7581 53.3435 11.0286 53.6413 11.3784 53.6578C11.84 53.6794 12.7334 53.8121 13.5346 54.4541C13.9048 54.7506 14.2109 55.1176 14.4464 55.5461C14.5626 55.7563 14.7791 55.8757 15.0039 55.8757C15.1067 55.8757 15.2115 55.8503 15.3087 55.7976C15.6153 55.6287 15.7283 55.2426 15.5601 54.9353C15.2439 54.3588 14.8299 53.8636 14.329 53.4629Z" fill="black"/>
<path d="M19.6103 64.8931C19.1259 64.5946 18.5551 64.5045 18.0014 64.6346C16.8611 64.9077 16.1544 66.0582 16.4261 67.2004C16.5576 67.7547 16.8973 68.2246 17.3824 68.523C17.7214 68.7313 18.103 68.8386 18.4909 68.8386C18.6567 68.8386 18.8224 68.8195 18.9875 68.7795C20.1291 68.5078 20.8358 67.3573 20.564 66.2137C20.4326 65.6607 20.0942 65.1915 19.6103 64.8931ZM18.6929 67.5446C18.4706 67.5992 18.2421 67.5604 18.0471 67.4417C17.8509 67.3211 17.7144 67.1312 17.6611 66.9065C17.5512 66.4442 17.8363 65.9794 18.296 65.8696C18.3621 65.8544 18.4294 65.8461 18.496 65.8461C18.6529 65.8461 18.8065 65.8893 18.9437 65.9737C19.1386 66.0937 19.2751 66.2836 19.3284 66.5077C19.4389 66.9699 19.1532 67.4347 18.6929 67.5446Z" fill="black"/>
<path d="M27.2003 71.5484C27.119 71.2075 26.7781 70.9979 26.4358 71.0779C26.0949 71.1592 25.8841 71.5014 25.9654 71.8424L26.8295 75.4799C26.8987 75.7714 27.1597 75.9682 27.4467 75.9682C27.4956 75.9682 27.5444 75.9625 27.594 75.9511C27.9349 75.8698 28.1457 75.5276 28.0645 75.1866L27.2003 71.5484Z" fill="black"/>
<path d="M33.0074 70.163C32.9262 69.8221 32.5852 69.6138 32.243 69.6925C31.902 69.7738 31.6912 70.116 31.7725 70.457L32.6366 74.0945C32.7058 74.386 32.9668 74.5828 33.2538 74.5828C33.3027 74.5828 33.3516 74.5771 33.4011 74.5657C33.7421 74.4844 33.9529 74.1422 33.8716 73.8012L33.0074 70.163Z" fill="black"/>
<path d="M13.435 43.9834C14.7296 43.9834 16.0268 43.7383 17.2675 43.2482C22.6181 41.1325 25.2537 35.048 23.1432 29.6853C21.573 25.6992 17.7468 23.0978 13.5042 23.0731C13.5036 23.0693 13.5029 23.0654 13.5017 23.0616C13.2737 21.9086 12.8426 20.8133 12.2204 19.8063C12.0972 19.6057 11.8819 19.492 11.6343 19.5066C11.3981 19.5238 11.1918 19.6704 11.0972 19.8882L10.6368 20.9498L10.5663 21.1143C10.3073 20.8813 10.026 20.6743 9.72506 20.4952C9.34854 20.2717 8.94345 20.0958 8.52122 19.9714C8.31106 19.9098 8.08375 19.9606 7.9193 20.1073C7.75549 20.2533 7.67866 20.4743 7.71676 20.6908C7.90787 21.7765 8.05327 22.8839 8.14978 23.981C8.16439 24.1537 8.17645 24.3226 8.18788 24.4902C3.7446 27.0732 1.83027 32.5292 3.7319 37.3598C4.75542 39.9605 6.72943 42.0049 9.28949 43.1161C10.6203 43.6939 12.0267 43.9834 13.435 43.9834V43.9834ZM4.91351 36.8943C3.19792 32.5368 5.01637 27.5995 9.14409 25.4109C9.36441 25.2941 9.49585 25.0591 9.47997 24.8102L9.47299 24.7042C9.45648 24.4299 9.4387 24.1563 9.41394 23.8712C9.34854 23.127 9.26219 22.3784 9.15362 21.6349C9.57775 21.8991 9.94665 22.2388 10.2521 22.6457C10.3879 22.8267 10.6102 22.9213 10.8337 22.8953C11.0584 22.8686 11.2521 22.7251 11.3422 22.5175L11.7327 21.6172C11.9651 22.1607 12.1404 22.727 12.2553 23.3099C12.2851 23.4597 12.3042 23.602 12.3238 23.7442C12.3238 23.7442 12.3327 23.807 12.3327 23.8077C12.3772 24.134 12.6572 24.3582 12.9924 24.355C16.9049 24.1613 20.5196 26.4935 21.9603 30.1513C23.8156 34.8638 21.4999 40.2093 16.7989 42.0684C14.5245 42.9675 12.0369 42.9269 9.79363 41.9522C7.54659 40.9751 5.81258 39.1795 4.91351 36.8943V36.8943Z" fill="black"/>
<path d="M9.94536 33.1069C9.73711 32.5774 9.33519 32.1602 8.81327 31.9335C8.29263 31.7069 7.71547 31.6973 7.1853 31.9069C6.09512 32.338 5.55796 33.5774 5.98781 34.6701C6.1967 35.2003 6.59925 35.6168 7.12054 35.8435C7.39229 35.9616 7.67928 36.0206 7.96627 36.0206C8.2304 36.0206 8.49517 35.9704 8.74788 35.8708C9.83806 35.439 10.3752 34.199 9.94536 33.1069ZM8.2812 34.6892C8.06913 34.773 7.83611 34.7698 7.62658 34.6784C7.41642 34.5869 7.25387 34.4187 7.16943 34.2041C6.99545 33.7628 7.21197 33.2612 7.65198 33.0872C7.7542 33.0472 7.86024 33.0269 7.9669 33.0269C8.08246 33.0269 8.19802 33.051 8.30723 33.098C8.51739 33.1894 8.6793 33.3577 8.76375 33.571C8.93772 34.0142 8.72057 34.5152 8.2812 34.6892Z" fill="black"/>
<path d="M16.8376 32.0009C17.1094 32.119 17.3957 32.1774 17.6827 32.1774C17.9468 32.1774 18.2116 32.1272 18.4637 32.0275C19.5551 31.5964 20.0923 30.3564 19.6624 29.2636C19.4535 28.7341 19.051 28.317 18.5291 28.0903C18.0091 27.8643 17.4306 27.8547 16.9024 28.0636C15.8109 28.4947 15.2738 29.7348 15.7036 30.8275C15.9131 31.3577 16.3157 31.7742 16.8376 32.0009ZM17.3697 29.2452C17.4713 29.2052 17.5773 29.1849 17.684 29.1849C17.7995 29.1849 17.9145 29.2084 18.0237 29.256C18.2338 29.3475 18.3964 29.5157 18.4808 29.7297C18.6548 30.171 18.4383 30.6726 17.997 30.8465C17.7843 30.9297 17.5519 30.9259 17.343 30.8357C17.1329 30.7443 16.9703 30.5761 16.8859 30.3615C16.7119 29.9208 16.929 29.4192 17.3697 29.2452Z" fill="black"/>
<path d="M16.0706 40.2099C16.0712 40.2099 16.0712 40.2099 16.0706 40.2099C18.4567 39.2664 21.7292 37.0073 21.1768 35.1552C20.9069 34.2516 19.8415 33.6973 17.9221 33.4637C16.5652 32.3989 14.7519 32.131 13.1398 32.7678C11.527 33.4053 10.3848 34.8428 10.1194 36.5482C8.87616 38.0321 8.47551 39.166 8.89393 40.0099C9.29331 40.815 10.3549 41.1191 11.6172 41.1191C13.0724 41.1191 14.7938 40.7153 16.0706 40.2099ZM10.0324 39.4461C9.93332 39.2454 10.0679 38.5527 11.2057 37.232C11.2889 37.1355 11.341 37.0162 11.3549 36.8892C11.5061 35.5647 12.3696 34.4377 13.6071 33.9481C14.035 33.7786 14.4826 33.6961 14.9265 33.6961C15.7646 33.6961 16.5913 33.9913 17.2535 34.5558C17.35 34.639 17.4706 34.6904 17.597 34.7037C19.3272 34.8904 19.8967 35.3031 19.9609 35.5177C20.1444 36.1349 18.2262 37.9921 15.6046 39.0289H15.6052C12.9836 40.0664 10.3187 40.0226 10.0324 39.4461Z" fill="black"/>
<path d="M13.4826 35.9204C13.127 35.8886 12.8254 36.1483 12.7943 36.4975L12.6483 38.1636C12.6172 38.5128 12.8756 38.8207 13.2248 38.8512C13.2439 38.8531 13.2629 38.8538 13.2813 38.8538C13.607 38.8538 13.8839 38.6049 13.9131 38.2741L14.0591 36.608C14.0902 36.2588 13.8318 35.9515 13.4826 35.9204Z" fill="black"/>
<path d="M16.7512 37.481C16.9245 37.481 17.0979 37.4099 17.223 37.2702C17.4579 37.0092 17.4363 36.6079 17.176 36.3736L15.934 35.2568C15.6737 35.0225 15.2718 35.0435 15.0375 35.3044C14.8026 35.5654 14.8242 35.9666 15.0845 36.2009L16.3264 37.3178C16.4477 37.4276 16.5994 37.481 16.7512 37.481Z" fill="black"/>
</g>
<defs>
<clipPath id="clip0_668_11295">
<rect width="80" height="80" fill="white"/>
</clipPath>
</defs>
</svg>
