<svg width="165" height="39" viewBox="0 0 165 39" fill="none" xmlns="http://www.w3.org/2000/svg">
<path d="M104.773 3.59708H98.7455V34.0303H104.773V3.59708Z" fill="#A3C73A"/>
<path d="M68.2957 25.0376C68.2957 22.3398 67.5512 20.1153 65.9183 18.5771C64.6215 17.3701 62.8445 16.6129 60.0108 16.2342L56.3607 15.7136C55.112 15.5479 54.1034 15.0746 53.5031 14.5067C52.8547 13.9151 52.5905 13.0868 52.5905 12.3295C52.5905 10.2233 54.1514 8.47209 57.3693 8.47209C59.4105 8.47209 61.7398 8.73241 63.709 10.5783L67.5272 6.86287C64.8857 4.33071 61.8119 3.31311 57.5614 3.31311C50.8855 3.31311 46.8032 7.12318 46.8032 12.5425C46.8032 15.0983 47.5476 17.0625 49.0125 18.5297C50.4053 19.855 52.3504 20.6596 54.9919 21.0619L58.7141 21.5825C60.1549 21.7955 60.8513 22.1032 61.4517 22.6475C62.1001 23.2391 62.4122 24.1384 62.4122 25.2033C62.4122 27.6408 60.5151 28.966 56.9371 28.966C54.0794 28.966 51.4379 28.3271 49.4687 26.4102L45.5544 30.2676C48.5802 33.2967 52.1583 34.2907 56.841 34.2907C63.3008 34.267 68.2957 30.9539 68.2957 25.0376ZM93.8465 8.89806V3.59709H71.6816V8.89806H79.7503V34.0303H85.7778V8.89806H93.8465Z" fill="white"/>
<path fill-rule="evenodd" clip-rule="evenodd" d="M19.4514 0.0473328C30.1136 0.0473328 38.7826 8.56675 38.7826 19.0977C38.7826 29.605 30.1376 38.1481 19.4514 38.1481C8.78916 38.1481 0.120117 29.6286 0.120117 19.0977C0.144131 8.56675 8.78916 0.0473328 19.4514 0.0473328Z" fill="#F6E82B"/>
<path fill-rule="evenodd" clip-rule="evenodd" d="M19.4514 12.7081C19.4514 8.77973 16.2095 3.28944 10.7583 2.08252C4.46668 5.20631 0.144165 11.6669 0.144165 19.0977C0.144165 29.605 8.7892 38.148 19.4514 38.148V12.7081Z" fill="#CDD234"/>
<path fill-rule="evenodd" clip-rule="evenodd" d="M19.4753 12.7081C19.4753 8.77973 22.7172 3.28944 28.1684 2.08252C34.4841 5.20631 38.8066 11.6669 38.8066 19.0977C38.8066 29.605 30.1616 38.148 19.4753 38.148V12.7081Z" fill="#CDD234"/>
<path fill-rule="evenodd" clip-rule="evenodd" d="M3.65017 8.14078C12.8956 10.389 24.014 21.5352 19.4514 38.1244C8.78916 38.1244 0.120117 29.605 0.120117 19.074C0.144131 15.0036 1.44089 11.2409 3.65017 8.14078Z" fill="#A3C73A"/>
<path fill-rule="evenodd" clip-rule="evenodd" d="M35.2525 8.14078C26.0312 10.389 14.9127 21.5352 19.4513 38.1244C30.1135 38.1244 38.7826 29.605 38.7826 19.074C38.7826 15.0036 37.4858 11.2409 35.2525 8.14078Z" fill="#A3C73A"/>
<path fill-rule="evenodd" clip-rule="evenodd" d="M0.264235 17.0388C8.06878 19.216 19.2353 22.3398 19.4754 38.1244C8.81321 38.1244 0.144165 29.605 0.144165 19.074C0.144165 18.3877 0.168179 17.7014 0.264235 17.0388Z" fill="#8CBC47"/>
<path fill-rule="evenodd" clip-rule="evenodd" d="M38.6626 17.0388C30.8581 19.216 19.6916 22.3398 19.4514 38.1244C30.1136 38.1244 38.7827 29.605 38.7827 19.074C38.7827 18.3877 38.7346 17.7014 38.6626 17.0388Z" fill="#8CBC47"/>
<path fill-rule="evenodd" clip-rule="evenodd" d="M1.24878 25.4636C8.76515 26.4812 15.2009 29.9126 19.4514 38.1244C11.0705 38.1244 3.91433 32.8471 1.24878 25.4636Z" fill="#557745"/>
<path fill-rule="evenodd" clip-rule="evenodd" d="M37.654 25.4636C30.1376 26.4812 23.7019 29.9126 19.4514 38.1244C27.8563 38.1244 35.0125 32.8471 37.654 25.4636Z" fill="#557745"/>
<path d="M119.782 23.2391H116.276V34.054H114.979V23.2391H111.473V22.1031H119.782V23.2391Z" fill="white"/>
<path d="M130.54 34.054H129.027L126.265 28.753H123.36V34.054H122.063V22.0795H126.722C127.778 22.0795 128.667 22.3871 129.315 22.9788C129.988 23.5704 130.324 24.3987 130.324 25.4163C130.324 26.2682 130.084 26.9782 129.603 27.5225C129.123 28.0904 128.475 28.4454 127.682 28.6111L130.54 34.054ZM128.355 27.0492C128.787 26.6705 129.003 26.1262 129.003 25.4399C129.003 24.73 128.787 24.1857 128.331 23.807C127.898 23.4284 127.298 23.2391 126.578 23.2391H123.336V27.6171H126.578C127.322 27.6171 127.922 27.4278 128.355 27.0492Z" fill="white"/>
<path d="M141.706 34.054H140.314L139.353 31.3562H134.046L133.085 34.054H131.693L136.159 22.0795H137.24L141.706 34.054ZM138.969 30.2439L136.712 23.9254L134.43 30.2439H138.969Z" fill="white"/>
<path d="M152.056 26.2209C152.08 26.6469 152.08 27.2621 152.08 28.0668C152.08 28.8714 152.08 29.4867 152.056 29.9126C152.032 30.3386 151.936 30.8356 151.768 31.4035C151.6 31.9715 151.336 32.4211 151.024 32.7998C150.231 33.6517 149.175 34.054 147.83 34.054H143.676V22.0795H147.83C149.175 22.0795 150.231 22.5055 151.024 23.3337C151.36 23.6887 151.6 24.162 151.768 24.73C151.936 25.2979 152.032 25.7949 152.056 26.2209ZM150.76 29.6996C150.784 29.321 150.784 28.7767 150.784 28.0668C150.784 27.3568 150.784 26.8125 150.76 26.4339C150.736 26.0552 150.664 25.6293 150.544 25.1796C150.423 24.73 150.231 24.3513 149.991 24.1147C149.463 23.5231 148.67 23.2391 147.614 23.2391H144.972V32.9181H147.614C148.67 32.9181 149.463 32.6341 149.991 32.0425C150.231 31.7822 150.423 31.4272 150.544 30.9776C150.664 30.5043 150.736 30.0783 150.76 29.6996Z" fill="white"/>
<path d="M162.671 34.054H155.13V22.0795H162.671V23.2154H156.427V27.4515H161.734V28.5874H156.427V32.8944H162.671V34.054Z" fill="white"/>
<path d="M27.4239 29.321C27.3999 29.179 27.2558 29.0607 27.0877 29.0607H24.6623L24.4462 27.9958C24.4222 27.8538 24.2781 27.7354 24.11 27.7354H21.0602C20.8681 27.7354 20.724 27.8774 20.724 28.0668C20.724 28.2561 20.8681 28.3981 21.0602 28.3981H23.8459L24.062 29.463C24.086 29.605 24.2301 29.7233 24.3982 29.7233H26.8236L26.9677 30.4096H22.1889C21.9968 29.7706 21.3244 29.3683 20.652 29.5577C19.9796 29.7233 19.5954 30.4096 19.7635 31.0722C19.9316 31.7348 20.628 32.1135 21.3004 31.9478C21.7326 31.8295 22.0688 31.4982 22.1889 31.0722H27.3759C27.472 31.0722 27.568 31.0249 27.6401 30.9539C27.7121 30.8829 27.7361 30.7882 27.7121 30.6699L27.4239 29.321ZM21.1323 31.2615C20.8441 31.3325 20.5319 31.1669 20.4359 30.8592C20.3638 30.5752 20.5319 30.2676 20.8441 30.1729C21.1323 30.1019 21.4445 30.2676 21.5405 30.5753C21.5885 30.8829 21.4204 31.1905 21.1323 31.2615Z" fill="white"/>
<path d="M20.0517 28.3981C20.2438 28.3981 20.3878 28.2561 20.3878 28.0668V19.145L21.9968 18.8137C22.1409 18.7901 22.2609 18.6481 22.2609 18.4824V16.4709C22.9333 16.2816 23.3176 15.6189 23.1495 14.9563C22.9814 14.2937 22.285 13.9151 21.6126 14.0807C20.9402 14.2464 20.5559 14.9327 20.724 15.5953C20.8441 16.0212 21.1803 16.3526 21.5885 16.4472V18.2221L20.3638 18.4824V12.9448L21.3484 12.6845C21.6366 13.1578 22.1889 13.3944 22.7412 13.2524C23.4136 13.0868 23.7978 12.4005 23.6297 11.7379C23.4616 11.0753 22.7652 10.6966 22.0928 10.8623C21.5405 11.0043 21.1803 11.5012 21.1803 12.0455L19.9556 12.3768C19.8115 12.4242 19.7155 12.5425 19.7155 12.6845C19.7155 12.6845 19.7155 12.6845 19.7155 12.7081V28.0668C19.7155 28.2561 19.8595 28.3981 20.0517 28.3981ZM21.3964 15.4296C21.3244 15.1456 21.4925 14.838 21.8047 14.7433C22.0928 14.6723 22.405 14.838 22.5011 15.1456C22.5731 15.4296 22.405 15.7373 22.0928 15.8319C21.7807 15.9029 21.4685 15.7373 21.3964 15.4296ZM22.285 11.5249C22.5731 11.4539 22.8853 11.6196 22.9814 11.9272C23.0534 12.2112 22.8853 12.5188 22.5731 12.6135C22.285 12.6845 21.9728 12.5188 21.8767 12.2112C21.8047 11.9272 21.9968 11.6196 22.285 11.5249Z" fill="white"/>
<path d="M19.7875 11.0043C20.4599 10.8386 20.8441 10.1523 20.676 9.48969C20.556 9.06372 20.2198 8.73241 19.8115 8.63775V7.66748C20.4599 7.47816 20.8681 6.81554 20.676 6.15292C20.5079 5.4903 19.8115 5.11165 19.1391 5.27731C18.4667 5.44296 18.0825 6.12925 18.2506 6.79187C18.3707 7.21784 18.7069 7.54915 19.1151 7.64381V8.61408C18.6829 8.73241 18.3707 9.04005 18.2506 9.44236H8.81313C8.74109 9.41869 8.69306 9.41869 8.62102 9.44236C8.54898 9.46602 8.50095 9.48969 8.45292 9.53702L7.5644 10.0577L6.98807 9.06372C6.89201 8.89806 6.6999 8.85073 6.5318 8.94539C6.36371 9.04005 6.31568 9.22937 6.41173 9.39503L7.10814 10.6019C7.10814 10.6256 7.08413 10.6256 7.08413 10.6493L2.97774 21.6062H2.32936C2.30535 21.6062 2.30535 21.6062 2.28133 21.6062C2.25732 21.6062 2.25732 21.6062 2.2333 21.6062H2.20929C2.18528 21.6062 2.16126 21.6299 2.16126 21.6299L2.13725 21.6535C2.11323 21.6535 2.11323 21.6772 2.08922 21.6772L2.06521 21.7009C2.06521 21.7482 2.04119 21.7719 2.04119 21.7719C2.04119 21.7719 2.04119 21.7955 2.01718 21.8192C2.01718 21.8428 1.99316 21.8428 1.99316 21.8665C1.99316 21.8902 1.99316 21.8902 1.99316 21.9138C1.99316 21.9375 1.99316 21.9375 1.99316 21.9612C1.99316 21.9848 1.99316 22.0085 1.99316 22.0085V22.0322C1.99316 22.0558 2.01718 22.0795 2.01718 22.1032V22.1268C2.5695 23.0498 3.57809 24.091 4.65871 24.091H5.23505C5.42716 24.091 8.09271 24.091 8.28482 24.091H9.60559H10.0859C11.1665 24.091 12.1991 23.0498 12.7274 22.1268C12.7514 22.0795 12.7754 22.0085 12.7754 21.9612C12.7754 21.9138 12.7514 21.8428 12.7274 21.7955C12.6794 21.7009 12.5593 21.6299 12.4392 21.6299H11.7909L7.70849 10.7203L8.78912 10.105H18.2506V10.1286C18.2986 10.318 18.4187 10.5073 18.5388 10.6256C18.5388 10.6493 18.5388 10.6729 18.5388 10.6729V27.7118H14.7926C14.6245 27.7118 14.5044 27.8301 14.4564 27.9721L14.2403 29.037H11.8389C11.6708 29.037 11.5507 29.1553 11.5027 29.2973L11.2145 30.6226C11.1905 30.7172 11.2145 30.8119 11.2866 30.9066C11.3586 30.9776 11.4547 31.0249 11.5507 31.0249H18.875C19.0671 31.0249 19.2112 30.8829 19.2112 30.6936C19.2112 30.5043 19.2112 28.2087 19.2112 28.0194V11.0043C19.3793 11.0516 19.5954 11.0516 19.7875 11.0043ZM5.42716 21.6062H5.23505H3.67414L7.37229 11.6905L11.0704 21.6062H5.42716ZM18.923 6.62622C18.851 6.34224 19.0191 6.03459 19.3312 5.93993C19.6194 5.86894 19.9316 6.03459 20.0277 6.34224C20.0997 6.62622 19.9316 6.93386 19.6194 7.02852C19.3072 7.09952 18.9951 6.9102 18.923 6.62622ZM18.923 9.96299C18.851 9.67901 19.0191 9.37136 19.3312 9.2767C19.6194 9.20571 19.9316 9.37136 20.0277 9.67901C20.0997 9.96299 19.9316 10.2706 19.6194 10.3653C19.3072 10.4126 18.9951 10.247 18.923 9.96299Z" fill="white"/>
<path d="M21.7086 10.105H30.3297C30.4497 10.531 30.7619 10.8623 31.1942 10.9806L28.1924 19.003C28.0483 18.9794 27.9042 19.003 27.7602 19.0267C27.0878 19.1924 26.7035 19.8787 26.8716 20.5413C27.0397 21.2039 27.7361 21.5825 28.4085 21.4169C29.0809 21.2512 29.4651 20.5649 29.2971 19.9023C29.225 19.6183 29.0569 19.3817 28.8168 19.2397L31.5544 11.9509L34.9403 21.0619C34.9884 21.2039 35.1084 21.2749 35.2525 21.2749C35.3005 21.2749 35.3246 21.2749 35.3726 21.2512C35.5407 21.1802 35.6367 20.9909 35.5647 20.8253L31.8906 10.9569C32.3949 10.8149 32.7791 10.3416 32.7791 9.77367C32.7791 9.08739 32.2268 8.54309 31.5304 8.54309C30.978 8.54309 30.4978 8.92173 30.3297 9.4187H21.7086C21.5165 9.4187 21.3724 9.56069 21.3724 9.75001C21.3724 9.963 21.5165 10.105 21.7086 10.105ZM28.2164 20.7543C27.9283 20.8253 27.6161 20.6596 27.52 20.352C27.448 20.068 27.6161 19.7603 27.9283 19.6657C28.2164 19.5947 28.5286 19.7603 28.6247 20.068C28.6967 20.3756 28.5046 20.6833 28.2164 20.7543ZM31.5304 9.25304C31.8425 9.25304 32.0827 9.51336 32.0827 9.79734C32.0827 10.0813 31.8185 10.3416 31.5304 10.3416C31.2182 10.3416 30.978 10.0813 30.978 9.79734C30.978 9.51336 31.2182 9.25304 31.5304 9.25304Z" fill="white"/>
<path d="M36.8855 22.0322C36.8374 21.9375 36.7174 21.8665 36.5973 21.8665H34.2439C34.2439 21.8665 34.2439 21.8665 34.2439 21.8429C34.0758 21.1802 33.3794 20.8016 32.707 20.9673C32.0346 21.1329 31.6504 21.8192 31.8185 22.4818C31.9866 23.1444 32.683 23.5231 33.3554 23.3574C33.7876 23.2391 34.0998 22.9078 34.2199 22.5291H35.9249C35.4686 22.9551 34.8683 23.6887 34.2439 23.6651H32.4669H32.4429H32.4189H28.8408C28.2164 23.6651 27.592 22.9314 27.1598 22.5055H30.882C31.0741 22.5055 31.2182 22.3635 31.2182 22.1742C31.2182 21.9848 31.0741 21.8429 30.882 21.8429H26.4874C26.3673 21.8429 26.2473 21.9139 26.1992 22.0085C26.1512 22.1032 26.1512 22.2452 26.1992 22.3398C26.7516 23.2628 27.7601 24.304 28.8408 24.304H32.4189H32.4429H32.4669H33.7636H34.2439C35.3245 24.304 36.3571 23.2628 36.8855 22.3398C36.9575 22.2452 36.9575 22.1268 36.8855 22.0322ZM33.1633 22.6948C32.8751 22.7658 32.5629 22.6001 32.4669 22.2925C32.3948 22.0085 32.5629 21.7009 32.8751 21.6062C33.1633 21.5352 33.4755 21.7009 33.5715 22.0085C33.6436 22.3162 33.4755 22.6238 33.1633 22.6948Z" fill="white"/>
<path d="M121.631 18.0091H120.238L119.253 15.264H113.874L112.866 18.0091H111.473L116.012 5.86893H117.116L121.631 18.0091ZM118.845 14.1517L116.564 7.73847L114.259 14.1517H118.845Z" fill="white"/>
<path d="M131.428 13.6074C131.428 14.3173 131.356 14.909 131.188 15.3823C131.044 15.8556 130.756 16.3052 130.372 16.7312C129.507 17.6541 128.403 18.1274 127.082 18.1274C125.833 18.1274 124.801 17.7251 124.008 16.9442C123.456 16.3999 123.12 15.8319 123 15.193C122.855 14.554 122.783 13.4891 122.783 11.9745C122.783 10.4599 122.855 9.39502 123 8.75606C123.144 8.1171 123.48 7.52548 124.008 7.00485C124.825 6.20024 125.833 5.82159 127.082 5.82159C128.235 5.82159 129.171 6.1529 129.964 6.83919C130.732 7.52548 131.212 8.37742 131.38 9.46601H130.06C129.892 8.68507 129.531 8.09344 129.003 7.6438C128.475 7.21783 127.826 6.98118 127.058 6.98118C126.193 6.98118 125.473 7.26516 124.921 7.83312C124.56 8.21176 124.32 8.6614 124.2 9.2057C124.104 9.74999 124.056 10.6729 124.056 11.9982C124.056 13.3234 124.104 14.2464 124.2 14.7906C124.296 15.3349 124.536 15.7846 124.921 16.1632C125.473 16.7312 126.193 17.0152 127.058 17.0152C128.043 17.0152 128.811 16.6602 129.387 15.9739C129.844 15.4059 130.084 14.6723 130.084 13.7731V12.8264H127.058V11.7142H131.404V13.6074H131.428Z" fill="white"/>
<path d="M142.907 18.0091H141.37L138.561 12.6135H135.607V18.0091H134.286V5.86893H139.017C140.098 5.86893 140.986 6.17657 141.658 6.79186C142.331 7.40716 142.667 8.21177 142.667 9.25303C142.667 10.105 142.427 10.8386 141.947 11.4065C141.466 11.9745 140.818 12.3531 140.001 12.5188L142.907 18.0091ZM140.674 10.9096C141.106 10.5309 141.346 9.98665 141.346 9.27669C141.346 8.56674 141.13 7.99878 140.674 7.62014C140.218 7.2415 139.641 7.05218 138.897 7.05218H135.607V11.5012H138.897C139.641 11.4775 140.242 11.2882 140.674 10.9096Z" fill="white"/>
<path d="M153.305 8.73239C153.449 9.37135 153.521 10.4363 153.521 11.9272C153.521 13.4181 153.449 14.483 153.305 15.122C153.161 15.7609 152.825 16.3525 152.273 16.8968C151.456 17.7014 150.448 18.0801 149.223 18.0801C147.974 18.0801 146.941 17.6778 146.149 16.8968C145.597 16.3525 145.261 15.7846 145.14 15.1456C144.996 14.5067 144.924 13.4417 144.924 11.9272C144.924 10.4126 144.996 9.34768 145.14 8.70873C145.285 8.06977 145.621 7.47814 146.149 6.95751C146.965 6.1529 147.974 5.77426 149.223 5.77426C150.448 5.77426 151.48 6.17657 152.273 6.95751C152.825 7.50181 153.161 8.09344 153.305 8.73239ZM152.032 14.7196C152.129 14.1754 152.177 13.2524 152.177 11.9272C152.177 10.6019 152.129 9.67899 152.032 9.1347C151.936 8.5904 151.696 8.14077 151.312 7.76213C150.736 7.19416 150.015 6.91018 149.175 6.91018C148.334 6.91018 147.614 7.19416 147.038 7.76213C146.677 8.14077 146.437 8.5904 146.317 9.1347C146.221 9.67899 146.173 10.6019 146.173 11.9272C146.173 13.2524 146.221 14.1754 146.317 14.7196C146.413 15.2639 146.653 15.7136 147.038 16.0922C147.614 16.6602 148.334 16.9442 149.175 16.9442C150.015 16.9442 150.736 16.6602 151.312 16.0922C151.696 15.7372 151.936 15.2639 152.032 14.7196Z" fill="white"/>
</svg>
