<svg width="80" height="80" viewBox="0 0 80 80" fill="none" xmlns="http://www.w3.org/2000/svg">
<g clip-path="url(#clip0_588_10514)">
<path d="M58.9868 25.6534L46.3468 13.0134C44.8453 11.5085 42.806 10.664 40.6801 10.6667H36.0001V8.00002C36.0001 5.0545 33.6123 2.66669 30.6668 2.66669H9.33346C6.38794 2.66669 4.00012 5.0545 4.00012 8.00002V72C4.00012 75.6819 6.98489 78.6667 10.6668 78.6667H54.6668C58.3487 78.6667 61.3335 75.6819 61.3335 72V31.32C61.3362 29.1942 60.4917 27.1549 58.9868 25.6534V25.6534ZM30.6668 16C30.6668 16.7364 30.0698 17.3334 29.3335 17.3334H10.6668C9.93041 17.3334 9.33346 16.7364 9.33346 16V9.33336C9.33346 8.59698 9.93041 8.00002 10.6668 8.00002H29.3335C30.0698 8.00002 30.6668 8.59698 30.6668 9.33336V16Z" fill="#F44335"/>
<path d="M58.9867 25.6533L46.3467 13.0133C44.8452 11.5084 42.8059 10.6639 40.6801 10.6666L36.6801 10.6666C38.8059 10.6639 40.8452 11.5084 42.3467 13.0133L54.9867 25.6533C56.4916 27.1548 57.3361 29.1941 57.3334 31.32V72C57.3334 75.6819 54.3486 78.6667 50.6667 78.6667H54.6667C58.3486 78.6667 61.3334 75.6819 61.3334 72V31.32C61.3361 29.1941 60.4916 27.1548 58.9867 25.6533V25.6533Z" fill="#C81E1E"/>
<path d="M46.3468 13.0133L48.5201 10.8267C50.087 9.26684 52.6199 9.26684 54.1868 10.8267L59.8401 16.48C61.4 18.0469 61.4 20.5798 59.8401 22.1467L57.6535 24.32L46.3468 13.0133Z" fill="#02A9F4"/>
<path d="M59.84 16.48L54.1867 10.8267C52.8995 9.55188 50.9174 9.29832 49.3507 10.208C49.655 10.3772 49.936 10.5852 50.1867 10.8267L55.84 16.48C57.3999 18.0469 57.3999 20.5798 55.84 22.1467L55.66 22.3267L57.66 24.32L59.8467 22.1467C61.4047 20.578 61.4017 18.045 59.84 16.48V16.48Z" fill="#0377BC"/>
<path d="M54.1868 10.8266L57.7868 7.21331C61.5513 3.43697 66.6679 1.32024 72.0001 1.33331C74.2092 1.33331 76.0001 3.12417 76.0001 5.33331C76.0001 7.54245 74.2092 9.33331 72.0001 9.33331C68.7909 9.32198 65.7117 10.5998 63.4534 12.88L59.8401 16.48L54.1868 10.8266Z" fill="#3F51B5"/>
<path d="M72.0001 1.33331C71.0728 1.34063 70.1471 1.41146 69.2294 1.54531C71.1026 2.14619 72.2582 4.02286 71.9514 5.96601C71.6447 7.90916 69.9673 9.33864 68.0001 9.33331C64.791 9.32198 61.7117 10.5998 59.4534 12.88L57.8441 14.48L59.8441 16.48L63.4574 12.88C65.7147 10.6008 68.7923 9.32306 72.0001 9.33331C74.2092 9.33331 76.0001 7.54245 76.0001 5.33331C76.0001 3.12417 74.2092 1.33331 72.0001 1.33331Z" fill="#283593"/>
<path d="M48.0001 30.6667H17.3334C15.1242 30.6667 13.3334 32.4575 13.3334 34.6667V65.3334C13.3334 67.5425 15.1242 69.3334 17.3334 69.3334H48.0001C50.2092 69.3334 52.0001 67.5425 52.0001 65.3334V34.6667C52.0001 32.4575 50.2092 30.6667 48.0001 30.6667Z" fill="#FFDC00"/>
<path d="M48.0001 30.6667H44.0001C46.2093 30.6667 48.0001 32.4575 48.0001 34.6667V65.3334C48.0001 67.5425 46.2093 69.3334 44.0001 69.3334H48.0001C50.2093 69.3334 52.0001 67.5425 52.0001 65.3334V34.6667C52.0001 32.4575 50.2093 30.6667 48.0001 30.6667Z" fill="#FEC108"/>
<path d="M42.6667 54.6667C42.4764 60.0025 38.0031 64.1776 32.6667 64C27.3304 64.1776 22.8571 60.0025 22.6667 54.6667C22.6667 50.852 28.1427 40.96 30.9907 36.8547C31.3803 36.3178 32.0034 36 32.6667 36C33.3301 36 33.9532 36.3178 34.3427 36.8547C37.1907 40.96 42.6667 50.852 42.6667 54.6667V54.6667Z" fill="#607D8B"/>
<path d="M34.3427 36.8547C33.9532 36.3178 33.3301 36 32.6667 36C32.0034 36 31.3803 36.3178 30.9907 36.8547C30.8881 37.0027 30.7761 37.1733 30.6667 37.3347C33.5841 41.68 38.6667 50.9893 38.6667 54.668C38.5445 59.2429 35.1848 63.0837 30.6667 63.8133C31.3261 63.938 31.9957 64.0005 32.6667 64C38.0031 64.1776 42.4763 60.0025 42.6667 54.6667C42.6667 50.852 37.1907 40.96 34.3427 36.8547V36.8547Z" fill="#37474F"/>
<path d="M32.6668 60C29.5422 60.1694 26.8648 57.7895 26.6667 54.6666C26.6667 53.9303 27.2637 53.3333 28.0001 53.3333C28.7365 53.3333 29.3334 53.9303 29.3334 54.6666C29.542 56.3099 31.0178 57.4905 32.6668 57.3333C33.4031 57.3333 34.0001 57.9303 34.0001 58.6667C34.0001 59.403 33.4031 60 32.6668 60Z" fill="#F5F5F5"/>
<path d="M13.3334 25.3334H10.6667C9.93033 25.3334 9.33337 24.7364 9.33337 24C9.33337 23.2636 9.93033 22.6667 10.6667 22.6667H13.3334C14.0698 22.6667 14.6667 23.2636 14.6667 24C14.6667 24.7364 14.0698 25.3334 13.3334 25.3334Z" fill="#F5F5F5"/>
<path d="M41.3334 25.3334H18.6667C17.9303 25.3334 17.3334 24.7364 17.3334 24C17.3334 23.2636 17.9303 22.6667 18.6667 22.6667H41.3334C42.0697 22.6667 42.6667 23.2636 42.6667 24C42.6667 24.7364 42.0697 25.3334 41.3334 25.3334Z" fill="#F5F5F5"/>
<path d="M30.6668 1.33333H9.33342C5.65334 1.33774 2.67116 4.31993 2.66675 8V72C2.67116 76.4165 6.2503 79.9956 10.6667 80H54.6668C59.0832 79.9956 62.6624 76.4165 62.6668 72V31.3133C62.6735 28.8368 61.6887 26.4605 59.9321 24.7147L59.5414 24.3227L60.7828 23.0893C62.4867 21.3638 62.8151 18.7072 61.5828 16.6187L64.3921 13.8187C66.4023 11.7895 69.1438 10.6537 72.0001 10.6667C74.9456 10.6667 77.3334 8.27885 77.3334 5.33333C77.3334 2.38781 74.9456 -5.96959e-07 72.0001 -5.96959e-07C66.3146 -0.0135217 60.8588 2.24215 56.8428 6.26667L54.0428 9.06667C51.951 7.83661 49.2932 8.16946 47.5694 9.87734L46.2668 11.2C44.6591 9.98776 42.7002 9.33246 40.6868 9.33334H37.3334V8C37.329 4.31993 34.3468 1.33774 30.6668 1.33333V1.33333ZM58.7281 8.15867C62.2437 4.63284 67.0211 2.65594 72.0001 2.66667C73.4729 2.66667 74.6668 3.86057 74.6668 5.33333C74.6668 6.80609 73.4729 8 72.0001 8C68.4376 7.98652 65.0189 9.4047 62.5121 11.936L59.8454 14.596L56.0694 10.8253L58.7281 8.15867ZM53.2441 11.7693L58.8908 17.4147C59.9281 18.4622 59.9281 20.1498 58.8908 21.1973L57.6468 22.4333L48.2201 13.0053L49.4534 11.7653C50.5027 10.7231 52.197 10.7249 53.2441 11.7693V11.7693ZM45.4014 13.952L58.0401 26.592C59.299 27.84 60.005 29.5407 60.0001 31.3133V72C60.0001 74.9455 57.6123 77.3334 54.6668 77.3334H10.6667C7.72123 77.3334 5.33342 74.9455 5.33342 72V8C5.33342 5.79086 7.12428 4 9.33342 4H30.6668C32.8759 4 34.6668 5.79086 34.6668 8V10.6667C34.6668 11.4031 35.2637 12 36.0001 12H40.6868C42.4558 11.9957 44.1532 12.6985 45.4014 13.952Z" fill="black"/>
<path d="M32.0001 16V9.33335C32.0001 7.86059 30.8062 6.66669 29.3335 6.66669H10.6668C9.19403 6.66669 8.00012 7.86059 8.00012 9.33335V16C8.00012 17.4728 9.19403 18.6667 10.6668 18.6667H29.3335C30.8062 18.6667 32.0001 17.4728 32.0001 16ZM10.6668 9.33335H29.3335V16H10.6668V9.33335Z" fill="black"/>
<path d="M12.0001 34.6666V65.3333C12.0001 68.2788 14.3879 70.6667 17.3335 70.6667H48.0001C50.9456 70.6667 53.3335 68.2788 53.3335 65.3333V34.6666C53.3335 31.7211 50.9456 29.3333 48.0001 29.3333H17.3335C14.3879 29.3333 12.0001 31.7211 12.0001 34.6666ZM50.6668 34.6666V65.3333C50.6668 66.8061 49.4729 68 48.0001 68H17.3335C15.8607 68 14.6668 66.8061 14.6668 65.3333V34.6666C14.6668 33.1939 15.8607 32 17.3335 32H48.0001C49.4729 32 50.6668 33.1939 50.6668 34.6666Z" fill="black"/>
<path d="M32.6667 65.3334C38.737 65.5047 43.8035 60.7362 44 54.6667C44 50.2294 37.9574 39.7334 35.4387 36.0947C34.8002 35.1985 33.7678 34.6663 32.6674 34.6663C31.567 34.6663 30.5345 35.1985 29.896 36.0947C27.376 39.7334 21.3334 50.2294 21.3334 54.6667C21.5299 60.7362 26.5964 65.5047 32.6667 65.3334V65.3334ZM32.0867 37.6147C32.227 37.437 32.441 37.3334 32.6674 37.3334C32.8938 37.3334 33.1077 37.437 33.248 37.6147C36.5027 42.308 41.3334 51.536 41.3334 54.6667C41.137 59.2634 37.2644 62.8381 32.6667 62.6667C28.069 62.8381 24.1964 59.2634 24 54.6667C24 51.536 28.8307 42.308 32.0867 37.6147V37.6147Z" fill="black"/>
</g>
<defs>
<clipPath id="clip0_588_10514">
<rect width="80" height="80" fill="white" transform="translate(0.00012207)"/>
</clipPath>
</defs>
</svg>
