<svg width="80" height="80" viewBox="0 0 80 80" fill="none" xmlns="http://www.w3.org/2000/svg">
<g clip-path="url(#clip0_588_10515)">
<path d="M54.5921 48.2291C59.6534 46.4723 62.3326 40.9461 60.5762 35.8858C58.8199 30.8255 53.293 28.1475 48.2317 29.9042C43.1704 31.661 40.4912 37.1872 42.2476 42.2475C44.0039 47.3078 49.5308 49.9858 54.5921 48.2291Z" fill="#82B339"/>
<path d="M50.3305 36.1795C55.6048 36.1795 59.8804 31.9047 59.8804 26.6316C59.8804 21.3585 55.6048 17.0837 50.3305 17.0837C45.0563 17.0837 40.7806 21.3585 40.7806 26.6316C40.7806 31.9047 45.0563 36.1795 50.3305 36.1795Z" fill="#FC435F"/>
<path d="M59.8055 25.4379C59.1461 20.2061 54.3694 16.4994 49.1365 17.1587C48.4653 17.2432 47.8197 17.3965 47.2047 17.6089C50.5279 18.7618 53.0861 21.7123 53.5556 25.4379C54.1305 29.9985 51.3863 34.2117 47.2064 35.6543C48.55 36.1204 50.0179 36.2943 51.5244 36.1045C56.7574 35.4453 60.465 30.6696 59.8055 25.4379Z" fill="#EB2F4B"/>
<path d="M45.92 19.5038L43.3759 15.3483L47.7884 17.0101L52.7373 15.186L50.4239 18.9363L52.7623 21.7863L48.3579 21.5289L44.5236 24.4546L45.92 19.5038Z" fill="#AAD667"/>
<path d="M23.3927 9.01984C20.2932 9.62733 17.9217 11.8493 16.9714 14.6433C15.0365 12.4149 12.0017 11.2528 8.90227 11.8602C4.28724 12.7649 1.28076 17.247 2.18729 21.8712C3.09368 26.4955 7.5698 29.5109 12.1848 28.6062C15.2841 27.9987 17.6558 25.7767 18.6061 22.9827C20.5409 25.2111 23.5758 26.3734 26.6752 25.7658C31.2903 24.8611 34.2966 20.3791 33.3902 15.7548C32.4838 11.1306 28.0077 8.11534 23.3927 9.01984Z" fill="#82B339"/>
<path d="M26.8043 16.3345C26.2965 16.434 25.8092 16.5782 25.3425 16.7581C23.4326 13.9791 19.9984 12.4457 16.4843 13.1346C12.9749 13.8225 10.3763 16.5326 9.65277 19.8211C9.17544 19.8342 8.6931 19.8847 8.20906 19.9797C3.48684 20.9053 0.410516 25.4916 1.33815 30.2232C2.26093 34.9304 6.79847 38.0067 11.4947 37.1271L13.2355 46.0079C14.248 51.1732 19.2478 54.5414 24.4028 53.531C29.5579 52.5205 32.916 47.514 31.9036 42.3486L30.1631 33.4697C34.8854 32.5441 37.9617 27.9578 37.0341 23.2262C36.1066 18.4943 31.5266 15.4089 26.8043 16.3345Z" fill="#AAD667"/>
<path d="M37.0341 23.2261C36.1066 18.4944 31.5266 15.409 26.8043 16.3347C26.3004 16.4335 25.8169 16.5764 25.3533 16.7544C28.0576 17.7983 30.1846 20.1673 30.7842 23.2263C31.7117 27.958 28.6355 32.5441 23.9133 33.4697L25.6537 42.3487C26.5784 47.0659 23.8569 51.6488 19.4514 53.1786C20.9909 53.7165 22.6877 53.8673 24.4027 53.5312C29.5577 52.5208 32.9159 47.5142 31.9034 42.3489L30.163 33.4699C34.8854 32.544 37.9615 27.9577 37.0341 23.2261Z" fill="#99C94F"/>
<path d="M19.0927 16.7581C19.5594 16.5783 20.0467 16.4341 20.5545 16.3345C22.2167 16.0088 23.8605 16.1816 25.3344 16.7466C23.4229 13.9748 19.9936 12.4465 16.4845 13.1345C15.9804 13.2332 15.4959 13.3751 15.0323 13.5529C16.6664 14.184 18.0898 15.2989 19.0927 16.7581Z" fill="#99C94F"/>
<path d="M76.887 7.94904C76.504 7.80029 76.1093 7.73467 75.7226 7.74279C75.7412 7.69904 75.7604 7.65561 75.7778 7.61092C76.7237 5.17833 75.5181 2.43965 73.085 1.49405C71.3765 0.83001 69.5179 1.22766 68.2344 2.36513C67.9099 1.95498 67.4758 1.62265 66.953 1.41953C65.3874 0.811105 63.625 1.58671 63.0162 3.15182C62.662 4.06274 62.7773 5.0399 63.2437 5.818C62.0642 6.28549 61.0749 7.22281 60.579 8.4984C59.633 10.931 60.8386 13.6695 63.2717 14.6153C64.1118 14.9418 64.9884 15.0117 65.8151 14.8632L62.845 29.4925L66.956 30.2895L69.7172 16.7374C70.0186 17.0589 70.3948 17.3199 70.8332 17.4902C72.3988 18.0986 74.1612 17.323 74.77 15.7577C75.042 15.0584 75.0369 14.32 74.809 13.6625C76.342 14.1831 78.0274 13.4081 78.6197 11.8847C79.2283 10.3196 78.4525 8.55746 76.887 7.94904Z" fill="#AAD667"/>
<path d="M66.8352 1.49406C67.3317 1.68703 67.7763 1.95578 68.1627 2.28031C67.8467 1.90953 67.4388 1.60828 66.953 1.41953C66.5539 1.26438 66.1422 1.20031 65.7399 1.21516C66.1072 1.26375 66.4746 1.35391 66.8352 1.49406Z" fill="#AAD667" stroke="#99C94F" stroke-width="0.999977" stroke-miterlimit="10"/>
<path d="M76.8869 7.94906C76.504 7.80016 76.1093 7.73469 75.7226 7.74281C75.7412 7.69907 75.7604 7.65563 75.7777 7.61094C76.7237 5.17835 75.5181 2.43983 73.085 1.49408C71.3829 0.832532 69.5321 1.22533 68.2492 2.35296C69.6935 3.62636 70.2665 5.71193 69.5279 7.61094C69.5106 7.65563 69.4914 7.69891 69.4728 7.74281C69.8595 7.73469 70.2541 7.80031 70.6371 7.94906C72.2027 8.55748 72.9784 10.3196 72.3697 11.8849C71.7774 13.4083 70.092 14.1831 68.559 13.6627C68.7868 14.3201 68.7918 15.0586 68.52 15.7579C67.9962 17.1047 66.6183 17.8641 65.2466 17.663L62.845 29.4925L66.9559 30.2895L69.7171 16.7374C70.0185 17.059 70.3949 17.3199 70.8332 17.4902C72.3988 18.0986 74.1612 17.323 74.77 15.7579C75.0418 15.0586 75.0368 14.3201 74.809 13.6627C76.3419 14.1833 78.0274 13.4083 78.6197 11.8849C79.2283 10.3196 78.4525 8.55748 76.8869 7.94906Z" fill="#99C94F"/>
<path d="M71.7354 33.1196C72.0123 40.2727 63.2583 59.6447 59.2973 58.8767C55.3363 58.1088 54.3373 36.8461 57.3912 30.3388C58.7881 27.3624 61.7358 25.1173 65.697 25.8851C69.6581 26.6529 71.6084 29.8344 71.7354 33.1196Z" fill="#FD9E35"/>
<path d="M71.7354 33.1197C71.6082 29.8344 69.658 26.6531 65.697 25.8852C63.9725 25.5508 62.4402 25.788 61.1441 26.4076C63.9686 27.6417 65.3781 30.3435 65.4856 33.1197C65.6868 38.3173 61.1199 49.9647 57.0881 55.6505C57.6667 57.4938 58.4068 58.7041 59.2973 58.8768C63.2584 59.6447 72.0124 40.2729 71.7354 33.1197Z" fill="#FD8500"/>
<path d="M55.6851 43.4978L60.3519 44.4026L55.6851 43.4978Z" fill="#FD9E35"/>
<path d="M40.5258 48.2301C45.5871 46.4734 48.2663 40.9471 46.5099 35.8868C44.7536 30.8266 39.2268 28.1485 34.1654 29.9053C29.1041 31.662 26.4249 37.1883 28.1813 42.2485C29.9376 47.3088 35.4645 49.9868 40.5258 48.2301Z" fill="#FC435F"/>
<path d="M39.0523 29.5163C37.3728 29.2138 35.7172 29.3649 34.209 29.8795C38.6793 31.3953 41.4883 35.9922 40.6255 40.7777C39.9781 44.3685 37.4297 47.1372 34.2045 48.2376C34.6571 48.3911 35.1265 48.5136 35.611 48.6009C40.8818 49.5504 45.9251 46.0477 46.8754 40.7777C47.8257 35.5077 44.3231 30.4658 39.0523 29.5163Z" fill="#EB2F4B"/>
<path d="M35.8373 30.5056L34.6146 25.6281L38.447 28.626L43.8838 28.356L40.4478 31.3361L41.8709 34.8643L37.6128 33.2521L32.9336 34.9508L35.8373 30.5056Z" fill="#AAD667"/>
<path d="M1.17297 36.4265H14.0626V78.8263H1.17297V36.4265Z" fill="#8F5A46"/>
<path d="M65.9375 36.4266H78.8272V78.8264H65.9375V36.4266Z" fill="#8F5A46"/>
<path d="M1.17297 42.5798H78.8271V52.966H1.17297V42.5798Z" fill="#E8B266"/>
<path d="M72.5773 42.5798H78.8271V52.966H72.5773V42.5798Z" fill="#D9A359"/>
<path d="M1.17297 52.9708H78.8271V63.3569H1.17297V52.9708Z" fill="#FFDEB0"/>
<path d="M72.5773 52.9708H78.8271V63.3569H72.5773V52.9708Z" fill="#F7C783"/>
<path d="M1.17297 63.3569H78.8271V73.7431H1.17297V63.3569Z" fill="#E8B266"/>
<path d="M72.5773 63.3569H78.8271V73.7431H72.5773V63.3569Z" fill="#D9A359"/>
<path d="M78.8271 35.2545H72.7902C72.891 34.4421 72.931 33.7107 72.9063 33.0744C72.7877 30.0084 71.3437 27.458 69.0321 25.9685L70.5281 18.6267C72.663 19.3839 75.0356 18.3075 75.8619 16.1827C76.0123 15.796 76.1034 15.3919 76.1351 14.984C77.6937 14.856 79.1088 13.8604 79.7119 12.3094C80.1197 11.2607 80.0946 10.1158 79.6413 9.08587C79.188 8.05605 78.3607 7.26451 77.3115 6.85655C77.2749 6.84234 77.2381 6.82859 77.2014 6.81546C77.3779 5.70862 77.2337 4.57287 76.7712 3.52258C76.1365 2.08075 74.9781 0.972494 73.5097 0.401728C71.7812 -0.270129 69.8784 -0.0904459 68.3288 0.846404C68.0368 0.634066 67.7172 0.45907 67.3777 0.327199C65.2129 -0.514653 62.766 0.562193 61.9243 2.72713C61.6026 3.5543 61.5515 4.43881 61.7616 5.27331C60.7382 5.94236 59.9353 6.92093 59.4868 8.07355C58.9159 9.54179 58.9511 11.1446 59.5859 12.5864C60.2206 14.0282 61.379 15.1365 62.8474 15.7073C63.34 15.899 63.8533 16.0226 64.373 16.0768L62.6239 24.6926C62.0322 24.8017 61.476 24.9745 60.9546 25.1978C60.3887 21.0093 57.3714 17.5495 53.3917 16.3575L53.735 15.801C54.3754 14.7623 53.2318 13.7545 52.3322 14.0862L47.7929 15.7593L43.7891 14.2515C42.8909 13.9126 41.7381 14.9168 42.3767 15.9601L43.736 18.1803C40.9455 20.3662 39.3888 23.8483 39.6382 27.3935L38.8252 27.4338L38.1629 26.9157C38.431 25.624 38.4405 24.3081 38.1841 23.0003C37.7335 20.7015 36.514 18.6808 34.7186 17.223C34.7077 16.6561 34.6498 16.0877 34.5403 15.5294C34.0419 12.9862 32.5846 10.7888 30.437 9.34196C28.2888 7.89465 25.7074 7.37216 23.1673 7.86965C20.6976 8.35386 18.5037 9.79741 17.0741 11.8609C16.6422 11.9067 16.216 11.9825 15.7954 12.0881C13.6774 10.7139 11.1624 10.2233 8.67711 10.71C6.13734 11.2083 3.94396 12.667 2.50103 14.8184C1.05873 16.9688 0.53874 19.5537 1.03732 22.0968C1.1281 22.56 1.25388 23.0169 1.40981 23.4606C0.197343 25.4875 -0.301393 27.9519 0.187812 30.4486C0.544678 32.2691 1.3959 33.9239 2.62181 35.2547H1.17294C0.525616 35.2547 0.00109863 35.7792 0.00109863 36.4265V78.8263C0.00109863 79.4736 0.525616 79.9982 1.17294 79.9982H14.0626C14.7099 79.9982 15.2344 79.4736 15.2344 78.8263V74.9149H64.7656V78.8263C64.7656 79.4736 65.2901 79.9982 65.9374 79.9982H78.8271C79.4744 79.9982 79.9989 79.4736 79.9989 78.8263V36.4264C79.9989 35.7792 79.4744 35.2545 78.8271 35.2545ZM77.6553 72.571H2.34479V64.5286H77.6553V72.571ZM2.34479 43.7517H77.6553V51.7941H2.34479V43.7517ZM28.9413 37.5476C29.4566 34.6902 31.3657 32.3387 33.9686 31.2235L31.9524 34.31C31.2945 35.3177 32.4608 36.369 33.3335 36.0523L37.6041 34.5019L41.4558 35.9601C42.6249 36.1033 43.1256 35.5919 42.9574 34.426L41.9292 31.8765C45.0863 33.8875 46.5509 37.8162 45.5258 41.4078H29.135C28.7769 40.1594 28.7083 38.8385 28.9413 37.5476ZM54.447 41.408H47.9425C48.2471 40.0308 48.2806 38.4801 48.0323 37.1017C50.2676 37.5912 52.6906 37.334 54.7748 36.3867C54.5984 37.9204 54.4868 39.6083 54.447 41.408ZM77.6553 62.1851H2.34479V54.1426H77.6553V62.1851ZM77.6553 41.408H67.1093V37.5982H77.6553V41.408ZM70.5645 33.1651C70.5872 33.7496 70.5411 34.45 70.4275 35.2545H65.9373C65.29 35.2545 64.7654 35.7791 64.7654 36.4264V41.408H56.7916C56.8271 39.875 56.9166 38.4234 57.0547 37.0943L60.5595 37.7738C62.001 38.051 62.4682 35.7567 61.0055 35.4728L57.3672 34.7674C57.6447 33.124 58.0117 31.7749 58.452 30.8367C58.9731 29.7267 61.0193 26.172 65.4737 27.0357C69.0794 27.7347 70.4676 30.6603 70.5645 33.1651ZM63.6961 13.5229C60.7926 12.3945 60.7309 8.07449 63.6755 6.90749C64.3884 6.52031 64.5795 5.95642 64.2487 5.21566C63.0938 3.28806 65.9374 1.35061 67.3154 3.09228C67.8377 3.6293 68.4032 3.6793 69.0116 3.24228C71.7263 0.835467 76.0092 3.78242 74.6842 7.1892C74.3872 7.96387 74.7422 8.94118 75.7472 8.91431C76.9493 8.89306 77.9798 10.2972 77.5274 11.4602C77.1637 12.3953 76.135 12.8759 75.1858 12.553C74.0699 12.4333 73.5751 12.9309 73.7016 14.0462C74.3417 15.8937 71.8785 17.3289 70.5722 15.9362C69.6741 15.3123 69.0064 15.5013 68.5691 16.5036L66.8451 24.9653C66.2529 24.7859 65.6489 24.6654 65.0334 24.6039L66.9632 15.0965C67.0012 14.1557 66.5493 13.6936 65.6079 13.71C64.9678 13.8243 64.3067 13.7603 63.6961 13.5229ZM47.3753 18.1067C47.6389 18.2062 47.9295 18.207 48.1936 18.1097L49.9582 17.4592L49.4265 18.3212C49.1638 18.7472 49.2006 19.2929 49.518 19.6798L50.1586 20.4604L48.4264 20.3592C48.1456 20.3424 47.87 20.4274 47.6472 20.5973L46.6048 21.3927L47.048 19.822C47.1365 19.5076 47.0901 19.1706 46.9195 18.892L46.1581 17.6484L47.3753 18.1067ZM44.3479 20.7612L43.3959 24.1366C43.0973 25.1954 44.3555 26.0573 45.2347 25.3864L48.7235 22.7241L52.6942 22.9561C53.5989 23.01 54.3571 21.8824 53.6684 21.0429L51.8605 18.8395L52.1042 18.4444C55.5399 19.1897 58.1991 22.0641 58.6428 25.5845C58.6867 25.932 58.7072 26.2824 58.7078 26.6313C57.6686 27.5526 56.8717 28.688 56.3307 29.8409C55.8971 30.7648 55.5293 31.9782 55.236 33.4199C54.1042 34.2386 52.7742 34.766 51.3781 34.9417C49.9413 35.1231 48.4874 34.9297 47.1581 34.3844C46.367 32.7194 45.1502 31.2595 43.586 30.1656L44.6516 29.2414C45.4791 28.5236 44.9116 27.1391 43.8257 27.1857L41.9784 27.2774C41.785 24.8247 42.6584 22.4716 44.3479 20.7612ZM40.5514 29.6948L39.6799 30.4508C39.3019 30.7787 39.1738 31.3103 39.3608 31.7745L39.783 32.8209L38.0276 32.1563C37.7563 32.057 37.4848 32.0551 37.2127 32.1507L35.8358 32.6505L36.8182 31.1465C36.9968 30.8731 37.0532 30.5376 36.9739 30.2208L36.5812 28.6544L37.7248 29.5492C37.9466 29.7227 38.2238 29.8087 38.5049 29.7967L40.5514 29.6948ZM23.618 10.1701C25.5424 9.79288 27.4988 10.189 29.1273 11.2861C30.6826 12.3337 31.759 13.9015 32.1827 15.7208C30.4209 15.0034 28.4889 14.8102 26.5787 15.1848C26.3085 15.2377 26.0379 15.3032 25.7687 15.3804C24.2933 13.6 22.2639 12.4186 20.0546 11.9855C21.0449 11.0705 22.2772 10.4329 23.618 10.1701ZM4.44738 16.1238C5.54111 14.4932 7.20325 13.3876 9.12773 13.0103C10.4285 12.7555 11.7398 12.8553 12.9556 13.2833C10.9713 14.5146 9.45756 16.4283 8.73696 18.7126C8.48259 18.742 8.23103 18.7811 7.98354 18.8295C6.15937 19.1872 4.55129 20.0296 3.26492 21.1963C3.02602 19.4139 3.43804 17.6286 4.44738 16.1238ZM6.23702 35.1564C4.28411 34.0707 2.91774 32.1906 2.48791 29.9976C1.68621 25.9076 4.35379 21.9293 8.43431 21.1294C8.83883 21.0501 9.25944 21.004 9.6849 20.9923C10.2227 20.9774 10.6816 20.5984 10.7972 20.0726C11.4439 17.1336 13.7646 14.8616 16.7097 14.2843C19.6596 13.7057 22.6695 14.9376 24.3767 17.4216C24.6839 17.8684 25.2578 18.0462 25.7635 17.8514C26.1807 17.6908 26.6066 17.5674 27.0297 17.4842C29.0066 17.0966 31.0153 17.5041 32.6876 18.6303C34.3605 19.7575 35.4958 21.4694 35.884 23.4511C36.0008 24.0467 36.0439 24.644 36.0184 25.2382L35.3367 24.705C34.3728 23.9511 33.2447 24.9818 33.478 25.9128L34.1664 28.6596C30.2806 29.8408 27.3638 33.0888 26.6349 37.1314C26.378 38.5555 26.4091 40.0093 26.7183 41.4076H23.2586L22.5852 37.9718C23.9586 37.4579 25.1364 36.532 25.971 35.2877C26.8152 34.0294 24.8687 32.7238 24.0247 33.9822C23.5416 34.7024 22.8872 35.2638 22.1252 35.6248L21.1469 30.6339C23.3367 29.9395 25.2164 28.5361 26.5177 26.5962C27.3619 25.3379 25.4157 24.0326 24.5714 25.2907C23.6201 26.7088 22.2688 27.7563 20.6929 28.3168L19.5778 22.6274C19.2864 21.1412 16.9864 21.5908 17.2777 23.0781L18.3928 28.7674C16.7219 28.8431 15.0749 28.3839 13.6589 27.4299C12.4025 26.5832 11.0928 28.5271 12.3494 29.3734C14.0563 30.5234 16.0218 31.1203 18.0314 31.1203C18.3026 31.1203 18.5747 31.1067 18.847 31.0848L19.8253 36.0758C18.9832 36.029 18.1655 35.7564 17.4461 35.2717C16.1893 34.4257 14.8799 36.369 16.1366 37.2156C17.3583 38.0385 18.8129 38.4655 20.2852 38.4227L20.8704 41.4078H15.2344V36.4262C15.2344 35.7789 14.7099 35.2544 14.0626 35.2544H6.38358C6.33749 35.2191 6.28937 35.1856 6.23702 35.1564ZM12.8908 37.5982V41.408H2.34479V37.5982H12.8908ZM12.8908 77.6545H2.34479V74.9149H12.8908V77.6545ZM67.1093 77.6545V74.9149H77.6553V77.6545H67.1093Z" fill="#060606"/>
<path d="M7.61775 46.6011C6.10963 46.6011 6.10713 48.9449 7.61775 48.9449C9.12586 48.9449 9.12836 46.6011 7.61775 46.6011Z" fill="#060606"/>
<path d="M7.61775 59.3357C9.12586 59.3357 9.12836 56.9919 7.61775 56.9919C6.10963 56.9919 6.10713 59.3357 7.61775 59.3357Z" fill="#060606"/>
<path d="M7.61775 69.7357C9.12586 69.7357 9.12836 67.392 7.61775 67.392C6.10963 67.392 6.10713 69.7357 7.61775 69.7357Z" fill="#060606"/>
<path d="M72.1053 46.6011C70.5972 46.6011 70.5947 48.9449 72.1053 48.9449C73.6134 48.9449 73.6159 46.6011 72.1053 46.6011Z" fill="#060606"/>
<path d="M72.1053 59.3357C73.6134 59.3357 73.6159 56.9919 72.1053 56.9919C70.5972 56.9919 70.5947 59.3357 72.1053 59.3357Z" fill="#060606"/>
<path d="M72.1053 69.7357C73.6134 69.7357 73.6159 67.392 72.1053 67.392C70.5972 67.392 70.5947 69.7357 72.1053 69.7357Z" fill="#060606"/>
</g>
<defs>
<clipPath id="clip0_588_10515">
<rect width="80" height="80" fill="white" transform="translate(0.00012207)"/>
</clipPath>
</defs>
</svg>
