<svg width="80" height="80" viewBox="0 0 80 80" fill="none" xmlns="http://www.w3.org/2000/svg">
<path d="M65.1562 0.78125H55.4688C54.1719 0.78125 53.125 2.875 53.125 5.46875V21.4062C53.125 23.3906 51.5156 25 49.5312 25C47.5469 25 45.9375 23.3906 45.9375 21.4062V20C45.9375 18.0156 44.3281 16.4062 42.3438 16.4062H35.7812C33.7969 16.4062 32.1875 18.0156 32.1875 20V21.4062C32.1875 23.3906 30.5781 25 28.5938 25C26.6094 25 25 23.3906 25 21.4062V5.46875C25 2.875 23.9531 0.78125 22.6562 0.78125H12.9688C11.6719 0.78125 10.625 2.85938 10.625 5.45312V79.2188H15.3125H62.8125H67.5V5.45312C67.5 2.85938 66.4531 0.78125 65.1562 0.78125Z" fill="#F89720"/>
<path d="M55.4688 0.78125C54.1719 0.78125 53.125 2.875 53.125 5.46875V21.4062C53.125 23.3906 51.5156 25 49.5312 25H44.8438C42.8594 25 41.25 23.3906 41.25 21.4062V20C41.25 18.0156 39.6406 16.4062 37.6562 16.4062H35.7812C33.7969 16.4062 32.1875 18.0156 32.1875 20V21.4062C32.1875 23.3906 30.5781 25 28.5938 25H23.9062C21.9219 25 20.3125 23.3906 20.3125 21.4062V5.46875C20.3125 2.875 21.3594 0.78125 22.6562 0.78125H12.9688C11.6719 0.78125 10.625 2.85938 10.625 5.45312V79.2188H62.8125V5.46875C62.8125 2.875 63.8594 0.78125 65.1562 0.78125H55.4688Z" fill="#FAAE52"/>
<path d="M23.4375 75.9375V53.1562C23.4375 51.5781 22.8281 50.1562 21.75 49.1562C22.8281 48.1562 23.4375 46.7344 23.4375 45.1562V34.2188C23.4375 29.7812 21.7031 25.6094 18.6875 22.5156C17.9375 21.75 17.5 20.7187 17.5 19.6406V19.375C17.5 17.1406 15.6875 15.3125 13.4375 15.3125H10.625V79.2188H22.5469C23.1094 78.2656 23.4375 77.1406 23.4375 75.9375Z" fill="#F89720"/>
<path d="M6.71875 18.2812H14.5312V34.2188H6.71875V18.2812Z" fill="#514C43"/>
<path d="M10.625 18.2812H14.5312V34.2188H10.625V18.2812Z" fill="#35322C"/>
<path d="M17.1875 79.2188C15.375 79.2188 13.9062 77.75 13.9062 75.9375C13.9062 77.75 12.4375 79.2188 10.625 79.2188C8.8125 79.2188 7.34375 77.75 7.34375 75.9375C7.34375 77.75 5.875 79.2188 4.0625 79.2188C2.25 79.2188 0.78125 77.75 0.78125 75.9375V53.1563C0.78125 52.3281 1.21875 51.5625 1.9375 51.1562C3.48438 50.2812 3.48438 48.0469 1.9375 47.1562C1.21875 46.75 0.78125 45.9844 0.78125 45.1562V34.2188C0.78125 29.7188 3 25.5 6.71875 22.9688H14.5312C18.25 25.5156 20.4688 29.7188 20.4688 34.2188V45.1562C20.4688 45.9844 20.0312 46.75 19.3125 47.1562C17.7656 48.0312 17.7656 50.2656 19.3125 51.1562C20.0312 51.5625 20.4688 52.3281 20.4688 53.1563V75.9375C20.4688 77.75 19 79.2188 17.1875 79.2188Z" fill="#B3271E"/>
<path d="M10.625 22.9688H6.71875C3 25.5156 0.78125 29.7188 0.78125 34.2188V45.1875C0.78125 46.0156 1.25 46.75 1.96875 47.1562C3.5 48.0469 3.5 50.2656 1.95312 51.1406C1.23438 51.5 0.796875 52.2187 0.796875 53.0156V66.7188H5.48438C10.1406 66.7188 13.9219 62.9375 13.9219 58.2812V33.0312C13.9062 29.4062 12.75 25.8906 10.625 22.9688Z" fill="#DB3429"/>
<path d="M0.78125 34.2188H20.4688V45.1562H0.78125V34.2188Z" fill="#514C43"/>
<path d="M4.6875 34.2188H8.75V45.1562H4.6875V34.2188Z" fill="#6D675A"/>
<path d="M13.9062 34.2188H20.4688V45.1562H13.9062V34.2188Z" fill="#35322C"/>
<path d="M62.8125 25C62.8125 27.5938 63.8594 29.6875 65.1562 29.6875C66.4531 29.6875 67.5 27.5938 67.5 25V5.46875C67.5 2.875 66.4531 0.78125 65.1562 0.78125C63.8594 0.78125 62.8125 2.875 62.8125 5.46875V25Z" fill="#DF7E07"/>
<path d="M71.4062 46.0938H41.7188L35.4688 59.5312V65.7812L41.7188 79.2188H71.4062L77.6562 65.7812V59.5312L71.4062 46.0938Z" fill="#C5C2A1"/>
<path d="M62.0312 46.0938H41.7188L35.4688 59.5312V65.7812L41.7188 79.2188H62.0312L65.7812 65.7812V59.5312L62.0312 46.0938Z" fill="#D8D6C0"/>
<path d="M35.4688 62.6562H77.6562C78.5156 62.6562 79.2188 63.3594 79.2188 64.2188C79.2188 65.0781 78.5156 65.7812 77.6562 65.7812H35.4688C34.6094 65.7812 33.9062 65.0781 33.9062 64.2188C33.9062 63.3594 34.6094 62.6562 35.4688 62.6562Z" fill="#D8D6C0"/>
<path d="M35.4688 62.6562H65.7812C66.6406 62.6562 67.3438 63.3594 67.3438 64.2188C67.3438 65.0781 66.6406 65.7812 65.7812 65.7812H35.4688C34.6094 65.7812 33.9062 65.0781 33.9062 64.2188C33.9062 63.3594 34.6094 62.6562 35.4688 62.6562Z" fill="#ECEBDF"/>
<path d="M35.4688 59.5312H77.6562C78.5156 59.5312 79.2188 60.2344 79.2188 61.0938C79.2188 61.9531 78.5156 62.6562 77.6562 62.6562H35.4688C34.6094 62.6562 33.9062 61.9531 33.9062 61.0938C33.9062 60.2344 34.6094 59.5312 35.4688 59.5312Z" fill="#D8D6C0"/>
<path d="M35.4688 59.5312H65.7812C66.6406 59.5312 67.3438 60.2344 67.3438 61.0938C67.3438 61.9531 66.6406 62.6562 65.7812 62.6562H35.4688C34.6094 62.6562 33.9062 61.9531 33.9062 61.0938C33.9062 60.2344 34.6094 59.5312 35.4688 59.5312Z" fill="#ECEBDF"/>
<path d="M14.5312 23.75H6.71875C6.28125 23.75 5.9375 23.4062 5.9375 22.9688V18.2812C5.9375 17.8438 6.28125 17.5 6.71875 17.5H14.5312C14.9688 17.5 15.3125 17.8438 15.3125 18.2812V22.9688C15.3125 23.4062 14.9688 23.75 14.5312 23.75ZM7.5 22.1875H13.75V19.0625H7.5V22.1875Z" fill="#272525"/>
<path d="M17.1875 80C15.8438 80 14.6406 79.3438 13.9062 78.3281C13.1719 79.3438 11.9688 80 10.625 80C9.28125 80 8.07812 79.3438 7.34375 78.3281C6.60938 79.3438 5.40625 80 4.0625 80C1.82812 80 0 78.1719 0 75.9375V53.1563C0 52.0469 0.59375 51.0312 1.5625 50.4844C2.04688 50.2188 2.32812 49.7188 2.32812 49.1719C2.32812 48.625 2.04688 48.125 1.5625 47.8594C0.59375 47.2969 0 46.2656 0 45.1562V34.2188C0 29.4531 2.34375 25 6.28125 22.3125C6.40625 22.2344 6.5625 22.1875 6.71875 22.1875H14.5312C14.6875 22.1875 14.8438 22.2344 14.9688 22.3281C18.9062 25.0156 21.25 29.4688 21.25 34.2188V45.1562C21.25 46.2656 20.6562 47.2812 19.6875 47.8281C19.2031 48.0938 18.9219 48.5938 18.9219 49.1406C18.9219 49.6875 19.2031 50.1875 19.6875 50.4531C20.6562 51 21.25 52.0312 21.25 53.125V75.9375C21.25 78.1719 19.4219 80 17.1875 80ZM14.6875 75.9375C14.6875 77.3125 15.8125 78.4375 17.1875 78.4375C18.5625 78.4375 19.6875 77.3125 19.6875 75.9375V53.1563C19.6875 52.6094 19.3906 52.1094 18.9219 51.8437C17.9375 51.2969 17.3594 50.2969 17.3594 49.1719C17.3594 48.0469 17.9375 47.0469 18.9219 46.5C19.3906 46.2344 19.6875 45.7344 19.6875 45.1875V34.25C19.6875 30.0781 17.6719 26.1875 14.2812 23.7812H6.96875C3.57812 26.1562 1.5625 30.0625 1.5625 34.2188V45.1562C1.5625 45.7031 1.85938 46.2031 2.32812 46.4688C3.3125 47.0156 3.89062 48.0156 3.89062 49.1406C3.89062 50.2656 3.3125 51.2656 2.32812 51.8125C1.85938 52.0781 1.5625 52.5781 1.5625 53.125V75.9375C1.5625 77.3125 2.6875 78.4375 4.0625 78.4375C5.4375 78.4375 6.5625 77.3125 6.5625 75.9375C6.5625 75.5 6.90625 75.1562 7.34375 75.1562C7.78125 75.1562 8.125 75.5 8.125 75.9375C8.125 77.3125 9.25 78.4375 10.625 78.4375C12 78.4375 13.125 77.3125 13.125 75.9375C13.125 75.5 13.4688 75.1562 13.9062 75.1562C14.3438 75.1562 14.6875 75.5 14.6875 75.9375Z" fill="#272525"/>
<path d="M20.4688 45.9375H0.78125C0.34375 45.9375 0 45.5938 0 45.1562V34.2188C0 33.7812 0.34375 33.4375 0.78125 33.4375H20.4688C20.9062 33.4375 21.25 33.7812 21.25 34.2188V45.1562C21.25 45.5938 20.9062 45.9375 20.4688 45.9375ZM1.5625 44.375H19.6875V35H1.5625V44.375Z" fill="#272525"/>
<path d="M65.1562 30.4688C63.375 30.4688 62.0312 28.125 62.0312 25V5.46875C62.0312 2.34375 63.375 0 65.1562 0C66.9375 0 68.2812 2.34375 68.2812 5.46875V25C68.2812 28.125 66.9375 30.4688 65.1562 30.4688ZM65.1562 1.5625C64.5156 1.5625 63.5938 3.07812 63.5938 5.46875V25C63.5938 27.3906 64.5156 28.9062 65.1562 28.9062C65.7969 28.9062 66.7188 27.3906 66.7188 25V5.46875C66.7188 3.07812 65.7969 1.5625 65.1562 1.5625Z" fill="#272525"/>
<path d="M71.4062 80H41.7188C41.4219 80 41.1406 79.8281 41.0156 79.5469L34.7656 66.1094C34.6562 65.875 34.6719 65.5781 34.8125 65.3594C34.9531 65.1406 35.2031 65 35.4687 65H77.6562C77.9219 65 78.1719 65.1406 78.3125 65.3594C78.4531 65.5781 78.4688 65.8594 78.3594 66.1094L72.1094 79.5469C71.9844 79.8281 71.7031 80 71.4062 80ZM42.2188 78.4375H70.9062L76.4219 66.5625H36.6875L42.2188 78.4375Z" fill="#272525"/>
<path d="M77.6562 66.5625H35.4688C34.1719 66.5625 33.125 65.5156 33.125 64.2188C33.125 62.9219 34.1719 61.875 35.4688 61.875H77.6562C78.9531 61.875 80 62.9219 80 64.2188C80 65.5156 78.9531 66.5625 77.6562 66.5625ZM35.4688 63.4375C35.0312 63.4375 34.6875 63.7812 34.6875 64.2188C34.6875 64.6562 35.0312 65 35.4688 65H77.6562C78.0938 65 78.4375 64.6562 78.4375 64.2188C78.4375 63.7812 78.0938 63.4375 77.6562 63.4375H35.4688Z" fill="#272525"/>
<path d="M77.6562 63.4375H35.4688C34.1719 63.4375 33.125 62.3906 33.125 61.0938C33.125 59.7969 34.1719 58.75 35.4688 58.75H77.6562C78.9531 58.75 80 59.7969 80 61.0938C80 62.3906 78.9531 63.4375 77.6562 63.4375ZM35.4688 60.3125C35.0312 60.3125 34.6875 60.6562 34.6875 61.0938C34.6875 61.5312 35.0312 61.875 35.4688 61.875H77.6562C78.0938 61.875 78.4375 61.5312 78.4375 61.0938C78.4375 60.6562 78.0938 60.3125 77.6562 60.3125H35.4688Z" fill="#272525"/>
<path d="M77.6562 60.3125H35.4688C35.2031 60.3125 34.9531 60.1719 34.8125 59.9531C34.6719 59.7344 34.6562 59.4531 34.7656 59.2031L41.0156 45.7656C41.1406 45.4844 41.4219 45.3125 41.7188 45.3125H59.6875V46.875H42.2188L36.7031 58.75H76.4375L70.9219 46.875H62.8125C62.375 46.875 62.0312 46.5312 62.0312 46.0938V5.46875C62.0312 3.90625 62.375 2.54688 62.9219 1.5625H55.4688C54.8281 1.5625 53.9062 3.07812 53.9062 5.46875V21.4062C53.9062 23.8125 51.9375 25.7812 49.5312 25.7812H44.8438C42.4375 25.7812 40.4688 23.8125 40.4688 21.4062V20C40.4688 18.4531 39.2031 17.1875 37.6562 17.1875H35.7812C34.2344 17.1875 32.9688 18.4531 32.9688 20V21.4062C32.9688 23.8125 31 25.7812 28.5938 25.7812H23.9062C21.5 25.7812 19.5312 23.8125 19.5312 21.4062V5.46875C19.5312 3.90625 19.875 2.54688 20.4219 1.5625H12.9688C12.3281 1.5625 11.4062 3.07813 11.4062 5.45312V15.1562H9.84375V5.45312C9.84375 2.34375 11.1875 0 12.9688 0H22.6562C23.0938 0 23.4375 0.34375 23.4375 0.78125C23.4375 1.21875 23.0938 1.5625 22.6562 1.5625C22.0156 1.5625 21.0938 3.07812 21.0938 5.46875V21.4062C21.0938 22.9531 22.3594 24.2188 23.9062 24.2188H28.5938C30.1406 24.2188 31.4062 22.9531 31.4062 21.4062V20C31.4062 17.5938 33.375 15.625 35.7812 15.625H37.6562C40.0625 15.625 42.0312 17.5938 42.0312 20V21.4062C42.0312 22.9531 43.2969 24.2188 44.8438 24.2188H49.5312C51.0781 24.2188 52.3438 22.9531 52.3438 21.4062V5.46875C52.3438 2.34375 53.6875 0 55.4688 0H65.1562C65.5938 0 65.9375 0.34375 65.9375 0.78125C65.9375 1.21875 65.5938 1.5625 65.1562 1.5625C64.5156 1.5625 63.5938 3.07812 63.5938 5.46875V45.3125H71.4062C71.7031 45.3125 71.9844 45.4844 72.1094 45.7656L78.3594 59.2031C78.4688 59.4375 78.4531 59.7344 78.3125 59.9531C78.1719 60.1719 77.9219 60.3125 77.6562 60.3125Z" fill="#272525"/>
<path d="M10.625 78.4375H62.8125V80H10.625V78.4375Z" fill="#272525"/>
<path d="M68.2812 46.0938H66.7188V5.45312C66.7188 3.07813 65.7969 1.5625 65.1562 1.5625H55.4688C54.8281 1.5625 53.9062 3.07812 53.9062 5.46875V21.4062C53.9062 23.8125 51.9375 25.7812 49.5312 25.7812C47.125 25.7812 45.1562 23.8125 45.1562 21.4062V20C45.1562 18.4531 43.8906 17.1875 42.3438 17.1875H35.7812C34.2344 17.1875 32.9688 18.4531 32.9688 20V21.4062C32.9688 23.8125 31 25.7812 28.5938 25.7812C26.1875 25.7812 24.2188 23.8125 24.2188 21.4062V5.46875C24.2188 3.07812 23.2969 1.5625 22.6562 1.5625V0C24.4375 0 25.7812 2.34375 25.7812 5.46875V21.4062C25.7812 22.9531 27.0469 24.2188 28.5938 24.2188C30.1406 24.2188 31.4062 22.9531 31.4062 21.4062V20C31.4062 17.5938 33.375 15.625 35.7812 15.625H42.3438C44.75 15.625 46.7188 17.5938 46.7188 20V21.4062C46.7188 22.9531 47.9844 24.2188 49.5312 24.2188C51.0781 24.2188 52.3438 22.9531 52.3438 21.4062V5.46875C52.3438 2.34375 53.6875 0 55.4688 0H65.1562C66.9375 0 68.2812 2.34375 68.2812 5.45312V46.0938Z" fill="#272525"/>
</svg>
