<svg width="16" height="24" viewBox="0 0 16 24" fill="none" xmlns="http://www.w3.org/2000/svg">
<path d="M12.2134 0H3.78613C2.1225 0 0.786133 1.33636 0.786133 3V21C0.786133 22.6636 2.14977 24 3.78613 24H12.2134C13.877 24 15.2134 22.6636 15.2134 21V3C15.2134 1.33636 13.877 0 12.2134 0ZM8.0134 22.0636C7.24977 22.0636 6.64977 21.4636 6.64977 20.7C6.64977 19.9364 7.24977 19.3364 8.0134 19.3364C8.77704 19.3364 9.37704 19.9364 9.37704 20.7C9.37704 21.4636 8.77704 22.0636 8.0134 22.0636ZM13.8498 17.8909H2.14977V4.00909H13.8498V17.8909Z" fill="#3B3B3B"/>
</svg>
