<svg width="80" height="80" viewBox="0 0 80 80" fill="none" xmlns="http://www.w3.org/2000/svg">
<rect x="3.5" y="3.5" width="41" height="41" rx="11.5" fill="#97C008"/>
<path d="M35.029 9.00399C35.8255 9.51757 36.6961 10.1566 37.4875 10.9053C38.6054 11.963 39.5319 13.2083 39.899 14.5961C40.2599 15.9599 40.0959 17.5166 38.9314 19.2593C37.852 20.8711 35.4918 22.7125 29.8792 23.5065L29.6518 23.5387L29.528 23.7321C28.985 24.581 28.4273 25.4284 27.8675 26.279C25.5003 29.8756 23.0952 33.5298 21.6093 37.5945H12.3254C13.989 33.2488 16.8548 28.8217 20.0503 24.3406L20.5206 23.6811L19.7203 23.5563C16.0163 22.9787 13.0149 21.7606 10.9405 20.6875C9.90375 20.1512 9.10005 19.6518 8.55773 19.2882C8.38064 19.1695 8.23149 19.0653 8.11126 18.9791L11.8886 13.3645C12.0632 13.4918 12.289 13.6496 12.5648 13.8287C13.2896 14.2994 14.3609 14.9183 15.7597 15.522C18.5585 16.7297 22.6675 17.8755 27.9292 17.6503C30.8414 17.5255 32.8562 17.0432 34.1846 16.2808C35.5436 15.5009 36.1761 14.43 36.2959 13.2248L36.2959 13.2246C36.4583 11.5824 35.7873 10.1096 35.029 9.00399ZM12.5317 28.1553C11.6744 27.0953 11.2361 25.9272 11.1932 24.6449L14.2456 25.66L12.5317 28.1553Z" fill="white" stroke="black"/>
<rect x="3.5" y="3.5" width="41" height="41" rx="11.5" stroke="black"/>
<g clip-path="url(#clip0_598_10536)">
<path d="M38.6238 55.7246L28.873 58.3407L30.7693 62.9588L33.7043 68.9822C33.8015 69.1807 34.0028 69.3066 34.2245 69.3066H38.5394C38.8475 69.3066 39.1007 69.0657 39.1171 68.7577L39.5224 60.7849L38.6238 55.7246Z" fill="#FE99A0"/>
<path d="M62.0101 59.5404L61.1531 56.6095C61.156 56.5301 59.9681 53.9094 59.9681 53.9094L52.3512 56.3227L53.2036 60.077L53.3159 63.6472L51.2269 68.6069C51.0859 68.9396 51.3295 69.3064 51.6909 69.3064H55.7526C56.0743 69.3064 56.3768 69.1518 56.5658 68.8903L61.5953 61.9374C62.0963 61.2461 62.2496 60.3604 62.0101 59.5404Z" fill="#FE99A0"/>
<path d="M23.529 30.7593V29.5376C23.529 28.6114 22.7781 27.8607 21.852 27.8607H16.2159C15.8667 27.8607 15.5836 28.1438 15.5836 28.493V30.4291C15.5836 32.6967 17.422 34.5352 19.6896 34.5352L22.2827 35.3231L23.9386 33.2814L23.529 30.7593Z" fill="#FE99A0"/>
<path d="M75.3751 59.8635C75.6913 60.6561 75.5955 61.5541 75.1191 62.2618L70.518 69.1025C70.4318 69.2298 70.288 69.3064 70.1347 69.3064H64.6083C64.2866 69.3064 64.0634 68.9834 64.1771 68.6822L67.3399 60.2911C67.4257 60.0636 67.3399 59.8071 67.1345 59.6769L62.0975 56.4822C61.905 56.36 61.6623 56.3488 61.4593 56.4527L61.1529 56.6095L58.463 57.9866C56.7655 58.8559 55.005 59.5527 53.2035 60.077C50.4834 60.8696 47.6729 61.2666 44.8597 61.2666C43.0746 61.2666 41.2882 61.1065 39.5222 60.7848C37.7294 60.4599 35.958 59.968 34.2312 59.31C33.7225 59.1161 33.1473 59.2589 32.793 59.6724L31.1073 61.639C31.0142 61.7471 30.9512 61.8799 30.928 62.0209L30.7692 62.9586L29.7822 68.7849C29.7315 69.086 29.47 69.3064 29.1648 69.3064H24.2366C23.8765 69.3064 23.589 69.0025 23.6109 68.6411L24.2476 58.1916C24.2723 57.7868 23.9832 57.4304 23.5821 57.371L13.2932 55.8483H9.29724C8.59565 55.8483 8.02686 55.2795 8.02686 54.5779V49.6497C8.02686 48.9482 8.59565 48.3794 9.29724 48.3794H12.2076L16.0776 40.2369C17.5547 37.1294 19.7108 34.3942 22.3857 32.2313C24.4296 30.5789 26.7267 29.3017 29.1689 28.4379C31.6124 27.5741 34.2011 27.1237 36.8295 27.1237H63.8785C65.6431 27.1237 67.3433 27.7753 68.6561 28.954L74.2004 33.9356C75.2695 34.8952 75.8801 36.2655 75.8801 37.7029V47.5648C75.8801 49.9951 74.9998 52.3411 73.4097 54.1701C73.2848 54.3137 73.2468 54.5131 73.3171 54.6898L75.3751 59.8635Z" fill="#FFC4C8"/>
<path d="M13.2312 51.6391C15.2701 51.6391 17.1271 50.4656 18.0022 48.6241L20.4392 43.4966C21.9163 40.3891 24.0724 37.6539 26.7473 35.491C28.7912 33.8387 31.0883 32.5614 33.5305 31.6976C35.974 30.8338 38.5627 30.3835 41.1911 30.3835H68.2401C69.1076 30.3835 69.9594 30.5417 70.7573 30.8419L68.6563 28.954C67.3435 27.7753 65.6432 27.1237 63.8787 27.1237H36.8296C34.2013 27.1237 31.6126 27.5741 29.169 28.4379C26.7268 29.3017 24.4297 30.5789 22.3859 32.2313C19.7109 34.3942 17.5549 37.1293 16.0778 40.2369L12.2077 48.3793H9.29736C8.59578 48.3793 8.02698 48.9481 8.02698 49.6497V51.6391H13.2312Z" fill="#FDB4BA"/>
<path d="M11.1809 48.3794V51.8339C11.1809 52.4011 11.6406 52.8607 12.2076 52.8607C12.7746 52.8607 13.2343 52.4011 13.2343 51.8339V48.379C13.2343 47.9698 12.9945 47.6177 12.6483 47.4526L12.2078 48.3794H11.1809Z" fill="#FE99A0"/>
<path d="M73.1203 65.2339L70.518 69.1025C70.4317 69.2298 70.288 69.3065 70.1346 69.3065H64.6082C64.2865 69.3065 64.0634 68.9834 64.177 68.6823L65.4761 65.2339H73.1203Z" fill="#918291"/>
<path d="M59.1762 65.2804L56.5656 68.8903C56.3767 69.1518 56.0742 69.3065 55.7525 69.3065H51.6908C51.3294 69.3065 51.0857 68.9396 51.2267 68.607L52.6477 65.2339L59.1762 65.2804Z" fill="#918291"/>
<path d="M39.2964 65.2353L39.1171 68.7575C39.1006 69.0656 38.8474 69.3065 38.5394 69.3065H34.2244C34.0027 69.3065 33.8014 69.1805 33.7042 68.9821L31.9287 65.3393L39.2676 65.2339L39.2964 65.2353Z" fill="#918291"/>
<path d="M30.4147 65.0532L29.7823 68.7849C29.7316 69.0861 29.4701 69.3065 29.1649 69.3065H24.2366C23.8766 69.3065 23.5891 69.0026 23.611 68.6412L23.8301 65.0463H30.3777L30.4147 65.0532Z" fill="#918291"/>
<path d="M37.1856 34.564V37.8816C37.1856 38.8089 36.4339 39.5606 35.5066 39.5606H33.3471C31.0789 39.5606 29.2402 37.722 29.2402 35.4538V33.5195C29.2402 33.169 29.5236 32.887 29.8727 32.887H35.5086C36.4349 32.887 37.1856 33.6379 37.1856 34.564Z" fill="#FE99A0"/>
<path d="M74.886 33.1713L73.4081 31.8435L70.2657 28.9507C70.0549 28.7613 69.9345 28.501 69.9269 28.2178C69.9193 27.9344 70.0256 27.6678 70.226 27.4675C70.6246 27.0687 71.2734 27.069 71.6719 27.4675L71.7949 27.5905C72.3709 28.1665 73.1366 28.4835 73.951 28.4835C74.7654 28.4835 75.5312 28.1663 76.107 27.5905C76.6829 27.0146 77 26.2488 77 25.4345C77 24.6201 76.6828 23.8543 76.107 23.2785L74.4811 21.6527C74.4169 21.5885 74.4169 21.4841 74.4811 21.4199C74.8821 21.0188 74.8819 20.3687 74.481 19.968C74.0797 19.5666 73.4296 19.567 73.029 19.9681C72.1646 20.8329 72.1646 22.2399 73.029 23.1048L74.6551 24.7307C74.843 24.9186 74.9467 25.1686 74.9467 25.4346C74.9467 25.7006 74.843 25.9507 74.6549 26.1388C74.467 26.3267 74.217 26.4304 73.951 26.4304C73.685 26.4304 73.4349 26.3267 73.247 26.1386L73.1239 26.0156C71.9246 24.8165 69.9733 24.8166 68.7741 26.0157C68.4317 26.3582 68.1783 26.7767 68.0288 27.2305C66.7799 26.4939 65.3512 26.0973 63.879 26.0973H59.1019C58.5348 26.0973 58.0752 26.5569 58.0752 27.124C58.0752 27.6912 58.5348 28.1507 59.1019 28.1507H63.879C65.3918 28.1507 66.8447 28.7075 67.97 29.7184L73.5138 34.6992C74.3649 35.4639 74.853 36.5587 74.853 37.703V47.5649C74.853 49.848 73.9994 52.0283 72.4489 53.7044C72.1803 53.9948 72.1024 54.4137 72.2486 54.7811L74.4215 60.2429C74.612 60.7214 74.5539 61.262 74.2666 61.6892L72.5735 64.2067H66.9606L68.4472 60.2627C68.6188 59.8073 68.4473 59.2941 68.0365 59.0335L60.0305 53.955C59.2677 53.471 58.8069 52.6427 58.7979 51.7393L58.7643 48.3464C58.7557 47.482 59.1701 46.6655 59.8728 46.1621L63.1644 43.8038C63.6253 43.4736 63.7313 42.8321 63.4011 42.3712C63.0708 41.9103 62.4293 41.8043 61.9685 42.1345L58.6769 44.4928C57.4307 45.3855 56.6959 46.8338 56.7111 48.3666L56.7446 51.7597C56.7606 53.3617 57.5777 54.8305 58.9307 55.6887L59.7206 56.1898L57.9955 57.073C55.561 58.3194 52.9589 59.2124 50.2614 59.727C49.7045 59.8332 49.339 60.3708 49.4452 60.9278C49.5392 61.4198 49.9695 61.7623 50.4525 61.7623C50.5164 61.7623 50.5811 61.7565 50.6461 61.744C51.1737 61.6434 51.698 61.5288 52.2183 61.4013L52.2831 63.4548L51.7047 64.8273C51.7028 64.8317 51.701 64.8359 51.6992 64.8403L50.2802 68.2082C50.0804 68.6821 50.1309 69.2206 50.4153 69.649C50.6996 70.0773 51.1764 70.333 51.6905 70.333H55.7518C56.4011 70.333 57.0162 70.019 57.397 69.4928L62.4276 62.5394C63.1194 61.5836 63.3261 60.3857 62.9952 59.2529L62.6415 58.0426L66.2313 60.3197L63.216 68.3195C63.0435 68.7766 63.1066 69.2894 63.3844 69.6913C63.6623 70.0932 64.1201 70.333 64.6087 70.333H70.1347C70.6309 70.333 71.0927 70.0872 71.3699 69.6753L73.9706 65.8084C73.9712 65.8076 73.9718 65.8066 73.9724 65.8057L75.9705 62.8348C76.6362 61.8449 76.7705 60.5919 76.3294 59.4835L74.3879 54.6033C76.0164 52.6212 76.9062 50.1463 76.9062 47.5644V37.7025C76.9065 35.9764 76.17 34.3248 74.886 33.1713ZM55.7402 68.2796H52.4781L53.3292 66.2599H57.2014L55.7402 68.2796ZM60.7641 61.3356L58.6871 64.2065H54.1945L54.2624 64.0453C54.3199 63.9091 54.3472 63.7621 54.3425 63.6144L54.2546 60.8275C55.8631 60.3144 57.4272 59.6711 58.9312 58.901L60.5158 58.0896L61.0242 59.8291C61.176 60.3482 61.0812 60.8974 60.7641 61.3356ZM69.8342 68.2796H65.4255L66.1868 66.2599H71.1926L69.8342 68.2796Z" fill="black"/>
<path d="M16.5989 55.3L13.4434 54.8327C13.3935 54.8254 13.3433 54.8217 13.2929 54.8217H9.29764C9.16294 54.8217 9.05342 54.712 9.05342 54.5774V49.6499C9.05342 49.5153 9.16294 49.4057 9.29764 49.4057H11.1809V51.8339C11.1809 52.4011 11.6406 52.8606 12.2076 52.8606C12.7746 52.8606 13.2343 52.4011 13.2343 51.8339V48.6106L17.0055 40.677C18.4076 37.7273 20.4911 35.0832 23.0309 33.0302C26.9236 29.8834 31.8242 28.1505 36.8299 28.1505H54.7263C55.2934 28.1505 55.753 27.6909 55.753 27.1238C55.753 26.5566 55.2934 26.097 54.7263 26.097H36.8299C32.5029 26.097 28.2484 27.2821 24.5526 29.4779C24.5205 28.0148 23.3226 26.834 21.852 26.834H16.2159C15.301 26.834 14.5569 27.5782 14.5569 28.493V30.4291C14.5569 32.655 15.9814 34.5536 17.9664 35.2632C16.8634 36.6656 15.9146 38.1891 15.151 39.7956L11.559 47.3523H9.29764C8.03068 47.3523 7 48.383 7 49.6499V54.5774C7 55.8444 8.03068 56.8751 9.29764 56.8751H13.2173L16.298 57.3312C16.3491 57.3389 16.3997 57.3424 16.4497 57.3424C16.9502 57.3424 17.3885 56.9758 17.4641 56.466C17.5472 55.905 17.1598 55.3831 16.5989 55.3ZM16.6103 30.4289V28.8872H21.852C22.2106 28.8872 22.5022 29.179 22.5022 29.5375V30.7593C22.5022 30.7865 22.5043 30.8132 22.5063 30.8399C22.2473 31.0324 21.9916 31.2299 21.74 31.4332C20.9496 32.0721 20.2012 32.765 19.4971 33.5017C17.8886 33.4019 16.6103 32.0621 16.6103 30.4289Z" fill="black"/>
<path d="M46.0364 60.2156C41.8117 60.3896 37.6884 59.6517 33.7853 58.0269C33.3747 57.8561 32.9007 57.9689 32.6111 58.3066L30.3277 60.9706C30.1133 61.2207 29.9708 61.5246 29.9159 61.8493L29.5484 64.0193H24.9216L25.2812 58.1064L28.8338 56.1713C29.3318 55.9001 29.5155 55.2766 29.2443 54.7785C28.9732 54.2806 28.3496 54.0967 27.8516 54.3681L24.1013 56.4107L20.9272 55.9408C20.3658 55.8569 19.8441 56.2452 19.7611 56.8059C19.678 57.3669 20.0654 57.8889 20.6263 57.972L23.2087 58.3544L22.5867 68.5794C22.5592 69.0327 22.7219 69.4823 23.033 69.8129C23.3442 70.1435 23.7831 70.3332 24.2371 70.3332H29.1644C29.974 70.3332 30.6596 69.754 30.7945 68.9559L31.2474 66.283L32.7816 69.4315C33.0484 69.9792 33.6146 70.3332 34.224 70.3332H38.5394C39.3944 70.3332 40.0983 69.6642 40.1418 68.8102L40.4887 61.9863C42.3402 62.2501 44.2202 62.3451 46.1199 62.2675C46.6865 62.2444 47.1269 61.7663 47.1039 61.1997C47.081 60.6332 46.6096 60.1922 46.0364 60.2156ZM28.8265 68.2796H24.6625L24.7968 66.0726H29.2005L28.8265 68.2796ZM34.5047 68.2796L33.5205 66.2599H38.2156L38.1129 68.2796H34.5047ZM38.3199 64.2065H32.52L31.8369 62.8045L31.9295 62.257L33.6908 60.202C35.2483 60.8075 36.8375 61.2805 38.4512 61.6237L38.3199 64.2065Z" fill="black"/>
<path d="M35.5087 33.9133C35.8674 33.9133 36.159 34.205 36.159 34.5635C36.159 35.1307 36.6187 35.5902 37.1857 35.5902C37.7527 35.5902 38.2124 35.1307 38.2124 34.5635C38.2124 33.0726 36.9995 31.8599 35.5087 31.8599H29.8727C28.9579 31.8599 28.2136 32.6042 28.2136 33.5188V35.455C28.2136 38.2853 30.5162 40.5877 33.3464 40.5877H37.1857C37.7527 40.5877 38.2124 40.1282 38.2124 39.561C38.2124 38.9939 37.7527 38.5343 37.1857 38.5343H33.3464C31.6484 38.5343 30.267 37.1529 30.267 35.455V33.9133H35.5087Z" fill="black"/>
<path d="M20.1704 45.1834V47.3092C20.1704 47.8763 20.6301 48.3359 21.1971 48.3359C21.7641 48.3359 22.2238 47.8763 22.2238 47.3092V45.1834C22.2238 44.6163 21.7641 44.1567 21.1971 44.1567C20.6301 44.1567 20.1704 44.6164 20.1704 45.1834Z" fill="black"/>
</g>
<defs>
<clipPath id="clip0_598_10536">
<rect width="70" height="70" fill="white" transform="translate(7 10)"/>
</clipPath>
</defs>
</svg>
