<svg width="80" height="80" viewBox="0 0 80 80" fill="none" xmlns="http://www.w3.org/2000/svg">
<g clip-path="url(#clip0_588_10516)">
<path d="M78.8281 44.6948V57.1118H46.9104V32.7545L53.1335 34.0302L73.5419 38.2147C76.6187 38.847 78.8281 41.5546 78.8281 44.6948Z" fill="#1FC974"/>
<path d="M48.5645 12.6776V51.4471H15.437V16.0022C15.437 13.2947 17.6324 11.1011 20.3387 11.1011H46.9879C47.8601 11.1011 48.5645 11.8073 48.5645 12.6776Z" fill="#1FC974"/>
<path d="M48.5645 12.6776V47.2333H45.0348V11.1011H46.9879C47.8601 11.1011 48.5645 11.8073 48.5645 12.6776Z" fill="#19AA60"/>
<path d="M43.6078 48.6285C42.9767 49.6899 41.8634 50.3235 40.6287 50.3235H15.437V32.8998C17.4524 32.3792 19.552 32.1063 21.6901 32.1063C30.8661 32.1063 39.2896 37.1204 43.6737 45.1917C44.2651 46.2799 44.242 47.5653 43.6078 48.6285Z" fill="#19AA60"/>
<path d="M48.5645 16.5955V51.4465H21.6901V18.158C21.6901 17.2949 22.3901 16.5955 23.2526 16.5955H48.5645Z" fill="#64BDFF"/>
<path d="M43.1647 16.5955L21.6901 38.0695V29.2609L34.3561 16.5955H43.1647Z" fill="#83D9FF"/>
<path d="M48.5645 16.5955V20.5841L21.6901 47.4579V41.4618L46.557 16.5955H48.5645Z" fill="#83D9FF"/>
<path d="M63.2758 49.5538C60.5286 49.5538 57.9626 50.3552 55.802 51.734V46.9348C55.802 45.2972 54.6613 43.9221 53.1335 43.5596V34.0308L46.9098 32.7545V57.1118H75.6598C73.3429 52.6263 68.6621 49.5538 63.2758 49.5538Z" fill="#19AA60"/>
<path d="M53.9093 61.048H33.407V45.3571H52.3322C53.2031 45.3571 53.9093 46.0632 53.9093 46.9342V61.048Z" fill="#FDB659"/>
<path d="M40.6274 48.4314C41.8262 48.4314 42.5836 47.1484 42.0111 46.095C38.0975 38.8904 30.4651 33.999 21.6894 33.999C12.9138 33.999 5.28197 38.8904 1.36779 46.095C0.795887 47.1484 1.55272 48.4314 2.75145 48.4314H40.6274Z" fill="#1FC974"/>
<path d="M75.3131 63.4827C75.3131 70.1306 69.9243 75.5194 63.2764 75.5194C56.629 75.5194 51.2402 70.1306 51.2402 63.4827C51.2402 56.8353 56.629 51.4465 63.2764 51.4465C69.9243 51.4465 75.3131 56.8353 75.3131 63.4827Z" fill="#618BAA"/>
<path d="M63.2764 70.2112C59.5666 70.2112 56.5485 67.193 56.5485 63.4827C56.5485 59.7729 59.5666 56.7548 63.2764 56.7548C66.9867 56.7548 70.0049 59.7729 70.0049 63.4827C70.0049 67.193 66.9867 70.2112 63.2764 70.2112Z" fill="#4E7693"/>
<path d="M68.1299 63.4827C68.1299 66.1633 65.957 68.3362 63.2764 68.3362C60.5963 68.3362 58.4235 66.1633 58.4235 63.4827C58.4235 60.8026 60.5963 58.6298 63.2764 58.6298C65.957 58.6298 68.1299 60.8026 68.1299 63.4827Z" fill="#FEDE93"/>
<path d="M40.0964 57.1124C40.0964 67.2784 31.8555 75.5194 21.6895 75.5194C11.524 75.5194 3.28308 67.2784 3.28308 57.1124C3.28308 46.9464 11.524 38.7054 21.6895 38.7054C31.8555 38.7054 40.0964 46.9464 40.0964 57.1124Z" fill="#618BAA"/>
<path d="M21.6895 69.1656C15.0433 69.1656 9.63684 63.7585 9.63684 57.1124C9.63684 50.4663 15.0433 45.0592 21.6895 45.0592C28.3356 45.0592 33.7427 50.4663 33.7427 57.1124C33.7427 63.7585 28.3356 69.1656 21.6895 69.1656Z" fill="#4E7693"/>
<path d="M31.8677 57.1124C31.8677 62.7338 27.3108 67.2906 21.6895 67.2906C16.0687 67.2906 11.5118 62.7338 11.5118 57.1124C11.5118 51.4911 16.0687 46.9342 21.6895 46.9342C27.3108 46.9342 31.8677 51.4911 31.8677 57.1124Z" fill="#FEDE93"/>
<path d="M51.2402 45.3571H46.9092V6.7749C46.9092 5.57861 47.879 4.60938 49.0747 4.60938C50.271 4.60938 51.2402 5.57861 51.2402 6.7749V45.3571Z" fill="#618BAA"/>
<path d="M73.7769 37.0673L66.3435 35.5426C65.7093 35.4132 65.0898 35.8215 64.9598 36.4557C64.8298 37.0892 65.2381 37.7087 65.8723 37.8387L73.3063 39.3634C75.8271 39.8798 77.6563 42.1228 77.6563 44.6954V55.9406H74.1102C71.7206 52.5189 67.757 50.2747 63.2764 50.2747C60.1819 50.2747 57.3353 51.347 55.0812 53.136V46.9342C55.0812 45.4456 53.8911 44.2322 52.4122 44.1895V35.0787L60.5323 36.7438C60.6116 36.7596 60.691 36.7676 60.7685 36.7676C61.3135 36.7676 61.8018 36.3855 61.9153 35.8313C62.0454 35.1971 61.637 34.5776 61.0029 34.4476L52.4122 32.6862V6.7749C52.4122 4.93469 50.915 3.4375 49.0748 3.4375C47.2346 3.4375 45.7374 4.93469 45.7374 6.7749V9.92859H20.3388C16.9898 9.92859 14.2652 12.6532 14.2652 16.0022V22.7069C14.2652 23.3545 14.7901 23.8788 15.4371 23.8788C16.084 23.8788 16.6089 23.3545 16.6089 22.7069V16.0022C16.6089 13.9453 18.2819 12.2723 20.3388 12.2723H45.7374V15.4236H23.252C21.7444 15.4236 20.5176 16.6504 20.5176 18.158V32.8589C19.1919 32.9224 17.8852 33.0927 16.6089 33.3655V28.0469C16.6089 27.3999 16.084 26.875 15.4371 26.875C14.7901 26.875 14.2652 27.3999 14.2652 28.0469V33.9899C8.40092 35.8728 3.37285 39.9493 0.338178 45.5353C-0.130572 46.3983 -0.111041 47.417 0.390669 48.2605C0.890547 49.101 1.77312 49.6027 2.75151 49.6027H3.60966C2.6447 51.9165 2.11125 54.4531 2.11125 57.1124C2.11125 67.9077 10.8942 76.6907 21.6895 76.6907C25.7819 76.6907 29.7016 75.4413 33.0256 73.0774C33.5529 72.702 33.6762 71.9708 33.3008 71.4435C32.9261 70.9161 32.1943 70.7922 31.6669 71.1676C28.7421 73.2477 25.2924 74.3475 21.6901 74.3475C12.1863 74.3475 4.455 66.6156 4.455 57.1124C4.455 47.6093 12.1863 39.8773 21.6901 39.8773C31.1933 39.8773 38.9252 47.6093 38.9252 57.1124C38.9252 60.993 37.6655 64.6576 35.2826 67.7094C34.8841 68.2196 34.975 68.9557 35.4853 69.3542C35.9949 69.7522 36.7316 69.6613 37.1296 69.1516C38.7623 67.0612 39.9262 64.7168 40.597 62.2198H50.1301C50.0904 62.6361 50.0684 63.0566 50.0684 63.4827C50.0684 70.766 55.9937 76.6913 63.277 76.6913C70.5598 76.6913 76.4851 70.766 76.4851 63.4827C76.4851 61.6382 76.1036 59.881 75.4175 58.2843H78.8282C79.4758 58.2843 80.0001 57.7594 80.0001 57.1124V44.6954C80.0001 41.015 77.3829 37.8064 73.7769 37.0673ZM49.0748 5.78125C49.6229 5.78125 50.0684 6.22681 50.0684 6.7749V44.1852H48.0811V6.7749C48.0811 6.22681 48.5267 5.78125 49.0748 5.78125ZM45.7374 44.1852H42.2492C39.5923 39.9634 35.7471 36.7218 31.2861 34.8022V17.7673H45.738V44.1852H45.7374ZM23.252 17.7673H28.9423V33.9337C26.9922 33.324 24.9512 32.959 22.8614 32.8589V18.158C22.8614 17.9425 23.0366 17.7673 23.252 17.7673ZM21.6895 37.5336C14.4843 37.5336 8.17632 41.4471 4.77727 47.2595H2.75151C2.55192 47.2595 2.44877 47.1356 2.40483 47.0624C2.36027 46.9873 2.29985 46.8347 2.39751 46.6541C6.24577 39.5709 13.6377 35.1709 21.6895 35.1709C29.7413 35.1709 37.1338 39.5709 40.9815 46.6541C41.0792 46.8341 41.0193 46.9873 40.9742 47.0624C40.9308 47.1356 40.8277 47.2595 40.6275 47.2595H38.6024C35.2033 41.4471 28.8953 37.5336 21.6895 37.5336ZM41.0731 59.8761C41.2 58.9685 41.2684 58.0469 41.2684 57.1124C41.2684 54.4531 40.7343 51.9171 39.77 49.6033H40.6275C41.6059 49.6033 42.4891 49.1016 42.989 48.2605C43.3069 47.7258 43.4302 47.121 43.3588 46.5289H48.7946V53.5681H47.6008C46.9538 53.5681 46.4289 54.0924 46.4289 54.74C46.4289 55.387 46.9538 55.9119 47.6008 55.9119H49.9665C50.6135 55.9119 51.1384 55.387 51.1384 54.74V46.5289H52.3322C52.5556 46.5289 52.7375 46.7108 52.7375 46.9342V55.5322C51.7652 56.8176 51.0248 58.2867 50.5732 59.8761H41.0731ZM63.2764 74.3475C57.2858 74.3475 52.4122 69.4739 52.4122 63.4827C52.4122 57.4921 57.2858 52.6184 63.2764 52.6184C69.2676 52.6184 74.1413 57.4921 74.1413 63.4827C74.1413 69.4739 69.2676 74.3475 63.2764 74.3475Z" fill="black"/>
<path d="M63.2764 57.4579C59.9542 57.4579 57.2516 60.1611 57.2516 63.4833C57.2516 66.8054 59.9542 69.5081 63.2764 69.5081C66.5985 69.5081 69.3018 66.8054 69.3018 63.4833C69.3018 60.1611 66.5985 57.4579 63.2764 57.4579ZM63.2764 67.1643C61.2469 67.1643 59.5953 65.5127 59.5953 63.4827C59.5953 61.4532 61.2469 59.8016 63.2764 59.8016C65.3064 59.8016 66.958 61.4532 66.958 63.4827C66.958 65.5127 65.3064 67.1643 63.2764 67.1643Z" fill="black"/>
<path d="M65.8166 44.2407H69.5233C70.1703 44.2407 70.6952 43.7164 70.6952 43.0688C70.6952 42.4219 70.1703 41.897 69.5233 41.897H65.8166C65.1697 41.897 64.6448 42.4219 64.6448 43.0688C64.6448 43.7164 65.1697 44.2407 65.8166 44.2407Z" fill="black"/>
<path d="M65.8166 47.5922H69.5233C70.1703 47.5922 70.6952 47.0673 70.6952 46.4203C70.6952 45.7733 70.1703 45.2484 69.5233 45.2484H65.8166C65.1697 45.2484 64.6448 45.7733 64.6448 46.4203C64.6448 47.0673 65.1697 47.5922 65.8166 47.5922Z" fill="black"/>
<path d="M59.2718 41.6052C59.9188 41.6052 60.4437 41.0809 60.4437 40.4333C60.4437 39.7864 59.9188 39.2615 59.2718 39.2615H57.8522C57.2052 39.2615 56.6803 39.7864 56.6803 40.4333V46.1047C56.6803 46.7523 57.2052 47.2766 57.8522 47.2766H59.2718C59.9188 47.2766 60.4437 46.7523 60.4437 46.1047C60.4437 45.4578 59.9188 44.9329 59.2718 44.9329H59.024V41.6052H59.2718Z" fill="black"/>
<path d="M10.34 57.1124C10.34 63.371 15.4315 68.4625 21.6895 68.4625C27.948 68.4625 33.0395 63.371 33.0395 57.1124C33.0395 50.8539 27.948 45.7623 21.6895 45.7623C15.4315 45.7623 10.34 50.8539 10.34 57.1124ZM30.6958 57.1124C30.6958 62.0782 26.6559 66.1188 21.6895 66.1188C16.7236 66.1188 12.6837 62.0782 12.6837 57.1124C12.6837 52.1466 16.7236 48.1061 21.6895 48.1061C26.6559 48.1061 30.6958 52.1466 30.6958 57.1124Z" fill="black"/>
</g>
<defs>
<clipPath id="clip0_588_10516">
<rect width="80.0001" height="80" fill="white"/>
</clipPath>
</defs>
</svg>
