<svg width="177" height="39" viewBox="0 0 177 39" fill="none" xmlns="http://www.w3.org/2000/svg">
<path d="M118.773 3.59705H112.745V34.0303H118.773V3.59705Z" fill="#A3C73A"/>
<path d="M82.2959 25.0376C82.2959 22.3398 81.5515 20.1153 79.9185 18.5771C78.6218 17.3701 76.8447 16.6129 74.0111 16.2342L70.361 15.7136C69.1122 15.5479 68.1037 15.0746 67.5033 14.5067C66.8549 13.9151 66.5908 13.0868 66.5908 12.3295C66.5908 10.2233 68.1517 8.47209 71.3696 8.47209C73.4107 8.47209 75.7401 8.73241 77.7092 10.5783L81.5275 6.86287C78.8859 4.33071 75.8121 3.31311 71.5617 3.31311C64.8858 3.31311 60.8034 7.12318 60.8034 12.5425C60.8034 15.0983 61.5478 17.0625 63.0127 18.5297C64.4055 19.855 66.3506 20.6596 68.9922 21.0619L72.7143 21.5825C74.1552 21.7955 74.8516 22.1032 75.4519 22.6475C76.1003 23.2391 76.4125 24.1384 76.4125 25.2033C76.4125 27.6408 74.5154 28.966 70.9373 28.966C68.0796 28.966 65.4381 28.3271 63.469 26.4102L59.5547 30.2676C62.5804 33.2967 66.1585 34.2907 70.8412 34.2907C77.301 34.267 82.2959 30.9539 82.2959 25.0376ZM107.847 8.89806V3.59709H85.6819V8.89806H93.7506V34.0303H99.7781V8.89806H107.847Z" fill="#3B3B3B"/>
<path fill-rule="evenodd" clip-rule="evenodd" d="M19.4514 0.0473633C30.1136 0.0473633 38.7826 8.56678 38.7826 19.0977C38.7826 29.605 30.1376 38.1481 19.4514 38.1481C8.78916 38.1481 0.120117 29.6287 0.120117 19.0977C0.144131 8.56678 8.78916 0.0473633 19.4514 0.0473633Z" fill="#F6E82B"/>
<path fill-rule="evenodd" clip-rule="evenodd" d="M19.4518 12.7081C19.4518 8.77973 16.2099 3.28944 10.7587 2.08252C4.46705 5.20631 0.144531 11.6669 0.144531 19.0977C0.144531 29.605 8.78956 38.148 19.4518 38.148V12.7081Z" fill="#CDD234"/>
<path fill-rule="evenodd" clip-rule="evenodd" d="M19.4756 12.7081C19.4756 8.77973 22.7175 3.28944 28.1686 2.08252C34.4843 5.20631 38.8068 11.6669 38.8068 19.0977C38.8068 29.605 30.1618 38.148 19.4756 38.148V12.7081Z" fill="#CDD234"/>
<path fill-rule="evenodd" clip-rule="evenodd" d="M3.65017 8.14087C12.8956 10.389 24.014 21.5353 19.4514 38.1245C8.78916 38.1245 0.120117 29.6051 0.120117 19.0741C0.144131 15.0037 1.44089 11.241 3.65017 8.14087Z" fill="#A3C73A"/>
<path fill-rule="evenodd" clip-rule="evenodd" d="M35.2525 8.14087C26.0312 10.389 14.9127 21.5353 19.4513 38.1245C30.1135 38.1245 38.7826 29.6051 38.7826 19.0741C38.7826 15.0037 37.4858 11.241 35.2525 8.14087Z" fill="#A3C73A"/>
<path fill-rule="evenodd" clip-rule="evenodd" d="M0.264601 17.0388C8.06914 19.216 19.2356 22.3398 19.4758 38.1244C8.81358 38.1244 0.144531 29.605 0.144531 19.074C0.144531 18.3877 0.168545 17.7014 0.264601 17.0388Z" fill="#8CBC47"/>
<path fill-rule="evenodd" clip-rule="evenodd" d="M38.6624 17.0388C30.8578 19.216 19.6913 22.3398 19.4512 38.1244C30.1134 38.1244 38.7824 29.605 38.7824 19.074C38.7824 18.3877 38.7344 17.7014 38.6624 17.0388Z" fill="#8CBC47"/>
<path fill-rule="evenodd" clip-rule="evenodd" d="M1.24902 25.4636C8.76539 26.4812 15.2011 29.9127 19.4516 38.1244C11.0707 38.1244 3.91457 32.8471 1.24902 25.4636Z" fill="#557745"/>
<path fill-rule="evenodd" clip-rule="evenodd" d="M37.6538 25.4636C30.1374 26.4812 23.7016 29.9127 19.4512 38.1244C27.8561 38.1244 35.0122 32.8471 37.6538 25.4636Z" fill="#557745"/>
<path d="M133.782 23.2391H130.275V34.054H128.979V23.2391H125.473V22.1031H133.782V23.2391Z" fill="#3B3B3B"/>
<path d="M144.54 34.054H143.028L140.266 28.753H137.36V34.054H136.063V22.0795H140.722C141.779 22.0795 142.667 22.3871 143.316 22.9787C143.988 23.5704 144.324 24.3986 144.324 25.4162C144.324 26.2682 144.084 26.9781 143.604 27.5224C143.124 28.0904 142.475 28.4454 141.683 28.611L144.54 34.054ZM142.355 27.0491C142.787 26.6705 143.004 26.1262 143.004 25.4399C143.004 24.73 142.787 24.1857 142.331 23.807C141.899 23.4284 141.299 23.2391 140.578 23.2391H137.336V27.6171H140.578C141.323 27.6171 141.923 27.4278 142.355 27.0491Z" fill="#3B3B3B"/>
<path d="M155.706 34.054H154.313L153.353 31.3562H148.046L147.085 34.054H145.692L150.159 22.0795H151.24L155.706 34.054ZM152.969 30.2439L150.711 23.9253L148.43 30.2439H152.969Z" fill="#3B3B3B"/>
<path d="M166.057 26.2209C166.081 26.6468 166.081 27.2621 166.081 28.0667C166.081 28.8713 166.081 29.4866 166.057 29.9126C166.033 30.3386 165.937 30.8355 165.768 31.4035C165.6 31.9715 165.336 32.4211 165.024 32.7997C164.232 33.6517 163.175 34.054 161.83 34.054H157.676V22.0795H161.83C163.175 22.0795 164.232 22.5054 165.024 23.3337C165.36 23.6887 165.6 24.162 165.768 24.73C165.937 25.2979 166.033 25.7949 166.057 26.2209ZM164.76 29.6996C164.784 29.321 164.784 28.7767 164.784 28.0667C164.784 27.3568 164.784 26.8125 164.76 26.4338C164.736 26.0552 164.664 25.6292 164.544 25.1796C164.424 24.73 164.232 24.3513 163.991 24.1147C163.463 23.523 162.671 23.2391 161.614 23.2391H158.973V32.9181H161.614C162.671 32.9181 163.463 32.6341 163.991 32.0424C164.232 31.7821 164.424 31.4272 164.544 30.9775C164.664 30.5042 164.736 30.0783 164.76 29.6996Z" fill="#3B3B3B"/>
<path d="M176.67 34.054H169.13V22.0795H176.67V23.2154H170.427V27.4514H175.734V28.5874H170.427V32.8944H176.67V34.054Z" fill="#3B3B3B"/>
<path d="M27.4244 29.321C27.4004 29.179 27.2563 29.0607 27.0882 29.0607H24.6628L24.4467 27.9958C24.4227 27.8538 24.2786 27.7355 24.1105 27.7355H21.0607C20.8686 27.7355 20.7245 27.8775 20.7245 28.0668C20.7245 28.2561 20.8686 28.3981 21.0607 28.3981H23.8463L24.0625 29.463C24.0865 29.605 24.2306 29.7233 24.3987 29.7233H26.8241L26.9682 30.4096H22.1894C21.9973 29.7707 21.3249 29.3684 20.6525 29.5577C19.9801 29.7233 19.5959 30.4096 19.764 31.0722C19.9321 31.7349 20.6285 32.1135 21.3009 31.9479C21.7331 31.8295 22.0693 31.4982 22.1894 31.0722H27.3764C27.4725 31.0722 27.5685 31.0249 27.6406 30.9539C27.7126 30.8829 27.7366 30.7883 27.7126 30.6699L27.4244 29.321ZM21.1328 31.2616C20.8446 31.3326 20.5324 31.1669 20.4364 30.8593C20.3643 30.5753 20.5324 30.2676 20.8446 30.173C21.1328 30.102 21.4449 30.2676 21.541 30.5753C21.589 30.8829 21.4209 31.1906 21.1328 31.2616Z" fill="white"/>
<path d="M20.052 28.3981C20.2441 28.3981 20.3882 28.2561 20.3882 28.0668V19.145L21.9972 18.8137C22.1412 18.7901 22.2613 18.6481 22.2613 18.4824V16.4709C22.9337 16.2816 23.3179 15.6189 23.1498 14.9563C22.9817 14.2937 22.2853 13.9151 21.6129 14.0807C20.9405 14.2464 20.5563 14.9327 20.7244 15.5953C20.8445 16.0212 21.1807 16.3526 21.5889 16.4472V18.2221L20.3642 18.4824V12.9448L21.3488 12.6845C21.6369 13.1578 22.1893 13.3944 22.7416 13.2524C23.414 13.0868 23.7982 12.4005 23.6301 11.7379C23.462 11.0753 22.7656 10.6966 22.0932 10.8623C21.5409 11.0043 21.1807 11.5012 21.1807 12.0455L19.956 12.3768C19.8119 12.4242 19.7158 12.5425 19.7158 12.6845C19.7158 12.6845 19.7158 12.6845 19.7158 12.7081V28.0668C19.7158 28.2561 19.8599 28.3981 20.052 28.3981ZM21.3968 15.4296C21.3248 15.1456 21.4929 14.838 21.805 14.7433C22.0932 14.6723 22.4054 14.838 22.5014 15.1456C22.5735 15.4296 22.4054 15.7373 22.0932 15.8319C21.781 15.9029 21.4688 15.7373 21.3968 15.4296ZM22.2853 11.5249C22.5735 11.4539 22.8857 11.6196 22.9817 11.9272C23.0538 12.2112 22.8857 12.5188 22.5735 12.6135C22.2853 12.6845 21.9731 12.5188 21.8771 12.2112C21.805 11.9272 21.9972 11.6196 22.2853 11.5249Z" fill="white"/>
<path d="M19.7875 11.0043C20.4599 10.8386 20.8441 10.1523 20.676 9.48969C20.556 9.06372 20.2198 8.73241 19.8115 8.63775V7.66748C20.4599 7.47816 20.8681 6.81554 20.676 6.15292C20.5079 5.4903 19.8115 5.11165 19.1391 5.27731C18.4667 5.44296 18.0825 6.12925 18.2506 6.79187C18.3707 7.21784 18.7069 7.54915 19.1151 7.64381V8.61408C18.6829 8.73241 18.3707 9.04005 18.2506 9.44236H8.81313C8.74109 9.41869 8.69306 9.41869 8.62102 9.44236C8.54898 9.46602 8.50095 9.48969 8.45292 9.53702L7.5644 10.0577L6.98807 9.06372C6.89201 8.89806 6.6999 8.85073 6.5318 8.94539C6.36371 9.04005 6.31568 9.22937 6.41173 9.39503L7.10814 10.6019C7.10814 10.6256 7.08413 10.6256 7.08413 10.6493L2.97774 21.6062H2.32936C2.30535 21.6062 2.30535 21.6062 2.28133 21.6062C2.25732 21.6062 2.25732 21.6062 2.2333 21.6062H2.20929C2.18528 21.6062 2.16126 21.6299 2.16126 21.6299L2.13725 21.6535C2.11323 21.6535 2.11323 21.6772 2.08922 21.6772L2.06521 21.7009C2.06521 21.7482 2.04119 21.7719 2.04119 21.7719C2.04119 21.7719 2.04119 21.7955 2.01718 21.8192C2.01718 21.8428 1.99316 21.8428 1.99316 21.8665C1.99316 21.8902 1.99316 21.8902 1.99316 21.9138C1.99316 21.9375 1.99316 21.9375 1.99316 21.9612C1.99316 21.9848 1.99316 22.0085 1.99316 22.0085V22.0322C1.99316 22.0558 2.01718 22.0795 2.01718 22.1032V22.1268C2.5695 23.0498 3.57809 24.091 4.65871 24.091H5.23505C5.42716 24.091 8.09271 24.091 8.28482 24.091H9.60559H10.0859C11.1665 24.091 12.1991 23.0498 12.7274 22.1268C12.7514 22.0795 12.7754 22.0085 12.7754 21.9612C12.7754 21.9138 12.7514 21.8428 12.7274 21.7955C12.6794 21.7009 12.5593 21.6299 12.4392 21.6299H11.7909L7.70849 10.7203L8.78912 10.105H18.2506V10.1286C18.2986 10.318 18.4187 10.5073 18.5388 10.6256C18.5388 10.6493 18.5388 10.6729 18.5388 10.6729V27.7118H14.7926C14.6245 27.7118 14.5044 27.8301 14.4564 27.9721L14.2403 29.037H11.8389C11.6708 29.037 11.5507 29.1553 11.5027 29.2973L11.2145 30.6226C11.1905 30.7172 11.2145 30.8119 11.2866 30.9066C11.3586 30.9776 11.4547 31.0249 11.5507 31.0249H18.875C19.0671 31.0249 19.2112 30.8829 19.2112 30.6936C19.2112 30.5043 19.2112 28.2087 19.2112 28.0194V11.0043C19.3793 11.0516 19.5954 11.0516 19.7875 11.0043ZM5.42716 21.6062H5.23505H3.67414L7.37229 11.6905L11.0704 21.6062H5.42716ZM18.923 6.62622C18.851 6.34224 19.0191 6.03459 19.3312 5.93993C19.6194 5.86894 19.9316 6.03459 20.0277 6.34224C20.0997 6.62622 19.9316 6.93386 19.6194 7.02852C19.3072 7.09952 18.9951 6.9102 18.923 6.62622ZM18.923 9.96299C18.851 9.67901 19.0191 9.37136 19.3312 9.2767C19.6194 9.20571 19.9316 9.37136 20.0277 9.67901C20.0997 9.96299 19.9316 10.2706 19.6194 10.3653C19.3072 10.4126 18.9951 10.247 18.923 9.96299Z" fill="white"/>
<path d="M21.7083 10.105H30.3293C30.4494 10.531 30.7615 10.8623 31.1938 10.9806L28.192 19.003C28.048 18.9794 27.9039 19.003 27.7598 19.0267C27.0874 19.1924 26.7032 19.8787 26.8713 20.5413C27.0394 21.2039 27.7358 21.5825 28.4082 21.4169C29.0806 21.2512 29.4648 20.5649 29.2967 19.9023C29.2246 19.6183 29.0565 19.3817 28.8164 19.2397L31.554 11.9509L34.94 21.0619C34.988 21.2039 35.1081 21.2749 35.2522 21.2749C35.3002 21.2749 35.3242 21.2749 35.3722 21.2512C35.5403 21.1802 35.6364 20.9909 35.5643 20.8253L31.8902 10.9569C32.3945 10.8149 32.7787 10.3416 32.7787 9.77367C32.7787 9.08739 32.2264 8.54309 31.53 8.54309C30.9777 8.54309 30.4974 8.92173 30.3293 9.4187H21.7083C21.5162 9.4187 21.3721 9.56069 21.3721 9.75001C21.3721 9.963 21.5162 10.105 21.7083 10.105ZM28.2161 20.7543C27.9279 20.8253 27.6157 20.6596 27.5196 20.352C27.4476 20.068 27.6157 19.7603 27.9279 19.6657C28.2161 19.5947 28.5282 19.7603 28.6243 20.068C28.6963 20.3756 28.5042 20.6833 28.2161 20.7543ZM31.53 9.25304C31.8422 9.25304 32.0823 9.51336 32.0823 9.79734C32.0823 10.0813 31.8182 10.3416 31.53 10.3416C31.2178 10.3416 30.9777 10.0813 30.9777 9.79734C30.9777 9.51336 31.2178 9.25304 31.53 9.25304Z" fill="white"/>
<path d="M36.8853 22.0322C36.8373 21.9375 36.7172 21.8665 36.5972 21.8665H34.2438C34.2438 21.8665 34.2438 21.8665 34.2438 21.8429C34.0757 21.1802 33.3793 20.8016 32.7069 20.9673C32.0345 21.1329 31.6503 21.8192 31.8184 22.4818C31.9865 23.1444 32.6829 23.5231 33.3553 23.3574C33.7875 23.2391 34.0997 22.9078 34.2198 22.5291H35.9248C35.4685 22.9551 34.8682 23.6887 34.2438 23.6651H32.4668H32.4427H32.4187H28.8406C28.2163 23.6651 27.5919 22.9314 27.1597 22.5055H30.8818C31.0739 22.5055 31.218 22.3635 31.218 22.1742C31.218 21.9848 31.0739 21.8429 30.8818 21.8429H26.4873C26.3672 21.8429 26.2471 21.9139 26.1991 22.0085C26.1511 22.1032 26.1511 22.2452 26.1991 22.3398C26.7514 23.2628 27.76 24.304 28.8406 24.304H32.4187H32.4427H32.4668H33.7635H34.2438C35.3244 24.304 36.357 23.2628 36.8853 22.3398C36.9574 22.2452 36.9574 22.1268 36.8853 22.0322ZM33.1632 22.6948C32.875 22.7658 32.5628 22.6001 32.4668 22.2925C32.3947 22.0085 32.5628 21.7009 32.875 21.6062C33.1632 21.5352 33.4753 21.7009 33.5714 22.0085C33.6434 22.3162 33.4753 22.6238 33.1632 22.6948Z" fill="white"/>
<path d="M135.631 18.0091H134.238L133.253 15.2639H127.874L126.865 18.0091H125.473L130.011 5.8689H131.116L135.631 18.0091ZM132.845 14.1517L130.564 7.73844L128.258 14.1517H132.845Z" fill="#3B3B3B"/>
<path d="M145.428 13.6073C145.428 14.3173 145.356 14.9089 145.188 15.3822C145.044 15.8555 144.756 16.3052 144.372 16.7311C143.507 17.6541 142.402 18.1274 141.082 18.1274C139.833 18.1274 138.8 17.7251 138.008 16.9441C137.456 16.3998 137.119 15.8318 136.999 15.1929C136.855 14.5539 136.783 13.489 136.783 11.9744C136.783 10.4599 136.855 9.39496 136.999 8.756C137.143 8.11704 137.48 7.52542 138.008 7.00479C138.824 6.20017 139.833 5.82153 141.082 5.82153C142.234 5.82153 143.171 6.15284 143.963 6.83913C144.732 7.52542 145.212 8.37736 145.38 9.46595H144.059C143.891 8.685 143.531 8.09338 143.003 7.64374C142.475 7.21777 141.826 6.98112 141.058 6.98112C140.193 6.98112 139.473 7.2651 138.92 7.83306C138.56 8.2117 138.32 8.66134 138.2 9.20564C138.104 9.74993 138.056 10.6729 138.056 11.9981C138.056 13.3234 138.104 14.2463 138.2 14.7906C138.296 15.3349 138.536 15.7845 138.92 16.1632C139.473 16.7311 140.193 17.0151 141.058 17.0151C142.042 17.0151 142.811 16.6601 143.387 15.9738C143.843 15.4059 144.083 14.6723 144.083 13.773V12.8264H141.058V11.7141H145.404V13.6073H145.428Z" fill="#3B3B3B"/>
<path d="M156.907 18.0091H155.37L152.561 12.6134H149.607V18.0091H148.286V5.8689H153.017C154.098 5.8689 154.986 6.17654 155.658 6.79183C156.331 7.40712 156.667 8.21174 156.667 9.253C156.667 10.1049 156.427 10.8386 155.947 11.4065C155.466 11.9745 154.818 12.3531 154.001 12.5188L156.907 18.0091ZM154.674 10.9096C155.106 10.5309 155.346 9.98661 155.346 9.27666C155.346 8.56671 155.13 7.99875 154.674 7.62011C154.218 7.24147 153.641 7.05215 152.897 7.05215H149.607V11.5012H152.897C153.641 11.4775 154.242 11.2882 154.674 10.9096Z" fill="#3B3B3B"/>
<path d="M167.305 8.73242C167.449 9.37138 167.521 10.4363 167.521 11.9272C167.521 13.4181 167.449 14.483 167.305 15.122C167.161 15.7609 166.824 16.3526 166.272 16.8969C165.456 17.7015 164.447 18.0801 163.222 18.0801C161.974 18.0801 160.941 17.6778 160.149 16.8969C159.596 16.3526 159.26 15.7846 159.14 15.1456C158.996 14.5067 158.924 13.4418 158.924 11.9272C158.924 10.4126 158.996 9.34771 159.14 8.70876C159.284 8.0698 159.62 7.47818 160.149 6.95754C160.965 6.15293 161.974 5.77429 163.222 5.77429C164.447 5.77429 165.48 6.1766 166.272 6.95754C166.824 7.50184 167.161 8.09347 167.305 8.73242ZM166.032 14.7197C166.128 14.1754 166.176 13.2524 166.176 11.9272C166.176 10.602 166.128 9.67902 166.032 9.13473C165.936 8.59043 165.696 8.1408 165.312 7.76216C164.735 7.19419 164.015 6.91021 163.174 6.91021C162.334 6.91021 161.613 7.19419 161.037 7.76216C160.677 8.1408 160.437 8.59043 160.317 9.13473C160.221 9.67902 160.173 10.602 160.173 11.9272C160.173 13.2524 160.221 14.1754 160.317 14.7197C160.413 15.264 160.653 15.7136 161.037 16.0923C161.613 16.6602 162.334 16.9442 163.174 16.9442C164.015 16.9442 164.735 16.6602 165.312 16.0923C165.696 15.7373 165.936 15.264 166.032 14.7197Z" fill="#3B3B3B"/>
</svg>
