<svg width="177" height="39" viewBox="0 0 177 39" fill="none" xmlns="http://www.w3.org/2000/svg">
<path fill-rule="evenodd" clip-rule="evenodd" d="M21.3844 0C32.6275 0 41.7689 8.7205 41.7689 19.5C41.7689 30.2553 32.6528 39 21.3844 39C10.1413 39 1 30.2795 1 19.5C1.02532 8.7205 10.1413 0 21.3844 0Z" fill="#F6E82B"/>
<path fill-rule="evenodd" clip-rule="evenodd" d="M21.3844 12.9596C21.3844 8.9385 17.9659 3.31863 12.2177 2.08322C5.58328 5.28074 1.02527 11.8938 1.02527 19.5C1.02527 30.2553 10.1413 39 21.3844 39V12.9596V12.9596Z" fill="#CDD234"/>
<path fill-rule="evenodd" clip-rule="evenodd" d="M21.4098 12.9596C21.4098 8.9385 24.8283 3.31863 30.5765 2.08322C37.2362 5.28074 41.7942 11.8938 41.7942 19.5C41.7942 30.2553 32.6782 39 21.4098 39C21.4098 39 21.4098 12.9596 21.4098 12.9596Z" fill="#CDD234"/>
<path fill-rule="evenodd" clip-rule="evenodd" d="M4.72238 8.28448C14.4715 10.5857 26.1957 21.995 21.3844 38.9758C10.1413 38.9758 1 30.2553 1 19.4758C1.02532 15.3093 2.39273 11.4578 4.72238 8.28448Z" fill="#A3C73A"/>
<path fill-rule="evenodd" clip-rule="evenodd" d="M38.0465 8.28448C28.3227 10.5857 16.5985 21.995 21.3844 38.9758C32.6275 38.9758 41.7688 30.2553 41.7688 19.4758C41.7688 15.3093 40.4014 11.4578 38.0465 8.28448Z" fill="#A3C73A"/>
<path fill-rule="evenodd" clip-rule="evenodd" d="M1.15188 17.3925C9.38162 19.6211 21.1565 22.8186 21.4097 38.9758C10.1666 38.9758 1.02527 30.2553 1.02527 19.4758C1.02527 18.7733 1.05059 18.0708 1.15188 17.3925Z" fill="#8CBC47"/>
<path fill-rule="evenodd" clip-rule="evenodd" d="M41.6422 17.3925C33.4125 19.6211 21.6376 22.8186 21.3844 38.9758C32.6275 38.9758 41.7688 30.2553 41.7688 19.4758C41.7688 18.7733 41.7182 18.0708 41.6422 17.3925Z" fill="#8CBC47"/>
<path fill-rule="evenodd" clip-rule="evenodd" d="M2.19019 26.0161C10.1161 27.0578 16.9024 30.5702 21.3845 38.9758C12.547 38.9758 5.00096 33.5739 2.19019 26.0161Z" fill="#557745"/>
<path fill-rule="evenodd" clip-rule="evenodd" d="M40.5787 26.0161C32.6528 27.0578 25.8664 30.5702 21.3844 38.9758C30.2472 38.9758 37.7932 33.5739 40.5787 26.0161Z" fill="#557745"/>
<path d="M29.7914 29.9646C29.7661 29.8193 29.6142 29.6981 29.4369 29.6981H26.8794L26.6515 28.6081C26.6261 28.4627 26.4742 28.3416 26.297 28.3416H23.081C22.8784 28.3416 22.7265 28.487 22.7265 28.6807C22.7265 28.8745 22.8784 29.0199 23.081 29.0199H26.0184L26.2463 30.1099C26.2716 30.2553 26.4236 30.3764 26.6008 30.3764H29.1584L29.3103 31.0789H24.2712C24.0686 30.4248 23.3596 30.013 22.6505 30.2068C21.9415 30.3764 21.5364 31.0789 21.7136 31.7571C21.8909 32.4354 22.6252 32.823 23.3342 32.6534C23.79 32.5323 24.1446 32.1932 24.2712 31.7571H29.7408C29.8421 31.7571 29.9434 31.7087 30.0193 31.636C30.0953 31.5634 30.1206 31.4665 30.0953 31.3453L29.7914 29.9646ZM23.157 31.9509C22.8531 32.0236 22.5239 31.854 22.4226 31.5391C22.3467 31.2484 22.5239 30.9335 22.8531 30.8366C23.157 30.764 23.4862 30.9335 23.5875 31.2484C23.6381 31.5634 23.4609 31.8783 23.157 31.9509Z" fill="white"/>
<path d="M22.0175 29.0199C22.2201 29.0199 22.372 28.8745 22.372 28.6807V19.5484L24.0686 19.2093C24.2205 19.1851 24.3471 19.0398 24.3471 18.8702V16.8112C25.0562 16.6174 25.4613 15.9391 25.2841 15.2609C25.1068 14.5826 24.3724 14.195 23.6634 14.3646C22.9544 14.5342 22.5492 15.2366 22.7265 15.9149C22.8531 16.3509 23.2076 16.6901 23.6381 16.787V18.6037L22.3467 18.8702V13.2019L23.3849 12.9354C23.6887 13.4199 24.2712 13.6621 24.8536 13.5168C25.5626 13.3472 25.9678 12.6447 25.7905 11.9665C25.6132 11.2882 24.8789 10.9006 24.1699 11.0702C23.5875 11.2155 23.2076 11.7242 23.2076 12.2814L21.9162 12.6205C21.7643 12.6689 21.663 12.7901 21.663 12.9354C21.663 12.9354 21.663 12.9354 21.663 12.9596V28.6807C21.663 28.8745 21.8149 29.0199 22.0175 29.0199ZM23.4355 15.7453C23.3596 15.4547 23.5368 15.1398 23.866 15.0429C24.1699 14.9702 24.4991 15.1398 24.6003 15.4547C24.6763 15.7453 24.4991 16.0602 24.1699 16.1571C23.8407 16.2298 23.5115 16.0602 23.4355 15.7453ZM24.3724 11.7484C24.6763 11.6758 25.0055 11.8453 25.1068 12.1602C25.1828 12.4509 25.0055 12.7658 24.6763 12.8627C24.3724 12.9354 24.0433 12.7658 23.942 12.4509C23.866 12.1602 24.0686 11.8453 24.3724 11.7484Z" fill="white"/>
<path d="M21.7389 11.2155C22.4479 11.046 22.8531 10.3435 22.6758 9.66522C22.5492 9.2292 22.1947 8.89007 21.7642 8.79317V7.8C22.4479 7.60621 22.8784 6.92795 22.6758 6.24969C22.4986 5.57143 21.7642 5.18385 21.0552 5.35342C20.3462 5.52299 19.941 6.22547 20.1183 6.90373C20.2449 7.33976 20.5994 7.67889 21.0299 7.77578V8.76895C20.5741 8.89007 20.2449 9.20497 20.1183 9.61677H10.1666C10.0907 9.59255 10.04 9.59255 9.96405 9.61677C9.88808 9.641 9.83744 9.66522 9.78679 9.71367L8.84987 10.2466L8.24213 9.2292C8.14084 9.05963 7.93826 9.01118 7.76101 9.10808C7.58375 9.20497 7.53311 9.39876 7.6344 9.56833L8.36874 10.8037C8.36874 10.828 8.34342 10.828 8.34342 10.8522L4.01331 22.0677H3.32961C3.30429 22.0677 3.30429 22.0677 3.27897 22.0677C3.25364 22.0677 3.25364 22.0677 3.22832 22.0677H3.203C3.17768 22.0677 3.15235 22.0919 3.15235 22.0919L3.12703 22.1162C3.10171 22.1162 3.10171 22.1404 3.07639 22.1404L3.05106 22.1646C3.05106 22.213 3.02574 22.2373 3.02574 22.2373C3.02574 22.2373 3.02574 22.2615 3.00042 22.2857C3.00042 22.3099 2.9751 22.3099 2.9751 22.3342C2.9751 22.3584 2.9751 22.3584 2.9751 22.3826C2.9751 22.4068 2.9751 22.4068 2.9751 22.4311C2.9751 22.4553 2.9751 22.4795 2.9751 22.4795V22.5037C2.9751 22.528 3.00042 22.5522 3.00042 22.5764V22.6006C3.58283 23.5453 4.64637 24.6112 5.78587 24.6112H6.39361C6.59618 24.6112 9.40696 24.6112 9.60953 24.6112H11.0023H11.5087C12.6482 24.6112 13.7371 23.5453 14.2942 22.6006C14.3195 22.5522 14.3448 22.4795 14.3448 22.4311C14.3448 22.3826 14.3195 22.3099 14.2942 22.2615C14.2435 22.1646 14.1169 22.0919 13.9903 22.0919H13.3066L9.0018 10.9248L10.1413 10.295H20.1183V10.3193C20.1689 10.513 20.2955 10.7068 20.4221 10.828C20.4221 10.8522 20.4221 10.8764 20.4221 10.8764V28.3174H16.4719C16.2946 28.3174 16.168 28.4385 16.1174 28.5839L15.8895 29.6739H13.3572C13.18 29.6739 13.0534 29.795 13.0027 29.9404L12.6989 31.2969C12.6735 31.3938 12.6989 31.4907 12.7748 31.5876C12.8508 31.6603 12.9521 31.7087 13.0534 31.7087H20.7767C20.9792 31.7087 21.1312 31.5634 21.1312 31.3696C21.1312 31.1758 21.1312 28.8261 21.1312 28.6323V11.2155C21.3084 11.264 21.5363 11.264 21.7389 11.2155ZM6.59618 22.0677H6.39361H4.74766L8.64729 11.918L12.5469 22.0677H6.59618ZM20.8273 6.73417C20.7513 6.44348 20.9286 6.12858 21.2578 6.03168C21.5616 5.95901 21.8908 6.12858 21.9921 6.44348C22.0681 6.73417 21.8908 7.04907 21.5617 7.14597C21.2325 7.21864 20.9033 7.02485 20.8273 6.73417ZM20.8273 10.1497C20.7513 9.85901 20.9286 9.5441 21.2578 9.44721C21.5616 9.37454 21.8908 9.5441 21.9921 9.85901C22.0681 10.1497 21.8908 10.4646 21.5617 10.5615C21.2325 10.6099 20.9033 10.4404 20.8273 10.1497Z" fill="white"/>
<path d="M23.7648 10.295H32.8555C32.9821 10.7311 33.3113 11.0702 33.7671 11.1913L30.6018 19.4031C30.4499 19.3789 30.2979 19.4031 30.146 19.4273C29.437 19.5969 29.0318 20.2994 29.2091 20.9777C29.3863 21.6559 30.1207 22.0435 30.8297 21.8739C31.5387 21.7044 31.9439 21.0019 31.7666 20.3236C31.6907 20.0329 31.5134 19.7907 31.2602 19.6454L34.1469 12.1845L37.7174 21.5106C37.768 21.6559 37.8946 21.7286 38.0466 21.7286C38.0972 21.7286 38.1225 21.7286 38.1732 21.7044C38.3504 21.6317 38.4517 21.4379 38.3757 21.2683L34.5014 11.1671C35.0332 11.0218 35.4384 10.5373 35.4384 9.95592C35.4384 9.25343 34.8559 8.69629 34.1216 8.69629C33.5392 8.69629 33.0327 9.08387 32.8555 9.59256H23.7648C23.5622 9.59256 23.4103 9.7379 23.4103 9.93169C23.4103 10.1497 23.5622 10.295 23.7648 10.295ZM30.6271 21.1957C30.3233 21.2683 29.9941 21.0988 29.8928 20.7839C29.8168 20.4932 29.9941 20.1783 30.3233 20.0814C30.6271 20.0087 30.9563 20.1783 31.0576 20.4932C31.1336 20.8081 30.931 21.123 30.6271 21.1957ZM34.1216 9.423C34.4508 9.423 34.704 9.68946 34.704 9.98014C34.704 10.2708 34.4255 10.5373 34.1216 10.5373C33.7924 10.5373 33.5392 10.2708 33.5392 9.98014C33.5392 9.68946 33.7924 9.423 34.1216 9.423Z" fill="white"/>
<path d="M39.7684 22.5037C39.7178 22.4068 39.5912 22.3342 39.4646 22.3342H36.983C36.983 22.3342 36.983 22.3342 36.983 22.3099C36.8057 21.6317 36.0714 21.2441 35.3624 21.4137C34.6533 21.5832 34.2482 22.2857 34.4254 22.964C34.6027 23.6422 35.337 24.0298 36.0461 23.8602C36.5019 23.7391 36.8311 23.4 36.9577 23.0124H38.7555C38.2744 23.4484 37.6414 24.1994 36.983 24.1752H35.1091H35.0838H35.0585H31.2855C30.6271 24.1752 29.9687 23.4242 29.5129 22.9882H33.4379C33.6404 22.9882 33.7924 22.8429 33.7924 22.6491C33.7924 22.4553 33.6404 22.3099 33.4379 22.3099H28.8039C28.6773 22.3099 28.5507 22.3826 28.5 22.4795C28.4494 22.5764 28.4494 22.7217 28.5 22.8186C29.0824 23.7634 30.146 24.8292 31.2855 24.8292H35.0585H35.0838H35.1091H36.4765H36.983C38.1225 24.8292 39.2113 23.7634 39.7684 22.8186C39.8444 22.7217 39.8444 22.6006 39.7684 22.5037ZM35.8435 23.182C35.5396 23.2547 35.2104 23.0851 35.1091 22.7702C35.0332 22.4795 35.2104 22.1646 35.5396 22.0677C35.8435 21.995 36.1727 22.1646 36.274 22.4795C36.3499 22.7944 36.1727 23.1093 35.8435 23.182Z" fill="white"/>
<path d="M118.219 4.59708H112.191V35.0303H118.219V4.59708Z" fill="#A3C73A"/>
<path d="M81.7412 26.0376C81.7412 23.3398 80.9968 21.1153 79.3638 19.5771C78.0671 18.3701 76.29 17.6129 73.4564 17.2342L69.8063 16.7136C68.5576 16.5479 67.549 16.0746 66.9486 15.5067C66.3002 14.9151 66.0361 14.0868 66.0361 13.3295C66.0361 11.2233 67.597 9.47209 70.8149 9.47209C72.8561 9.47209 75.1854 9.73241 77.1546 11.5783L80.9728 7.86287C78.3312 5.33071 75.2575 4.31311 71.007 4.31311C64.3311 4.31311 60.2487 8.12318 60.2487 13.5425C60.2487 16.0983 60.9932 18.0625 62.458 19.5297C63.8508 20.855 65.796 21.6596 68.4375 22.0619L72.1597 22.5825C73.6005 22.7955 74.2969 23.1032 74.8972 23.6475C75.5456 24.2391 75.8578 25.1384 75.8578 26.2033C75.8578 28.6408 73.9607 29.966 70.3826 29.966C67.525 29.966 64.8834 29.3271 62.9143 27.4102L59 31.2676C62.0258 34.2967 65.6038 35.2907 70.2866 35.2907C76.7463 35.267 81.7412 31.9539 81.7412 26.0376ZM107.292 9.89806V4.59709H85.1272V9.89806H93.1959V35.0303H99.2234V9.89806H107.292Z" fill="white"/>
<path d="M133.227 24.2391H129.721V35.054H128.425V24.2391H124.918V23.1031H133.227V24.2391Z" fill="white"/>
<path d="M143.985 35.054H142.473L139.711 29.753H136.805V35.054H135.509V23.0795H140.167C141.224 23.0795 142.112 23.3871 142.761 23.9788C143.433 24.5704 143.769 25.3987 143.769 26.4163C143.769 27.2682 143.529 27.9782 143.049 28.5225C142.569 29.0904 141.92 29.4454 141.128 29.611L143.985 35.054ZM141.8 28.0492C142.232 27.6705 142.449 27.1262 142.449 26.4399C142.449 25.73 142.232 25.1857 141.776 24.807C141.344 24.4284 140.744 24.2391 140.023 24.2391H136.781V28.6171H140.023C140.768 28.6171 141.368 28.4278 141.8 28.0492Z" fill="white"/>
<path d="M155.152 35.054H153.759L152.799 32.3562H147.492L146.531 35.054H145.138L149.605 23.0795H150.685L155.152 35.054ZM152.414 31.2439L150.157 24.9254L147.876 31.2439H152.414Z" fill="white"/>
<path d="M165.502 27.2209C165.526 27.6469 165.526 28.2621 165.526 29.0668C165.526 29.8714 165.526 30.4867 165.502 30.9126C165.478 31.3386 165.382 31.8356 165.214 32.4035C165.046 32.9715 164.782 33.4211 164.469 33.7998C163.677 34.6517 162.62 35.054 161.276 35.054H157.121V23.0795H161.276C162.62 23.0795 163.677 23.5055 164.469 24.3337C164.806 24.6887 165.046 25.162 165.214 25.73C165.382 26.2979 165.478 26.7949 165.502 27.2209ZM164.205 30.6996C164.229 30.321 164.229 29.7767 164.229 29.0668C164.229 28.3568 164.229 27.8125 164.205 27.4339C164.181 27.0552 164.109 26.6293 163.989 26.1796C163.869 25.73 163.677 25.3513 163.437 25.1147C162.908 24.5231 162.116 24.2391 161.059 24.2391H158.418V33.9181H161.059C162.116 33.9181 162.908 33.6341 163.437 33.0425C163.677 32.7822 163.869 32.4272 163.989 31.9776C164.109 31.5043 164.181 31.0783 164.205 30.6996Z" fill="white"/>
<path d="M176.116 35.054H168.576V23.0795H176.116V24.2154H169.873V28.4515H175.18V29.5874H169.873V33.8944H176.116V35.054Z" fill="white"/>
<path d="M135.076 19.0091H133.684L132.699 16.264H127.32L126.311 19.0091H124.918L129.457 6.86893H130.562L135.076 19.0091ZM132.291 15.1517L130.009 8.73847L127.704 15.1517H132.291Z" fill="white"/>
<path d="M144.874 14.6074C144.874 15.3173 144.802 15.909 144.634 16.3823C144.49 16.8556 144.202 17.3052 143.817 17.7312C142.953 18.6541 141.848 19.1274 140.528 19.1274C139.279 19.1274 138.246 18.7251 137.454 17.9442C136.901 17.3999 136.565 16.8319 136.445 16.193C136.301 15.554 136.229 14.4891 136.229 12.9745C136.229 11.4599 136.301 10.395 136.445 9.75606C136.589 9.1171 136.925 8.52548 137.454 8.00485C138.27 7.20024 139.279 6.82159 140.528 6.82159C141.68 6.82159 142.617 7.1529 143.409 7.83919C144.178 8.52548 144.658 9.37742 144.826 10.466H143.505C143.337 9.68507 142.977 9.09344 142.449 8.6438C141.92 8.21783 141.272 7.98118 140.503 7.98118C139.639 7.98118 138.919 8.26516 138.366 8.83312C138.006 9.21176 137.766 9.6614 137.646 10.2057C137.55 10.75 137.502 11.6729 137.502 12.9982C137.502 14.3234 137.55 15.2464 137.646 15.7906C137.742 16.3349 137.982 16.7846 138.366 17.1632C138.919 17.7312 139.639 18.0152 140.503 18.0152C141.488 18.0152 142.257 17.6602 142.833 16.9739C143.289 16.4059 143.529 15.6723 143.529 14.7731V13.8264H140.503V12.7142H144.85V14.6074H144.874Z" fill="white"/>
<path d="M156.353 19.0091H154.816L152.006 13.6135H149.052V19.0091H147.732V6.86893H152.462C153.543 6.86893 154.432 7.17657 155.104 7.79186C155.776 8.40716 156.113 9.21177 156.113 10.253C156.113 11.105 155.872 11.8386 155.392 12.4065C154.912 12.9745 154.263 13.3531 153.447 13.5188L156.353 19.0091ZM154.119 11.9096C154.552 11.5309 154.792 10.9866 154.792 10.2767C154.792 9.56674 154.576 8.99878 154.119 8.62014C153.663 8.2415 153.087 8.05218 152.342 8.05218H149.052V12.5012H152.342C153.087 12.4775 153.687 12.2882 154.119 11.9096Z" fill="white"/>
<path d="M166.751 9.73239C166.895 10.3713 166.967 11.4363 166.967 12.9272C166.967 14.4181 166.895 15.483 166.751 16.122C166.607 16.7609 166.27 17.3525 165.718 17.8968C164.902 18.7014 163.893 19.0801 162.668 19.0801C161.42 19.0801 160.387 18.6778 159.595 17.8968C159.042 17.3525 158.706 16.7846 158.586 16.1456C158.442 15.5067 158.37 14.4417 158.37 12.9272C158.37 11.4126 158.442 10.3477 158.586 9.70873C158.73 9.06977 159.066 8.47814 159.595 7.95751C160.411 7.1529 161.42 6.77426 162.668 6.77426C163.893 6.77426 164.926 7.17657 165.718 7.95751C166.27 8.50181 166.607 9.09344 166.751 9.73239ZM165.478 15.7196C165.574 15.1754 165.622 14.2524 165.622 12.9272C165.622 11.6019 165.574 10.679 165.478 10.1347C165.382 9.5904 165.142 9.14077 164.758 8.76213C164.181 8.19416 163.461 7.91018 162.62 7.91018C161.78 7.91018 161.059 8.19416 160.483 8.76213C160.123 9.14077 159.883 9.5904 159.763 10.1347C159.667 10.679 159.619 11.6019 159.619 12.9272C159.619 14.2524 159.667 15.1754 159.763 15.7196C159.859 16.2639 160.099 16.7136 160.483 17.0922C161.059 17.6602 161.78 17.9442 162.62 17.9442C163.461 17.9442 164.181 17.6602 164.758 17.0922C165.142 16.7372 165.382 16.2639 165.478 15.7196Z" fill="white"/>
</svg>
